<?xml version="1.0" encoding="UTF-8"?>
<svg version="1.1" xmlns="http://www.w3.org/2000/svg" width="512" height="512">
<path d="M0 0 C1.1495668 -0.00852997 2.29913361 -0.01705994 3.48353577 -0.02584839 C5.36940147 -0.02448883 5.36940147 -0.02448883 7.29336548 -0.02310181 C8.63396072 -0.02908774 9.97455251 -0.03589344 11.31513977 -0.04345703 C14.95363794 -0.0611178 18.59204202 -0.06581244 22.2305789 -0.0670886 C24.50476909 -0.06851073 26.7789354 -0.07278148 29.05311966 -0.07808304 C36.98982511 -0.09658361 44.9264634 -0.10475362 52.8631897 -0.10317993 C60.25684832 -0.10197853 67.65021501 -0.12308028 75.04379976 -0.15466726 C81.39552792 -0.18083445 87.74716076 -0.19154705 94.0989424 -0.19026911 C97.89084806 -0.1897596 101.68249427 -0.19543641 105.47434616 -0.21662521 C109.04167252 -0.23601533 112.60849214 -0.23612733 116.17583656 -0.22159195 C118.10458967 -0.21850997 120.03334286 -0.23517499 121.96202087 -0.25247192 C133.67874655 -0.1673864 138.41222072 5.02359951 146.36123657 13.01156616 C147.68909431 14.33416695 147.68909431 14.33416695 149.04377747 15.68348694 C151.45842891 18.09086726 153.86852283 20.50263246 156.27635479 22.91682243 C158.80150482 25.44705359 161.33155092 27.97238155 163.86080933 30.49850464 C168.10430081 34.73836396 172.3435721 38.98240857 176.58047485 43.22885132 C181.47667838 48.13595198 186.38006408 53.03578736 191.28721499 57.93193865 C195.50588292 62.14152907 199.72063898 66.35500633 203.93215299 70.57175398 C206.44517555 73.08789188 208.95952355 75.60266526 211.47740936 78.11393738 C214.28166792 80.91134286 217.07770339 83.71687832 219.87295532 86.52328491 C220.70725571 87.35353683 221.54155609 88.18378876 222.40113831 89.03919983 C223.54078789 90.18730888 223.54078789 90.18730888 224.70346069 91.35861206 C225.69560389 92.35188633 225.69560389 92.35188633 226.70779037 93.36522675 C229.98038839 97.13685335 230.60907942 99.94651325 230.62573242 104.90911865 C230.63852737 106.63346886 230.63852737 106.63346886 230.65158081 108.39265442 C230.65067444 109.64989822 230.64976807 110.90714203 230.64883423 112.20248413 C230.65482016 113.54307937 230.66162586 114.88367116 230.66918945 116.22425842 C230.68685022 119.86275659 230.69154486 123.50116067 230.69282103 127.13969755 C230.69424315 129.41388774 230.6985139 131.68805405 230.70381546 133.96223831 C230.72231603 141.89894376 230.73048605 149.83558205 230.72891235 157.77230835 C230.72771095 165.16596697 230.7488127 172.55933366 230.78039968 179.95291841 C230.80656687 186.30464657 230.81727947 192.65627941 230.81600153 199.00806105 C230.81549202 202.79996671 230.82116883 206.59161293 230.84235764 210.38346481 C230.86174775 213.95079117 230.86185975 217.5176108 230.84732437 221.08495522 C230.84424239 223.01370832 230.86090741 224.94246152 230.87820435 226.87113953 C230.79311882 238.5878652 225.60213291 243.32133937 217.61416626 251.27035522 C216.7324324 252.15559372 215.85069855 253.04083221 214.94224548 253.95289612 C212.53486516 256.36754756 210.12309996 258.77764149 207.70890999 261.18547344 C205.17867884 263.71062348 202.65335087 266.24066958 200.12722778 268.76992798 C195.88736846 273.01341946 191.64332385 277.25269076 187.3968811 281.48959351 C182.48978044 286.38579703 177.58994506 291.28918273 172.69379377 296.19633365 C168.48420336 300.41500157 164.27072609 304.62975763 160.05397844 308.84127164 C157.53784055 311.3542942 155.02306717 313.8686422 152.51179504 316.38652802 C149.71438956 319.19078657 146.90885411 321.98682204 144.10244751 324.78207397 C142.85706963 326.03352455 142.85706963 326.03352455 141.58653259 327.31025696 C140.82112656 328.07002335 140.05572052 328.82978973 139.26712036 329.61257935 C138.60493752 330.27400814 137.94275467 330.93543694 137.26050568 331.61690903 C133.48887907 334.88950704 130.67921917 335.51819807 125.71661377 335.53485107 C123.99226357 335.54764603 123.99226357 335.54764603 122.233078 335.56069946 C120.3472123 335.5593399 120.3472123 335.5593399 118.42324829 335.55795288 C117.08265305 335.56393881 115.74206126 335.57074451 114.401474 335.57830811 C110.76297583 335.59596887 107.12457175 335.60066351 103.48603487 335.60193968 C101.21184468 335.6033618 98.93767837 335.60763255 96.66349411 335.61293411 C88.72678866 335.63143468 80.79015037 335.6396047 72.85342407 335.63803101 C65.45976545 335.63682961 58.06639876 335.65793135 50.67281401 335.68951833 C44.32108585 335.71568552 37.96945301 335.72639812 31.61767137 335.72512019 C27.82576571 335.72461068 24.0341195 335.73028749 20.24226761 335.75147629 C16.67494125 335.77086641 13.10812163 335.77097841 9.54077721 335.75644302 C7.6120241 335.75336105 5.68327091 335.77002606 3.7545929 335.787323 C-7.96213278 335.70223748 -12.69560695 330.51125156 -20.6446228 322.52328491 C-21.5298613 321.64155106 -22.41509979 320.7598172 -23.3271637 319.85136414 C-25.74181514 317.44398381 -28.15190906 315.03221861 -30.55974102 312.61802864 C-33.08489105 310.08779749 -35.61493716 307.56246953 -38.14419556 305.03634644 C-42.38768704 300.79648711 -46.62695833 296.5524425 -50.86386108 292.30599976 C-55.76006461 287.39889909 -60.66345031 282.49906371 -65.57060122 277.60291243 C-69.78926915 273.39332201 -74.00402521 269.17984474 -78.21553922 264.9630971 C-80.72856178 262.4469592 -83.24290978 259.93218582 -85.76079559 257.4209137 C-88.56505415 254.62350821 -91.36108962 251.81797276 -94.15634155 249.01156616 C-94.99064194 248.18131424 -95.82494232 247.35106232 -96.68452454 246.49565125 C-97.82417412 245.34754219 -97.82417412 245.34754219 -98.98684692 244.17623901 C-99.64827572 243.51405617 -100.30970451 242.85187332 -100.99117661 242.16962433 C-104.26377462 238.39799772 -104.89246565 235.58833782 -104.90911865 230.62573242 C-104.91764862 229.47616562 -104.92617859 228.32659882 -104.93496704 227.14219666 C-104.93406067 225.88495285 -104.9331543 224.62770905 -104.93222046 223.33236694 C-104.93820639 221.99177171 -104.94501209 220.65117992 -104.95257568 219.31059265 C-104.97023645 215.67209449 -104.97493109 212.03369041 -104.97620726 208.39515352 C-104.97762938 206.12096333 -104.98190013 203.84679702 -104.98720169 201.57261276 C-105.00570226 193.63590731 -105.01387228 185.69926902 -105.01229858 177.76254272 C-105.01109718 170.36888411 -105.03219893 162.97551741 -105.06378591 155.58193266 C-105.0899531 149.2302045 -105.1006657 142.87857166 -105.09938776 136.52679002 C-105.09887825 132.73488436 -105.10455506 128.94323815 -105.12574387 125.15138626 C-105.14513398 121.5840599 -105.14524598 118.01724028 -105.1307106 114.44989586 C-105.12762863 112.52114275 -105.14429364 110.59238956 -105.16159058 108.66371155 C-105.07650506 96.94698587 -99.88551914 92.2135117 -91.89755249 84.26449585 C-90.57495171 82.93663811 -90.57495171 82.93663811 -89.22563171 81.58195496 C-86.81825139 79.16730351 -84.40648619 76.75720959 -81.99229622 74.34937763 C-79.46206507 71.8242276 -76.9367371 69.2941815 -74.41061401 66.7649231 C-70.17075469 62.52143161 -65.92671008 58.28216032 -61.68026733 54.04525757 C-56.77316667 49.14905404 -51.87333129 44.24566834 -46.97718 39.33851743 C-42.76758959 35.11984951 -38.55411232 30.90509344 -34.33736467 26.69357944 C-31.82122678 24.18055688 -29.3064534 21.66620887 -26.79518127 19.14832306 C-23.99777579 16.3440645 -21.19224034 13.54802904 -18.38583374 10.7527771 C-17.55558182 9.91847672 -16.7253299 9.08417633 -15.86991882 8.22459412 C-15.10451279 7.46482773 -14.33910675 6.70506134 -13.55050659 5.92227173 C-12.88832375 5.26084293 -12.2261409 4.59941414 -11.54389191 3.91794205 C-7.7722653 0.64534403 -4.9626054 0.01665301 0 0 Z M-9.64169312 92.26742554 C-10.30684937 92.85008179 -10.97200562 93.43273804 -11.65731812 94.03305054 C-29.78330377 110.80382231 -40.74618285 137.64433896 -41.89559937 161.97445679 C-42.65516504 186.38841198 -36.5964214 209.65000631 -21.64169312 229.26742554 C-20.94302124 230.19812866 -20.24434937 231.12883179 -19.52450562 232.08773804 C-2.14651799 254.2895087 22.44202762 268.05255584 50.32705688 271.85336304 C77.28731162 274.93621097 105.11759272 267.4674501 126.48721313 250.63851929 C127.43467407 249.85605835 128.38213501 249.07359741 129.35830688 248.26742554 C130.29545532 247.4952771 131.23260376 246.72312866 132.19815063 245.92758179 C142.54126002 236.97709302 150.34306873 226.55155647 156.35830688 214.26742554 C156.78627563 213.45531616 157.21424438 212.64320679 157.65518188 211.80648804 C169.67754757 187.68754453 170.04774765 159.91800876 162.10830688 134.57992554 C157.678063 122.13304986 151.74010552 111.47073559 143.35830688 101.26742554 C142.67123657 100.41535522 141.98416626 99.56328491 141.27627563 98.68539429 C124.40345227 78.80739274 99.2956939 65.80252919 73.35830688 63.26742554 C41.76717863 60.91719846 13.64348081 71.04060953 -9.64169312 92.26742554 Z " fill="#2060df" transform="translate(104.64169311523438,-0.267425537109375)"/>
<path d="M0 0 C1.25926048 -0.01007584 1.25926048 -0.01007584 2.54396057 -0.02035522 C5.31794155 -0.03934588 8.09168072 -0.04325995 10.86572266 -0.04541016 C12.79619445 -0.05183733 14.72666527 -0.05856564 16.65713501 -0.06558228 C20.70390074 -0.0775577 24.75058108 -0.08126282 28.79736328 -0.08007812 C33.97815875 -0.07987492 39.15840577 -0.10717748 44.33907127 -0.14162254 C48.3265534 -0.16388022 52.3139033 -0.16791601 56.30144119 -0.16685867 C58.21118688 -0.16921632 60.12093612 -0.17804905 62.03062057 -0.19352341 C64.70439609 -0.21316053 67.37698588 -0.20735454 70.05078125 -0.1953125 C71.22926888 -0.21217102 71.22926888 -0.21217102 72.43156433 -0.22937012 C80.50867066 -0.13711855 84.94586164 4.27819438 90.44482422 9.82177734 C90.98868774 10.36213623 91.53255127 10.90249512 92.09289551 11.45922852 C93.87376839 13.23136023 95.64729748 15.01063371 97.42041016 16.79052734 C98.66228534 18.03105408 99.90445718 19.2712839 101.14691162 20.51123047 C103.74231772 23.10369596 106.33409183 25.69972433 108.92333984 28.29833984 C112.24099321 31.62741089 115.5675769 34.94739048 118.89691544 38.26477051 C121.46042902 40.82105713 124.01916014 43.382088 126.57646942 45.94458008 C127.8014017 47.1708453 129.02781804 48.39562994 130.25574493 49.61889648 C131.96949252 51.32756258 133.67669437 53.04251297 135.38232422 54.75927734 C135.88934875 55.26225342 136.39637329 55.76522949 136.91876221 56.28344727 C142.23905496 61.66822842 142.95281716 65.18610394 142.92944336 72.65161133 C142.93455429 73.49272461 142.93966522 74.33383789 142.94493103 75.20043945 C142.95882447 77.97923916 142.95787047 80.75779079 142.95556641 83.53662109 C142.95945342 85.46948845 142.9637881 87.40235495 142.96855164 89.33522034 C142.97601327 93.38618743 142.97572293 97.43706737 142.97045898 101.48803711 C142.96466388 106.67781163 142.98159666 111.86722933 143.00480366 117.05694485 C143.01953927 121.0486713 143.02041294 125.04031179 143.01729393 129.03206062 C143.01780721 130.94541188 143.0230462 132.85876794 143.03310585 134.77209282 C143.04544981 137.4483137 143.03869095 140.12383899 143.02709961 142.80004883 C143.03474335 143.58930252 143.04238708 144.37855621 143.05026245 145.19172668 C142.9741984 153.14181252 139.44486244 156.80079053 134.03759766 162.16650391 C133.19560822 163.01375031 133.19560822 163.01375031 132.33660889 163.87811279 C130.48931634 165.73417164 128.63484767 167.5828617 126.77978516 169.43115234 C125.49059271 170.72169253 124.20169724 172.01252944 122.91308594 173.3036499 C120.21629325 176.00338662 117.51592736 178.6994838 114.81298828 181.39306641 C111.34590805 184.84872969 107.887914 188.31332446 104.43252563 191.78067398 C101.77504888 194.44536923 99.1128376 197.10529311 96.44915771 199.76378632 C95.17182522 201.03978347 93.89597998 202.31727122 92.62164307 203.59626007 C90.84320829 205.3797623 89.05850883 207.15674696 87.27197266 208.93212891 C86.74512878 209.46302124 86.21828491 209.99391357 85.67547607 210.54089355 C80.80248985 215.35754235 77.00547713 215.44521826 70.4230957 215.4675293 C69.58373474 215.47410049 68.74437378 215.48067169 67.87957764 215.48744202 C65.10021882 215.50716221 62.32091398 215.51883434 59.54150391 215.52880859 C58.59191111 215.53288412 57.64231831 215.53695965 56.66394997 215.54115868 C51.63851769 215.56201327 46.61311267 215.57631803 41.58764648 215.58569336 C36.39900805 215.59676067 31.21079812 215.63116607 26.02231121 215.67086506 C22.03055527 215.69701642 18.03890171 215.70538385 14.04706764 215.70897484 C12.13452063 215.71384408 10.22197829 215.72546766 8.309515 215.74401283 C5.63088421 215.7683744 2.95336598 215.7674449 0.2746582 215.76049805 C-0.90618599 215.77971313 -0.90618599 215.77971313 -2.11088562 215.79931641 C-10.1979178 215.72301321 -14.63038518 211.30881438 -20.13525391 205.75927734 C-20.67911743 205.21891846 -21.22298096 204.67855957 -21.7833252 204.12182617 C-23.56419808 202.34969446 -25.33772717 200.57042098 -27.11083984 198.79052734 C-28.35271502 197.55000061 -29.59488687 196.30977079 -30.83734131 195.06982422 C-33.43274741 192.47735873 -36.02452152 189.88133036 -38.61376953 187.28271484 C-41.93142289 183.9536438 -45.25800659 180.6336642 -48.58734512 177.31628418 C-51.15085871 174.75999755 -53.70958983 172.19896669 -56.26689911 169.63647461 C-57.49183139 168.41020939 -58.71824773 167.18542475 -59.94617462 165.9621582 C-61.65992221 164.2534921 -63.36712406 162.53854172 -65.07275391 160.82177734 C-65.57977844 160.31880127 -66.08680298 159.8158252 -66.60919189 159.29760742 C-71.92136779 153.92104152 -72.64429746 150.3993752 -72.63574219 142.9453125 C-72.64245941 142.10580551 -72.64917664 141.26629852 -72.65609741 140.40135193 C-72.67508807 137.62737095 -72.67900214 134.85363178 -72.68115234 132.07958984 C-72.68757952 130.14911805 -72.69430782 128.21864723 -72.70132446 126.28817749 C-72.71329989 122.24141176 -72.71700501 118.19473142 -72.71582031 114.14794922 C-72.71561711 108.96715375 -72.74291966 103.78690673 -72.77736473 98.60624123 C-72.79962241 94.6187591 -72.8036582 90.6314092 -72.80260086 86.64387131 C-72.80495851 84.73412562 -72.81379124 82.82437638 -72.82926559 80.91469193 C-72.84890272 78.24091641 -72.84309672 75.56832662 -72.83105469 72.89453125 C-72.8422937 72.10887283 -72.85353271 71.32321442 -72.8651123 70.51374817 C-72.77286074 62.43664184 -68.35754781 57.99945086 -62.81396484 52.50048828 C-62.27360596 51.95662476 -61.73324707 51.41276123 -61.17651367 50.85241699 C-59.40438196 49.07154411 -57.62510848 47.29801502 -55.84521484 45.52490234 C-54.60468811 44.28302716 -53.36445829 43.04085532 -52.12451172 41.79840088 C-49.53204623 39.20299478 -46.93601786 36.61122067 -44.33740234 34.02197266 C-41.0083313 30.70431929 -37.6883517 27.3777356 -34.37097168 24.04839706 C-31.81468505 21.48488348 -29.25365419 18.92615236 -26.69116211 16.36884308 C-25.46489689 15.1439108 -24.24011225 13.91749446 -23.0168457 12.68956757 C-21.3081796 10.97581998 -19.59322922 9.26861813 -17.87646484 7.56298828 C-17.12200073 6.80245148 -17.12200073 6.80245148 -16.35229492 6.02655029 C-10.97572902 0.7143744 -7.4540627 -0.00855527 0 0 Z M0.65478516 79.29052734 C-6.51765016 89.11942019 -10.37273764 100.07234714 -9.34521484 112.29052734 C-7.11662665 125.45148122 -1.33493389 135.94791961 9.19384766 144.30615234 C19.71722668 151.52391663 31.08040947 153.68889011 43.62353516 151.85693359 C55.43569294 149.40621529 65.18587442 142.711697 72.30712891 133.04833984 C79.64949328 121.81039339 81.29168039 109.30127706 78.59228516 96.29052734 C75.29332519 84.48452711 67.49592462 74.81383629 56.88525391 68.69287109 C36.89624192 59.10373667 15.8711017 62.87066034 0.65478516 79.29052734 Z " fill="#2060df" transform="translate(369.34521484375,296.70947265625)"/>
<path d="M0 0 C1.52259223 1.32871376 3.02335709 2.68290112 4.5 4.0625 C5.27730469 4.76117188 6.05460937 5.45984375 6.85546875 6.1796875 C20.44075674 18.96851807 28.54393719 37.18867042 29.73828125 55.76953125 C30.29626819 76.17840183 24.43000801 95.73054257 10.5 111.0625 C9.84644531 111.80757813 9.19289062 112.55265625 8.51953125 113.3203125 C-4.25618809 127.05013839 -23.01012925 135.32141037 -41.67578125 136.34765625 C-61.56586095 136.97923057 -80.55410417 130.96000778 -95.625 117.75 C-97.26577938 116.20407818 -98.89145913 114.64193898 -100.5 113.0625 C-101.20125 112.38574219 -101.9025 111.70898438 -102.625 111.01171875 C-116.94285831 96.16253366 -122.08656875 75.98526963 -121.78515625 55.84765625 C-121.49447531 48.61568971 -119.67311595 41.93015214 -117.5 35.0625 C-117.22285156 34.15113281 -116.94570312 33.23976562 -116.66015625 32.30078125 C-110.57730307 14.89316916 -95.64444153 0.36696804 -79.5 -7.9375 C-74.91101805 -9.94487285 -70.3099164 -11.54822803 -65.5 -12.9375 C-64.6853125 -13.18242188 -63.870625 -13.42734375 -63.03125 -13.6796875 C-41.69258946 -19.01435263 -17.24854411 -13.37096442 0 0 Z M-79.94140625 31.1328125 C-88.15868185 41.30658229 -91.8024203 53.00160906 -90.5 66.0625 C-88.66927488 78.59719451 -82.78665463 87.96862301 -73.17578125 96.12109375 C-64.04628658 102.74497528 -52.77334072 106.21320782 -41.5 105.0625 C-28.69976691 102.8691535 -17.50935031 97.29753561 -9.70703125 86.60546875 C-2.53230682 75.07276355 0.31917556 63.41417791 -2.6875 50.0625 C-6.21666092 37.17125942 -14.09817471 27.33796506 -25.578125 20.50390625 C-44.27272784 11.28156875 -65.91094109 15.99202276 -79.94140625 31.1328125 Z " fill="#2060df" transform="translate(213.5,106.9375)"/>
</svg>
