<?xml version="1.0" encoding="UTF-8"?>
<svg version="1.1" xmlns="http://www.w3.org/2000/svg" width="512" height="512">
<path d="M0 0 C4.10789542 2.70747653 6.51443627 5.76533586 9 10 C9 10.66 9 11.32 9 12 C148.92 11.67 288.84 11.34 433 11 C434.32 8.69 435.64 6.38 437 4 C439.21875 2.0390625 439.21875 2.0390625 441.5 0.625 C442.2528125 0.14289063 443.005625 -0.33921875 443.78125 -0.8359375 C448.89028144 -3.51638005 454.3438675 -3.69688739 460 -3 C467.38465423 -0.68282111 472.19432213 3.28740214 476 10 C476.9696131 12.90883931 477.12790778 14.75621021 477.13422108 17.78213024 C477.13867892 18.77245414 477.14313676 19.76277804 477.14772969 20.78311175 C477.14745315 22.4193625 477.14745315 22.4193625 477.14717102 24.08866882 C477.15084771 25.24531644 477.1545244 26.40196406 477.1583125 27.59366161 C477.16744046 30.80949201 477.17204928 34.02529243 477.17470181 37.24113357 C477.17860489 40.70753197 477.18818324 44.1739156 477.19691467 47.64030457 C477.2166792 56.01439297 477.22674537 64.38848258 477.23564246 72.76258847 C477.24002546 76.70599761 477.24539225 80.64940541 477.25063133 84.59281349 C477.26764376 97.70150696 477.2821379 110.81019959 477.28938007 123.9189024 C477.29128997 127.32085356 477.2932103 130.72280472 477.29516602 134.12475586 C477.29564976 134.97029547 477.2961335 135.81583507 477.2966319 136.68699709 C477.3049321 150.38401323 477.33026877 164.08094203 477.36274669 177.77792003 C477.39581836 191.83992971 477.41382894 205.901895 477.41702431 219.96394378 C477.41918934 227.85942202 477.42793677 235.7547729 477.45348549 243.65021324 C477.47519399 250.37443433 477.48324223 257.09849713 477.47351871 263.82274928 C477.46897435 267.2526613 477.47086757 270.68224674 477.49028015 274.11211395 C477.50793007 277.83382333 477.50092563 281.55470349 477.48774719 285.27641296 C477.49871644 286.35609319 477.50968568 287.43577341 477.52098733 288.54817122 C477.45803898 295.9087138 476.36118413 301.53858175 471.03515625 307.0234375 C463.90686744 311.90737399 458.75704113 313.86769462 450 313 C444.90781338 311.78883756 440.72960349 309.72960349 437 306 C435.02 302.535 435.02 302.535 433 299 C293.08 298.67 153.16 298.34 9 298 C8.34 299.65 7.68 301.3 7 303 C3.77586453 307.89590941 -0.27599488 310.86922921 -5.9296875 312.5859375 C-13.23595079 314.04719016 -19.19389475 313.23564856 -25.73046875 309.6328125 C-30.23380946 306.39288751 -33.25307341 302.24077977 -35 297 C-35.09386503 295.40809377 -35.13089395 293.81253745 -35.13422108 292.21786976 C-35.13867892 291.22754586 -35.14313676 290.23722196 -35.14772969 289.21688825 C-35.14754533 288.12605442 -35.14736097 287.03522058 -35.14717102 285.91133118 C-35.15084771 284.75468356 -35.1545244 283.59803594 -35.1583125 282.40633839 C-35.16744046 279.19050799 -35.17204928 275.97470757 -35.17470181 272.75886643 C-35.17860489 269.29246803 -35.18818324 265.8260844 -35.19691467 262.35969543 C-35.2166792 253.98560703 -35.22674537 245.61151742 -35.23564246 237.23741153 C-35.24002546 233.29400239 -35.24539225 229.35059459 -35.25063133 225.40718651 C-35.26764376 212.29849304 -35.2821379 199.18980041 -35.28938007 186.0810976 C-35.29128997 182.67914644 -35.2932103 179.27719528 -35.29516602 175.87524414 C-35.29564976 175.02970453 -35.2961335 174.18416493 -35.2966319 173.31300291 C-35.3049321 159.61598677 -35.33026877 145.91905797 -35.36274669 132.22207997 C-35.39581836 118.16007029 -35.41382894 104.098105 -35.41702431 90.03605622 C-35.41918934 82.14057798 -35.42793677 74.2452271 -35.45348549 66.34978676 C-35.47519399 59.62556567 -35.48324223 52.90150287 -35.47351871 46.17725072 C-35.46897435 42.7473387 -35.47086757 39.31775326 -35.49028015 35.88788605 C-35.50793007 32.16617667 -35.50092563 28.44529651 -35.48774719 24.72358704 C-35.49871644 23.64390681 -35.50968568 22.56422659 -35.52098733 21.45182878 C-35.45803898 14.0912862 -34.36118413 8.46141825 -29.03515625 2.9765625 C-19.62715919 -3.46931271 -10.58933354 -5.51971972 0 0 Z M-19 17 C-19.95068108 19.85204324 -20.12690952 21.61198575 -20.13142776 24.56907368 C-20.13526891 25.51186343 -20.13911005 26.45465319 -20.1430676 27.42601234 C-20.14220112 28.46373713 -20.14133463 29.50146193 -20.14044189 30.57063293 C-20.14341302 31.67152195 -20.14638414 32.77241097 -20.1494453 33.90666026 C-20.15815269 37.61462029 -20.15964226 41.32254812 -20.16113281 45.03051758 C-20.16575952 47.68129124 -20.17076321 50.33206193 -20.17617798 52.98283386 C-20.18976412 60.19770333 -20.19578643 67.41256724 -20.20018864 74.62744737 C-20.20295052 79.13168026 -20.20718777 83.635911 -20.21169281 88.14014244 C-20.22388573 100.60889584 -20.23418507 113.07764751 -20.2375679 125.54640675 C-20.23778747 126.34454705 -20.23800703 127.14268735 -20.23823325 127.96501372 C-20.23845153 128.76507262 -20.23866981 129.56513153 -20.2388947 130.38943464 C-20.23933817 132.01068103 -20.23978473 133.63192743 -20.24023438 135.25317383 C-20.2404558 136.05736945 -20.24067723 136.86156507 -20.24090537 137.69013026 C-20.24485381 150.72242931 -20.2623091 163.75467246 -20.2855939 176.78694991 C-20.30930226 190.16416289 -20.32176951 203.54134781 -20.32293582 216.91858214 C-20.32385286 224.43055782 -20.32961244 231.94246065 -20.34775543 239.45441628 C-20.36314946 245.85076262 -20.36828103 252.24701361 -20.36001733 258.64337496 C-20.35610833 261.90692616 -20.35868177 265.17024498 -20.37107468 268.43378067 C-20.38372503 271.97215896 -20.3779546 275.51004174 -20.36749268 279.04841614 C-20.37554908 280.07944877 -20.38360548 281.1104814 -20.39190602 282.17275745 C-20.35517937 287.4707333 -20.17774266 291.51883044 -17 296 C-13.60030189 297.3309316 -13.60030189 297.3309316 -10 297 C-7.05427395 294.82946501 -6.15939059 293.47817177 -5 290 C-4.90613955 288.5987069 -4.86633784 287.19340747 -4.8613348 285.78898335 C-4.85586036 284.92609489 -4.85038591 284.06320643 -4.84474558 283.17416984 C-4.84376747 282.22573508 -4.84278936 281.27730033 -4.84178162 280.30012512 C-4.83684364 279.29300797 -4.83190566 278.28589081 -4.82681805 277.24825495 C-4.81140338 273.85796921 -4.80307168 270.46770245 -4.79467773 267.07739258 C-4.78510233 264.65333386 -4.77509245 262.22927682 -4.76467896 259.80522156 C-4.74320627 254.57835918 -4.72476908 249.35149535 -4.70907402 244.12461281 C-4.68637629 236.56738743 -4.65823333 229.01019008 -4.62875474 221.45298847 C-4.58107765 209.19238554 -4.53781378 196.93177116 -4.49731445 184.67114258 C-4.45796013 172.7600007 -4.41653405 160.848869 -4.37231445 148.93774414 C-4.36959018 148.2037314 -4.36686591 147.46971866 -4.36405908 146.71346311 C-4.35037961 143.03119335 -4.33665934 139.34892375 -4.32291877 135.66665423 C-4.20895215 105.1111239 -4.10221655 74.55557203 -4 44 C-0.44646071 42.8154869 2.27013478 42.73358106 6 43 C8.02102593 44.50523976 8.87855537 45.39572584 9.37900752 47.8858344 C9.38090612 48.60160722 9.38280472 49.31738004 9.38476086 50.05484295 C9.39421797 50.88315687 9.40367508 51.71147079 9.41341877 52.56488514 C9.40857062 53.47415099 9.40372248 54.38341684 9.39872742 55.32023621 C9.40536911 56.28418304 9.4120108 57.24812988 9.41885376 58.24128723 C9.43760621 61.4958428 9.43484965 64.7500348 9.43237305 68.00463867 C9.44147225 70.36791406 9.4518837 72.73118471 9.46350574 75.09444904 C9.49106266 81.43834772 9.50059629 87.78215534 9.50647736 94.12610626 C9.51469795 100.07325589 9.53906472 106.02029584 9.56213379 111.96740723 C9.62019902 129.37405813 9.65225058 146.78078794 9.6875 164.1875 C9.790625 203.065625 9.89375 241.94375 10 282 C149.26 282 288.52 282 432 282 C432 198.18 432 114.36 432 28 C400.86140625 27.96261719 369.7228125 27.92523438 337.640625 27.88671875 C317.97134987 27.85646044 298.30208007 27.82546805 278.6328125 27.79101562 C268.30501341 27.77296449 257.97721402 27.75510037 247.64941406 27.73754883 C246.35492914 27.73534114 245.06044423 27.73313345 243.72673249 27.73085886 C222.80738625 27.69545468 201.88804005 27.67061563 180.96867493 27.64965298 C159.51195611 27.62791768 138.05527628 27.59488896 116.59859061 27.55129844 C103.35053111 27.52474253 90.10252023 27.5070762 76.85443541 27.50065396 C67.77914415 27.49541211 58.70391417 27.47923579 49.6286557 27.45433434 C44.38674051 27.440278 39.14493511 27.43116389 33.90299988 27.43499184 C29.10886725 27.43838676 24.31496964 27.42812616 19.5208852 27.40676448 C17.78193723 27.40146948 16.04296501 27.40128985 14.3040171 27.40660437 C11.94869247 27.41307219 9.59415424 27.40128604 7.23889542 27.38476086 C5.92810084 27.38286225 4.61730626 27.38096365 3.26679063 27.37900752 C-0.18810593 26.97817627 -1.57349804 26.43633301 -4 24 C-4.94140625 21.80859375 -4.94140625 21.80859375 -5.5625 19.4375 C-6.58579376 15.493053 -6.58579376 15.493053 -10 13 C-14.51494032 12.3053938 -16.19732022 13.49665028 -19 17 Z M449.625 14.75 C447.24638836 18.04346227 446.87460651 20.61977547 446.86857224 24.56907368 C446.86473109 25.51186343 446.86088995 26.45465319 446.8569324 27.42601234 C446.85779888 28.46373713 446.85866537 29.50146193 446.85955811 30.57063293 C446.85658698 31.67152195 446.85361586 32.77241097 446.8505547 33.90666026 C446.84184731 37.61462029 446.84035774 41.32254812 446.83886719 45.03051758 C446.83424048 47.68129124 446.82923679 50.33206193 446.82382202 52.98283386 C446.81023588 60.19770333 446.80421357 67.41256724 446.79981136 74.62744737 C446.79704948 79.13168026 446.79281223 83.635911 446.78830719 88.14014244 C446.77611427 100.60889584 446.76581493 113.07764751 446.7624321 125.54640675 C446.76221253 126.34454705 446.76199297 127.14268735 446.76176675 127.96501372 C446.76154847 128.76507262 446.76133019 129.56513153 446.7611053 130.38943464 C446.76066183 132.01068103 446.76021527 133.63192743 446.75976562 135.25317383 C446.7595442 136.05736945 446.75932277 136.86156507 446.75909463 137.69013026 C446.75514619 150.72242931 446.7376909 163.75467246 446.7144061 176.78694991 C446.69069774 190.16416289 446.67823049 203.54134781 446.67706418 216.91858214 C446.67614714 224.43055782 446.67038756 231.94246065 446.65224457 239.45441628 C446.63685054 245.85076262 446.63171897 252.24701361 446.63998267 258.64337496 C446.64389167 261.90692616 446.64131823 265.17024498 446.62892532 268.43378067 C446.61627497 271.97215896 446.6220454 275.51004174 446.63250732 279.04841614 C446.62445092 280.07944877 446.61639452 281.1104814 446.60809398 282.17275745 C446.64482063 287.4707333 446.82225734 291.51883044 450 296 C453.39969811 297.3309316 453.39969811 297.3309316 457 297 C459.94572605 294.82946501 460.84060941 293.47817177 462 290 C462.09258059 288.47916079 462.12909972 286.95457905 462.13142776 285.43092632 C462.13718948 284.01674169 462.13718948 284.01674169 462.1430676 282.57398766 C462.14220112 281.53626287 462.14133463 280.49853807 462.14044189 279.42936707 C462.14341302 278.32847805 462.14638414 277.22758903 462.1494453 276.09333974 C462.15815269 272.38537971 462.15964226 268.67745188 462.16113281 264.96948242 C462.16575952 262.31870876 462.17076321 259.66793807 462.17617798 257.01716614 C462.18976412 249.80229667 462.19578643 242.58743276 462.20018864 235.37255263 C462.20295052 230.86831974 462.20718777 226.364089 462.21169281 221.85985756 C462.22388573 209.39110416 462.23418507 196.92235249 462.2375679 184.45359325 C462.23778747 183.65545295 462.23800703 182.85731265 462.23823325 182.03498628 C462.23845153 181.23492738 462.23866981 180.43486847 462.2388947 179.61056536 C462.23933817 177.98931897 462.23978473 176.36807257 462.24023438 174.74682617 C462.2404558 173.94263055 462.24067723 173.13843493 462.24090537 172.30986974 C462.24485381 159.27757069 462.2623091 146.24532754 462.2855939 133.21305009 C462.30930226 119.83583711 462.32176951 106.45865219 462.32293582 93.08141786 C462.32385286 85.56944218 462.32961244 78.05753935 462.34775543 70.54558372 C462.36314946 64.14923738 462.36828103 57.75298639 462.36001733 51.35662504 C462.35610833 48.09307384 462.35868177 44.82975502 462.37107468 41.56621933 C462.38372503 38.02784104 462.3779546 34.48995826 462.36749268 30.95158386 C462.37554908 29.92055123 462.38360548 28.8895186 462.39190602 27.82724255 C462.35517937 22.5292667 462.17774266 18.48116956 459 14 C454.98568626 12.68622459 453.10194244 12.18804242 449.625 14.75 Z " fill="#2060df" transform="translate(35,101)"/>
<path d="M0 0 C1.12780475 -0.00779995 2.25560949 -0.01559991 3.41759014 -0.02363622 C7.20491173 -0.04361444 10.99123502 -0.02776756 14.77856445 -0.01205444 C17.49038777 -0.01607687 20.20216841 -0.02754832 22.91397095 -0.03860474 C29.51980791 -0.06084503 36.12536092 -0.05603259 42.73120904 -0.04154153 C48.09958747 -0.03025233 53.4678863 -0.02871699 58.83627319 -0.03416061 C59.98209115 -0.03530986 59.98209115 -0.03530986 61.15105695 -0.03648233 C62.70283264 -0.03808094 64.25460832 -0.03970201 65.80638397 -0.04134528 C80.35948556 -0.05560509 94.91242971 -0.03920648 109.46550548 -0.01234345 C121.95437743 0.00999559 134.44301701 0.00611552 146.93188477 -0.01693726 C161.43268186 -0.04369123 175.93334095 -0.05423177 190.43415928 -0.03887594 C191.98024557 -0.03728318 193.52633188 -0.03571133 195.07241821 -0.03416061 C195.83313415 -0.03338924 196.59385008 -0.03261786 197.37761801 -0.03182311 C202.73992803 -0.02750488 208.10215055 -0.03479526 213.46444702 -0.04655838 C219.998832 -0.06057749 226.53291664 -0.05679616 233.06726718 -0.03015466 C236.40179504 -0.01700766 239.73540702 -0.01456567 243.06999588 -0.02840042 C246.68339802 -0.04201237 250.29538037 -0.02498984 253.90869141 0 C254.96461833 -0.01115361 256.02054525 -0.02230722 257.10846996 -0.03379881 C261.6315197 0.02710744 264.22399309 0.17322655 268.10501671 2.62661171 C270.60020958 6.68554604 270.65275557 9.72084915 270.58926392 14.40274048 C270.59706387 15.28553208 270.60486382 16.16832369 270.61290014 17.07786655 C270.63284471 20.03611031 270.61704588 22.99307115 270.60131836 25.95132446 C270.60809337 28.07200878 270.61699584 30.19268722 270.62786865 32.31335449 C270.65068215 38.07368745 270.64181694 43.83357315 270.62597322 49.59391403 C270.61332499 55.61874355 270.62505135 61.64353447 270.63290405 67.66836548 C270.64200372 77.78651819 270.63000424 87.9044885 270.60620117 98.02261353 C270.57898946 109.72490208 270.58780338 121.42675509 270.6153332 133.12903309 C270.63801409 143.17162972 270.64122929 153.21409514 270.62813985 163.2567091 C270.6203398 169.25680367 270.61931918 175.25669344 270.6358223 181.2567749 C270.65025278 186.89743591 270.64027076 192.53753472 270.61135101 198.17813492 C270.60473267 200.24977815 270.60665057 202.32146859 270.61766434 204.39309311 C270.63130159 207.21840206 270.61422606 210.04190266 270.58926392 212.86709595 C270.60041752 213.68956597 270.61157113 214.512036 270.62306273 215.35942936 C270.55614728 219.25611917 270.18582691 221.25836735 268.10501671 224.64322472 C263.43284315 227.59673452 259.33490163 227.32715273 253.90869141 227.26983643 C252.21698429 227.28153636 252.21698429 227.28153636 250.49110126 227.29347265 C246.70377968 227.31345087 242.91745639 227.29760398 239.13012695 227.28189087 C236.41830363 227.2859133 233.70652299 227.29738475 230.99472046 227.30844116 C224.3888835 227.33068145 217.78333048 227.32586902 211.17748237 227.31137796 C205.80910393 227.30008876 200.44080511 227.29855341 195.07241821 227.30399704 C193.92660026 227.30514629 193.92660026 227.30514629 192.75763446 227.30631875 C191.20585876 227.30791737 189.65408309 227.30953844 188.10230744 227.31118171 C173.54920585 227.32544152 158.9962617 227.3090429 144.44318593 227.28217988 C131.95431398 227.25984084 119.46567439 227.26372091 106.97680664 227.28677368 C92.47600954 227.31352765 77.97535046 227.3240682 63.47453213 227.30871236 C61.92844584 227.30711961 60.38235953 227.30554775 58.83627319 227.30399704 C57.69519929 227.30283997 57.69519929 227.30283997 56.53107339 227.30165953 C51.16876337 227.29734131 45.80654085 227.30463169 40.44424438 227.31639481 C33.90985941 227.33041392 27.37577477 227.32663259 20.84142423 227.29999109 C17.50689637 227.28684408 14.17328438 227.28440209 10.83869553 227.29823685 C7.22529339 227.3118488 3.61331104 227.29482626 0 227.26983643 C-1.05592692 227.28099003 -2.11185385 227.29214364 -3.19977856 227.30363524 C-7.7228283 227.24272898 -10.31530169 227.09660988 -14.1963253 224.64322472 C-16.69151817 220.58429039 -16.74406416 217.54898727 -16.68057251 212.86709595 C-16.68837246 211.98430434 -16.69617242 211.10151274 -16.70420873 210.19196987 C-16.7241533 207.23372611 -16.70835448 204.27676528 -16.69262695 201.31851196 C-16.69940196 199.19782764 -16.70830444 197.0771492 -16.71917725 194.95648193 C-16.74199074 189.19614897 -16.73312553 183.43626327 -16.71728182 177.67592239 C-16.70463358 171.65109287 -16.71635994 165.62630195 -16.72421265 159.60147095 C-16.73331232 149.48331823 -16.72131284 139.36534793 -16.69750977 129.2472229 C-16.67029805 117.54493435 -16.67911198 105.84308133 -16.70664179 94.14080334 C-16.72932268 84.09820671 -16.73253789 74.05574129 -16.71944845 64.01312733 C-16.71164839 58.01303276 -16.71062777 52.01314298 -16.72713089 46.01306152 C-16.74156137 40.37240052 -16.73157936 34.7323017 -16.70265961 29.09170151 C-16.69604127 27.02005828 -16.69795916 24.94836784 -16.70897293 22.87674332 C-16.72261019 20.05143436 -16.70553466 17.22793376 -16.68057251 14.40274048 C-16.69172612 13.58027045 -16.70287973 12.75780043 -16.71437132 11.91040707 C-16.64745587 8.01371725 -16.2771355 6.01146907 -14.1963253 2.62661171 C-9.52415174 -0.32689809 -5.42621023 -0.0573163 0 0 Z M-0.0456543 16.63491821 C-0.0456543 31.15491821 -0.0456543 45.67491821 -0.0456543 60.63491821 C83.7743457 60.63491821 167.5943457 60.63491821 253.9543457 60.63491821 C253.9543457 46.11491821 253.9543457 31.59491821 253.9543457 16.63491821 C170.1343457 16.63491821 86.3143457 16.63491821 -0.0456543 16.63491821 Z M-0.0456543 76.63491821 C-0.0456543 101.05491821 -0.0456543 125.47491821 -0.0456543 150.63491821 C14.4743457 150.63491821 28.9943457 150.63491821 43.9543457 150.63491821 C43.9543457 126.21491821 43.9543457 101.79491821 43.9543457 76.63491821 C29.4343457 76.63491821 14.9143457 76.63491821 -0.0456543 76.63491821 Z M59.9543457 76.63491821 C59.9543457 101.05491821 59.9543457 125.47491821 59.9543457 150.63491821 C64.5743457 150.63491821 69.1943457 150.63491821 73.9543457 150.63491821 C73.9543457 126.21491821 73.9543457 101.79491821 73.9543457 76.63491821 C69.3343457 76.63491821 64.7143457 76.63491821 59.9543457 76.63491821 Z M89.9543457 76.63491821 C89.9543457 101.05491821 89.9543457 125.47491821 89.9543457 150.63491821 C94.5743457 150.63491821 99.1943457 150.63491821 103.9543457 150.63491821 C103.9543457 126.21491821 103.9543457 101.79491821 103.9543457 76.63491821 C99.3343457 76.63491821 94.7143457 76.63491821 89.9543457 76.63491821 Z M119.9543457 76.63491821 C119.9543457 101.05491821 119.9543457 125.47491821 119.9543457 150.63491821 C124.5743457 150.63491821 129.1943457 150.63491821 133.9543457 150.63491821 C133.9543457 126.21491821 133.9543457 101.79491821 133.9543457 76.63491821 C129.3343457 76.63491821 124.7143457 76.63491821 119.9543457 76.63491821 Z M149.9543457 76.63491821 C149.9543457 101.05491821 149.9543457 125.47491821 149.9543457 150.63491821 C154.5743457 150.63491821 159.1943457 150.63491821 163.9543457 150.63491821 C163.9543457 126.21491821 163.9543457 101.79491821 163.9543457 76.63491821 C159.3343457 76.63491821 154.7143457 76.63491821 149.9543457 76.63491821 Z M179.9543457 76.63491821 C179.9543457 101.05491821 179.9543457 125.47491821 179.9543457 150.63491821 C184.5743457 150.63491821 189.1943457 150.63491821 193.9543457 150.63491821 C193.9543457 126.21491821 193.9543457 101.79491821 193.9543457 76.63491821 C189.3343457 76.63491821 184.7143457 76.63491821 179.9543457 76.63491821 Z M209.9543457 76.63491821 C209.9543457 101.05491821 209.9543457 125.47491821 209.9543457 150.63491821 C224.4743457 150.63491821 238.9943457 150.63491821 253.9543457 150.63491821 C253.9543457 126.21491821 253.9543457 101.79491821 253.9543457 76.63491821 C239.4343457 76.63491821 224.9143457 76.63491821 209.9543457 76.63491821 Z M-0.0456543 166.63491821 C-0.0456543 181.15491821 -0.0456543 195.67491821 -0.0456543 210.63491821 C83.7743457 210.63491821 167.5943457 210.63491821 253.9543457 210.63491821 C253.9543457 196.11491821 253.9543457 181.59491821 253.9543457 166.63491821 C170.1343457 166.63491821 86.3143457 166.63491821 -0.0456543 166.63491821 Z " fill="#2060df" transform="translate(129.045654296875,142.36508178710938)"/>
<path d="M0 0 C4.0743356 0.84881992 5.54405875 2.30225596 8 5.625 C8.625 8.625 8.625 8.625 8 11.625 C5.54405875 14.94774404 4.0743356 16.40118008 0 17.25 C-4.0743356 16.40118008 -5.54405875 14.94774404 -8 11.625 C-8.625 8.625 -8.625 8.625 -8 5.625 C-5.54405875 2.30225596 -4.0743356 0.84881992 0 0 Z " fill="#2060df" transform="translate(361,322.375)"/>
<path d="M0 0 C4.0743356 0.84881992 5.54405875 2.30225596 8 5.625 C8.625 8.625 8.625 8.625 8 11.625 C5.54405875 14.94774404 4.0743356 16.40118008 0 17.25 C-4.0743356 16.40118008 -5.54405875 14.94774404 -8 11.625 C-8.625 8.625 -8.625 8.625 -8 5.625 C-5.54405875 2.30225596 -4.0743356 0.84881992 0 0 Z " fill="#2060df" transform="translate(151,322.375)"/>
<path d="M0 0 C4.0743356 0.84881992 5.54405875 2.30225596 8 5.625 C8.625 8.625 8.625 8.625 8 11.625 C5.54405875 14.94774404 4.0743356 16.40118008 0 17.25 C-4.0743356 16.40118008 -5.54405875 14.94774404 -8 11.625 C-8.625 8.625 -8.625 8.625 -8 5.625 C-5.54405875 2.30225596 -4.0743356 0.84881992 0 0 Z " fill="#2060df" transform="translate(361,172.375)"/>
<path d="M0 0 C4.0743356 0.84881992 5.54405875 2.30225596 8 5.625 C8.625 8.625 8.625 8.625 8 11.625 C5.54405875 14.94774404 4.0743356 16.40118008 0 17.25 C-4.0743356 16.40118008 -5.54405875 14.94774404 -8 11.625 C-8.625 8.625 -8.625 8.625 -8 5.625 C-5.54405875 2.30225596 -4.0743356 0.84881992 0 0 Z " fill="#2060df" transform="translate(151,172.375)"/>
</svg>
