<?xml version="1.0" encoding="UTF-8"?>
<svg version="1.1" xmlns="http://www.w3.org/2000/svg" width="512" height="512">
<path d="M0 0 C3.2109375 1.55859375 3.2109375 1.55859375 6.375 3.4375 C7.43460937 4.05496094 8.49421875 4.67242188 9.5859375 5.30859375 C10.38257813 5.86675781 11.17921875 6.42492187 12 7 C12 7.66 12 8.32 12 9 C10.20947266 10.27416992 10.20947266 10.27416992 7.6640625 11.73046875 C6.7153125 12.27832031 5.7665625 12.82617188 4.7890625 13.390625 C3.22285156 14.28007813 3.22285156 14.28007813 1.625 15.1875 C0.54734375 15.80753906 -0.5303125 16.42757812 -1.640625 17.06640625 C-3.93155581 18.38382374 -6.22376269 19.69863508 -8.51855469 21.00927734 C-12.94319086 23.53713463 -17.355561 26.08616381 -21.76855469 28.63427734 C-23.93795331 29.88681166 -26.10788279 31.13842695 -28.27832031 32.38916016 C-39.54466639 38.88200073 -50.77364983 45.438328 -62 52 C-65.95785474 54.31332038 -69.91610663 56.62595749 -73.875 58.9375 C-74.86218018 59.51395264 -75.84936035 60.09040527 -76.86645508 60.68432617 C-84.16611349 64.94201655 -91.48700606 69.16196052 -98.8125 73.375 C-107.70897061 78.49286212 -116.55646714 83.68657508 -125.375 88.9375 C-135.76038225 95.11909609 -146.21761037 101.15853218 -156.72119141 107.13598633 C-167.21665164 113.11024791 -177.65147527 119.18492884 -188.07324219 125.28662109 C-193.0050807 128.17381184 -197.93960271 131.05639771 -202.875 133.9375 C-203.85364014 134.50895752 -204.83228027 135.08041504 -205.84057617 135.66918945 C-214.49807429 140.71898453 -223.17906464 145.72780622 -231.87524414 150.71069336 C-236.55937434 153.40177418 -241.22235234 156.10620248 -245.796875 158.98046875 C-246.48966553 159.41319092 -247.18245605 159.84591309 -247.89624023 160.29174805 C-249.65403906 161.40008623 -251.39992172 162.5272647 -253.14453125 163.65625 C-256 165 -256 165 -258.4921875 164.9296875 C-261.63075736 163.76616783 -264.41479457 162.30206029 -267.3125 160.625 C-268.38113281 160.01914063 -269.44976562 159.41328125 -270.55078125 158.7890625 C-271.35902344 158.19867188 -272.16726563 157.60828125 -273 157 C-273 156.01 -273 155.02 -273 154 C-272.14341797 153.51926025 -272.14341797 153.51926025 -271.26953125 153.02880859 C-257.10414573 145.07063195 -243.02580708 136.97562043 -229.00732422 128.76171875 C-224.04930249 125.85726309 -219.08761895 122.95909225 -214.125 120.0625 C-212.64785522 119.20023804 -212.64785522 119.20023804 -211.14086914 118.32055664 C-202.68220757 113.38788207 -194.20029529 108.49600718 -185.71582031 103.60791016 C-174.4520275 97.11500122 -163.22447236 90.56057444 -152 84 C-138.59382119 76.16424334 -125.17079317 68.35962289 -111.71582031 60.60791016 C-100.4520275 54.11500122 -89.22447236 47.56057444 -78 41 C-56.75871931 28.5847168 -56.75871931 28.5847168 -47.484375 23.2421875 C-46.39334473 22.61368896 -45.30231445 21.98519043 -44.17822266 21.33764648 C-41.99161867 20.07982396 -39.80380853 18.82409569 -37.61474609 17.57055664 C-32.25679104 14.49412392 -26.9395596 11.3706079 -21.6796875 8.12890625 C-20.67953613 7.51797119 -19.67938477 6.90703613 -18.64892578 6.27758789 C-16.7660902 5.1230548 -14.89147193 3.95497245 -13.02685547 2.77124023 C-5.23466799 -1.98682777 -5.23466799 -1.98682777 0 0 Z " fill="#FFD800" transform="translate(387,25)"/>
<path d="M0 0 C0 80.19 0 160.38 0 243 C-6.64447232 241.67110554 -11.96701642 239.64950228 -17 235 C-18.69548725 230.34925987 -18.42128213 225.80874816 -18.20703125 220.93359375 C-18.18784198 219.44905998 -18.1742466 217.96444552 -18.16564941 216.47981262 C-18.12650583 212.34143631 -18.01277535 208.20794084 -17.88650894 204.07142639 C-17.76099873 199.6046058 -17.69604254 195.1369468 -17.62768555 190.66894531 C-17.53308348 184.62123175 -17.43347343 178.57384673 -17.31013489 172.52664185 C-16.97829649 155.47210311 -17.01782171 138.43253348 -17.13998348 121.37677509 C-17.21359534 110.86563733 -17.23838473 100.35431218 -17.26154613 89.8429594 C-17.28112248 81.73168264 -17.32244509 73.62154485 -17.41152954 65.51071167 C-17.48812435 58.50183161 -17.51877877 51.49448982 -17.49348748 44.48521048 C-17.48189628 40.85064096 -17.49226192 37.21943614 -17.5594635 33.58539772 C-17.94083379 11.91250348 -17.94083379 11.91250348 -14.6850853 7.02677917 C-11.27956656 3.75539206 -7.54284653 2.26543082 -3 1 C-1 0 -1 0 0 0 Z " fill="#FFD800" transform="translate(170,198)"/>
<path d="M0 0 C0 80.19 0 160.38 0 243 C-6.63079574 241.67384085 -11.93857575 239.5835583 -17 235 C-18.69741222 230.5634562 -18.4232716 226.39388353 -18.20703125 221.6953125 C-18.187824 220.28646578 -18.17423884 218.87753361 -18.16564941 217.46858215 C-18.12641783 213.52418778 -18.01251786 209.58488702 -17.88650894 205.64243698 C-17.7607476 201.36462617 -17.69582645 197.08593887 -17.62768555 192.80688477 C-17.59758878 190.95350384 -17.5673263 189.1001256 -17.53691101 187.24674988 C-17.52126287 186.29212545 -17.50561474 185.33750103 -17.48949242 184.35394859 C-17.43620577 181.31285636 -17.37382196 178.27204643 -17.31013489 175.2311554 C-16.97023434 158.16317486 -17.01977626 141.10957437 -17.13998348 124.040236 C-17.21376984 113.31768241 -17.23843921 102.59494259 -17.26154613 91.87217712 C-17.28113802 83.56915666 -17.32248956 75.26724823 -17.41152954 66.96466064 C-17.48816271 59.78174624 -17.51876536 52.60033315 -17.49348748 45.41702884 C-17.48188979 41.68749333 -17.49230728 37.96123647 -17.5594635 34.23221779 C-17.94107816 11.96012209 -17.94107816 11.96012209 -14.6850853 6.99477005 C-11.28647937 3.69842619 -7.56537553 2.23077313 -3 1 C-1 0 -1 0 0 0 Z " fill="#FFD800" transform="translate(256,148)"/>
<path d="M0 0 C-0.33 80.19 -0.66 160.38 -1 243 C-7.71365408 241.65726918 -13.12486125 239.9931731 -18 235 C-19.58372974 229.08726735 -19.1022388 223.39372444 -18.73510742 217.33203125 C-18.6731526 215.54463804 -18.61804423 213.75699602 -18.56934643 211.9691925 C-18.46323746 208.20791362 -18.33089889 204.44885711 -18.18239975 200.68902588 C-17.88841463 192.53585167 -17.99310123 184.38853437 -18.08573687 176.23230934 C-18.13478655 171.59320921 -18.15711249 166.95398406 -18.1809845 162.31469727 C-18.18620477 161.37137259 -18.19142505 160.42804792 -18.19680351 159.45613766 C-18.26782787 146.09590877 -18.27637627 132.73546913 -18.28240681 119.37507629 C-18.28905028 108.54092481 -18.3210377 97.70785213 -18.40795898 86.87402344 C-18.48465421 77.30441672 -18.51581427 67.73592837 -18.49218339 58.16602421 C-18.48132774 53.1329826 -18.49281624 48.10233074 -18.55968666 43.06967163 C-18.62154519 38.36645843 -18.62249362 33.66715531 -18.5768013 28.96379471 C-18.57077322 27.2448389 -18.58685301 25.52563676 -18.62704659 23.80714035 C-18.9050235 11.15447203 -18.9050235 11.15447203 -15.68175101 7.5091362 C-12.1399125 4.60926841 -8.22280871 2.75167058 -4 1 C-2 0 -2 0 0 0 Z " fill="#FFD800" transform="translate(343,98)"/>
<path d="M0 0 C0.99 0 1.98 0 3 0 C3 3.3 3 6.6 3 10 C0.35921766 11.52352827 -2.28156731 13.047052 -4.92236328 14.57055664 C-7.25671642 15.91732423 -9.59103235 17.26415607 -11.92529297 18.61108398 C-17.83978489 22.02377298 -23.75488441 25.43539406 -29.671875 28.84375 C-44.14269764 37.18138838 -58.58136496 45.57247437 -73 54 C-86.40617881 61.83575666 -99.82920683 69.64037711 -113.28417969 77.39208984 C-123.55536692 83.31282049 -133.79651808 89.2843153 -144.03222656 95.26611328 C-150.02108311 98.76503227 -156.01331349 102.25817064 -162.00488281 105.75244141 C-166.980906 108.65471704 -171.95616135 111.5582908 -176.9296875 114.46484375 C-187.26983646 120.50566762 -197.62357567 126.52167343 -208 132.5 C-216.46753396 137.38006653 -224.92965486 142.26911197 -233.375 147.1875 C-234.83993896 148.04045654 -234.83993896 148.04045654 -236.33447266 148.91064453 C-241.2026663 151.75361744 -246.05173656 154.62434627 -250.875 157.54296875 C-251.8026416 158.10411377 -252.7302832 158.66525879 -253.68603516 159.2434082 C-255.43832709 160.30665198 -257.18813625 161.3740017 -258.93505859 162.44604492 C-259.70672363 162.91502197 -260.47838867 163.38399902 -261.2734375 163.8671875 C-262.28543213 164.48762939 -262.28543213 164.48762939 -263.31787109 165.12060547 C-265 166 -265 166 -267 166 C-267.85942719 162.41538059 -268.01561663 159.56754674 -267 156 C-263.86203587 153.01146274 -260.11788329 151.19570872 -256.29833984 149.22119141 C-252.74039739 147.3307274 -249.29068234 145.26274572 -245.82226562 143.21386719 C-235.17098207 136.92746719 -224.43500622 130.78366105 -213.71850586 124.609375 C-202.45370618 118.11617205 -191.22535177 111.56108844 -180 105 C-176.04214526 102.68667962 -172.08389337 100.37404251 -168.125 98.0625 C-167.13781982 97.48604736 -166.15063965 96.90959473 -165.13354492 96.31567383 C-157.83388651 92.05798345 -150.51299394 87.83803948 -143.1875 83.625 C-134.29102939 78.50713788 -125.44353286 73.31342492 -116.625 68.0625 C-106.23961775 61.88090391 -95.78238963 55.84146782 -85.27880859 49.86401367 C-74.78334836 43.88975209 -64.34852473 37.81507116 -53.92675781 31.71337891 C-48.99491924 28.82618812 -44.06036693 25.9436544 -39.125 23.0625 C-38.15651123 22.49684326 -37.18802246 21.93118652 -36.19018555 21.34838867 C-30.71811472 18.15608475 -25.2371331 14.97983695 -19.74609375 11.8203125 C-19.14414185 11.47381149 -18.54218994 11.12731049 -17.92199707 10.77030945 C-14.98658919 9.08096288 -12.05002728 7.3937002 -9.11181641 5.70922852 C-8.06558105 5.10780029 -7.0193457 4.50637207 -5.94140625 3.88671875 C-5.01013916 3.35264404 -4.07887207 2.81856934 -3.11938477 2.26831055 C-1.08882777 1.1700457 -1.08882777 1.1700457 0 0 Z " fill="#FFD800" transform="translate(401,42)"/>
<path d="M0 0 C0.58304914 3.48490632 0.76136399 6.53235667 0 10 C-2.64425201 12.89956452 -5.89936916 14.43552001 -9.375 16.1875 C-11.40649761 17.29642151 -13.43773716 18.40581587 -15.46875 19.515625 C-16.53996094 20.08345703 -17.61117187 20.65128906 -18.71484375 21.23632812 C-24.17865418 24.1696342 -29.51678595 27.31684391 -34.875 30.4375 C-37.07749748 31.70681865 -39.28062378 32.97504681 -41.484375 34.2421875 C-47.70993957 37.82845301 -53.92055001 41.43984932 -60.125 45.0625 C-61.10855469 45.63677734 -62.09210938 46.21105469 -63.10546875 46.80273438 C-66.07059896 48.53466654 -69.03537163 50.26720896 -72 52 C-85.40617881 59.83575666 -98.82920683 67.64037711 -112.28417969 75.39208984 C-123.5479725 81.88499878 -134.77552764 88.43942556 -146 95 C-149.95785474 97.31332038 -153.91610663 99.62595749 -157.875 101.9375 C-158.86218018 102.51395264 -159.84936035 103.09040527 -160.86645508 103.68432617 C-168.16611349 107.94201655 -175.48700606 112.16196052 -182.8125 116.375 C-191.70896934 121.4928614 -200.55651496 126.68649591 -209.375 131.9375 C-219.90570586 138.20674396 -230.50941628 144.33288351 -241.16503906 150.38647461 C-248.56322187 154.59286095 -255.92465367 158.85245408 -263.20556641 163.25927734 C-267.78623154 166 -267.78623154 166 -270 166 C-270.65639337 162.4864941 -270.84073206 159.49401012 -270 156 C-267.02850979 152.92312093 -263.41797458 151.22303534 -259.625 149.3125 C-257.40844824 148.1114259 -255.19231637 146.90957665 -252.9765625 145.70703125 C-251.82317383 145.09811035 -250.66978516 144.48918945 -249.48144531 143.86181641 C-243.90675342 140.88056813 -238.46122451 137.68282607 -233 134.5 C-230.81564588 133.23994586 -228.63075024 131.98083002 -226.4453125 130.72265625 C-216.27401413 124.85436433 -206.13800773 118.92554841 -196 113 C-182.59382119 105.16424334 -169.17079317 97.35962289 -155.71582031 89.60791016 C-145.44463308 83.68717951 -135.20348192 77.7156847 -124.96777344 71.73388672 C-118.97891689 68.23496773 -112.98668651 64.74182936 -106.99511719 61.24755859 C-102.019094 58.34528296 -97.04383865 55.4417092 -92.0703125 52.53515625 C-81.79467431 46.53222934 -71.50360574 40.55813727 -61.1875 34.625 C-52.105729 29.3994509 -43.06977077 24.10242808 -34.0625 18.75 C-17.68310312 9.02370203 -17.68310312 9.02370203 -9.9375 4.5 C-9.15189697 4.0369043 -8.36629395 3.57380859 -7.55688477 3.09667969 C-2.23182665 0 -2.23182665 0 0 0 Z " fill="#FFD800" transform="translate(404,322)"/>
<path d="M0 0 C0.01387148 26.33333822 0.01243071 52.66666135 0 79 C-0.00061511 80.40724272 -0.00061511 80.40724272 -0.00124264 81.84291458 C-0.01161152 105.16888013 -0.0448006 128.49459563 -0.13209343 151.82041168 C-0.16730781 161.37411927 -0.19220169 170.92766877 -0.19555664 180.48144531 C-0.19858828 189.05277587 -0.21885695 197.62385543 -0.26052457 206.19508862 C-0.28170819 210.66821402 -0.29452176 215.14098268 -0.28615379 219.61415863 C-0.27866848 223.7489378 -0.29420583 227.88296733 -0.32806015 232.01760864 C-0.33632049 233.52897175 -0.33601156 235.04040908 -0.32659721 236.55176544 C-0.31504551 238.6077335 -0.33396693 240.66120717 -0.36076355 242.71697998 C-0.36352893 243.86524639 -0.36629431 245.0135128 -0.36914349 246.19657516 C-1 249 -1 249 -3.41495228 250.89268875 C-6 252 -6 252 -8 252 C-8.02360502 226.91716054 -8.04111214 201.8343228 -8.05181217 176.75147438 C-8.05691758 165.09896086 -8.06384704 153.44645433 -8.07543945 141.79394531 C-8.08556589 131.60995776 -8.09189495 121.42597527 -8.09408849 111.24198282 C-8.09536595 105.87481263 -8.09825432 100.50765692 -8.10573006 95.14049149 C-8.12286818 82.15225333 -8.10388158 69.1647955 -8.02025843 56.17678928 C-8.00627495 53.9839951 -7.99339195 51.79119372 -7.98140478 49.59838772 C-7.94168537 42.57996441 -7.87855673 35.56237185 -7.78485763 28.54445529 C-7.75772396 26.30358311 -7.73725401 24.06261955 -7.72370923 21.82162404 C-7.70328564 18.72330717 -7.65789107 15.6263383 -7.60594177 12.52841187 C-7.60501821 11.60405578 -7.60409465 10.6796997 -7.6031431 9.72733283 C-7.46091663 3.52198315 -7.46091663 3.52198315 -5.14962864 0.90447426 C-3 0 -3 0 0 0 Z " fill="#FFD800" transform="translate(273,139)"/>
<path d="M0 0 C0.01428685 21.10006449 0.01222732 42.20011054 0.00136471 63.30017567 C-0.00001474 66.02916523 -0.00125565 68.75815484 -0.00249481 71.48714447 C-0.01395302 95.27132861 -0.05099751 119.05529051 -0.13209343 142.83934593 C-0.16718274 153.29730191 -0.19217854 163.75511633 -0.19555664 174.21313477 C-0.19858885 183.53184518 -0.21889171 192.85032486 -0.26052457 202.16894585 C-0.28175427 207.04914548 -0.29449972 211.92901703 -0.28615379 216.80926323 C-0.27866331 221.33863735 -0.29422847 225.86732752 -0.32806015 230.39657593 C-0.33632363 232.0546727 -0.33600796 233.71283715 -0.32659721 235.37092781 C-0.31505063 237.62676022 -0.33396433 239.88031679 -0.36076355 242.13597107 C-0.36352893 243.39698859 -0.36629431 244.65800611 -0.36914349 245.95723629 C-1 249 -1 249 -3.41495228 250.92900181 C-6 252 -6 252 -8 252 C-8.02359028 226.62185144 -8.0411052 201.24370458 -8.05181217 175.86554718 C-8.05692059 164.07621387 -8.06385617 152.28688746 -8.07543945 140.49755859 C-8.08555628 130.19566292 -8.0918928 119.89377225 -8.09408849 109.59187174 C-8.09536748 104.16104924 -8.09826669 98.73024103 -8.10573006 93.29942322 C-8.12273267 80.24119574 -8.10516845 67.18372802 -8.02025843 54.12573624 C-8.00633749 51.97783123 -7.99344246 49.82991941 -7.98140478 47.68200302 C-7.94194537 40.9159591 -7.87905852 34.15078976 -7.78485763 27.38527966 C-7.75774036 25.24111864 -7.7372623 23.09686248 -7.72370923 20.95257282 C-7.70330174 17.99523866 -7.65794078 15.0393214 -7.60594177 12.08239746 C-7.60501821 11.20257171 -7.60409465 10.32274595 -7.6031431 9.41625881 C-7.46104151 3.51517897 -7.46104151 3.51517897 -5.14962864 0.93235016 C-3 0 -3 0 0 0 Z " fill="#FFD800" transform="translate(187,189)"/>
<path d="M0 0 C0.01364187 27.66667096 0.01279967 55.33332867 0 83 C-0.00061511 84.42451855 -0.00061511 84.42451855 -0.00124264 85.87781525 C-0.01135766 108.77995306 -0.0437343 131.68183439 -0.13209343 154.58381653 C-0.1673514 163.85929402 -0.19220965 173.13460753 -0.19555664 182.41015625 C-0.19858809 190.75152411 -0.21884498 199.09263402 -0.26052457 207.43390179 C-0.28169232 211.78177387 -0.2945294 216.12927936 -0.28615379 220.47720337 C-0.27867027 224.49056975 -0.29419795 228.50316365 -0.32806015 232.51638794 C-0.3363194 233.98260214 -0.33601281 235.44889286 -0.32659721 236.9151001 C-0.31504906 238.9086498 -0.3369724 240.90231077 -0.36076355 242.89575195 C-0.36352893 244.00932571 -0.36629431 245.12289948 -0.36914349 246.2702179 C-1 249 -1 249 -3.41495228 250.8815155 C-6 252 -6 252 -8 252 C-8.19655496 94.95909568 -8.19655496 94.95909568 -7.79147339 43.90814209 C-7.76193221 40.14531384 -7.74156685 36.38261338 -7.72927856 32.61968994 C-7.71466286 28.31796907 -7.68147769 24.01684433 -7.63175392 19.71538925 C-7.61708982 18.19205533 -7.60896471 16.66864122 -7.60809898 15.14523697 C-7.60577626 13.12308687 -7.57669229 11.10101851 -7.54589844 9.07910156 C-7.53701599 7.96649963 -7.52813354 6.85389771 -7.51898193 5.70758057 C-7 3 -7 3 -5.15338135 1.12005615 C-3 0 -3 0 0 0 Z " fill="#FFD800" transform="translate(359,89)"/>
<path d="M0 0 C3.96272544 2.35237486 7.17957717 5.3592301 10.33959961 8.67993164 C0.14973934 15.08839845 -10.24393475 21.13556554 -20.65258789 27.17993164 C-24.41964986 29.36888386 -28.17603328 31.57371275 -31.91821289 33.80493164 C-32.70486328 34.27302246 -33.49151367 34.74111328 -34.30200195 35.22338867 C-35.75659558 36.09061141 -37.2091813 36.96121379 -38.65942383 37.83569336 C-43.43890456 40.67993164 -43.43890456 40.67993164 -45.66040039 40.67993164 C-47.60934833 24.15551837 -47.60934833 24.15551837 -43.67993164 19.16430664 C-40.89871377 17.49782792 -38.07899069 16.18495558 -35.10620117 14.90014648 C-32.0587512 13.37976767 -29.32671978 11.53628934 -26.50024414 9.63696289 C-7.29693767 -3.07643443 -7.29693767 -3.07643443 0 0 Z " fill="#FFD800" transform="translate(240.660400390625,391.320068359375)"/>
<path d="M0 0 C3.99030961 2.36874953 7.09387945 5.4206852 10.33959961 8.67993164 C3.96728452 13.0775615 -2.57971653 16.98881075 -9.34790039 20.74243164 C-18.60316176 25.91353151 -27.75358617 31.23660166 -36.82910156 36.71728516 C-38.1319812 37.49736938 -38.1319812 37.49736938 -39.46118164 38.29321289 C-40.22599854 38.7551001 -40.99081543 39.2169873 -41.77880859 39.69287109 C-43.66040039 40.67993164 -43.66040039 40.67993164 -45.66040039 40.67993164 C-47.60934833 24.15551837 -47.60934833 24.15551837 -43.67993164 19.16430664 C-40.89871377 17.49782792 -38.07899069 16.18495558 -35.10620117 14.90014648 C-32.0587512 13.37976767 -29.32671978 11.53628934 -26.50024414 9.63696289 C-7.29693767 -3.07643443 -7.29693767 -3.07643443 0 0 Z " fill="#FFD800" transform="translate(326.660400390625,341.320068359375)"/>
<path d="M0 0 C0.98742187 0.5671875 1.97484375 1.134375 2.9921875 1.71875 C3.98476562 2.2653125 4.97734375 2.811875 6 3.375 C8.78532167 5.16610603 11.32709084 7.09735059 13.8671875 9.21875 C7.14336579 13.87248422 0.19031175 17.98159965 -6.9453125 21.96875 C-7.96818359 22.54496094 -8.99105469 23.12117188 -10.04492188 23.71484375 C-12.73547681 25.22662904 -15.42523213 26.73767107 -18.1328125 28.21875 C-18.81786865 28.64365723 -19.5029248 29.06856445 -20.20874023 29.50634766 C-22.1328125 30.21875 -22.1328125 30.21875 -24.05566406 29.61962891 C-24.7050293 29.23210449 -25.35439453 28.84458008 -26.0234375 28.4453125 C-26.73242188 28.0328125 -27.44140625 27.6203125 -28.171875 27.1953125 C-28.90148437 26.74929688 -29.63109375 26.30328125 -30.3828125 25.84375 C-31.12789063 25.40546875 -31.87296875 24.9671875 -32.640625 24.515625 C-34.47985375 23.43095164 -36.30749574 22.32667483 -38.1328125 21.21875 C-38.1328125 20.55875 -38.1328125 19.89875 -38.1328125 19.21875 C-29.41699219 14.23828125 -29.41699219 14.23828125 -20.70117188 9.2578125 C-20.07203384 8.89830505 -19.44289581 8.53879761 -18.79469299 8.168396 C-15.9073995 6.518514 -13.020106 4.868632 -10.1328125 3.21875 C-9.51545227 2.83614014 -8.89809204 2.45353027 -8.26202393 2.05932617 C-3.46404771 -0.8638523 -3.46404771 -0.8638523 0 0 Z " fill="#FFD800" transform="translate(151.1328125,440.78125)"/>
<path d="M0 0 C3.34746577 1.33092013 6.11215065 2.93513579 9.1171875 4.9140625 C10.08398438 5.54570312 11.05078125 6.17734375 12.046875 6.828125 C12.77132813 7.31023437 13.49578125 7.79234375 14.2421875 8.2890625 C11.21688857 11.58624732 8.10560548 13.73310375 4.234375 15.9609375 C3.66768097 16.28821838 3.10098694 16.61549927 2.51712036 16.95269775 C1.32713431 17.63802703 0.13535744 18.32025529 -1.05810547 18.99951172 C-2.88857645 20.04234627 -4.71213561 21.09654975 -6.53515625 22.15234375 C-15.47958929 27.2890625 -15.47958929 27.2890625 -17.7578125 27.2890625 C-19.6925205 10.88538442 -19.6925205 10.88538442 -16.51416016 6.62011719 C-13.02476486 3.66431802 -9.00528137 1.93782291 -4.7578125 0.2890625 C-2.7578125 -0.7109375 -2.7578125 -0.7109375 0 0 Z " fill="#FFD800" transform="translate(384.7578125,304.7109375)"/>
<path d="M0 0 C6.04371792 2.33226962 12.05346233 4.73467566 17 9 C18.02296499 12.53154244 17.77497744 15.43366863 17 19 C10.68722777 17.05184477 4.8191521 14.63412357 0 10 C-0.92478454 6.48990619 -0.70467249 3.53759824 0 0 Z " fill="#FFD800" transform="translate(108,189)"/>
<path d="M0 0 C1.89709988 0.93493439 3.79262578 1.87306296 5.6875 2.8125 C6.74324219 3.33457031 7.79898438 3.85664063 8.88671875 4.39453125 C9.91410156 4.92433594 10.94148438 5.45414062 12 6 C13.423125 6.680625 13.423125 6.680625 14.875 7.375 C17 9 17 9 17.48828125 11.48046875 C17.43027344 12.37378906 17.37226562 13.26710938 17.3125 14.1875 C17.24482422 15.53908203 17.24482422 15.53908203 17.17578125 16.91796875 C17.11777344 17.60503906 17.05976562 18.29210937 17 19 C13.0254496 18.30150228 9.73425902 16.37107231 6.25 14.4375 C5.64800781 14.10814453 5.04601562 13.77878906 4.42578125 13.43945312 C2.94829497 12.6303535 1.47383964 11.81572338 0 11 C0 7.37 0 3.74 0 0 Z " fill="#FFD800" transform="translate(108,469)"/>
</svg>
