<?xml version="1.0" standalone="no"?>
<!DOCTYPE svg PUBLIC "-//W3C//DTD SVG 20010904//EN"
 "http://www.w3.org/TR/2001/REC-SVG-20010904/DTD/svg10.dtd">
<svg version="1.0" xmlns="http://www.w3.org/2000/svg"
 width="512.000000pt" height="512.000000pt" viewBox="0 0 512.000000 512.000000"
 preserveAspectRatio="xMidYMid meet">
<metadata>
Created by potrace 1.16, written by Peter Selinger 2001-2019
</metadata>
<g transform="translate(0.000000,512.000000) scale(0.100000,-0.100000)"
fill="#A3B4A2" stroke="none">
<path d="M1470 5019 c-413 -90 -457 -101 -477 -125 l-23 -25 0 -393 c0 -383 1
-394 21 -420 l20 -26 270 0 269 0 0 -265 c0 -252 1 -266 20 -285 18 -18 33
-20 190 -20 l170 0 0 -250 c0 -205 -2 -250 -14 -250 -7 0 -25 -9 -40 -21 -35
-27 -36 -86 -3 -117 13 -12 31 -22 40 -22 15 0 17 -14 17 -120 0 -102 -2 -120
-15 -120 -29 0 -65 -47 -65 -84 0 -39 31 -76 62 -76 16 0 18 -11 18 -120 0
-120 0 -120 -25 -126 -75 -19 -70 -154 5 -154 19 0 20 -7 20 -119 l0 -119 -30
-12 c-36 -15 -50 -37 -50 -79 0 -35 30 -71 60 -71 19 0 20 -7 20 -119 l0 -119
-30 -12 c-36 -15 -50 -37 -50 -77 0 -37 23 -69 55 -77 25 -6 25 -7 25 -122 0
-100 -2 -115 -17 -121 -10 -3 -28 -15 -40 -26 -42 -38 -23 -117 32 -131 25 -6
25 -7 25 -122 0 -100 -2 -115 -17 -121 -65 -23 -86 -103 -37 -142 15 -12 33
-21 40 -21 9 0 14 -11 14 -27 0 -22 33 -64 153 -193 l153 -165 118 -3 c137 -3
156 5 156 68 0 60 -30 80 -121 80 l-74 0 -115 126 c-63 69 -116 136 -118 148
-3 20 33 34 470 194 260 95 476 172 481 172 4 0 7 -86 7 -191 l0 -191 -118
-129 -117 -129 -76 0 c-66 0 -78 -3 -97 -23 -28 -30 -29 -87 -3 -111 15 -14
37 -16 137 -14 l118 3 153 165 153 165 0 257 0 258 25 6 c75 19 70 154 -5 154
-19 0 -20 7 -20 119 l0 119 30 12 c36 15 50 37 50 79 0 35 -30 71 -60 71 -19
0 -20 7 -20 119 l0 119 30 12 c36 15 50 37 50 77 0 37 -23 69 -55 77 -25 6
-25 7 -25 122 0 100 2 115 18 121 9 3 27 15 40 26 41 38 22 117 -33 131 -25 6
-25 7 -25 122 0 100 2 115 18 121 64 23 85 103 36 142 -15 12 -33 21 -40 21
-11 0 -14 24 -14 113 l0 114 38 24 c32 21 37 30 40 65 3 35 -1 45 -24 63 -15
11 -33 21 -40 21 -11 0 -14 25 -14 120 0 95 3 120 14 120 7 0 25 9 40 21 35
27 36 86 3 117 -13 12 -31 22 -40 22 -10 0 -17 8 -17 20 0 19 7 20 170 20 157
0 172 2 190 20 19 19 20 33 20 285 l0 265 269 0 270 0 20 26 c19 25 21 40 21
189 0 144 -2 165 -19 186 -27 33 -87 30 -118 -6 -21 -24 -23 -36 -23 -136 l0
-109 -385 0 -385 0 0 385 c0 212 1 385 3 385 1 -1 173 -38 382 -83 l380 -82 5
-90 c4 -50 10 -98 14 -108 21 -44 94 -51 125 -11 19 24 21 40 21 160 0 124 -2
135 -22 159 -21 23 -63 34 -488 125 l-465 100 -312 0 -312 0 -20 -26 c-24 -31
-20 -66 12 -101 20 -23 24 -23 269 -23 l248 0 0 -395 0 -395 -500 0 -500 0 0
395 0 395 155 0 c152 0 156 1 180 25 31 30 33 77 5 105 -19 19 -33 20 -247 19
l-228 -1 -455 -99z m430 -454 l0 -385 -385 0 -385 0 2 302 3 303 375 81 c206
45 378 83 383 83 4 1 7 -172 7 -384z m1520 -745 l0 -210 -860 0 -860 0 0 210
0 210 860 0 860 0 0 -210z m-382 -407 l-3 -48 -470 -172 c-258 -95 -473 -173
-477 -173 -5 0 -8 99 -8 220 l0 220 481 0 480 0 -3 -47z m2 -327 c0 -63 -4
-117 -10 -121 -14 -9 -932 -345 -942 -345 -5 0 -7 53 -6 117 l3 118 470 172
c259 94 473 172 478 172 4 1 7 -50 7 -113z m0 -404 l0 -119 -32 -10 c-18 -6
-230 -83 -471 -172 -242 -89 -443 -161 -448 -161 -6 0 -8 49 -7 117 l3 116
470 173 c259 95 473 173 478 173 4 1 7 -52 7 -117z m0 -401 l0 -118 -432 -158
c-238 -87 -455 -166 -481 -176 l-48 -19 3 122 3 121 105 38 c58 20 272 98 475
173 204 74 371 135 373 136 1 0 2 -53 2 -119z m-3 -517 c-2 -2 -217 -82 -478
-178 l-474 -174 -3 115 c-1 64 0 118 2 121 3 2 218 82 478 177 l473 173 3
-116 c1 -63 1 -116 -1 -118z m3 -283 l0 -119 -177 -66 c-98 -36 -313 -115
-478 -175 l-300 -109 -3 115 c-1 64 -1 118 1 120 3 3 873 324 955 352 1 1 2
-53 2 -118z m-2 -407 l-3 -116 -475 -174 c-261 -96 -476 -174 -477 -174 -2 0
-3 53 -3 118 l0 119 468 171 c257 94 473 171 480 171 10 1 12 -26 10 -115z"/>
</g>
</svg>
