<?xml version="1.0" standalone="no"?>
<!DOCTYPE svg PUBLIC "-//W3C//DTD SVG 20010904//EN"
 "http://www.w3.org/TR/2001/REC-SVG-20010904/DTD/svg10.dtd">
<svg version="1.0" xmlns="http://www.w3.org/2000/svg"
 width="256.000000pt" height="256.000000pt" viewBox="0 0 256.000000 256.000000"
 preserveAspectRatio="xMidYMid meet">
<metadata>
Created by potrace 1.16, written by Peter Selinger 2001-2019
</metadata>
<g transform="translate(0.000000,256.000000) scale(0.100000,-0.100000)"
fill="#A3B4A2" stroke="none">
<path d="M315 2263 c-67 -16 -134 -118 -156 -238 -24 -126 7 -300 68 -388 43
-62 61 -67 248 -67 91 0 165 4 165 9 0 5 -7 14 -16 22 -25 21 -63 104 -80 176
-12 49 -15 99 -11 178 5 122 25 192 77 264 17 22 30 43 30 46 0 6 -298 4 -325
-2z"/>
<path d="M735 2263 c-67 -16 -134 -118 -156 -238 -23 -124 6 -294 65 -381 38
-57 71 -74 144 -74 l63 0 -32 46 c-106 155 -110 460 -6 598 42 56 42 56 -10
55 -26 -1 -57 -4 -68 -6z"/>
<path d="M920 2252 c-46 -23 -92 -85 -116 -158 -15 -46 -19 -86 -19 -189 1
-155 21 -219 89 -291 l43 -44 251 0 c139 0 252 4 252 9 0 5 -7 14 -16 22 -25
21 -63 104 -80 176 -33 140 -2 348 66 441 16 23 30 44 30 47 0 3 -105 5 -232
5 -202 0 -238 -2 -268 -18z"/>
<path d="M1515 2263 c-94 -24 -159 -163 -160 -343 0 -142 28 -233 95 -302 l46
-48 68 0 68 0 -16 23 c-32 45 -67 118 -81 174 -19 73 -19 233 0 306 17 65 56
147 79 166 9 8 16 17 16 22 0 9 -80 10 -115 2z"/>
<path d="M1714 2259 c-38 -11 -89 -67 -114 -123 -60 -141 -51 -348 21 -474 50
-88 62 -92 292 -92 108 0 197 4 197 9 0 5 -7 14 -16 22 -23 19 -62 101 -79
166 -8 31 -15 100 -15 153 0 53 7 122 15 153 17 65 56 147 79 166 9 8 16 17
16 22 0 12 -356 10 -396 -2z"/>
<path d="M2181 2252 c-144 -73 -189 -396 -82 -587 92 -164 240 -107 297 115
12 49 15 90 11 165 -8 153 -53 259 -131 306 -38 23 -52 24 -95 1z"/>
<path d="M780 1005 l0 -525 70 0 70 0 0 525 0 525 -70 0 -70 0 0 -525z"/>
<path d="M1570 1005 l0 -525 75 0 75 0 0 525 0 525 -75 0 -75 0 0 -525z"/>
<path d="M880 365 l74 -75 291 0 291 0 74 75 74 75 -439 0 -439 0 74 -75z"/>
</g>
</svg>
