<?xml version="1.0" standalone="no"?>
<!DOCTYPE svg PUBLIC "-//W3C//DTD SVG 20010904//EN"
 "http://www.w3.org/TR/2001/REC-SVG-20010904/DTD/svg10.dtd">
<svg version="1.0" xmlns="http://www.w3.org/2000/svg"
 width="256.000000pt" height="256.000000pt" viewBox="0 0 256.000000 256.000000"
 preserveAspectRatio="xMidYMid meet">
<metadata>
Created by potrace 1.16, written by Peter Selinger 2001-2019
</metadata>
<g transform="translate(0.000000,256.000000) scale(0.100000,-0.100000)"
fill="#A3B4A2" stroke="none">
<path d="M1382 2212 c-21 -22 -40 -30 -82 -36 -133 -17 -329 -107 -437 -199
-37 -32 -59 -44 -73 -40 -15 4 -31 -6 -61 -38 -33 -36 -40 -49 -36 -74 3 -21
-4 -45 -24 -81 -54 -96 -109 -273 -109 -352 0 -19 -7 -30 -22 -37 -21 -9 -23
-17 -23 -75 0 -61 2 -66 28 -78 18 -9 27 -21 27 -37 0 -19 41 -157 65 -217 7
-17 -7 -18 -205 -18 -175 0 -214 3 -226 15 -19 18 -124 21 -142 3 -14 -14 -17
-585 -3 -607 14 -22 113 -27 133 -7 14 14 52 16 286 16 207 0 271 -3 275 -12
2 -9 25 -13 67 -13 42 0 65 4 68 13 6 19 530 17 556 -3 25 -19 97 -19 122 0
16 12 80 14 395 15 327 0 380 -2 408 -16 38 -19 118 -14 132 7 14 23 11 593
-3 607 -18 18 -123 15 -138 -3 -8 -10 -31 -15 -65 -15 l-53 0 23 68 c13 38 26
91 30 118 10 70 15 84 30 84 21 0 35 33 35 80 0 47 -14 80 -35 80 -9 0 -16 18
-20 58 -13 118 -59 250 -120 349 -15 25 -21 44 -15 48 19 11 10 38 -26 82 -31
38 -41 44 -64 39 -21 -4 -33 2 -56 26 -41 43 -133 104 -217 144 -72 34 -209
74 -254 74 -16 0 -23 6 -23 20 0 25 -29 40 -80 40 -33 0 -48 -6 -68 -28z m98
-297 l0 -265 -25 0 -25 0 0 265 0 265 25 0 25 0 0 -265z m-100 -4 l0 -219 -37
-7 c-21 -3 -64 -18 -95 -32 -51 -22 -60 -24 -77 -12 -70 49 -320 245 -320 252
-2 15 157 123 234 159 86 40 209 77 263 77 l32 1 0 -219z m270 192 c124 -34
267 -112 335 -182 35 -37 51 -18 -157 -180 l-157 -122 -38 25 c-21 14 -53 28
-71 32 l-32 7 0 223 0 224 33 -6 c17 -3 57 -13 87 -21z m262 -425 c-198 -154
-205 -158 -219 -138 -13 19 -12 23 13 43 16 12 107 83 204 159 172 134 175
136 191 115 16 -20 11 -24 -189 -179z m-921 36 c194 -151 200 -157 183 -175
-15 -16 -20 -17 -33 -6 -9 8 -97 76 -196 152 -99 76 -184 142 -189 146 -10 9
10 39 26 39 5 0 99 -70 209 -156z m-10 -122 l106 -83 -25 -74 -25 -75 -214 0
-214 0 6 38 c4 20 9 51 11 67 13 76 82 250 116 292 8 10 25 2 72 -35 33 -26
109 -85 167 -130z m1187 86 c44 -89 82 -217 82 -280 l0 -38 -209 0 -208 0 -22
63 c-12 34 -23 68 -24 76 -2 15 321 273 333 266 3 -2 25 -41 48 -87z m-784
-63 c8 -22 113 -21 137 1 17 15 21 15 56 -3 28 -15 38 -27 40 -46 1 -15 17
-45 35 -68 27 -33 38 -40 60 -37 24 4 29 -1 43 -34 20 -51 19 -61 -7 -73 -20
-9 -23 -17 -23 -75 0 -56 3 -66 21 -75 21 -10 21 -12 7 -48 -12 -30 -20 -37
-43 -37 -34 0 -90 -64 -90 -103 0 -37 -58 -57 -178 -60 -88 -2 -102 1 -152 25
-67 33 -130 96 -164 163 -24 48 -24 50 -6 57 24 9 32 40 28 99 -2 34 -8 46
-25 54 -27 12 -28 22 -8 73 13 32 20 38 39 35 31 -6 96 68 96 109 0 15 1 28 3
28 1 0 20 7 42 15 52 18 81 19 89 0z m-294 -335 l0 -30 -260 0 -260 0 0 30 0
30 260 0 260 0 0 -30z m1210 0 l0 -30 -260 0 c-222 0 -261 2 -266 15 -4 8 -4
22 0 30 5 13 44 15 266 15 l260 0 0 -30z m-1241 -122 c24 -80 98 -170 171
-209 l35 -18 -183 -1 c-150 0 -186 3 -198 15 -20 20 -104 20 -130 0 -36 -27
-50 -18 -78 53 -26 66 -56 165 -56 190 0 9 49 12 213 12 l214 0 12 -42z m1186
-10 c-15 -116 -111 -338 -138 -321 -48 28 -327 246 -327 254 0 6 7 23 15 37 8
15 19 39 25 55 l10 27 211 0 211 0 -7 -52z m-322 -248 c202 -151 206 -155 188
-173 -18 -19 -23 -16 -222 133 -112 84 -205 154 -207 156 -7 5 19 45 27 42 5
-2 101 -73 214 -158z m-78 -71 l174 -131 -49 -43 c-96 -85 -273 -188 -362
-210 l-28 -7 0 238 0 239 38 21 c20 12 40 22 45 23 4 1 86 -58 182 -130z
m-1687 -186 l2 -263 -25 0 -25 0 0 266 0 265 23 -3 22 -3 3 -262z m682 2 l0
-265 -25 0 -25 0 0 258 c0 142 3 262 7 265 3 4 15 7 25 7 17 0 18 -15 18 -265z
m688 -2 l2 -263 -25 0 -25 0 0 266 0 265 23 -3 22 -3 3 -262z m922 2 l0 -265
-25 0 -25 0 0 258 c0 142 3 262 7 265 3 4 15 7 25 7 17 0 18 -15 18 -265z
m-1710 -5 l0 -240 -265 0 -265 0 0 240 0 240 265 0 265 0 0 -240z m680 0 l0
-240 -260 0 -260 0 0 240 0 240 260 0 260 0 0 -240z m930 0 l0 -240 -347 0
c-191 0 -343 4 -337 8 5 4 34 19 64 32 90 40 167 88 250 156 67 55 83 63 108
58 25 -5 33 0 60 34 33 41 40 70 21 89 -7 7 -2 24 18 57 l28 46 67 0 68 0 0
-240z"/>
</g>
</svg>
