<?xml version="1.0" standalone="no"?>
<!DOCTYPE svg PUBLIC "-//W3C//DTD SVG 20010904//EN"
 "http://www.w3.org/TR/2001/REC-SVG-20010904/DTD/svg10.dtd">
<svg version="1.0" xmlns="http://www.w3.org/2000/svg"
 width="512.000000pt" height="512.000000pt" viewBox="0 0 512.000000 512.000000"
 preserveAspectRatio="xMidYMid meet">
<metadata>
Created by potrace 1.16, written by Peter Selinger 2001-2019
</metadata>
<g transform="translate(0.000000,512.000000) scale(0.100000,-0.100000)"
fill="#A3B4A2" stroke="none">
<path d="M2310 4713 c-19 -9 -46 -21 -60 -28 -31 -17 -93 -104 -86 -122 3 -7
2 -13 -3 -13 -13 0 -10 -112 4 -140 14 -26 11 -29 -753 -793 l-767 -766 -55
-3 c-30 -1 -66 -8 -80 -15 -14 -7 -29 -13 -35 -13 -15 -1 -55 -37 -55 -49 0
-6 -9 -16 -20 -23 -11 -7 -20 -20 -20 -28 0 -9 -5 -21 -11 -27 -16 -16 -20
-99 -8 -155 7 -32 23 -59 55 -92 24 -25 48 -46 54 -46 7 0 10 -256 10 -773 l0
-774 -40 -32 c-22 -18 -38 -36 -35 -41 3 -4 -2 -11 -11 -14 -9 -4 -14 -9 -11
-13 3 -3 -1 -19 -9 -34 -23 -45 -10 -199 17 -199 5 0 9 -5 9 -11 0 -6 16 -27
36 -47 20 -20 33 -30 29 -22 -5 8 2 5 15 -8 12 -13 28 -21 36 -18 7 3 16 1 19
-5 4 -6 353 -9 949 -9 l943 0 54 33 c74 44 115 112 118 196 1 34 -1 67 -6 74
-4 6 -8 18 -9 25 -2 8 -11 23 -21 35 -13 14 -14 18 -3 13 8 -4 -6 12 -31 36
-26 24 -65 50 -88 58 l-41 13 2 376 3 376 28 3 c15 2 25 8 22 13 -3 5 1 6 9 3
9 -3 16 -1 16 5 0 6 5 11 11 11 15 0 64 39 64 51 0 5 5 13 11 17 37 26 57 150
32 209 -6 15 -12 31 -12 35 -1 4 -9 16 -18 28 -17 19 -12 25 213 251 194 193
235 230 253 224 59 -17 143 -17 182 1 40 18 104 77 104 95 0 6 4 8 9 5 5 -3
14 8 20 24 l10 30 445 0 c436 0 445 0 451 -20 3 -11 11 -20 16 -20 5 0 9 -5 9
-11 0 -6 16 -27 36 -47 20 -20 33 -30 29 -22 -5 8 2 5 15 -8 12 -13 28 -21 36
-18 7 3 16 1 19 -4 3 -5 35 -9 70 -9 87 1 156 41 202 118 l33 54 0 943 c0 634
-3 945 -10 949 -6 4 -8 10 -5 15 2 4 -5 20 -17 36 -13 15 -16 24 -8 19 8 -4
-3 10 -25 33 -22 22 -43 38 -47 36 -5 -3 -8 -1 -8 3 0 26 -134 38 -205 20 -11
-3 -24 -6 -28 -6 -17 -2 -107 -105 -107 -122 0 -18 -25 -19 -819 -19 l-819 0
-10 29 c-15 42 -70 97 -117 117 -54 22 -141 25 -185 7z m122 -165 c15 -6 29
-20 33 -35 3 -13 20 -55 38 -91 17 -37 32 -73 33 -80 2 -8 14 -38 28 -68 14
-30 26 -61 26 -70 0 -8 4 -12 10 -9 6 3 7 -1 4 -9 -3 -9 -1 -16 6 -16 6 0 8
-5 4 -11 -3 -6 -1 -14 5 -18 6 -4 14 -21 17 -37 3 -16 21 -59 40 -96 19 -38
31 -68 28 -68 -3 0 -2 -6 3 -12 4 -7 8 -15 9 -18 2 -11 16 -46 32 -80 8 -19
15 -38 14 -42 -1 -5 3 -8 10 -8 6 0 8 -3 5 -7 -4 -3 -2 -12 4 -20 6 -7 9 -13
5 -13 -5 0 17 -49 50 -112 9 -16 12 -28 8 -28 -5 0 -3 -5 4 -12 7 -7 12 -18
12 -26 0 -7 11 -37 24 -65 13 -29 39 -88 56 -132 18 -44 42 -98 54 -120 11
-22 21 -44 21 -50 0 -5 3 -14 6 -20 4 -5 14 -34 23 -62 10 -29 22 -55 27 -59
5 -3 7 -10 4 -15 -4 -5 -1 -9 5 -9 6 0 9 -4 5 -9 -3 -5 -1 -12 4 -15 5 -3 12
-18 16 -33 7 -30 28 -81 51 -126 8 -16 14 -32 14 -37 0 -4 8 -25 17 -46 21
-48 22 -54 10 -79 -19 -37 -36 -46 -78 -43 -41 3 -41 3 -76 83 -20 44 -43 96
-51 115 -9 19 -15 38 -14 43 1 4 -3 7 -9 7 -5 0 -7 5 -4 10 3 6 1 10 -5 10 -6
0 -8 4 -5 10 3 5 -1 20 -9 32 -8 13 -15 25 -15 28 1 13 -21 59 -31 65 -5 3 -8
10 -5 15 3 5 -8 40 -26 77 -17 37 -32 73 -33 78 -2 6 -9 24 -16 40 -7 17 -14
37 -16 45 -2 8 -8 16 -14 18 -5 2 -8 8 -4 13 3 5 1 9 -4 9 -5 0 -9 6 -10 13
-3 33 -27 93 -42 102 -5 3 -8 10 -5 15 3 5 -8 40 -26 77 -17 37 -32 73 -33 78
-2 6 -9 24 -16 40 -7 17 -14 37 -16 45 -2 8 -8 16 -14 18 -5 2 -8 8 -4 13 3 5
1 9 -4 9 -5 0 -9 6 -10 13 -3 33 -27 93 -42 102 -5 3 -8 10 -5 15 3 5 -10 43
-29 85 -19 41 -32 75 -29 75 3 0 1 6 -4 13 -6 6 -16 29 -22 50 -7 20 -17 37
-22 37 -6 0 -7 5 -4 10 3 6 2 10 -3 10 -5 0 -9 6 -10 13 -3 33 -27 93 -42 102
-5 3 -8 10 -5 15 6 10 -24 90 -34 90 -4 0 -7 9 -8 20 -1 11 -9 34 -17 51 -17
34 -11 61 23 96 21 22 26 22 83 1z m2105 -24 l22 -22 1 -886 c0 -957 1 -944
-52 -962 -38 -13 -52 -10 -78 14 l-25 22 -3 888 c-2 615 0 898 8 924 8 30 17
39 43 46 39 11 55 6 84 -24z m-297 -924 l0 -800 -448 0 -447 0 -212 513 c-117
281 -266 641 -332 800 l-119 287 779 0 779 0 0 -800z m-1659 -179 c181 -437
329 -799 329 -805 0 -6 -112 -123 -249 -260 l-249 -248 -803 332 c-442 183
-806 334 -809 337 -6 6 1434 1443 1443 1440 5 -1 157 -360 338 -796z m-1952
-747 c17 -9 37 -17 44 -18 7 -2 34 -13 60 -25 27 -13 60 -25 74 -27 14 -3 32
-11 40 -19 8 -8 22 -15 32 -15 9 0 21 -4 26 -8 11 -10 119 -54 132 -54 4 0 25
-9 45 -19 21 -10 44 -19 52 -19 8 0 16 -5 18 -10 2 -6 13 -12 26 -13 12 0 22
-4 22 -8 0 -4 15 -11 33 -14 17 -4 38 -12 45 -17 6 -6 12 -7 12 -4 0 4 7 1 15
-8 9 -8 22 -13 30 -10 8 4 15 1 15 -6 0 -7 7 -10 15 -6 8 3 15 1 15 -3 0 -11
59 -35 78 -32 6 1 12 -2 12 -7 0 -10 47 -27 63 -24 4 1 7 -3 7 -8 0 -5 3 -9 8
-8 4 1 22 -6 39 -15 18 -10 36 -18 40 -18 14 -2 38 -11 73 -27 19 -9 41 -15
48 -14 6 2 12 -1 12 -6 0 -10 47 -27 63 -24 4 1 7 -3 7 -8 0 -5 3 -9 8 -8 4 1
29 -8 55 -20 27 -12 52 -22 57 -22 4 0 25 -9 47 -19 51 -26 106 -46 116 -43 4
1 7 -3 7 -8 0 -5 3 -9 8 -8 4 0 29 -9 56 -22 27 -12 54 -23 60 -24 6 -1 25
-10 42 -19 17 -9 34 -14 37 -11 3 3 12 2 19 -2 7 -5 15 -9 18 -10 3 0 20 -9
38 -20 62 -36 57 -121 -9 -146 -17 -7 -123 28 -186 60 -23 12 -51 22 -63 22
-11 0 -20 5 -20 11 0 5 -4 8 -9 5 -5 -4 -11 -1 -13 4 -2 6 -13 12 -26 13 -12
0 -22 5 -22 10 0 4 -5 5 -11 1 -6 -3 -14 -2 -18 2 -5 9 -87 48 -101 49 -3 1
-27 11 -54 23 -27 12 -54 22 -60 22 -6 0 -20 7 -30 15 -11 8 -30 15 -43 15
-13 0 -23 4 -23 9 0 11 -56 32 -64 24 -3 -4 -6 -1 -6 6 0 6 -6 11 -12 10 -7
-2 -37 9 -66 23 -28 15 -49 21 -45 15 3 -7 -3 -4 -13 5 -11 10 -35 21 -52 24
-18 4 -32 10 -32 15 0 5 -27 16 -60 26 -33 9 -60 20 -60 24 0 5 -16 11 -35 15
-19 3 -35 9 -35 13 0 4 -6 8 -12 8 -7 0 -37 12 -66 26 -28 14 -49 20 -45 14 3
-7 -3 -4 -13 5 -11 10 -35 21 -52 24 -18 4 -32 10 -32 15 0 5 -7 9 -15 9 -9 0
-27 7 -40 16 -13 9 -28 13 -34 10 -5 -4 -16 0 -23 8 -13 13 -59 31 -67 27 -2
-2 -7 1 -10 6 -5 7 -108 54 -131 59 -3 1 -18 6 -35 13 -16 6 -34 12 -40 13 -5
1 -16 8 -23 15 -7 7 -19 13 -26 13 -35 0 -68 78 -42 99 9 7 13 18 9 24 -3 5
-1 7 4 4 6 -4 16 0 23 8 16 19 29 19 69 -1z m816 -672 l790 -328 3 -397 2
-397 -800 0 -800 0 0 725 c0 399 3 725 8 725 4 0 363 -148 797 -328z m968
-1312 c13 -14 22 -30 21 -35 -1 -6 -5 -22 -8 -37 -14 -60 21 -58 -956 -58
-827 1 -892 2 -911 18 -31 25 -41 58 -27 88 26 56 -12 54 960 51 l898 -2 23
-25z"/>
</g>
</svg>
