<?xml version="1.0" encoding="UTF-8"?>
<svg version="1.1" xmlns="http://www.w3.org/2000/svg" width="256" height="256">
<path d="M0 0 C10.13526075 8.12894979 17.07412704 17.65436619 23.09765625 29.13671875 C23.42765625 23.85671875 23.75765625 18.57671875 24.09765625 13.13671875 C22.44765625 12.80671875 20.79765625 12.47671875 19.09765625 12.13671875 C16.36748321 10.08908897 15.74416816 8.41587377 15.09765625 5.13671875 C14.71222176 -0.29521846 14.37866653 -6.01638653 17.09765625 -10.86328125 C23.50291815 -14.64328792 29.88007404 -14.31144791 37.16015625 -14.23828125 C38.31837891 -14.24988281 39.47660156 -14.26148438 40.66992188 -14.2734375 C51.35028522 -14.23662981 51.35028522 -14.23662981 56.09765625 -10.86328125 C57.78844845 -7.48169684 57.36654684 -3.70380313 57.41015625 0.01171875 C57.43916016 0.82769531 57.46816406 1.64367187 57.49804688 2.484375 C57.53898948 6.34557719 57.5614302 8.46306917 55.328125 11.70703125 C53.09765625 13.13671875 53.09765625 13.13671875 49.09765625 13.13671875 C49.09765625 22.04671875 49.09765625 30.95671875 49.09765625 40.13671875 C50.74765625 40.46671875 52.39765625 40.79671875 54.09765625 41.13671875 C54.18469448 44.57405938 54.23805897 48.01111712 54.28515625 51.44921875 C54.31029297 52.42568359 54.33542969 53.40214844 54.36132812 54.40820312 C54.37583008 55.81489258 54.37583008 55.81489258 54.390625 57.25 C54.41419067 58.54611206 54.41419067 58.54611206 54.43823242 59.8684082 C54.02606431 62.61353649 53.30138671 63.49823628 51.09765625 65.13671875 C50.43765625 65.13671875 49.77765625 65.13671875 49.09765625 65.13671875 C49.09765625 68.10671875 49.09765625 71.07671875 49.09765625 74.13671875 C50.74765625 74.79671875 52.39765625 75.45671875 54.09765625 76.13671875 C54.12660172 79.59503461 54.14443625 83.05331947 54.16015625 86.51171875 C54.16853516 87.4965625 54.17691406 88.48140625 54.18554688 89.49609375 C54.18876953 90.43710938 54.19199219 91.378125 54.1953125 92.34765625 C54.20054932 93.21696777 54.20578613 94.0862793 54.21118164 94.98193359 C54.09765625 97.13671875 54.09765625 97.13671875 53.09765625 99.13671875 C51.77765625 99.13671875 50.45765625 99.13671875 49.09765625 99.13671875 C49.12122192 100.31645264 49.12122192 100.31645264 49.14526367 101.52001953 C49.2078154 105.10051213 49.24671176 108.68088951 49.28515625 112.26171875 C49.31029297 113.49921875 49.33542969 114.73671875 49.36132812 116.01171875 C49.37583008 117.80996094 49.37583008 117.80996094 49.390625 119.64453125 C49.41419067 121.29412842 49.41419067 121.29412842 49.43823242 122.97705078 C49.04259713 126.64752532 48.02263162 129.00078549 46.09765625 132.13671875 C41.22532885 135.38493702 35.78897349 134.8499164 30.09765625 134.13671875 C26.54342002 131.60774297 25.46017204 130.22426613 24.09765625 126.13671875 C23.95362277 124.80308172 23.85175202 123.46453829 23.78125 122.125 C23.7184082 120.98901367 23.7184082 120.98901367 23.65429688 119.83007812 C23.61498047 119.04439453 23.57566406 118.25871094 23.53515625 117.44921875 C23.47038086 116.25329102 23.47038086 116.25329102 23.40429688 115.03320312 C23.29838257 113.06790428 23.19753074 111.10233379 23.09765625 109.13671875 C22.69546875 110.04550781 22.69546875 110.04550781 22.28515625 110.97265625 C12.75440749 131.35090196 -5.1437055 145.26758366 -25.90234375 153.13671875 C-51.15774482 160.97207084 -78.98511875 160.28513748 -102.92773438 148.3347168 C-109.85876755 144.67185338 -116.08527198 140.40217165 -121.90234375 135.13671875 C-122.670625 134.44964844 -123.43890625 133.76257813 -124.23046875 133.0546875 C-131.33928566 126.3448348 -137.54024885 118.39515093 -140.90234375 109.13671875 C-140.95841797 110.87308594 -140.95841797 110.87308594 -141.015625 112.64453125 C-141.081318 114.18362436 -141.14776417 115.72268545 -141.21484375 117.26171875 C-141.24868164 118.40253906 -141.24868164 118.40253906 -141.28320312 119.56640625 C-141.51330496 124.41946323 -142.2184191 127.94189115 -144.90234375 132.13671875 C-149.77801164 135.38716401 -155.20758186 134.84321177 -160.90234375 134.13671875 C-163.93869683 132.03462816 -165.33345351 130.82658291 -166.50561523 127.34472656 C-167.00770992 124.55029928 -167.01391905 121.89807995 -167 119.05859375 C-166.99677734 117.8984375 -166.99355469 116.73828125 -166.99023438 115.54296875 C-166.98185547 114.33640625 -166.97347656 113.12984375 -166.96484375 111.88671875 C-166.96033203 110.6646875 -166.95582031 109.44265625 -166.95117188 108.18359375 C-166.9393919 105.16791929 -166.92294228 102.15234377 -166.90234375 99.13671875 C-167.54171875 98.99234375 -168.18109375 98.84796875 -168.83984375 98.69921875 C-170.90234375 98.13671875 -170.90234375 98.13671875 -171.90234375 97.13671875 C-172.00117711 95.67193369 -172.03313664 94.20248917 -172.03515625 92.734375 C-172.03644531 91.84427734 -172.03773438 90.95417969 -172.0390625 90.03710938 C-172.03519531 89.10060547 -172.03132812 88.16410156 -172.02734375 87.19921875 C-172.03121094 86.26658203 -172.03507813 85.33394531 -172.0390625 84.37304688 C-172.03777344 83.48166016 -172.03648437 82.59027344 -172.03515625 81.671875 C-172.03346436 80.44029663 -172.03346436 80.44029663 -172.03173828 79.18383789 C-171.90234375 77.13671875 -171.90234375 77.13671875 -170.90234375 75.13671875 C-169.41734375 74.64171875 -169.41734375 74.64171875 -167.90234375 74.13671875 C-167.57234375 71.16671875 -167.24234375 68.19671875 -166.90234375 65.13671875 C-168.22234375 64.80671875 -169.54234375 64.47671875 -170.90234375 64.13671875 C-172.72905572 60.48329481 -172.08705097 56.15832716 -172.08984375 52.13671875 C-172.10208984 51.20859375 -172.11433594 50.28046875 -172.12695312 49.32421875 C-172.12888672 48.43734375 -172.13082031 47.55046875 -172.1328125 46.63671875 C-172.13692139 45.82203125 -172.14103027 45.00734375 -172.14526367 44.16796875 C-171.90234375 42.13671875 -171.90234375 42.13671875 -169.90234375 40.13671875 C-168.91234375 40.13671875 -167.92234375 40.13671875 -166.90234375 40.13671875 C-166.90234375 31.22671875 -166.90234375 22.31671875 -166.90234375 13.13671875 C-168.55234375 12.80671875 -170.20234375 12.47671875 -171.90234375 12.13671875 C-173.99974438 10.60145476 -174.77186127 9.75980215 -175.30639648 7.20727539 C-175.3383548 4.87009273 -175.36016905 2.53662795 -175.33984375 0.19921875 C-175.35982422 -0.61224609 -175.37980469 -1.42371094 -175.40039062 -2.25976562 C-175.39725901 -6.07720003 -175.37664298 -8.19509266 -173.125 -11.3671875 C-167.54524634 -15.12297951 -160.48880288 -14.08503443 -154.02734375 -14.11328125 C-152.85558594 -14.13390625 -151.68382812 -14.15453125 -150.4765625 -14.17578125 C-139.21655682 -14.226905 -139.21655682 -14.226905 -134.90234375 -10.86328125 C-132.89157339 -7.3964358 -132.63008024 -4.32618601 -132.65234375 -0.36328125 C-132.64460938 1.0134375 -132.64460938 1.0134375 -132.63671875 2.41796875 C-132.99780565 6.11379942 -134.03182076 8.98921117 -136.27734375 11.94921875 C-137.90234375 13.13671875 -137.90234375 13.13671875 -141.90234375 13.13671875 C-141.40734375 21.55171875 -141.40734375 21.55171875 -140.90234375 30.13671875 C-140.05671875 28.50734375 -139.21109375 26.87796875 -138.33984375 25.19921875 C-127.65610603 5.70389361 -110.11242517 -8.06882463 -88.84326172 -14.484375 C-58.48908659 -22.99216304 -25.58846415 -19.4139554 0 0 Z M-106.71484375 25.88671875 C-113.13636596 33.81376531 -116.5243646 42.67090856 -118.25854492 52.6171875 C-119.00427984 56.31581078 -119.96211721 58.2031337 -122.50390625 61.02734375 C-126.56012408 63.5449962 -129.60027637 64.09822726 -134.27734375 64.44921875 C-135.01339844 64.52205078 -135.74945313 64.59488281 -136.5078125 64.66992188 C-138.30420781 64.84489544 -140.10313422 64.99355125 -141.90234375 65.13671875 C-141.90234375 68.10671875 -141.90234375 71.07671875 -141.90234375 74.13671875 C-140.80535156 74.24628906 -139.70835937 74.35585937 -138.578125 74.46875 C-137.12362859 74.62827541 -135.66920512 74.78846688 -134.21484375 74.94921875 C-133.13299805 75.05459961 -133.13299805 75.05459961 -132.02929688 75.16210938 C-127.67953209 75.65865787 -124.41694412 76.31448806 -120.90234375 79.13671875 C-119.86328125 80.9765625 -119.86328125 80.9765625 -119.27734375 83.07421875 C-118.92736328 84.2653125 -118.92736328 84.2653125 -118.5703125 85.48046875 C-118.10585077 87.32745108 -117.67320435 89.18260656 -117.265625 91.04296875 C-114.22755565 104.67037808 -107.11133074 114.78011965 -95.54296875 122.50390625 C-78.60720663 132.97601952 -60.25622564 135.6520094 -40.76953125 131.296875 C-26.14425841 127.23512958 -13.27022823 118.57149127 -5.40234375 105.44921875 C-1.95231297 99.33225673 -0.5838564 93.33492322 0.33203125 86.4140625 C1.20798578 82.6644408 2.41142991 80.86208865 5.09765625 78.13671875 C11.30346419 75.08825169 17.2443264 74.5020617 24.09765625 74.13671875 C24.09765625 71.16671875 24.09765625 68.19671875 24.09765625 65.13671875 C23.01226562 65.05035156 21.926875 64.96398437 20.80859375 64.875 C19.36316985 64.73421196 17.91786279 64.5922208 16.47265625 64.44921875 C15.40337891 64.36897461 15.40337891 64.36897461 14.3125 64.28710938 C8.7581481 63.70109977 5.98606574 62.17971333 2.09765625 58.13671875 C1.14453125 56.1796875 1.14453125 56.1796875 0.84765625 54.32421875 C0.6465625 53.28587891 0.6465625 53.28587891 0.44140625 52.2265625 C0.32796875 51.53691406 0.21453125 50.84726563 0.09765625 50.13671875 C-2.60240779 36.63639856 -9.40099618 25.5070474 -20.69897461 17.56323242 C-47.19425841 -0.08930078 -84.40453858 2.35326089 -106.71484375 25.88671875 Z " fill="#00000" transform="translate(186.90234375,57.86328125)"/>
<path d="M0 0 C4.91126203 -0.07424001 9.82219634 -0.12864411 14.73388672 -0.16479492 C16.40419201 -0.17986754 18.07445781 -0.2003292 19.74462891 -0.22631836 C22.14756013 -0.26276973 24.54996744 -0.27974131 26.953125 -0.29296875 C27.69806213 -0.30845261 28.44299927 -0.32393646 29.21051025 -0.33988953 C32.41379119 -0.34092581 34.64097348 -0.19939606 37.46875 1.37109375 C39.56708977 3.60325621 39.53249125 5.15492608 39.75 8.1875 C40.90543852 16.67790981 44.80368259 23.65069473 49 31 C49.46277344 31.81855469 49.92554688 32.63710937 50.40234375 33.48046875 C57.02049811 43.55857007 70.15038482 49.78970157 81 54 C81.87140625 54.3403125 82.7428125 54.680625 83.640625 55.03125 C101.71781487 60.73983627 123.06042225 57.88263218 139.6875 49.4375 C151.92249432 42.75766581 162.57492062 32.84305148 167.23828125 19.44140625 C168.24660933 15.97642432 169.14021594 12.50433313 170 9 C171.740638 2.259362 171.740638 2.259362 174 0 C176.79684797 -0.17525055 179.4932808 -0.23143189 182.2890625 -0.1953125 C183.51669815 -0.19106766 183.51669815 -0.19106766 184.76913452 -0.18673706 C187.38790393 -0.17552532 190.00633364 -0.15041929 192.625 -0.125 C194.39843257 -0.11497147 196.17187049 -0.1058454 197.9453125 -0.09765625 C202.29700626 -0.07558278 206.6484455 -0.04104644 211 0 C211 3.3 211 6.6 211 10 C198.625 10.495 198.625 10.495 186 11 C183.88238433 15.91042642 183.88238433 15.91042642 181.9296875 20.88671875 C178.87310372 29.0036468 174.5530794 35.37030317 169 42 C168.40703125 42.71929687 167.8140625 43.43859375 167.203125 44.1796875 C159.46010457 52.71071443 147.85851622 59.77810665 136.85961914 63.12036133 C134.94358911 63.70974545 133.04016196 64.34166515 131.15161133 65.01391602 C122.77070286 67.88754176 115.20338857 68.66742336 106.375 68.5625 C104.40539307 68.54606445 104.40539307 68.54606445 102.39599609 68.52929688 C79.28690492 68.01822225 59.40634156 60.04873734 42.796875 43.8515625 C33.76103533 34.29840376 29.0524897 23.28027182 25 11 C16.75 10.67 8.5 10.34 0 10 C0 6.7 0 3.4 0 0 Z " fill="#A3B4A2" transform="translate(23,140)"/>
<path d="M0 0 C1.71896484 -0.00483398 1.71896484 -0.00483398 3.47265625 -0.00976562 C23.35136007 0.11461762 43.21027926 6.18534522 58.5 19.3125 C58.5 19.9725 58.5 20.6325 58.5 21.3125 C59.36818359 21.68181641 59.36818359 21.68181641 60.25390625 22.05859375 C72.36336819 28.8188325 77.40757055 45.03521166 81.5 57.3125 C94.37 57.8075 94.37 57.8075 107.5 58.3125 C107.5 61.6125 107.5 64.9125 107.5 68.3125 C102.44634708 68.41147181 97.39325976 68.48401603 92.33886719 68.53222656 C90.62001721 68.55232628 88.90123548 68.57961089 87.18261719 68.61425781 C84.71011511 68.66285034 82.2385179 68.68548435 79.765625 68.703125 C78.61540863 68.73409271 78.61540863 68.73409271 77.44195557 68.76568604 C73.88622359 68.76717716 71.90121285 68.61446608 69.01977539 66.44580078 C67.15785052 63.83222656 66.94483462 62.12147067 66.6875 58.9375 C64.62971511 44.60276121 56.01938531 33.00540916 44.83984375 24.22265625 C26.63411686 11.96931724 6.70293138 8.71592591 -14.6875 12.3125 C-30.81984861 15.74629308 -45.65712624 25.04330942 -55.5 38.3125 C-60.37429342 45.97683016 -62.40287634 53.30443602 -63.6640625 62.16015625 C-64.5 65.3125 -64.5 65.3125 -66.04931641 66.99121094 C-69.50028469 68.85180472 -72.72862215 68.68483287 -76.546875 68.60546875 C-77.31807678 68.60122391 -78.08927856 68.59697906 -78.8838501 68.59260559 C-81.33959315 68.57585383 -83.79450629 68.53820939 -86.25 68.5 C-87.91795687 68.48494857 -89.58592665 68.47126097 -91.25390625 68.45898438 C-95.33625578 68.42596194 -99.41798732 68.37420484 -103.5 68.3125 C-103.5 65.0125 -103.5 61.7125 -103.5 58.3125 C-91.125 57.8175 -91.125 57.8175 -78.5 57.3125 C-76.5210997 52.09911585 -76.5210997 52.09911585 -74.68359375 46.8359375 C-68.50652224 29.04855879 -54.04621433 16.3405453 -37.5 8.3125 C-33.22834568 6.42217022 -28.94522937 4.74693548 -24.5 3.3125 C-23.71866699 3.05138428 -22.93733398 2.79026855 -22.13232422 2.52124023 C-14.68078245 0.22746719 -7.76136853 -0.1091306 0 0 Z " fill="#A3B4A2" transform="translate(126.5,46.6875)"/>
<path d="M0 0 C10.89 0 21.78 0 33 0 C33.99 2.64 34.98 5.28 36 8 C40.39716444 19.47932309 45.73310579 29.68355647 55 38 C55.928125 38.928125 56.85625 39.85625 57.8125 40.8125 C76.61465683 56.63083629 102.57607242 58.46979259 126 57 C131.82187438 56.20360189 137.37619604 54.66112359 143 53 C144.66229813 52.64552318 146.32748844 52.30264495 148 52 C144.96654739 55.49937507 141.57092793 56.45251425 137.27099609 57.89477539 C135.19784128 58.5952659 133.13061393 59.31376775 131.07226562 60.05664062 C122.72361182 62.90386938 115.16494531 63.66696647 106.375 63.5625 C104.40539307 63.54606445 104.40539307 63.54606445 102.39599609 63.52929688 C79.28690492 63.01822225 59.40634156 55.04873734 42.796875 38.8515625 C33.76103533 29.29840376 29.0524897 18.28027182 25 6 C16.75 5.67 8.5 5.34 0 5 C0 3.35 0 1.7 0 0 Z " fill="#A3B4A2" transform="translate(23,145)"/>
<path d="M0 0 C1.71896484 -0.00483398 1.71896484 -0.00483398 3.47265625 -0.00976562 C13.6090846 0.05365913 22.89835388 1.53944958 32.5 4.75 C33.14066406 4.95431641 33.78132812 5.15863281 34.44140625 5.36914062 C37.79632743 6.49328436 40.27145062 7.50223369 42.5 10.3125 C40.90671875 10.00505859 40.90671875 10.00505859 39.28125 9.69140625 C37.85419189 9.41913858 36.42710712 9.14701067 35 8.875 C34.30390625 8.74029297 33.6078125 8.60558594 32.890625 8.46679688 C8.22451662 3.78480408 -17.67712756 4.62097356 -39.53125 18.1953125 C-55.88543557 29.65222821 -64.26379505 44.60388515 -70.5 63.3125 C-81.39 63.3125 -92.28 63.3125 -103.5 63.3125 C-103.5 61.6625 -103.5 60.0125 -103.5 58.3125 C-91.125 57.8175 -91.125 57.8175 -78.5 57.3125 C-76.5210997 52.09911585 -76.5210997 52.09911585 -74.68359375 46.8359375 C-68.50652224 29.04855879 -54.04621433 16.3405453 -37.5 8.3125 C-33.22834568 6.42217022 -28.94522937 4.74693548 -24.5 3.3125 C-23.71866699 3.05138428 -22.93733398 2.79026855 -22.13232422 2.52124023 C-14.68078245 0.22746719 -7.76136853 -0.1091306 0 0 Z " fill="#A3B4A2" transform="translate(126.5,46.6875)"/>
<path d="M0 0 C8.91 0 17.82 0 27 0 C27 3.96 27 7.92 27 12 C25.2984375 12.2165625 25.2984375 12.2165625 23.5625 12.4375 C20.19222799 12.61171478 20.19222799 12.61171478 19 14 C18.84028023 16.37338639 18.7407567 18.72118272 18.68359375 21.09765625 C18.66281265 21.80651474 18.64203156 22.51537323 18.62062073 23.24571228 C18.55505402 25.51787305 18.4962077 27.79015264 18.4375 30.0625 C18.39432151 31.59962183 18.35070745 33.1367315 18.30664062 34.67382812 C18.19936551 38.4490959 18.09811863 42.2244836 18 46 C15.03 46 12.06 46 9 46 C8.97494385 45.03586182 8.9498877 44.07172363 8.92407227 43.07836914 C8.83014694 39.51312158 8.72989061 35.94807567 8.62768555 32.38305664 C8.58428015 30.83785711 8.54260929 29.29260786 8.50268555 27.74731445 C8.44511801 25.53060904 8.38138576 23.3141552 8.31640625 21.09765625 C8.29969376 20.4028566 8.28298126 19.70805695 8.26576233 18.99220276 C8.43497144 15.71237971 8.43497144 15.71237971 7 13 C4.67182036 12.63239269 2.3381615 12.29758419 0 12 C0 8.04 0 4.08 0 0 Z " fill="#A3B4A2" transform="translate(210,52)"/>
<path d="M0 0 C8.91 0 17.82 0 27 0 C27 3.96 27 7.92 27 12 C25.2984375 12.2165625 25.2984375 12.2165625 23.5625 12.4375 C20.19222799 12.61171478 20.19222799 12.61171478 19 14 C18.84028023 16.37338639 18.7407567 18.72118272 18.68359375 21.09765625 C18.66281265 21.80651474 18.64203156 22.51537323 18.62062073 23.24571228 C18.55505402 25.51787305 18.4962077 27.79015264 18.4375 30.0625 C18.39432151 31.59962183 18.35070745 33.1367315 18.30664062 34.67382812 C18.19936551 38.4490959 18.09811863 42.2244836 18 46 C15.03 46 12.06 46 9 46 C8.97494385 45.03586182 8.9498877 44.07172363 8.92407227 43.07836914 C8.83014694 39.51312158 8.72989061 35.94807567 8.62768555 32.38305664 C8.58428015 30.83785711 8.54260929 29.29260786 8.50268555 27.74731445 C8.44511801 25.53060904 8.38138576 23.3141552 8.31640625 21.09765625 C8.29969376 20.4028566 8.28298126 19.70805695 8.26576233 18.99220276 C8.43497144 15.71237971 8.43497144 15.71237971 7 13 C4.67182036 12.63239269 2.3381615 12.29758419 0 12 C0 8.04 0 4.08 0 0 Z " fill="#A3B4A2" transform="translate(19,52)"/>
<path d="M0 0 C2.97 0 5.94 0 9 0 C9 9.24 9 18.48 9 28 C6.36 28 3.72 28 1 28 C0 27 0 27 -0.11352539 24.40795898 C-0.10828857 23.28204346 -0.10305176 22.15612793 -0.09765625 20.99609375 C-0.09443359 19.78115234 -0.09121094 18.56621094 -0.08789062 17.31445312 C-0.07951172 16.03505859 -0.07113281 14.75566406 -0.0625 13.4375 C-0.05798828 12.15423828 -0.05347656 10.87097656 -0.04882812 9.54882812 C-0.03699545 6.36583978 -0.02051068 3.18294238 0 0 Z " fill="#A3B4A2" transform="translate(219,157)"/>
<path d="M0 0 C2.97 0 5.94 0 9 0 C9.02886338 4.47915328 9.04675187 8.95828291 9.0625 13.4375 C9.07087891 14.71689453 9.07925781 15.99628906 9.08789062 17.31445312 C9.09111328 18.52939453 9.09433594 19.74433594 9.09765625 20.99609375 C9.10289307 22.12200928 9.10812988 23.2479248 9.11352539 24.40795898 C9 27 9 27 8 28 C4.5 28.125 4.5 28.125 1 28 C0 27 0 27 -0.11352539 24.40795898 C-0.10828857 23.28204346 -0.10305176 22.15612793 -0.09765625 20.99609375 C-0.09443359 19.78115234 -0.09121094 18.56621094 -0.08789062 17.31445312 C-0.07951172 16.03505859 -0.07113281 14.75566406 -0.0625 13.4375 C-0.05798828 12.15423828 -0.05347656 10.87097656 -0.04882812 9.54882812 C-0.03699545 6.36583978 -0.02051068 3.18294238 0 0 Z " fill="#A3B4A2" transform="translate(28,157)"/>
<path d="M0 0 C2.97 0 5.94 0 9 0 C9 3.63 9 7.26 9 11 C6.03 11 3.06 11 0 11 C0 7.37 0 3.74 0 0 Z " fill="#A3B4A2" transform="translate(219,122)"/>
<path d="M0 0 C2.97 0 5.94 0 9 0 C9 3.63 9 7.26 9 11 C6.03 11 3.06 11 0 11 C0 7.37 0 3.74 0 0 Z " fill="#A3B4A2" transform="translate(28,122)"/>
</svg>
