<?xml version="1.0" standalone="no"?>
<!DOCTYPE svg PUBLIC "-//W3C//DTD SVG 20010904//EN" "http://www.w3.org/TR/2001/REC-SVG-20010904/DTD/svg10.dtd">
<svg version="1.0" xmlns="http://www.w3.org/2000/svg" width="1024pt" height="1024pt" viewBox="0 0 1024 1024" preserveAspectRatio="xMidYMid meet">
<g transform="translate(0,1024) scale(0.1,-0.1)">
  <path fill="#FFD800" d="M2905 8916 c-33 -14 -247 -134 -595 -331 -124 -71 -270 -154 -325
  -185 -55 -31 -206 -116 -335 -190 -129 -73 -305 -173 -390 -221 -215 -122
  -241 -139 -265 -179 -20 -34 -20 -49 -20 -626 l0 -590 27 -41 c17 -27 54 -58
  105 -89 43 -26 115 -71 161 -101 l82 -53 0 -228 0 -228 -119 -67 c-145 -82
  -166 -104 -174 -187 -4 -34 -5 -66 -2 -70 3 -5 -21 -16 -52 -25 -32 -9 -73
  -26 -92 -37 -60 -38 -61 -44 -61 -498 0 -394 1 -412 20 -451 20 -39 95 -96
  155 -119 l25 -10 1 -192 c2 -539 3 -561 21 -594 17 -31 60 -63 181 -134 l57
  -34 -2 -98 c-3 -92 -2 -99 22 -122 27 -27 271 -168 384 -222 82 -39 89 -39
  201 22 l81 43 164 -93 163 -94 -2 -75 c-3 -115 7 -130 147 -212 232 -135 290
  -165 323 -165 33 0 144 61 152 83 2 8 32 -2 93 -31 49 -23 97 -42 107 -42 20
  0 92 -29 230 -94 161 -76 138 -82 543 149 360 206 403 237 423 312 6 21 11 79
  11 129 l0 92 48 31 c186 119 472 180 791 168 284 -11 491 -65 663 -173 l38
  -24 0 -108 c0 -177 7 -186 295 -349 77 -44 187 -106 245 -138 58 -32 132 -74
  164 -93 41 -25 76 -37 111 -40 58 -5 55 -6 238 96 l118 65 51 -12 c47 -11 53
  -10 102 17 28 15 61 34 73 42 21 13 25 12 60 -22 71 -67 117 -75 192 -32 215
  124 354 210 366 227 11 15 15 48 15 112 l0 90 163 92 162 93 85 -45 c127 -66
  127 -66 365 69 111 63 209 126 220 140 16 22 21 48 25 129 l5 101 58 33 c99
  56 140 87 161 123 20 33 21 52 24 405 1 204 6 371 10 373 44 15 140 84 161
  116 l26 40 3 410 c3 410 2 411 -20 456 -21 40 -31 48 -98 77 l-75 32 -6 63
  c-9 99 -21 114 -161 194 l-123 70 -3 236 -2 235 110 69 c60 38 131 83 157 99
  35 22 55 45 76 84 l27 55 0 565 c0 528 -2 569 -19 606 -10 22 -27 47 -37 56
  -10 9 -129 78 -264 154 -135 76 -369 209 -520 295 -682 389 -991 562 -1074
  601 -69 33 -147 38 -212 15 -48 -16 -1298 -719 -1444 -811 -160 -100 -437
  -150 -709 -127 -218 19 -323 52 -505 161 -44 26 -144 83 -221 126 -77 44 -187
  105 -245 138 -58 33 -139 78 -180 102 -333 188 -683 383 -720 402 -52 26 -165
  31 -215 9z"/>

  <path fill="none" stroke="#000000" stroke-width="280" stroke-linejoin="round" stroke-linecap="round" 
  d="M2905 8916 c-33 -14 -247 -134 -595 -331 -124 -71 -270 -154 -325 -185 -55 -31 -206 -116 -335 -190 -129 -73 -305 -173 -390 -221 -215 -122 -241 -139 -265 -179 -20 -34 -20 -49 -20 -626 l0 -590 27 -41 c17 -27 54 -58 105 -89 43 -26 115 -71 161 -101 l82 -53 0 -228 0 -228 -119 -67 c-145 -82 -166 -104 -174 -187 -4 -34 -5 -66 -2 -70 3 -5 -21 -16 -52 -25 -32 -9 -73 -26 -92 -37 -60 -38 -61 -44 -61 -498 0 -394 1 -412 20 -451 20 -39 95 -96 155 -119 l25 -10 1 -192 c2 -539 3 -561 21 -594 17 -31 60 -63 181 -134 l57 -34 -2 -98 c-3 -92 -2 -99 22 -122 27 -27 271 -168 384 -222 82 -39 89 -39 201 22 l81 43 164 -93 163 -94 -2 -75 c-3 -115 7 -130 147 -212 232 -135 290 -165 323 -165 33 0 144 61 152 83 2 8 32 -2 93 -31 49 -23 97 -42 107 -42 20 0 92 -29 230 -94 161 -76 138 -82 543 149 360 206 403 237 423 312 6 21 11 79 11 129 l0 92 48 31 c186 119 472 180 791 168 284 -11 491 -65 663 -173 l38 -24 0 -108 c0 -177 7 -186 295 -349 77 -44 187 -106 245 -138 58 -32 132 -74 164 -93 41 -25 76 -37 111 -40 58 -5 55 -6 238 96 l118 65 51 -12 c47 -11 53 -10 102 17 28 15 61 34 73 42 21 13 25 12 60 -22 71 -67 117 -75 192 -32 215 124 354 210 366 227 11 15 15 48 15 112 l0 90 163 92 162 93 85 -45 c127 -66 127 -66 365 69 111 63 209 126 220 140 16 22 21 48 25 129 l5 101 58 33 c99 56 140 87 161 123 20 33 21 52 24 405 1 204 6 371 10 373 44 15 140 84 161 116 l26 40 3 410 c3 410 2 411 -20 456 -21 40 -31 48 -98 77 l-75 32 -6 63 c-9 99 -21 114 -161 194 l-123 70 -3 236 -2 235 110 69 c60 38 131 83 157 99 35 22 55 45 76 84 l27 55 0 565 c0 528 -2 569 -19 606 -10 22 -27 47 -37 56 -10 9 -129 78 -264 154 -135 76 -369 209 -520 295 -682 389 -991 562 -1074 601 -69 33 -147 38 -212 15 -48 -16 -1298 -719 -1444 -811 -160 -100 -437 -150 -709 -127 -218 19 -323 52 -505 161 -44 26 -144 83 -221 126 -77 44 -187 105 -245 138 -58 33 -139 78 -180 102 -333 188 -683 383 -720 402 -52 26 -165 31 -215 9z m177 -65 c45 -19 215 -114 868 -484 58 -32 166 -93 240 -134 74 -41 141 -81 149 -89 8 -7 18 -33 22 -56 l6 -43 2 38 c0 20 6 37 11 37 6 0 44 -20 85 -45 210 -128 416 -174 720 -162 245 10 395 49 565 146 47 27 101 58 120 69 19 11 148 84 285 162 138 78 293 166 345 195 52 30 113 64 135 78 94 57 458 260 510 283 87 40 124 33 296 -61 133 -72 596 -332 854 -480 306 -175 764 -434 794 -450 l34 -17 -69 -37 c-38 -21 -190 -107 -339 -192 -148 -85 -396 -226 -550 -314 -638 -361 -638 -361 -669 -452 -20 -59 -21 -192 -2 -238 43 -103 97 -141 458 -323 150 -76 383 -199 518 -274 135 -74 310 -170 390 -213 201 -108 192 -99 138 -126 l-44 -21 -55 34 c-62 40 -116 68 -87 46 9 -7 42 -29 72 -47 31 -19 53 -38 49 -42 -7 -6 -311 -181 -588 -339 -60 -34 -155 -88 -210 -120 -55 -32 -190 -108 -300 -170 -110 -62 -276 -156 -370 -209 -324 -185 -371 -211 -388 -211 -25 0 -489 246 -992 526 -82 45 -184 99 -225 118 -145 69 -448 116 -743 116 -191 0 -308 -11 -488 -46 -212 -41 -242 -54 -739 -331 -226 -126 -543 -300 -635 -348 l-90 -48 -85 50 c-47 28 -177 102 -290 166 -113 63 -288 162 -390 219 -102 58 -315 178 -475 268 -159 90 -321 181 -359 203 l-68 39 38 18 c48 23 38 25 -15 4 -34 -14 -42 -14 -63 -1 -13 8 -45 26 -72 42 l-48 27 38 18 c48 22 40 26 -10 5 -34 -14 -39 -14 -84 9 -97 50 -100 43 65 133 81 44 265 145 408 224 143 78 379 203 524 276 306 156 330 170 394 232 76 72 92 110 92 216 0 81 -3 95 -29 143 -39 70 -70 96 -207 171 -168 93 -429 240 -634 356 -99 56 -301 171 -450 255 -148 84 -282 161 -298 170 l-27 16 317 181 c772 439 987 561 1224 693 139 78 262 146 273 150 36 15 103 11 148 -9z m-1984 -1070 c35 -24 542 -314 747 -426 88 -49 207 -116 265 -150 58 -33 192 -110 298 -171 216 -121 265 -158 282 -209 22 -67 11 -67 -105 4 -60 37 -252 147 -425 245 -173 99 -362 206 -420 239 -110 63 -317 179 -557 312 -153 84 -159 90 -131 150 13 30 13 30 46 6z m8102 -46 c0 -37 -7 -42 -285 -195 -82 -45 -202 -112 -265 -148 -63 -35 -180 -102 -260 -147 -80 -45 -192 -109 -250 -142 -58 -33 -150 -86 -205 -118 -92 -53 -311 -180 -362 -212 -31 -18 -32 -17 -24 20 19 80 44 105 177 180 44 24 239 135 434 247 195 111 423 241 505 288 257 146 429 245 464 269 33 21 36 21 53 6 10 -9 18 -30 18 -48z
  m-7800 -298 c288 -167 594 -343 760 -436 91 -52 192 -110 225 -131 33 -20 117 -70 188 -111 143 -83 144 -84 89 -164 -42 -61 -112 -108 -292 -198 l-165 -83 -47 31 -47 30 0 145 c-1 158 -2 153 66 234 26 31 33 49 33 81 0 23 -6 49 -13 59 -13 18 -17 17 -68 -16 -30 -19 -73 -51 -97 -71 l-42 -35 -213 120 c-116 67 -256 145 -311 173 -94 51 -97 54 -75 65 71 37 209 123 209 131 0 21 -59 5 -163 -44 -62 -30 -121 -64 -132 -76 -19 -22 -20 -40 -23 -315 -4 -319 -2 -331 57 -370 20 -14 27 -25 23 -42 -2 -13 -6 -24 -8 -24 -13 0 -263 162 -283 184 -32 34 -38 118 -35 486 1 157 3 353 3 437 l1 152 103 -61 c56 -33 172 -101 257 -151z m7800 -307 l0 -520 -32 -35 c-27 -28 -259 -185 -274 -185 -2 0 -4 10 -4 22 0 12 17 39 38 61 l37 38 3 291 c3 256 1 293 -14 315 -15 24 -173 106 -268 139 -52 19 -71 2 -25 -21 19 -10 73 -40 122 -68 100 -57 104 -46 -38 -122 -49 -26 -115 -63 -145 -81 -30 -17 -119 -69 -198 -113 l-144 -82 -34 31 c-19 16 -62 44 -94 60 -33 17 -60 35 -60 42 0 6 -9 3 -20 -7 -35 -31 -27 -86 20 -140 71 -82 80 -109 80 -239 0 -112 -1 -116 -27 -140 -14 -14 -40 -32 -57 -41 -31 -17 -31 -17 -181 55 -83 39 -177 89 -210 111 -87 59 -138 131 -122 173 3 8 61 47 129 87 68 39 186 109 263 154 77 45 230 133 340 195 153 87 796 467 895 529 8 6 16 10 18 10 1 1 2 -233 2 -519z m-7510 -248 c36 -19 76 -43 90 -53 14 -9 60 -35 103 -57 l78 -40 -1 -268 c0 -167 -4 -272 -11 -279 -7 -7 -20 -4 -42 9 -18 10 -138 79 -267 153 -129 74 -250 146 -267 159 l-33 25 0 274 0 274 143 -81 c78 -44 171 -96 207 -116z m7222 -74 l3 -263 -31 -30 c-17 -16 -114 -77 -215 -134 -101 -58 -223 -128 -270 -156 -47 -28 -91 -49 -97 -47 -16 5 -17 562 -1 562 10 0 62 28 424 233 94 53 173 97 177 97 4 0 9 -118 10 -262z m-6763 1 c-6 -12 -29 -49 -50 -82 l-39 -60 0 -155 0 -154 38 -39 38 -38 -58 -30 -58 -31 0 30 c0 29 13 40 25 20 8 -13 35 -13 35 -1 0 6 -13 18 -30 28 l-30 17 0 206 c0 232 -7 210 85 279 48 36 60 38 44 10z m6016 -29 l63 -50 7 -73 c8 -87 3 -423 -7 -432 -4 -4 -17 0 -30 9 -17 12 -22 25 -21 54 l2 37 -11 -32 c-12 -36 -19 -39 -50 -22 -20 11 -19 11 8 40 15 16 35 29 45 29 9 0 20 7 23 16 10 26 7 277 -5 317 -5 21 -30 60 -55 88 -40 46 -53 69 -38 69 3 0 35 -23 69 -50z m-6630 -443 c139 -79 330 -191 335 -195 3 -3 1 -6 -5 -8 -5 -2 -104 -56 -220 -120 -115 -64 -216 -119 -222 -121 -10 -4 -13 51 -13 257 l0 262 33 -20 c17 -11 59 -36 92 -55z m7291 -445 c-3 -2 -58 25 -123 61 -332 183 -326 179 -311 191 13 12 180 112 343 205 l90 51 3 -252 c1 -138 0 -253 -2 -256z m291 -295 l5 -44 -88 -48 c-49 -26 -170 -94 -269 -150 -334 -189 -809 -458 -960 -543 -82 -46 -188 -106 -235 -132 -324 -183 -376 -210 -417 -216 -76 -11 -131 3 -242 63 -58 31 -167 88 -241 128 -74 39 -276 149 -448 243 -172 95 -315 172 -317 172 -3 0 -28 15 -57 32 -29 18 -59 34 -68 35 -8 1 -62 14 -120 27 -179 44 -356 59 -605 53 -226 -6 -319 -17 -513 -63 -74 -17 -127 -37 -172 -63 -36 -21 -173 -97 -305 -168 -132 -72 -294 -161 -360 -198 -145 -82 -361 -200 -430 -234 -72 -35 -150 -39 -228 -11 -34 13 -161 79 -282 147 -121 69 -258 146 -305 173 -47 26 -157 88 -245 138 -88 49 -263 148 -390 219 -126 71 -306 172 -400 225 -93 52 -200 112 -237 132 -63 34 -68 40 -68 70 0 18 6 40 13 51 13 17 22 14 148 -57 74 -41 213 -119 309 -173 96 -54 337 -190 535 -303 540 -307 477 -271 857 -482 154 -85 171 -92 205 -85 37 7 98 38 274 130 125 65 307 160 405 212 98 52 219 115 270 140 50 25 156 78 235 119 79 41 166 87 193 101 27 14 98 50 158 80 60 30 203 100 320 155 116 55 245 118 285 141 40 23 143 78 230 123 87 45 208 107 270 138 181 90 615 303 650 318 24 10 53 15 65 12 11 -3 19 -7 19 -9z"/>
</g>
</svg>