<?xml version="1.0" encoding="UTF-8"?>
<svg version="1.1" xmlns="http://www.w3.org/2000/svg" width="512" height="512">
<path d="M0 0 C0.67544861 -0.0087616 1.35089722 -0.01752319 2.04681396 -0.02655029 C4.26885132 -0.04847103 6.48888166 -0.03402082 8.7109375 -0.01708984 C10.26123434 -0.02046017 11.81152859 -0.02531459 13.36181641 -0.03158569 C16.6067019 -0.03894698 19.85089795 -0.0282766 23.09570312 -0.00488281 C27.2489408 0.02360583 31.40056301 0.00719768 35.55374146 -0.02274513 C38.75378527 -0.04083902 41.95344793 -0.03505079 45.15350342 -0.02210617 C46.68447055 -0.01877787 48.21547262 -0.02283903 49.74639893 -0.03450394 C51.8891524 -0.04724882 54.02931399 -0.02779228 56.171875 0 C57.3892334 0.00397797 58.6065918 0.00795593 59.86083984 0.01205444 C64.2254987 0.87131568 65.59151324 1.95417044 68.0859375 5.64697266 C68.80542851 9.17926563 68.76919599 12.63790483 68.73291016 16.23291016 C68.74167175 17.29850159 68.75043335 18.36409302 68.75946045 19.4619751 C68.7814571 22.98238915 68.7668995 26.50154595 68.75 30.02197266 C68.75336802 32.46907797 68.75822052 34.91618166 68.76449585 37.36328125 C68.7718676 42.49121024 68.76115116 47.61870368 68.73779297 52.74658203 C68.70930594 59.32098051 68.72570816 65.89435845 68.75565529 72.46871948 C68.77371954 77.52164403 68.76797403 82.57432647 68.75501633 87.6272583 C68.75167995 90.05137248 68.75577747 92.47550862 68.76741409 94.89959717 C68.78010752 98.28733579 68.7607641 101.67341984 68.73291016 105.06103516 C68.74303131 106.06378479 68.75315247 107.06653442 68.76358032 108.09967041 C68.6950014 112.59991757 68.54414379 114.96863368 65.97763062 118.76815796 C62.43571929 121.0694378 60.380759 121.28019193 56.171875 121.29394531 C55.15870209 121.30708771 55.15870209 121.30708771 54.12506104 121.32049561 C51.90302368 121.34241634 49.68299334 121.32796613 47.4609375 121.31103516 C45.91064066 121.31440548 44.36034641 121.3192599 42.81005859 121.32553101 C39.5651731 121.33289229 36.32097705 121.32222192 33.07617188 121.29882812 C28.9229342 121.27033948 24.77131199 121.28674763 20.61813354 121.31669044 C17.41808973 121.33478433 14.21842707 121.3289961 11.01837158 121.31605148 C9.48740445 121.31272318 7.95640238 121.31678434 6.42547607 121.32844925 C4.2827226 121.34119413 2.14256101 121.32173759 0 121.29394531 C-1.2173584 121.28996735 -2.4347168 121.28598938 -3.68896484 121.28189087 C-7.9479832 120.44342686 -9.24632675 119.0405056 -11.9140625 115.64697266 C-12.28177495 112.80823256 -12.40037054 110.62877115 -12.2265625 107.83447266 C-12.20400391 107.14160156 -12.18144531 106.44873047 -12.15820312 105.73486328 C-12.09968911 104.03795692 -12.0100173 102.34217405 -11.9140625 100.64697266 C-49.418485 100.72879681 -86.92286842 100.8209884 -124.42723055 100.92702427 C-128.85806235 100.93954268 -133.28889438 100.95197552 -137.71972656 100.96435547 C-138.60180081 100.96682146 -139.48387506 100.96928746 -140.39267883 100.97182818 C-154.66265219 101.01151851 -168.93263345 101.04428231 -183.20262972 101.07447247 C-197.85219205 101.10562036 -212.50172103 101.14424398 -227.15124583 101.18976271 C-236.18593337 101.21760085 -245.22059658 101.23965409 -254.25531539 101.25423516 C-260.45633924 101.26480235 -266.65731592 101.28265121 -272.85830417 101.30613969 C-276.43237432 101.31946543 -280.00637854 101.32966353 -283.58047485 101.33118629 C-287.46494839 101.33292574 -291.34927175 101.35004161 -295.23370361 101.36849976 C-296.35047021 101.36656502 -297.46723681 101.36463029 -298.61784482 101.36263692 C-311.5500708 101.45415112 -324.14880552 102.91193219 -334.26953125 111.68994141 C-343.66909666 121.65383345 -346.52177421 131.88981454 -346.25 145.24072266 C-345.76612138 154.55038733 -341.53459802 162.04324139 -335.15625 168.67431641 C-324.04882209 178.44653086 -311.56612133 179.80417942 -297.36112976 179.77827454 C-295.80290118 179.78144811 -295.80290118 179.78144811 -294.21319324 179.78468579 C-290.7445758 179.7906601 -287.275995 179.78968746 -283.80737305 179.78881836 C-281.31488483 179.79185168 -278.82239717 179.79537361 -276.32991028 179.79934692 C-270.96620771 179.80722491 -265.60251236 179.81239713 -260.23880577 179.81563759 C-251.74347836 179.8211562 -243.24819062 179.83807757 -234.75288391 179.85697937 C-231.84033877 179.86333556 -228.92779353 179.86964415 -226.0152483 179.87595654 C-225.28740067 179.8775403 -224.55955305 179.87912406 -223.80964943 179.88075582 C-215.53285182 179.89867563 -207.25605141 179.91490825 -198.97924805 179.92993164 C-198.22315858 179.93130751 -197.4670691 179.93268338 -196.68806783 179.93410095 C-184.46027951 179.95598863 -172.23250155 179.96677764 -160.00469711 179.97430239 C-147.41935796 179.98240339 -134.83410667 180.00579084 -122.24881774 180.04225606 C-114.50489938 180.064156 -106.76116229 180.07398439 -99.01721457 180.06775572 C-93.06324689 180.06417437 -87.10945132 180.08160391 -81.15553093 180.10643387 C-78.73016567 180.11330165 -76.30477001 180.11352037 -73.87940598 180.1062336 C-56.12830606 180.0583296 -39.20566041 181.28917839 -22.6640625 188.33447266 C-21.83890137 188.67768555 -21.01374023 189.02089844 -20.16357422 189.37451172 C-6.26780217 195.32869003 5.01522807 203.4327978 16.0859375 213.64697266 C16.91867187 214.39720703 17.75140625 215.14744141 18.609375 215.92041016 C39.36271757 235.50865279 51.22300314 265.24970953 52.47265625 293.45166016 C53.31014551 327.39897421 43.9528666 357.86956708 20.55078125 383.11181641 C-1.69985008 405.99717256 -30.60820606 420.41155554 -62.88791847 420.9772867 C-68.94702097 421.02639442 -75.0048611 421.02136384 -81.06398225 420.99516952 C-84.86877983 420.982081 -88.6735645 420.98660757 -92.4783783 420.98887634 C-99.05284824 420.99044107 -105.62722812 420.98111627 -112.20167542 420.96416283 C-121.70693138 420.93966784 -131.21214428 420.93195688 -140.71742839 420.92819885 C-156.14318651 420.92165074 -171.56889675 420.90173434 -186.99462891 420.87329102 C-201.96956138 420.84570782 -216.9444808 420.82449515 -231.91943359 420.81176758 C-232.84418564 420.81097941 -233.76893769 420.81019124 -234.72171253 420.80937918 C-239.36142846 420.80546376 -244.00114448 420.80167271 -248.64086056 420.79794347 C-287.06529471 420.7668987 -325.48967543 420.71410788 -363.9140625 420.64697266 C-363.85605469 421.67177734 -363.79804688 422.69658203 -363.73828125 423.75244141 C-363.69136293 425.11307276 -363.64586498 426.47375362 -363.6015625 427.83447266 C-363.55966797 428.50800781 -363.51777344 429.18154297 -363.47460938 429.87548828 C-363.37849345 433.81624119 -363.76926816 435.46278486 -366.23202515 438.59557152 C-369.63976848 441.20204102 -371.5650499 441.28001485 -375.828125 441.29394531 C-376.84129791 441.30708771 -376.84129791 441.30708771 -377.87493896 441.32049561 C-380.09697632 441.34241634 -382.31700666 441.32796613 -384.5390625 441.31103516 C-386.08935934 441.31440548 -387.63965359 441.3192599 -389.18994141 441.32553101 C-392.4348269 441.33289229 -395.67902295 441.32222192 -398.92382812 441.29882812 C-403.0770658 441.27033948 -407.22868801 441.28674763 -411.38186646 441.31669044 C-414.58191027 441.33478433 -417.78157293 441.3289961 -420.98162842 441.31605148 C-422.51259555 441.31272318 -424.04359762 441.31678434 -425.57452393 441.32844925 C-427.7172774 441.34119413 -429.85743899 441.32173759 -432 441.29394531 C-433.2173584 441.28996735 -434.4347168 441.28598938 -435.68896484 441.28189087 C-440.0536237 440.42262963 -441.41963824 439.33977487 -443.9140625 435.64697266 C-444.63355351 432.11467968 -444.59732099 428.65604049 -444.56103516 425.06103516 C-444.57417755 423.46264801 -444.57417755 423.46264801 -444.58758545 421.83197021 C-444.6095821 418.31155616 -444.5950245 414.79239936 -444.578125 411.27197266 C-444.58149302 408.82486734 -444.58634552 406.37776365 -444.59262085 403.93066406 C-444.5999926 398.80273507 -444.58927616 393.67524164 -444.56591797 388.54736328 C-444.53743094 381.9729648 -444.55383316 375.39958686 -444.58378029 368.82522583 C-444.60184454 363.77230128 -444.59609903 358.71961884 -444.58314133 353.66668701 C-444.57980495 351.24257283 -444.58390247 348.81843669 -444.59553909 346.39434814 C-444.60823252 343.00660953 -444.5888891 339.62052547 -444.56103516 336.23291016 C-444.57115631 335.23016052 -444.58127747 334.22741089 -444.59170532 333.1942749 C-444.5231264 328.69402775 -444.37226879 326.32531163 -441.80575562 322.52578735 C-438.26384429 320.22450752 -436.208884 320.01375339 -432 320 C-431.32455139 319.9912384 -430.64910278 319.98247681 -429.95318604 319.97344971 C-427.73114868 319.95152897 -425.51111834 319.96597918 -423.2890625 319.98291016 C-421.73876566 319.97953983 -420.18847141 319.97468541 -418.63818359 319.96841431 C-415.3932981 319.96105302 -412.14910205 319.9717234 -408.90429688 319.99511719 C-404.7510592 320.02360583 -400.59943699 320.00719768 -396.44625854 319.97725487 C-393.24621473 319.95916098 -390.04655207 319.96494921 -386.84649658 319.97789383 C-385.31552945 319.98122213 -383.78452738 319.97716097 -382.25360107 319.96549606 C-380.1108476 319.95275118 -377.97068601 319.97220772 -375.828125 320 C-374.6107666 320.00397797 -373.3934082 320.00795593 -372.13916016 320.01205444 C-367.8801418 320.85051846 -366.58179825 322.25343971 -363.9140625 325.64697266 C-363.54635005 328.48571275 -363.42775446 330.66517417 -363.6015625 333.45947266 C-363.62412109 334.15234375 -363.64667969 334.84521484 -363.66992188 335.55908203 C-363.72843589 337.25598839 -363.8181077 338.95177127 -363.9140625 340.64697266 C-326.40964 340.5651485 -288.90525658 340.47295692 -251.40089445 340.36692104 C-246.97006265 340.35440264 -242.53923062 340.34196979 -238.10839844 340.32958984 C-237.22632419 340.32712385 -236.34424994 340.32465786 -235.43544617 340.32211713 C-221.16547281 340.28242681 -206.89549155 340.249663 -192.62549528 340.21947284 C-177.97593295 340.18832495 -163.32640397 340.14970133 -148.67687917 340.1041826 C-139.64219163 340.07634446 -130.60752842 340.05429122 -121.57280961 340.03971015 C-115.37178576 340.02914296 -109.17080908 340.0112941 -102.96982083 339.98780562 C-99.39575068 339.97447988 -95.82174646 339.96428179 -92.24765015 339.96275902 C-88.36317661 339.96101958 -84.47885325 339.9439037 -80.59442139 339.92544556 C-79.47765479 339.92738029 -78.36088819 339.92931503 -77.21028018 339.93130839 C-62.91298743 339.83013437 -50.51198725 337.66260937 -39.734375 327.67041016 C-30.60205331 317.51903112 -29.05959165 306.84306763 -29.72314453 293.75097656 C-30.56150762 284.51182934 -36.36163547 276.47160548 -43.30859375 270.63525391 C-54.17827887 262.67083025 -64.27900165 261.49161571 -77.46026611 261.51567078 C-78.4983796 261.51355506 -79.53649309 261.51143935 -80.60606456 261.50925952 C-84.07234803 261.50328521 -87.53859483 261.50425786 -91.00488281 261.50512695 C-93.49574851 261.50209362 -95.98661365 261.49857168 -98.47747803 261.49459839 C-103.83790441 261.48672024 -109.19832356 261.48154809 -114.55875397 261.47830772 C-123.05015542 261.47278851 -131.5415172 261.4558663 -140.03289795 261.43696594 C-142.94433969 261.43060971 -145.85578153 261.42430112 -148.76722336 261.41798878 C-149.49480418 261.41640501 -150.222385 261.41482125 -150.97201373 261.4131895 C-159.24598807 261.39526933 -167.51996521 261.37903716 -175.79394531 261.36401367 C-176.54977247 261.3626378 -177.30559963 261.36126193 -178.08433065 261.35984436 C-190.30497688 261.33796169 -202.52561275 261.32716894 -214.7462751 261.31964292 C-227.325969 261.31153951 -239.90557507 261.28814397 -252.48521876 261.25168926 C-260.22452781 261.22979849 -267.96365557 261.21995805 -275.70299396 261.22618959 C-281.65523117 261.22977349 -287.60729645 261.21232861 -293.55948639 261.18751144 C-295.98281906 261.18064865 -298.40618213 261.18041943 -300.82951355 261.18771172 C-337.33802317 261.28638479 -367.22554587 251.54276107 -393.9140625 225.64697266 C-408.91240408 210.69947291 -419.28162884 190.95786981 -424.9140625 170.64697266 C-425.23375 169.52291016 -425.5534375 168.39884766 -425.8828125 167.24072266 C-430.41235678 147.94821925 -430.10658224 124.51005245 -423.9140625 105.64697266 C-423.69443848 104.96151367 -423.47481445 104.27605469 -423.24853516 103.56982422 C-412.8399233 71.85044513 -390.30647043 47.22400129 -360.9765625 31.89697266 C-353.85748411 28.46455986 -346.56371304 25.64668842 -338.9140625 23.64697266 C-337.61225871 23.2729181 -337.61225871 23.2729181 -336.28415585 22.89130688 C-322.99073075 19.63170365 -309.39156532 20.2402758 -295.79566538 20.29877579 C-291.97789841 20.31185112 -288.16014455 20.30733866 -284.34236145 20.30506897 C-277.7438648 20.30350343 -271.14545782 20.31283689 -264.54698372 20.32978249 C-255.00696267 20.35426622 -245.46698455 20.36198729 -235.92693549 20.36574646 C-220.44516229 20.37229632 -204.96343679 20.3922175 -189.48168945 20.4206543 C-174.45141843 20.44823295 -159.4211604 20.46944785 -144.39086914 20.48217773 C-142.99886649 20.48335999 -142.99886649 20.48335999 -141.57874257 20.48456613 C-136.92277194 20.48848152 -132.26680121 20.49227258 -127.61083043 20.49600184 C-89.04520775 20.52705206 -50.47963829 20.57984769 -11.9140625 20.64697266 C-11.97207031 19.62216797 -12.03007812 18.59736328 -12.08984375 17.54150391 C-12.13676207 16.18087255 -12.18226002 14.8201917 -12.2265625 13.45947266 C-12.26845703 12.7859375 -12.31035156 12.11240234 -12.35351562 11.41845703 C-12.44963155 7.47770412 -12.05885684 5.83116045 -9.59609985 2.69837379 C-6.18835652 0.09190429 -4.2630751 0.01393047 0 0 Z M8.0859375 20.64697266 C8.0859375 47.04697266 8.0859375 73.44697266 8.0859375 100.64697266 C21.2859375 100.64697266 34.4859375 100.64697266 48.0859375 100.64697266 C48.0859375 74.24697266 48.0859375 47.84697266 48.0859375 20.64697266 C34.8859375 20.64697266 21.6859375 20.64697266 8.0859375 20.64697266 Z M-297.9140625 40.64697266 C-297.9140625 53.84697266 -297.9140625 67.04697266 -297.9140625 80.64697266 C-284.7140625 80.64697266 -271.5140625 80.64697266 -257.9140625 80.64697266 C-257.9140625 67.44697266 -257.9140625 54.24697266 -257.9140625 40.64697266 C-271.1140625 40.64697266 -284.3140625 40.64697266 -297.9140625 40.64697266 Z M-237.9140625 40.64697266 C-237.9140625 53.84697266 -237.9140625 67.04697266 -237.9140625 80.64697266 C-224.7140625 80.64697266 -211.5140625 80.64697266 -197.9140625 80.64697266 C-197.9140625 67.44697266 -197.9140625 54.24697266 -197.9140625 40.64697266 C-211.1140625 40.64697266 -224.3140625 40.64697266 -237.9140625 40.64697266 Z M-177.9140625 40.64697266 C-177.9140625 53.84697266 -177.9140625 67.04697266 -177.9140625 80.64697266 C-164.7140625 80.64697266 -151.5140625 80.64697266 -137.9140625 80.64697266 C-137.9140625 67.44697266 -137.9140625 54.24697266 -137.9140625 40.64697266 C-151.1140625 40.64697266 -164.3140625 40.64697266 -177.9140625 40.64697266 Z M-117.9140625 40.64697266 C-117.9140625 53.84697266 -117.9140625 67.04697266 -117.9140625 80.64697266 C-104.7140625 80.64697266 -91.5140625 80.64697266 -77.9140625 80.64697266 C-77.9140625 67.44697266 -77.9140625 54.24697266 -77.9140625 40.64697266 C-91.1140625 40.64697266 -104.3140625 40.64697266 -117.9140625 40.64697266 Z M-57.9140625 40.64697266 C-57.9140625 53.84697266 -57.9140625 67.04697266 -57.9140625 80.64697266 C-42.7340625 80.64697266 -27.5540625 80.64697266 -11.9140625 80.64697266 C-11.9140625 67.44697266 -11.9140625 54.24697266 -11.9140625 40.64697266 C-27.0940625 40.64697266 -42.2740625 40.64697266 -57.9140625 40.64697266 Z M-365.9140625 59.64697266 C-367.2340625 60.96697266 -368.5540625 62.28697266 -369.9140625 63.64697266 C-361.0040625 72.55697266 -352.0940625 81.46697266 -342.9140625 90.64697266 C-339.79020292 89.39742882 -337.1675044 88.28817758 -334.2890625 86.70947266 C-330.06401829 84.54444044 -325.73238134 83.39178568 -321.13671875 82.26025391 C-318.95858173 81.85601074 -318.95858173 81.85601074 -317.9140625 80.64697266 C-317.82541042 77.76263446 -317.79884954 74.90235108 -317.81640625 72.01806641 C-317.8178212 71.1538356 -317.81923615 70.2896048 -317.82069397 69.39918518 C-317.82631011 66.62757973 -317.83886531 63.85605386 -317.8515625 61.08447266 C-317.85657542 59.21012486 -317.86113869 57.33577581 -317.86523438 55.46142578 C-317.87628478 50.85657722 -317.8935602 46.25178845 -317.9140625 41.64697266 C-334.55624181 41.64697266 -352.81075938 49.81949532 -365.9140625 59.64697266 Z M-385.9140625 78.64697266 C-398.17531157 94.24980678 -404.72500656 110.9454692 -406.9140625 130.64697266 C-394.0440625 130.64697266 -381.1740625 130.64697266 -367.9140625 130.64697266 C-366.9240625 127.67697266 -365.9340625 124.70697266 -364.9140625 121.64697266 C-364.27924836 120.0506018 -363.6205213 118.46295633 -362.9140625 116.89697266 C-362.58148438 116.15576172 -362.24890625 115.41455078 -361.90625 114.65087891 C-360.9140625 112.64697266 -360.9140625 112.64697266 -359.0390625 109.83447266 C-358.6678125 109.11259766 -358.2965625 108.39072266 -357.9140625 107.64697266 C-359.26077414 103.52092583 -362.52926233 100.76070481 -365.54296875 97.78759766 C-366.0926683 97.23835632 -366.64236786 96.68911499 -367.20872498 96.12322998 C-368.36717105 94.96779681 -369.52803844 93.81478682 -370.69116211 92.6640625 C-372.47897101 90.89458885 -374.25856954 89.11716409 -376.03710938 87.33837891 C-377.16359019 86.21681058 -378.29052745 85.09570046 -379.41796875 83.97509766 C-379.95337784 83.44080139 -380.48878693 82.90650513 -381.04042053 82.35601807 C-383.12936822 79.79535833 -383.12936822 79.79535833 -385.9140625 78.64697266 Z M-406.9140625 150.64697266 C-404.09259472 170.39724713 -398.6105313 187.09379838 -385.9140625 202.64697266 C-379.54815946 197.40238679 -373.77835638 191.62599944 -367.9765625 185.77197266 C-366.99698013 184.78736346 -366.01716413 183.80298665 -365.03710938 182.81884766 C-362.66045998 180.43049063 -360.28618894 178.03982053 -357.9140625 175.64697266 C-359.64879267 171.26555556 -361.58691511 167.01735395 -363.59765625 162.75634766 C-365.2683213 158.81020706 -366.55895559 154.71229338 -367.9140625 150.64697266 C-380.7840625 150.64697266 -393.6540625 150.64697266 -406.9140625 150.64697266 Z M-345.61962891 193.12548828 C-346.75677067 194.26294792 -347.88839478 195.40593984 -349.015625 196.55322266 C-349.61208832 197.15251587 -350.20855164 197.75180908 -350.8230896 198.3692627 C-352.73314162 200.29053873 -354.63613577 202.21864161 -356.5390625 204.14697266 C-357.83027131 205.44820839 -359.12193224 206.74899567 -360.4140625 208.04931641 C-363.58600502 211.24334875 -366.75163322 214.44352204 -369.9140625 217.64697266 C-366.04817298 221.63372279 -362.47365218 224.41596045 -357.6640625 227.08447266 C-356.62113037 227.66370483 -356.62113037 227.66370483 -355.55712891 228.25463867 C-350.60184855 230.91966806 -345.57698342 233.16531152 -340.2890625 235.08447266 C-339.34305176 235.43626587 -339.34305176 235.43626587 -338.37792969 235.79516602 C-331.5355882 238.1238693 -325.37221216 238.5815227 -317.9140625 239.64697266 C-317.9140625 226.77697266 -317.9140625 213.90697266 -317.9140625 200.64697266 C-320.8840625 199.65697266 -323.8540625 198.66697266 -326.9140625 197.64697266 C-329.43540401 196.45881273 -331.8934371 195.26051362 -334.3515625 193.95947266 C-340.13906927 190.29765148 -340.13906927 190.29765148 -345.61962891 193.12548828 Z M-297.9140625 200.64697266 C-297.9140625 213.51697266 -297.9140625 226.38697266 -297.9140625 239.64697266 C-284.7140625 239.64697266 -271.5140625 239.64697266 -257.9140625 239.64697266 C-257.9140625 226.77697266 -257.9140625 213.90697266 -257.9140625 200.64697266 C-271.1140625 200.64697266 -284.3140625 200.64697266 -297.9140625 200.64697266 Z M-237.9140625 200.64697266 C-237.9140625 213.51697266 -237.9140625 226.38697266 -237.9140625 239.64697266 C-224.7140625 239.64697266 -211.5140625 239.64697266 -197.9140625 239.64697266 C-197.9140625 226.77697266 -197.9140625 213.90697266 -197.9140625 200.64697266 C-211.1140625 200.64697266 -224.3140625 200.64697266 -237.9140625 200.64697266 Z M-177.9140625 200.64697266 C-177.9140625 213.51697266 -177.9140625 226.38697266 -177.9140625 239.64697266 C-164.7140625 239.64697266 -151.5140625 239.64697266 -137.9140625 239.64697266 C-137.9140625 226.77697266 -137.9140625 213.90697266 -137.9140625 200.64697266 C-151.1140625 200.64697266 -164.3140625 200.64697266 -177.9140625 200.64697266 Z M-117.9140625 200.64697266 C-117.9140625 213.84697266 -117.9140625 227.04697266 -117.9140625 240.64697266 C-104.7140625 240.64697266 -91.5140625 240.64697266 -77.9140625 240.64697266 C-77.9140625 227.44697266 -77.9140625 214.24697266 -77.9140625 200.64697266 C-91.1140625 200.64697266 -104.3140625 200.64697266 -117.9140625 200.64697266 Z M-57.9140625 201.64697266 C-57.9140625 214.51697266 -57.9140625 227.38697266 -57.9140625 240.64697266 C-54.9440625 241.63697266 -51.9740625 242.62697266 -48.9140625 243.64697266 C-45.82346781 245.18750546 -42.80336644 246.77701505 -39.80273438 248.48095703 C-37.86356914 249.56014827 -37.86356914 249.56014827 -34.9140625 250.64697266 C-30.77202461 249.35876848 -28.01439079 246.00067461 -25.0546875 242.98291016 C-24.50544617 242.43083893 -23.95620483 241.8787677 -23.39031982 241.30996704 C-21.64346957 239.55195451 -19.90371649 237.78710375 -18.1640625 236.02197266 C-16.97832659 234.82620185 -15.7921337 233.630884 -14.60546875 232.43603516 C-11.70301165 229.51157013 -8.8068984 226.58095392 -5.9140625 223.64697266 C-18.53048288 210.69068462 -37.33117328 204.21677954 -54.9140625 201.64697266 C-55.9040625 201.64697266 -56.8940625 201.64697266 -57.9140625 201.64697266 Z M6.49389648 241.12548828 C5.3540398 242.26550426 4.21695375 243.40829444 3.08203125 244.55322266 C2.48415298 245.15251587 1.88627472 245.75180908 1.27027893 246.3692627 C-0.64768273 248.29284309 -2.56214727 250.21986331 -4.4765625 252.14697266 C-5.77255839 253.44798113 -7.06877937 254.74876544 -8.36523438 256.04931641 C-11.55079929 259.24593518 -14.73323101 262.44564408 -17.9140625 265.64697266 C-16.73834607 268.63009727 -15.51792853 271.46161051 -13.9765625 274.27197266 C-11.81153029 278.49701686 -10.65887553 282.82865382 -9.52734375 287.42431641 C-9.12310058 289.60245342 -9.12310058 289.60245342 -7.9140625 290.64697266 C-5.0297243 290.73562473 -2.16944092 290.76218562 0.71484375 290.74462891 C1.57907455 290.74321396 2.44330536 290.74179901 3.33372498 290.74034119 C6.10533042 290.73472504 8.8768563 290.72216985 11.6484375 290.70947266 C13.5227853 290.70445973 15.39713435 290.69989647 17.27148438 290.69580078 C21.87633294 290.68475037 26.48112171 290.66747495 31.0859375 290.64697266 C28.58294495 271.32205103 22.76854284 253.8042327 10.0859375 238.64697266 C8.60867644 238.53178898 8.60867644 238.53178898 6.49389648 241.12548828 Z M-7.9140625 310.64697266 C-8.9040625 313.61697266 -9.8940625 316.58697266 -10.9140625 319.64697266 C-12.45459531 322.73756734 -14.04410489 325.75766872 -15.74804688 328.75830078 C-16.82723812 330.69746601 -16.82723812 330.69746601 -17.9140625 333.64697266 C-16.62585832 337.78901054 -13.26776446 340.54664437 -10.25 343.50634766 C-9.42189316 344.33020966 -9.42189316 344.33020966 -8.57705688 345.17071533 C-6.81904435 346.91756559 -5.0541936 348.65731867 -3.2890625 350.39697266 C-2.0932917 351.58270857 -0.89797385 352.76890146 0.296875 353.95556641 C3.22134003 356.85802351 6.15195624 359.75413676 9.0859375 362.64697266 C22.35981233 349.74622054 27.82860092 331.38944845 31.0859375 313.64697266 C31.0859375 312.65697266 31.0859375 311.66697266 31.0859375 310.64697266 C18.2159375 310.64697266 5.3459375 310.64697266 -7.9140625 310.64697266 Z M-423.9140625 340.64697266 C-423.9140625 367.04697266 -423.9140625 393.44697266 -423.9140625 420.64697266 C-410.7140625 420.64697266 -397.5140625 420.64697266 -383.9140625 420.64697266 C-383.9140625 394.24697266 -383.9140625 367.84697266 -383.9140625 340.64697266 C-397.1140625 340.64697266 -410.3140625 340.64697266 -423.9140625 340.64697266 Z M-43.24414062 354.89501953 C-48.13282098 357.4163259 -52.53265909 358.85317152 -57.9140625 360.64697266 C-57.9140625 373.51697266 -57.9140625 386.38697266 -57.9140625 399.64697266 C-38.16378803 396.82550487 -21.46723678 391.34344146 -5.9140625 378.64697266 C-10.71690805 372.8368189 -15.89945627 367.47536011 -21.22900391 362.14672852 C-22.68031552 360.69319475 -24.12339738 359.23179093 -25.56640625 357.77001953 C-26.48035156 356.85414063 -27.39429688 355.93826172 -28.3359375 354.99462891 C-29.16706055 354.15939697 -29.99818359 353.32416504 -30.85449219 352.46362305 C-34.99844909 348.80843299 -39.03958777 352.66962636 -43.24414062 354.89501953 Z M-363.9140625 360.64697266 C-363.9140625 373.84697266 -363.9140625 387.04697266 -363.9140625 400.64697266 C-348.7340625 400.64697266 -333.5540625 400.64697266 -317.9140625 400.64697266 C-317.9140625 387.44697266 -317.9140625 374.24697266 -317.9140625 360.64697266 C-333.0940625 360.64697266 -348.2740625 360.64697266 -363.9140625 360.64697266 Z M-297.9140625 360.64697266 C-297.9140625 373.84697266 -297.9140625 387.04697266 -297.9140625 400.64697266 C-284.7140625 400.64697266 -271.5140625 400.64697266 -257.9140625 400.64697266 C-257.9140625 387.44697266 -257.9140625 374.24697266 -257.9140625 360.64697266 C-271.1140625 360.64697266 -284.3140625 360.64697266 -297.9140625 360.64697266 Z M-237.9140625 360.64697266 C-237.9140625 373.84697266 -237.9140625 387.04697266 -237.9140625 400.64697266 C-224.7140625 400.64697266 -211.5140625 400.64697266 -197.9140625 400.64697266 C-197.9140625 387.44697266 -197.9140625 374.24697266 -197.9140625 360.64697266 C-211.1140625 360.64697266 -224.3140625 360.64697266 -237.9140625 360.64697266 Z M-177.9140625 360.64697266 C-177.9140625 373.84697266 -177.9140625 387.04697266 -177.9140625 400.64697266 C-164.7140625 400.64697266 -151.5140625 400.64697266 -137.9140625 400.64697266 C-137.9140625 387.44697266 -137.9140625 374.24697266 -137.9140625 360.64697266 C-151.1140625 360.64697266 -164.3140625 360.64697266 -177.9140625 360.64697266 Z M-117.9140625 360.64697266 C-117.9140625 373.84697266 -117.9140625 387.04697266 -117.9140625 400.64697266 C-104.7140625 400.64697266 -91.5140625 400.64697266 -77.9140625 400.64697266 C-77.9140625 387.44697266 -77.9140625 374.24697266 -77.9140625 360.64697266 C-91.1140625 360.64697266 -104.3140625 360.64697266 -117.9140625 360.64697266 Z " fill="#2060df" transform="translate(443.9140625,35.35302734375)"/>
</svg>
