<?xml version="1.0" encoding="UTF-8"?>
<svg version="1.1" xmlns="http://www.w3.org/2000/svg" width="512" height="512">
<path d="M0 0 C17.16 0 34.32 0 52 0 C52 11.22 52 22.44 52 34 C57.28 34 62.56 34 68 34 C68.33 32.35 68.66 30.7 69 29 C70.79850707 26.20232234 72.0944442 25.97551447 75.375 25.125 C79.47914867 24.98347763 80.94470398 25.29388067 84 28 C84.66 29.98 85.32 31.96 86 34 C91.28 34 96.56 34 102 34 C102.66 32.02 103.32 30.04 104 28 C106.99779629 25.344809 108.54067785 25 112.5625 25 C116.63961965 26.18607117 117.85227928 27.39182919 120 31 C120 31.99 120 32.98 120 34 C125.28 34 130.56 34 136 34 C136.66 32.02 137.32 30.04 138 28 C141.01396795 25.33048553 142.51746011 24.99153439 146.5625 25.0625 C150.29217435 26.07968391 151.76820071 26.87548099 154 30 C154 31.32 154 32.64 154 34 C156.60872469 33.99399603 159.20545701 33.94673291 161.8125 33.875 C162.55048828 33.87757813 163.28847656 33.88015625 164.04882812 33.8828125 C166.50073996 33.8560086 166.50073996 33.8560086 170 33 C171.99316679 30.13453042 171.99316679 30.13453042 173 27 C175.64444635 24.82777621 177.02987018 25.00106679 180.5 25.125 C184.30676042 26.07669011 185.73772235 26.83281129 188 30 C188 31.32 188 32.64 188 34 C193.61 34 199.22 34 205 34 C205.33 32.02 205.66 30.04 206 28 C209.20576091 25.68887004 211.17078758 24.98341575 215.125 25.0625 C218.53228934 26.17357261 219.79063382 27.19165042 222 30 C222.50336456 33.0110321 222.50336456 33.0110321 222.50793457 36.60424805 C222.51417453 37.26637897 222.5204145 37.92850988 222.52684355 38.61070538 C222.54279099 40.82807272 222.53016373 43.04434338 222.51757812 45.26171875 C222.52299852 46.85186403 222.53012071 48.44200428 222.53881836 50.03213501 C222.55706471 54.3503359 222.54997889 58.66815483 222.53730202 62.98636246 C222.5271811 67.50353278 222.53656517 72.0206702 222.54284668 76.5378418 C222.55012574 84.12392046 222.54052862 91.70984341 222.52148438 99.29589844 C222.4997151 108.06879627 222.50676629 116.84132227 222.52879 125.61421108 C222.54693665 133.14383599 222.54950593 140.67334891 222.53903532 148.20298862 C222.53279633 152.70125486 222.53197584 157.19934628 222.54518127 161.69760132 C222.55672853 165.92648109 222.54873496 170.15488107 222.52560425 174.38370895 C222.52031109 175.93652932 222.52184134 177.48939 222.53065491 179.04219437 C222.54157099 181.1605936 222.52789757 183.27745124 222.50793457 185.39575195 C222.50567242 187.17439384 222.50567242 187.17439384 222.50336456 188.9889679 C221.89503654 192.62787166 220.89413329 193.78241348 218 196 C214.27102074 197.2159715 212.43750407 197.14033149 208.6875 195.9375 C206 194 206 194 205 188 C199.39 188 193.78 188 188 188 C187.67 189.65 187.34 191.3 187 193 C185.20149293 195.79767766 183.9055558 196.02448553 180.625 196.875 C176.53967894 197.01587314 175.07731302 196.63769688 172 194 C171.34 192.35 170.68 190.7 170 189 C164.72 188.67 159.44 188.34 154 188 C153.67 189.65 153.34 191.3 153 193 C151.20149293 195.79767766 149.9055558 196.02448553 146.625 196.875 C142.52085133 197.01652237 141.05529602 196.70611933 138 194 C137.34 192.02 136.68 190.04 136 188 C130.72 188 125.44 188 120 188 C119.67 189.65 119.34 191.3 119 193 C117.20149293 195.79767766 115.9055558 196.02448553 112.625 196.875 C108.52085133 197.01652237 107.05529602 196.70611933 104 194 C103.34 192.02 102.68 190.04 102 188 C96.72 188 91.44 188 86 188 C85.34 189.98 84.68 191.96 84 194 C81.00220371 196.655191 79.45932215 197 75.4375 197 C71.36038035 195.81392883 70.14772072 194.60817081 68 191 C68 190.01 68 189.02 68 188 C62.72 188 57.44 188 52 188 C52 199.22 52 210.44 52 222 C34.84 222 17.68 222 0 222 C0 216.39 0 210.78 0 205 C-11.22 205 -22.44 205 -34 205 C-34 199.39 -34 193.78 -34 188 C-118.48 188 -202.96 188 -290 188 C-290 137.18 -290 86.36 -290 34 C-205.52 34 -121.04 34 -34 34 C-34 28.39 -34 22.78 -34 17 C-22.78 17 -11.56 17 0 17 C0 11.39 0 5.78 0 0 Z M18 18 C18 79.38 18 140.76 18 204 C23.28 204 28.56 204 34 204 C34 142.62 34 81.24 34 18 C28.72 18 23.44 18 18 18 Z M-16 35 C-16 85.16 -16 135.32 -16 187 C-10.72 187 -5.44 187 0 187 C0 136.84 0 86.68 0 35 C-5.28 35 -10.56 35 -16 35 Z M-272 52 C-272 90.94 -272 129.88 -272 170 C-193.46 170 -114.92 170 -34 170 C-34 131.06 -34 92.12 -34 52 C-112.54 52 -191.08 52 -272 52 Z M52 52 C52 90.94 52 129.88 52 170 C57.28 170 62.56 170 68 170 C68 131.06 68 92.12 68 52 C62.72 52 57.44 52 52 52 Z M86 52 C86 90.94 86 129.88 86 170 C91.28 170 96.56 170 102 170 C102 131.06 102 92.12 102 52 C96.72 52 91.44 52 86 52 Z M120 52 C120 90.94 120 129.88 120 170 C125.28 170 130.56 170 136 170 C136 131.06 136 92.12 136 52 C130.72 52 125.44 52 120 52 Z M154 52 C154 90.94 154 129.88 154 170 C159.28 170 164.56 170 170 170 C170 131.06 170 92.12 170 52 C164.72 52 159.44 52 154 52 Z M188 52 C188 90.94 188 129.88 188 170 C193.28 170 198.56 170 204 170 C204 131.06 204 92.12 204 52 C198.72 52 193.44 52 188 52 Z " fill="#2060df" transform="translate(290,145)"/>
</svg>
