<?xml version="1.0" encoding="UTF-8"?>
<svg version="1.1" xmlns="http://www.w3.org/2000/svg" width="256" height="256">
<path d="M0 0 C1.22015305 -0.0038269 2.44030609 -0.00765381 3.69743347 -0.01159668 C6.28389305 -0.01431852 8.87038004 -0.00693849 11.45678711 0.00976562 C15.36571901 0.03096661 19.27276977 0.01007662 23.18164062 -0.015625 C47.22495938 -0.04362217 65.94312071 2.94986646 83.60546875 20.53125 C85.63589853 23.04022582 87.49719383 25.61861372 89.35296631 28.25874329 C100.53850097 44.01302355 114.91401835 62.69732724 135.03993225 66.21199512 C159.53597529 69.56951277 185.1275832 67.10404533 209.60546875 64.53125 C208.67686035 63.62882568 207.74825195 62.72640137 206.79150391 61.79663086 C203.33848568 58.43434446 199.90223136 55.05534722 196.47070312 51.67114258 C194.9852927 50.21082355 193.49541859 48.75503014 192.00097656 47.30395508 C189.84932306 45.21318391 187.71443055 43.1064774 185.58203125 40.99609375 C184.91426666 40.35413559 184.24650208 39.71217743 183.5585022 39.05076599 C179.55993857 35.05463604 177.51945202 32.16119851 176.60546875 26.53125 C177.55941186 22.62875546 178.19957058 21.80184878 181.60546875 19.53125 C185.75193444 19.0302015 187.84453781 19.01717551 191.34544373 21.38233948 C192.21814407 22.24947067 193.09084442 23.11660187 193.98999023 24.01000977 C194.72304131 24.72466148 194.72304131 24.72466148 195.47090149 25.45375061 C197.07413098 27.02628526 198.65051813 28.62291101 200.2265625 30.22265625 C201.33654961 31.32792509 202.44757384 32.43215328 203.55958557 33.53538513 C205.8832335 35.84872646 208.19378432 38.17421937 210.49584961 40.5090332 C213.4437002 43.49676774 216.42187048 46.45196706 219.41058254 49.39875889 C221.70959919 51.6724464 223.99163972 53.96258714 226.26893806 56.25800896 C227.3606136 57.35434474 228.45748743 58.44553012 229.55962944 59.53134346 C231.0995964 61.05347165 232.61525042 62.59635609 234.12670898 64.14672852 C234.99384018 65.01942886 235.86097137 65.89212921 236.75437927 66.79127502 C239.13581483 70.31626607 239.17061634 72.35512922 238.60546875 76.53125 C237.41877747 78.61561584 237.41877747 78.61561584 235.71801758 80.34790039 C235.07514801 81.01894806 234.43227844 81.68999573 233.76992798 82.38137817 C233.05565643 83.09083588 232.34138489 83.80029358 231.60546875 84.53125 C230.86549652 85.2939621 230.12552429 86.05667419 229.36312866 86.84249878 C226.86447107 89.40476288 224.33826509 91.93711869 221.8046875 94.46484375 C220.88710159 95.38338638 219.96951569 96.30192902 219.02412415 97.24830627 C217.09867267 99.17521949 215.17145568 101.10034375 213.24291992 103.02416992 C210.7702716 105.49107339 208.30220556 107.96250536 205.8354063 110.435256 C203.47342161 112.80171121 201.10764786 115.16436268 198.7421875 117.52734375 C197.85577072 118.41578476 196.96935394 119.30422577 196.05607605 120.21958923 C194.82888603 121.44205101 194.82888603 121.44205101 193.5769043 122.68920898 C192.85633347 123.40898422 192.13576263 124.12875946 191.39335632 124.87034607 C189.04644704 127.05056753 187.94853925 127.49395973 184.73046875 127.84375 C181.60546875 127.53125 181.60546875 127.53125 179.29296875 125.78125 C177.58272826 123.50092934 176.77671094 122.35674608 176.60546875 119.53125 C177.97338772 114.08235226 181.91744951 110.83911138 185.80078125 107.04296875 C186.50822479 106.33977005 187.21566833 105.63657135 187.94454956 104.9120636 C190.19956433 102.67380438 192.46479902 100.44621808 194.73046875 98.21875 C196.26370704 96.70056249 197.79626733 95.18168992 199.328125 93.66210938 C203.07941637 89.94384586 206.83914697 86.23428471 210.60546875 82.53125 C160.6557292 74.99260466 160.6557292 74.99260466 115.03744507 90.2555542 C103.36887905 100.00171024 93.31255439 111.86537504 84.35543823 124.11564636 C77.95812447 132.81697602 70.60783788 138.2294034 60.60546875 142.34375 C59.71859375 142.72144531 58.83171875 143.09914062 57.91796875 143.48828125 C48.83834365 146.3470783 39.8852725 146.83002825 30.421875 146.796875 C28.5949839 146.79974518 28.5949839 146.79974518 26.73118591 146.80267334 C24.17731518 146.80402577 21.62343735 146.80039569 19.06958008 146.79199219 C15.15495548 146.78121417 11.24078299 146.79195308 7.32617188 146.8046875 C4.83723857 146.80336701 2.34830555 146.80080691 -0.140625 146.796875 C-1.89529335 146.80294769 -1.89529335 146.80294769 -3.68540955 146.80914307 C-4.77076492 146.80283875 -5.8561203 146.79653442 -6.97436523 146.79003906 C-7.92713852 146.78844788 -8.8799118 146.78685669 -9.86155701 146.78521729 C-12.52841237 146.51782648 -14.14956562 145.97536343 -16.39453125 144.53125 C-17.95924358 141.40182535 -18.09155083 137.92042777 -17.39453125 134.53125 C-15.3428567 131.98906458 -14.13826292 130.68153502 -10.89279175 130.02572632 C-9.95476715 130.02287628 -9.01674255 130.02002625 -8.05029297 130.01708984 C-6.98173065 130.0038266 -5.91316833 129.99056335 -4.81222534 129.97689819 C-3.66118317 129.98194366 -2.51014099 129.98698914 -1.32421875 129.9921875 C0.46289017 129.97449814 0.46289017 129.97449814 2.28610229 129.95645142 C6.10102289 129.92112028 9.91539786 129.91202021 13.73046875 129.90625 C17.52395108 129.88985722 21.31719031 129.86765688 25.11056519 129.83462524 C27.47014138 129.81515283 29.829828 129.80564306 32.18948364 129.80770874 C48.10543301 129.70586011 60.93904679 125.45870509 72.50390625 114.3203125 C73.46213036 113.41150833 73.46213036 113.41150833 74.43971252 112.48434448 C82.27491494 105.01147076 89.91051791 97.33497929 97.54296875 89.65625 C99.01603721 88.17814736 100.48934345 86.70028165 101.96289062 85.22265625 C105.51314922 81.66156507 109.06022574 78.09733418 112.60546875 74.53125 C107.8679622 68.85126993 102.82607419 63.56088926 97.62109375 58.30859375 C96.76545837 57.44488663 95.909823 56.5811795 95.02825928 55.69129944 C93.22442661 53.87369745 91.41907988 52.05759694 89.61230469 50.24291992 C87.77707174 48.39614769 85.94631863 46.54491261 84.12011719 44.68920898 C81.46362315 41.98987599 78.79396955 39.30419539 76.12109375 36.62109375 C74.91431976 35.38805763 74.91431976 35.38805763 73.6831665 34.13011169 C63.3953895 23.88088632 51.72143983 17.44356448 36.95483398 17.3894043 C35.32800941 17.37885262 35.32800941 17.37885262 33.6683197 17.36808777 C31.93371239 17.36184135 31.93371239 17.36184135 30.1640625 17.35546875 C27.69986112 17.33228407 25.23566837 17.30816731 22.77148438 17.28320312 C18.89813331 17.24801098 15.02510331 17.21868835 11.15161133 17.20532227 C7.40537168 17.1898763 3.66005818 17.14970505 -0.0859375 17.10546875 C-1.24436661 17.10737717 -2.40279572 17.10928558 -3.59632874 17.11125183 C-11.62154085 16.98887014 -11.62154085 16.98887014 -15.62231445 14.62036133 C-17.52731676 12.37472078 -18.07638345 11.44208286 -18.01953125 8.53125 C-18.03242188 7.87125 -18.0453125 7.21125 -18.05859375 6.53125 C-15.44535437 -1.33921213 -6.70754463 -0.04638725 0 0 Z " fill="#1149EA" transform="translate(17.39453125,54.46875)"/>
</svg>
