<?xml version="1.0" standalone="no"?>
<!DOCTYPE svg PUBLIC "-//W3C//DTD SVG 20010904//EN"
 "http://www.w3.org/TR/2001/REC-SVG-20010904/DTD/svg10.dtd">
<svg version="1.0" xmlns="http://www.w3.org/2000/svg"
 width="512.000000pt" height="512.000000pt" viewBox="0 0 512.000000 512.000000"
 preserveAspectRatio="xMidYMid meet">
<metadata>
Created by potrace 1.16, written by Peter Selinger 2001-2019
</metadata>
<g transform="translate(0.000000,512.000000) scale(0.100000,-0.100000)"
fill="#2060df" stroke="none">
<path d="M900 4820 l0 -300 225 0 225 0 0 300 0 300 -225 0 -225 0 0 -300z"/>
<path d="M1650 3620 l0 -1500 235 0 235 0 0 -235 0 -235 1500 0 1500 0 0 684
0 684 -157 6 c-348 16 -591 75 -859 209 -380 191 -680 490 -871 872 -134 265
-194 515 -209 858 l-6 157 -684 0 -684 0 0 -1500z"/>
<path d="M3323 4923 c6 -219 20 -306 81 -488 156 -467 542 -859 1007 -1023
176 -62 305 -85 517 -90 149 -3 192 -2 192 8 0 39 -35 239 -56 325 -136 538
-516 1011 -1013 1259 -221 111 -405 165 -685 201 l-49 7 6 -199z"/>
<path d="M0 3620 l0 -1200 300 0 300 0 0 1200 0 1200 -300 0 -300 0 0 -1200z"/>
<path d="M900 3700 c0 -493 1 -523 19 -558 41 -79 113 -122 206 -122 95 0 169
45 206 125 17 37 19 75 19 558 l0 517 -225 0 -225 0 0 -520z"/>
<path d="M900 2450 l0 -330 225 0 225 0 0 330 0 331 -27 -14 c-47 -24 -123
-38 -198 -38 -75 0 -151 14 -197 38 l-28 14 0 -331z"/>
<path d="M2120 1125 l0 -225 300 0 300 0 0 225 0 225 -300 0 -300 0 0 -225z"/>
<path d="M3020 1125 l0 -225 518 0 c482 0 520 2 557 19 80 37 125 111 125 206
0 95 -45 169 -125 206 -37 17 -75 19 -557 19 l-518 0 0 -225z"/>
<path d="M4471 1328 c51 -95 51 -311 0 -406 l-12 -22 331 0 330 0 0 225 0 225
-330 0 -331 0 12 -22z"/>
<path d="M2420 300 l0 -300 1200 0 1200 0 0 300 0 300 -1200 0 -1200 0 0 -300z"/>
</g>
</svg>
