<?xml version="1.0" encoding="UTF-8"?>
<svg version="1.1" xmlns="http://www.w3.org/2000/svg" width="512" height="512">
<path d="M0 0 C0.79303528 0.27729446 1.58607056 0.55458893 2.40313721 0.84028625 C5.03026449 1.76231448 7.65194659 2.69879534 10.2734375 3.63671875 C12.13283344 4.29581038 13.99237486 4.95449172 15.85205078 5.61279297 C19.90066226 7.0490973 23.94626183 8.49355952 27.99023438 9.94287109 C33.27028481 11.83440499 38.55625719 13.70871266 43.84439278 15.57750988 C49.50647735 17.57964446 55.16225091 19.59907111 60.81610107 21.62435913 C63.28133679 22.50533967 65.74817439 23.3818509 68.21661377 24.2538147 C71.69635174 25.48498408 75.1690543 26.7342977 78.640625 27.98828125 C79.68148254 28.35238602 80.72234009 28.71649078 81.79473877 29.09162903 C87.87030448 31.31212859 92.62329633 33.27393642 95.6484375 39.32421875 C95.6476964 41.43932144 95.59079625 43.55449445 95.5078125 45.66796875 C95.18232754 62.25127338 95.979795 73.86536444 107.95068359 86.48388672 C115.6484375 94.82810141 115.6484375 94.82810141 115.6484375 98.32421875 C116.9065625 98.67484375 118.1646875 99.02546875 119.4609375 99.38671875 C124.84352501 101.01850893 130.1590482 102.82430228 135.4609375 104.69921875 C136.69710815 105.11892944 136.69710815 105.11892944 137.95825195 105.54711914 C143.03828611 107.37601421 146.13982361 109.20211442 149.6484375 113.32421875 C149.9784375 113.65421875 150.3084375 113.98421875 150.6484375 114.32421875 C151.68610933 123.20090815 151.61515082 132.26786966 151.7734375 141.19921875 C151.78586361 141.88277813 151.79828972 142.56633751 151.81109238 143.27061081 C152.21785075 169.1165166 148.36448567 193.27541025 142.4609375 218.38671875 C142.17137051 219.63287083 142.17137051 219.63287083 141.87595367 220.90419769 C140.58265321 226.46383552 139.23808435 232.00882278 137.85546875 237.546875 C137.68045019 238.26346975 137.50543163 238.98006451 137.32510948 239.71837425 C133.83820033 253.84312218 133.83820033 253.84312218 128.6484375 258.32421875 C124.96847907 260.3502591 121.47123651 260.69490183 117.31640625 261.03515625 C116.10533203 261.14601563 114.89425781 261.256875 113.64648438 261.37109375 C111.11841105 261.58878535 108.5897525 261.79979033 106.06054688 262.00390625 C99.10404693 262.65342561 93.52046225 263.44077979 87.6484375 267.32421875 C87.01333252 267.73849121 86.37822754 268.15276367 85.72387695 268.57958984 C83.6895327 269.95624398 81.69854859 271.38100632 79.7109375 272.82421875 C78.99091553 273.33887695 78.27089355 273.85353516 77.52905273 274.38378906 C75.23197914 276.02572802 72.93996421 277.67454944 70.6484375 279.32421875 C67.50719343 281.58071307 64.36047706 283.82932339 61.2109375 286.07421875 C60.48334229 286.59951172 59.75574707 287.12480469 59.00610352 287.66601562 C53.87418467 291.32421875 53.87418467 291.32421875 51.6484375 291.32421875 C51.54297607 291.90389404 51.43751465 292.48356934 51.32885742 293.08081055 C50.84150763 295.72646146 50.33887906 298.36898945 49.8359375 301.01171875 C49.67029297 301.92373047 49.50464844 302.83574219 49.33398438 303.77539062 C48.13169824 310.01366774 46.68204274 315.10177534 41.6484375 319.32421875 C39.30815411 320.01120567 39.30815411 320.01120567 36.5990448 320.43441772 C35.61674078 320.5905592 34.63443676 320.74670067 33.62236595 320.9075737 C29.23316069 321.52249792 24.84446826 322.07856729 20.4387207 322.56103516 C19.00718155 322.72240715 19.00718155 322.72240715 17.54672241 322.88703918 C14.43130564 323.2371457 11.31530551 323.58169295 8.19921875 323.92578125 C6.01447775 324.16933757 3.82976031 324.41310536 1.64506531 324.65707397 C-2.9161152 325.16551332 -7.47759643 325.67114069 -12.03930664 326.17480469 C-17.87366509 326.81925037 -23.70716394 327.4711395 -29.54045391 328.12517738 C-34.04490235 328.62932145 -38.54980393 329.12931756 -43.05484962 329.62809372 C-45.2058968 329.86678648 -47.35679743 330.10680385 -49.50754356 330.34819412 C-52.51458703 330.68510266 -55.52220254 331.0163591 -58.5300293 331.34619141 C-59.40970871 331.44590744 -60.28938812 331.54562347 -61.19572449 331.64836121 C-74.47024887 333.08570284 -74.47024887 333.08570284 -78.9765625 331.26171875 C-85.57665776 325.87743051 -90.72473118 318.40538445 -95.3515625 311.32421875 C-95.3515625 310.66421875 -95.3515625 310.00421875 -95.3515625 309.32421875 C-96.18373291 309.13424316 -96.18373291 309.13424316 -97.03271484 308.94042969 C-103.54864029 307.3130204 -109.75211356 305.10748717 -116.015625 302.71484375 C-117.81627468 302.03610917 -119.61705878 301.35773113 -121.41796875 300.6796875 C-124.19497791 299.63311531 -126.96689545 298.57801732 -129.72900391 297.49267578 C-142.20914086 292.60798181 -152.02682152 290.27520503 -165.3515625 292.32421875 C-185.40508039 294.72486651 -185.40508039 294.72486651 -189.9765625 291.19921875 C-194.56354491 286.45786674 -198.19214107 280.78849823 -201.92871094 275.37060547 C-204.4397356 271.75917639 -207.02274763 268.19989701 -209.6015625 264.63671875 C-210.14562744 263.88302002 -210.68969238 263.12932129 -211.25024414 262.3527832 C-215.26821095 256.79507391 -219.33486582 251.27457266 -223.4140625 245.76171875 C-228.06317934 239.47414377 -232.65138512 233.148021 -237.1640625 226.76171875 C-237.67396729 226.04105225 -238.18387207 225.32038574 -238.70922852 224.57788086 C-242.09844206 219.75866886 -243.47424678 217.44774624 -243.52856445 211.59277344 C-243.54139969 210.39102478 -243.55423492 209.18927612 -243.56745911 207.95111084 C-243.57484604 206.6459552 -243.58223297 205.34079956 -243.58984375 203.99609375 C-243.59595704 203.00059887 -243.59595704 203.00059887 -243.60219383 201.98499298 C-243.62305647 198.47030448 -243.63735565 194.955655 -243.64672852 191.44091797 C-243.65777615 187.81820699 -243.69215525 184.19611313 -243.73190022 180.57361984 C-243.75810693 177.78197118 -243.76642401 174.99046842 -243.77000999 172.19870758 C-243.77722307 170.21675355 -243.80364781 168.23489941 -243.83039856 166.25311279 C-243.80327503 154.99456191 -243.80327503 154.99456191 -239.3515625 150.32421875 C-237.46044922 148.63330078 -237.46044922 148.63330078 -235.53125 147.33203125 C-234.48130859 146.61660156 -234.48130859 146.61660156 -233.41015625 145.88671875 C-232.68957031 145.41234375 -231.96898437 144.93796875 -231.2265625 144.44921875 C-230.49824219 143.95164063 -229.76992187 143.4540625 -229.01953125 142.94140625 C-223.64343664 139.32421875 -223.64343664 139.32421875 -221.3515625 139.32421875 C-221.83790161 138.46368896 -222.32424072 137.60315918 -222.82531738 136.71655273 C-224.42756425 133.1552922 -224.74102915 130.9174578 -224.77148438 127.046875 C-224.78739624 125.82540771 -224.80330811 124.60394043 -224.81970215 123.34545898 C-224.82000427 121.38588257 -224.82000427 121.38588257 -224.8203125 119.38671875 C-224.82742185 118.01960948 -224.83512198 116.65250318 -224.84338379 115.28540039 C-224.85679319 112.42748709 -224.85841292 109.56984991 -224.85253906 106.71191406 C-224.84663792 103.05992228 -224.87726523 99.40925765 -224.91765594 95.75752258 C-224.94357304 92.93665501 -224.94640701 90.1161057 -224.94276428 87.2951355 C-224.94526744 85.29767553 -224.96992873 83.30028277 -224.99499512 81.30297852 C-224.91809817 71.20917241 -224.91809817 71.20917241 -222.11547852 67.67773438 C-219.6371215 65.56737649 -217.22794939 63.55797948 -214.53515625 61.73046875 C-213.61669922 61.10011719 -212.69824219 60.46976562 -211.75195312 59.8203125 C-210.77419922 59.16160156 -209.79644531 58.50289062 -208.7890625 57.82421875 C-206.70417238 56.39750755 -204.61954137 54.97041763 -202.53515625 53.54296875 C-201.49214355 52.83269531 -200.44913086 52.12242187 -199.37451172 51.390625 C-195.00743979 48.40541285 -190.6788544 45.36666754 -186.3515625 42.32421875 C-178.06872884 36.51822116 -169.77657796 30.72549124 -161.4609375 24.96655273 C-157.36504516 22.1289146 -153.27670374 19.28829175 -149.25390625 16.34765625 C-148.66536865 15.92266846 -148.07683105 15.49768066 -147.47045898 15.05981445 C-145.99686715 13.99201039 -144.53302751 12.91078063 -143.0703125 11.828125 C-138.79935366 9.46559748 -134.94449098 8.9749664 -130.17358398 10.02099609 C-129.11727783 10.39691895 -128.06097168 10.7728418 -126.97265625 11.16015625 C-125.80412109 11.56492187 -124.63558594 11.9696875 -123.43164062 12.38671875 C-122.22958984 12.81984375 -121.02753906 13.25296875 -119.7890625 13.69921875 C-117.39331978 14.54432308 -114.99622532 15.3856073 -112.59765625 16.22265625 C-111.01488892 16.78992432 -111.01488892 16.78992432 -109.40014648 17.36865234 C-104.4121857 18.93210862 -100.02182719 19.49518718 -94.82446289 18.93457031 C-93.76638931 18.82405334 -92.70831573 18.71353638 -91.61817932 18.59967041 C-90.48992233 18.47267761 -89.36166534 18.34568481 -88.19921875 18.21484375 C-87.02572372 18.08736755 -85.8522287 17.95989136 -84.64317322 17.82855225 C-82.16570982 17.55684128 -79.68870877 17.28088549 -77.2121582 17.00097656 C-73.43256076 16.57629723 -69.65114721 16.17211846 -65.86914062 15.76953125 C-63.45819546 15.5025442 -61.04738308 15.23435478 -58.63671875 14.96484375 C-57.51048599 14.84594788 -56.38425323 14.727052 -55.22389221 14.60455322 C-47.16957969 13.67007518 -41.31499202 11.95077555 -34.6171875 7.22265625 C-33.79605469 6.6503125 -32.97492188 6.07796875 -32.12890625 5.48828125 C-31.29488281 4.89789063 -30.46085938 4.3075 -29.6015625 3.69921875 C-27.9215316 2.51631384 -26.23933269 1.33648038 -24.5546875 0.16015625 C-23.81895508 -0.3601416 -23.08322266 -0.88043945 -22.32519531 -1.41650391 C-15.45988118 -5.79692082 -7.06479619 -2.54733117 0 0 Z M-16.8984375 25.625 C-17.5790625 26.10775391 -18.2596875 26.59050781 -18.9609375 27.08789062 C-19.66734375 27.59900391 -20.37375 28.11011719 -21.1015625 28.63671875 C-22.48780637 29.63890066 -23.87839772 30.63509866 -25.2734375 31.625 C-25.88799805 32.07012939 -26.50255859 32.51525879 -27.13574219 32.97387695 C-34.6147901 37.53167929 -41.89970356 38.24980179 -50.5 39.1484375 C-51.8810006 39.30027188 -53.26190969 39.45294067 -54.64273071 39.60639954 C-57.52838443 39.92479696 -60.41469552 40.23590326 -63.30175781 40.54125977 C-66.97992634 40.9304775 -70.65640391 41.33354022 -74.33252525 41.74159527 C-77.18216662 42.05707979 -80.03236165 42.36729405 -82.88277054 42.67576027 C-84.8907391 42.89336988 -86.89842228 43.11360772 -88.90609741 43.33390808 C-107.10008899 45.25116434 -107.10008899 45.25116434 -114.0859375 42.50390625 C-115.07207031 42.13394531 -116.05820313 41.76398438 -117.07421875 41.3828125 C-119.1086512 40.58741504 -121.14249728 39.79051628 -123.17578125 38.9921875 C-124.15675781 38.62480469 -125.13773437 38.25742188 -126.1484375 37.87890625 C-127.02854492 37.53327637 -127.90865234 37.18764648 -128.81542969 36.83154297 C-132.74687113 36.0451033 -135.087727 37.54412196 -138.39013672 39.58251953 C-139.38811279 40.29384033 -139.38811279 40.29384033 -140.40625 41.01953125 C-141.17437012 41.56254883 -141.94249023 42.10556641 -142.73388672 42.66503906 C-143.55646973 43.25381836 -144.37905273 43.84259766 -145.2265625 44.44921875 C-147.01787866 45.71794295 -148.80956016 46.98615144 -150.6015625 48.25390625 C-151.53871094 48.91874023 -152.47585937 49.58357422 -153.44140625 50.26855469 C-157.36804776 53.04223938 -161.31701521 55.78310714 -165.26782227 58.5222168 C-168.18308229 60.54406353 -171.09399687 62.57202464 -174.00390625 64.6015625 C-177.29911558 66.89960673 -180.60272537 69.18410061 -183.91796875 71.453125 C-185.20856936 72.34731568 -186.49895394 73.2418183 -187.7890625 74.13671875 C-188.36833496 74.52698242 -188.94760742 74.91724609 -189.54443359 75.31933594 C-191.26115714 76.48428807 -191.26115714 76.48428807 -193.3515625 78.32421875 C-193.3515625 82.13169784 -192.15400427 83.29556509 -189.9140625 86.32421875 C-186.18722043 91.38368919 -184.83861449 95.03475626 -185.3515625 101.32421875 C-185.96307061 105.02703448 -186.78138041 108.6740927 -187.6171875 112.33203125 C-187.8518573 113.37567841 -188.0865271 114.41932556 -188.32830811 115.49459839 C-188.82543379 117.69244643 -189.32659332 119.88938551 -189.83154297 122.08544922 C-190.59983873 125.4416886 -191.34538835 128.80246556 -192.08984375 132.1640625 C-192.57674477 134.30369997 -193.064981 136.44303413 -193.5546875 138.58203125 C-193.77465393 139.58420685 -193.99462036 140.58638245 -194.22125244 141.618927 C-195.77717184 148.25520326 -197.74234454 152.86604272 -203.5859375 156.78125 C-204.15957031 157.17119141 -204.73320312 157.56113281 -205.32421875 157.96289062 C-206.20400391 158.54393555 -206.20400391 158.54393555 -207.1015625 159.13671875 C-207.70355469 159.54341797 -208.30554688 159.95011719 -208.92578125 160.36914062 C-210.39633441 161.36118045 -211.87330409 162.34369763 -213.3515625 163.32421875 C-210.56214918 168.43704928 -207.46227744 173.02579587 -203.9140625 177.63671875 C-199.39678299 183.58128431 -194.96563336 189.57880422 -190.6015625 195.63671875 C-190.05218018 196.39106201 -189.50279785 197.14540527 -188.93676758 197.92260742 C-186.55673606 201.19986877 -184.22169526 204.4735863 -182.0703125 207.90625 C-179.03360098 213.02891848 -179.03360098 213.02891848 -174.18359375 216.01953125 C-171.7847443 216.07733485 -169.70187624 215.79509335 -167.3515625 215.32421875 C-165.97805918 215.14563706 -164.60293339 214.97915731 -163.2265625 214.82421875 C-162.52196396 214.74326965 -161.81736542 214.66232056 -161.09141541 214.57891846 C-149.32526648 213.48512445 -140.31315422 214.61661157 -129.19140625 218.77734375 C-127.90508779 219.24043429 -126.61808846 219.7016374 -125.33045959 220.16107178 C-122.66215179 221.11853082 -120.00007108 222.09103536 -117.34204102 223.07666016 C-113.95085678 224.33388717 -110.55020789 225.56256127 -107.1451025 226.78151321 C-104.49924339 227.7300432 -101.85680487 228.68779309 -99.21548653 229.64888763 C-97.35847936 230.32453599 -95.50028965 230.99693131 -93.64207458 231.66925049 C-79.10747753 237.06196675 -79.10747753 237.06196675 -75.921875 243.03125 C-75.51710937 243.69962891 -75.11234375 244.36800781 -74.6953125 245.05664062 C-73.88397721 246.44137153 -73.10988671 247.84861589 -72.375 249.27539062 C-70.86482959 251.66882429 -69.7761519 252.83128367 -67.3515625 254.32421875 C-63.97908563 254.54185037 -63.97908563 254.54185037 -60.18994141 254.12768555 C-59.48544735 254.07007301 -58.78095329 254.01246048 -58.05511093 253.95310211 C-55.81827245 253.76333588 -53.5853073 253.54729917 -51.3515625 253.32421875 C-50.30654005 253.22354819 -50.30654005 253.22354819 -49.24040604 253.12084389 C-44.21470143 252.63186139 -39.19724012 252.07747326 -34.1796875 251.51171875 C-32.59790855 251.33592498 -31.01610046 251.16039325 -29.43426514 250.98510742 C-26.15674663 250.62108097 -22.87953509 250.25444174 -19.60253906 249.88574219 C-15.40685987 249.41382587 -11.21054251 248.94788344 -7.01399612 248.48374939 C-3.76414901 248.1237982 -0.51460862 247.76113948 2.73484039 247.39761353 C4.28329429 247.22463628 5.83183194 247.052407 7.38045502 246.88095093 C9.53357177 246.64208035 11.68625932 246.39965816 13.83886719 246.15625 C15.06079773 246.01936768 16.28272827 245.88248535 17.54168701 245.74145508 C19.9929969 245.41224437 22.27513476 244.99954506 24.6484375 244.32421875 C24.9165625 243.10605469 25.1846875 241.88789063 25.4609375 240.6328125 C29.2712909 224.50281847 29.2712909 224.50281847 37.6484375 219.32421875 C39.35248581 218.13383093 41.05626789 216.94305387 42.75708008 215.74804688 C44.78044826 214.33828791 46.81941168 212.95406994 48.86328125 211.57421875 C54.53902784 207.73449295 60.15383402 203.80794132 65.7734375 199.88671875 C68.60466511 197.9111902 71.43655275 195.93688231 74.27563477 193.97265625 C75.68291403 192.99498883 77.08435272 192.00867471 78.47241211 191.00390625 C85.5924692 185.94765036 95.10917319 186.25621596 103.56640625 185.26953125 C104.34705444 185.17808838 105.12770264 185.08664551 105.93200684 184.99243164 C107.83743679 184.76929289 109.74293058 184.54669927 111.6484375 184.32421875 C113.3634701 176.85082176 115.07177633 169.37591043 116.77539062 161.89990234 C117.35586859 159.3562531 117.93789172 156.81295597 118.52148438 154.27001953 C119.35952672 150.61712406 120.19202405 146.9630029 121.0234375 143.30859375 C121.28592285 142.16992859 121.5484082 141.03126343 121.81884766 139.85809326 C122.17922119 138.26689667 122.17922119 138.26689667 122.546875 136.64355469 C122.76005371 135.71089783 122.97323242 134.77824097 123.19287109 133.81732178 C123.76827368 131.09080843 123.76827368 131.09080843 123.6484375 127.32421875 C122.71946655 127.0471106 122.71946655 127.0471106 121.77172852 126.7644043 C109.13908754 122.88948385 99.80445251 120.00577684 92.6484375 108.32421875 C91.26268088 106.3336925 89.84597068 104.36716253 88.42944336 102.3984375 C86.88873936 100.24818372 85.37364749 98.08180494 83.86328125 95.91015625 C79.90044618 90.23136555 75.82642878 84.633703 71.74902344 79.03686523 C71.22727539 78.31829346 70.70552734 77.59972168 70.16796875 76.859375 C69.70495361 76.22394775 69.24193848 75.58852051 68.76489258 74.93383789 C65.52834764 70.2676361 66.25681253 64.81639672 67.10424805 59.42358398 C67.28769775 58.46137939 67.47114746 57.4991748 67.66015625 56.5078125 C67.84408936 55.53255615 68.02802246 54.5572998 68.2175293 53.55249023 C68.359729 52.81716064 68.50192871 52.08183105 68.6484375 51.32421875 C67.47358292 50.90865471 67.47358292 50.90865471 66.2749939 50.48469543 C58.83290956 47.85227377 51.39089811 45.21964613 43.94896507 42.58679676 C40.12454445 41.23377937 36.30009732 39.88083699 32.47558594 38.52807617 C28.77317479 37.2184999 25.07083809 35.90871338 21.36854935 34.59879112 C19.96785669 34.10324559 18.56713883 33.60777128 17.16639328 33.11237526 C15.82961619 32.63959276 14.49288883 32.1666696 13.15621376 31.69359875 C11.86996204 31.23856218 10.58351697 30.78407174 9.29686546 30.33016682 C6.08163621 29.19417309 2.87247405 28.04361378 -0.32879639 26.86898804 C-0.96913 26.63555789 -1.60946362 26.40212774 -2.26920128 26.16162395 C-4.02875355 25.51920157 -5.78645944 24.87172851 -7.54403687 24.22392273 C-11.6961266 22.89333767 -13.47131813 23.14337091 -16.8984375 25.625 Z M-218.3515625 200.32421875 C-219.3327542 206.01513058 -218.78058361 209.25438442 -215.43286133 214.05371094 C-213.63441808 216.47470554 -211.79904227 218.86455167 -209.94433594 221.24267578 C-206.95380643 225.15089996 -204.14107687 229.18945205 -201.2890625 233.19921875 C-200.17698397 234.76183086 -199.06139995 236.32195751 -197.94140625 237.87890625 C-197.46566162 238.54390137 -196.98991699 239.20889648 -196.49975586 239.89404297 C-196.12085205 240.36600098 -195.74194824 240.83795898 -195.3515625 241.32421875 C-195.0215625 241.32421875 -194.6915625 241.32421875 -194.3515625 241.32421875 C-193.61416 233.37753013 -195.32839574 229.77642528 -200.2265625 223.63671875 C-201.41731272 222.07340854 -202.60740867 220.50959979 -203.796875 218.9453125 C-204.3940332 218.17429199 -204.99119141 217.40327148 -205.60644531 216.60888672 C-208.65058044 212.62357384 -211.49554396 208.49853399 -214.36669922 204.38793945 C-215.33778938 203.01615676 -216.34106171 201.66723476 -217.3515625 200.32421875 C-217.6815625 200.32421875 -218.0115625 200.32421875 -218.3515625 200.32421875 Z M100.6484375 210.32421875 C100.6484375 219.23421875 100.6484375 228.14421875 100.6484375 237.32421875 C104.6084375 236.82921875 104.6084375 236.82921875 108.6484375 236.32421875 C108.6484375 227.41421875 108.6484375 218.50421875 108.6484375 209.32421875 C105.28889125 209.22616068 105.28889125 209.22616068 100.6484375 210.32421875 Z M70.7890625 226.0625 C70.00273437 226.63548828 69.21640625 227.20847656 68.40625 227.79882812 C67.57867187 228.40533203 66.75109375 229.01183594 65.8984375 229.63671875 C64.28005956 230.82224481 62.66030489 232.00589418 61.0390625 233.1875 C60.27489014 233.74864502 59.51071777 234.30979004 58.72338867 234.88793945 C56.6484375 236.32421875 56.6484375 236.32421875 53.71484375 237.76171875 C50.55266548 240.15277982 50.12056435 243.3127636 49.3359375 247.01171875 C49.16771484 247.69427734 48.99949219 248.37683594 48.82617188 249.08007812 C47.70836254 253.91175194 47.49834297 258.37109928 47.6484375 263.32421875 C52.44578564 261.75567854 55.99731255 259.0295242 59.9609375 256.01171875 C61.22566614 255.05438038 62.49260134 254.09995014 63.76171875 253.1484375 C64.70362061 252.42732788 64.70362061 252.42732788 65.66455078 251.69165039 C67.6484375 250.32421875 67.6484375 250.32421875 69.89404297 249.25170898 C72.20523374 248.12325588 73.87046974 247.19034092 75.6484375 245.32421875 C76.62768583 241.51232104 76.40813581 237.9146847 76.1484375 234.01171875 C76.09429687 232.47161133 76.09429687 232.47161133 76.0390625 230.90039062 C75.94495209 228.3711733 75.81368342 225.84962135 75.6484375 223.32421875 C73.76148458 223.32421875 72.25059724 224.99130999 70.7890625 226.0625 Z M-169.3515625 240.32421875 C-169.3515625 249.23421875 -169.3515625 258.14421875 -169.3515625 267.32421875 C-165.3915625 266.82921875 -165.3915625 266.82921875 -161.3515625 266.32421875 C-161.3515625 257.41421875 -161.3515625 248.50421875 -161.3515625 239.32421875 C-165.3919851 239.16252833 -165.3919851 239.16252833 -169.3515625 240.32421875 Z M-136.3515625 243.32421875 C-136.3515625 251.57421875 -136.3515625 259.82421875 -136.3515625 268.32421875 C-124.93042409 272.87245971 -113.4316396 277.13967447 -101.8515625 281.26171875 C-101.15054413 281.51241119 -100.44952576 281.76310364 -99.7272644 282.02139282 C-97.71785532 282.73917115 -95.70689297 283.45239545 -93.6953125 284.1640625 C-92.52162109 284.58034912 -91.34792969 284.99663574 -90.13867188 285.42553711 C-87.52238243 286.42651322 -87.52238243 286.42651322 -85.3515625 286.32421875 C-84.149118 276.78482576 -84.87977693 270.28993641 -90.44091797 262.46286011 C-96.72724062 254.59769074 -106.08210845 252.33174163 -115.3515625 249.44921875 C-117.16940747 248.84283784 -118.98583358 248.23218596 -120.80078125 247.6171875 C-128.43679719 244.65743467 -128.43679719 244.65743467 -136.3515625 243.32421875 Z M5.94140625 271.04272461 C5.22968765 271.11914688 4.51796906 271.19556915 3.78468323 271.27430725 C1.46788002 271.52439794 -0.84808204 271.78147291 -3.1640625 272.0390625 C-4.78544917 272.21632729 -6.40686903 272.3932887 -8.02832031 272.56996155 C-11.40741721 272.93925728 -14.78611141 273.31199385 -18.16455078 273.68725586 C-22.50290934 274.16888624 -26.84213616 274.64211847 -31.1816864 275.11287594 C-34.52076609 275.47596617 -37.85937206 275.84326592 -41.19784546 276.21188545 C-42.79896133 276.38818683 -44.40021945 276.56320109 -46.00161743 276.73692131 C-48.22813777 276.97912389 -50.4539617 277.22693439 -52.6796875 277.47631836 C-53.9471582 277.61621689 -55.21462891 277.75611542 -56.52050781 277.9002533 C-59.2473019 278.02176365 -59.2473019 278.02176365 -60.3515625 279.32421875 C-60.43904457 281.25089382 -60.45853584 283.18073736 -60.44921875 285.109375 C-60.44599609 286.27919922 -60.44277344 287.44902344 -60.43945312 288.65429688 C-60.43107422 289.88599609 -60.42269531 291.11769531 -60.4140625 292.38671875 C-60.40955078 293.62228516 -60.40503906 294.85785156 -60.40039062 296.13085938 C-60.38855858 299.19535992 -60.37207423 302.25976596 -60.3515625 305.32421875 C-51.74832883 305.59032314 -43.32406487 304.57373347 -34.79296875 303.609375 C-33.19640093 303.43208801 -31.59979687 303.25512705 -30.00315857 303.07847595 C-26.67533008 302.70918635 -23.34790911 302.33647028 -20.02075195 301.96118164 C-15.75196884 301.47989376 -11.48235253 301.0065168 -7.21241856 300.53556156 C-3.92394516 300.17211869 -0.63589856 299.80493099 2.65202522 299.43655205 C4.22721505 299.26045256 5.80252634 299.08543617 7.3779583 298.91151619 C9.57069181 298.66880481 11.76281114 298.42115614 13.95483398 298.17211914 C15.20231918 298.03222061 16.44980438 297.89232208 17.73509216 297.7481842 C20.57836041 297.48998522 20.57836041 297.48998522 22.6484375 296.32421875 C22.6484375 287.74421875 22.6484375 279.16421875 22.6484375 270.32421875 C16.8457163 270.32421875 11.63282792 270.42122089 5.94140625 271.04272461 Z " fill="#2060df" transform="translate(302.3515625,91.67578125)"/>
<path d="M0 0 C2.48607319 2.17816504 4.81728778 4.42773985 7.1171875 6.80078125 C8.21160156 7.8990625 8.21160156 7.8990625 9.328125 9.01953125 C18.49496523 18.69753357 23.09176946 30.46511956 23.4921875 43.80078125 C22.98595314 59.3725501 16.4967145 72.42387401 5.43115234 83.19140625 C-13.63149466 100.73654858 -39.58556333 106.77698964 -64.92578125 106.0859375 C-89.85903282 104.9209234 -113.13735368 96.27521752 -130.6328125 78.05078125 C-139.32018957 68.07182954 -143.72986144 55.97156707 -143.8828125 42.80078125 C-142.6974448 27.16521677 -136.48275923 14.37147918 -125.03515625 3.546875 C-90.96303229 -24.09421286 -35.52289961 -27.09944781 0 0 Z M-111.3203125 26.30078125 C-116.12329529 32.01400674 -118.32298159 37.24306398 -118.8828125 44.80078125 C-118.52306355 47.61315666 -118.52306355 47.61315666 -117.8828125 49.80078125 C-114.43509057 48.48425983 -111.13345386 46.96555402 -107.82202148 45.33862305 C-82.96619803 33.24861083 -53.23467379 30.8012744 -26.81640625 39.3828125 C-19.55231678 41.90345916 -12.9165802 44.51532722 -6.51611328 48.83447266 C-4.91221782 49.97051081 -4.91221782 49.97051081 -2.8828125 49.80078125 C-0.88600114 45.80715852 -1.42501528 41.47762708 -2.56640625 37.296875 C-6.73545886 25.96604736 -14.53568955 19.63601536 -25.078125 14.1328125 C-52.48931139 1.48870033 -89.82300755 3.31820796 -111.3203125 26.30078125 Z M-98.8828125 67.80078125 C-98.8828125 69.12078125 -98.8828125 70.44078125 -98.8828125 71.80078125 C-78.29948721 80.82240893 -55.35058586 84.96357197 -33.62939453 76.97167969 C-28.96154021 75.09109106 -24.40920888 72.99776886 -19.8828125 70.80078125 C-19.8828125 70.14078125 -19.8828125 69.48078125 -19.8828125 68.80078125 C-46.52591516 55.86895616 -71.69673924 55.88518318 -98.8828125 67.80078125 Z " fill="#2060df" transform="translate(317.8828125,187.19921875)"/>
</svg>
