<?xml version="1.0" encoding="UTF-8"?>
<svg version="1.1" xmlns="http://www.w3.org/2000/svg" width="175" height="150">
<path d="M0 0 C0.65437166 -0.00155999 1.30874332 -0.00311998 1.98294443 -0.00472724 C4.18554655 -0.00873031 6.38808029 -0.00555029 8.59068298 -0.00241089 C10.16569052 -0.00376522 11.74069773 -0.00554534 13.31570435 -0.00772095 C17.60064823 -0.01229107 21.88556812 -0.01050754 26.17051244 -0.00734186 C30.64638031 -0.00481654 35.12224607 -0.00715624 39.59811401 -0.00872803 C47.11452098 -0.01054903 54.63091813 -0.00814503 62.14732361 -0.00338745 C70.84968383 0.00205701 79.55202063 0.0002909 88.25438029 -0.00521386 C95.71424913 -0.0097446 103.17411091 -0.01039579 110.63398069 -0.00777519 C115.09467575 -0.00621245 119.55535979 -0.00601859 124.01605415 -0.00931168 C128.20779714 -0.01218989 132.39950978 -0.01021562 136.59124947 -0.00441742 C138.13404795 -0.00308964 139.67684896 -0.00348424 141.21964645 -0.00568008 C143.31679481 -0.00839085 145.41384436 -0.00501143 147.51098633 0 C149.27554971 0.00056554 149.27554971 0.00056554 151.07576084 0.0011425 C153.69200134 0.12698364 153.69200134 0.12698364 154.69200134 1.12698364 C154.73293072 3.45995797 154.73441857 5.79403589 154.69200134 8.12698364 C151.53863334 8.82773209 148.96475161 9.12698364 145.69200134 9.12698364 C145.52700134 10.40573364 145.36200134 11.68448364 145.19200134 13.00198364 C145.09918884 13.72128052 145.00637634 14.44057739 144.91075134 15.18167114 C144.65475284 17.13196708 144.65475284 17.13196708 144.69200134 19.12698364 C145.64913025 19.21786255 145.64913025 19.21786255 146.62559509 19.31057739 C147.45188416 19.39436646 148.27817322 19.47815552 149.12950134 19.56448364 C149.95321228 19.64569458 150.77692322 19.72690552 151.62559509 19.81057739 C153.69200134 20.12698364 153.69200134 20.12698364 154.69200134 21.12698364 C154.79024071 22.79127416 154.82173765 24.45980295 154.81700134 26.12698364 C154.81957947 27.03448364 154.82215759 27.94198364 154.82481384 28.87698364 C154.69200134 31.12698364 154.69200134 31.12698364 153.69200134 32.12698364 C152.55762634 32.25073364 151.42325134 32.37448364 150.25450134 32.50198364 C149.07887634 32.70823364 147.90325134 32.91448364 146.69200134 33.12698364 C144.34185976 35.96456164 144.34185976 35.96456164 145.00450134 39.25198364 C145.39844455 42.00784786 145.39844455 42.00784786 146.69200134 43.12698364 C148.03947218 43.35773446 149.39577699 43.53851427 150.75450134 43.68948364 C152.05387634 43.83385864 153.35325134 43.97823364 154.69200134 44.12698364 C154.69200134 47.75698364 154.69200134 51.38698364 154.69200134 55.12698364 C151.73535615 56.60530624 148.94970397 56.18731147 145.69200134 56.12698364 C145.52700134 57.40573364 145.36200134 58.68448364 145.19200134 60.00198364 C145.09918884 60.72128052 145.00637634 61.44057739 144.91075134 62.18167114 C144.65475284 64.13196708 144.65475284 64.13196708 144.69200134 66.12698364 C146.30075134 66.34354614 146.30075134 66.34354614 147.94200134 66.56448364 C151.69200134 67.12698364 151.69200134 67.12698364 155.69200134 68.12698364 C155.36200134 71.42698364 155.03200134 74.72698364 154.69200134 78.12698364 C153.37200134 78.45698364 152.05200134 78.78698364 150.69200134 79.12698364 C147.97725029 79.69610153 147.97725029 79.69610153 145.69200134 81.12698364 C144.62157815 84.72054723 144.50094758 86.55382235 145.69200134 90.12698364 C148.66200134 90.45698364 151.63200134 90.78698364 154.69200134 91.12698364 C154.69200134 94.42698364 154.69200134 97.72698364 154.69200134 101.12698364 C151.72200134 102.11698364 148.75200134 103.10698364 145.69200134 104.12698364 C145.01526687 107.53019298 145.01526687 107.53019298 144.69200134 111.12698364 C147.45127478 113.88625708 149.90354187 113.64481607 153.69200134 114.12698364 C154.69200134 115.12698364 154.69200134 115.12698364 154.78965759 117.41213989 C154.77225525 118.78692505 154.77225525 118.78692505 154.75450134 120.18948364 C154.74547791 121.10858521 154.73645447 122.02768677 154.72715759 122.97463989 C154.70975525 124.04005005 154.70975525 124.04005005 154.69200134 125.12698364 C153.57825134 125.31260864 153.57825134 125.31260864 152.44200134 125.50198364 C149.78875425 126.10499435 147.90421891 126.54682824 145.69200134 128.12698364 C144.52222641 130.47570895 144.52222641 130.47570895 144.69200134 133.12698364 C147.51099914 137.2380221 150.98053314 138.03972175 155.69200134 139.12698364 C154.81700134 144.00198364 154.81700134 144.00198364 153.69200134 145.12698364 C151.58794493 145.25685329 149.47949894 145.31567694 147.37168884 145.34817505 C146.36891797 145.36539565 146.36891797 145.36539565 145.34588909 145.38296413 C143.08630813 145.42008185 140.82670059 145.44957454 138.56700134 145.47854614 C136.94955197 145.50217585 135.33210511 145.52597864 133.71466064 145.54994202 C129.29735964 145.61305569 124.87999136 145.66760106 120.46254349 145.71931839 C117.70139516 145.75187289 114.94027564 145.78635152 112.17915344 145.82104492 C68.67686326 146.35489994 25.1895766 145.81629321 -18.30799866 145.12698364 C-19.43299866 139.37698364 -19.43299866 139.37698364 -18.30799866 137.12698364 C-16.66831116 137.28167114 -16.66831116 137.28167114 -14.99549866 137.43948364 C-11.23182782 137.53343776 -11.23182782 137.53343776 -9.24549866 134.93948364 C-8.01657138 132.13879826 -8.01657138 132.13879826 -9.12049866 129.31448364 C-9.51237366 128.59260864 -9.90424866 127.87073364 -10.30799866 127.12698364 C-14.26799866 126.63198364 -14.26799866 126.63198364 -18.30799866 126.12698364 C-18.30799866 122.16698364 -18.30799866 118.20698364 -18.30799866 114.12698364 C-17.19424866 114.00323364 -16.08049866 113.87948364 -14.93299866 113.75198364 C-11.27696189 113.48040234 -11.27696189 113.48040234 -9.30799866 111.12698364 C-8.89133199 108.12698364 -8.89133199 108.12698364 -9.30799866 105.12698364 C-12.53912374 102.57228345 -12.53912374 102.57228345 -18.30799866 103.12698364 C-18.30799866 98.83698364 -18.30799866 94.54698364 -18.30799866 90.12698364 C-17.19424866 90.16823364 -16.08049866 90.20948364 -14.93299866 90.25198364 C-11.26433841 90.53820223 -11.26433841 90.53820223 -9.30799866 88.12698364 C-9.14122583 84.54354388 -9.14122583 84.54354388 -9.30799866 81.12698364 C-13.7893344 80.40441535 -13.7893344 80.40441535 -18.30799866 80.12698364 C-19.27461228 77.00517963 -19.29788775 74.60614569 -18.87049866 71.37698364 C-18.71774475 70.17815552 -18.71774475 70.17815552 -18.56190491 68.95510864 C-18.47811584 68.35182739 -18.39432678 67.74854614 -18.30799866 67.12698364 C-17.37987366 67.16823364 -16.45174866 67.20948364 -15.49549866 67.25198364 C-12.14990146 67.39834703 -12.14990146 67.39834703 -9.30799866 65.12698364 C-8.89133199 61.62698364 -8.89133199 61.62698364 -9.30799866 58.12698364 C-11.26433841 55.71576505 -11.26433841 55.71576505 -14.93299866 56.00198364 C-16.04674866 56.04323364 -17.16049866 56.08448364 -18.30799866 56.12698364 C-18.30799866 52.16698364 -18.30799866 48.20698364 -18.30799866 44.12698364 C-15.42404129 42.68500496 -12.48369387 42.53864784 -9.30799866 42.12698364 C-9.14122583 38.7104234 -9.14122583 38.7104234 -9.30799866 35.12698364 C-11.1333697 32.86678466 -11.1333697 32.86678466 -13.80799866 32.93948364 C-16.30590821 32.96799387 -16.30590821 32.96799387 -18.30799866 34.12698364 C-19.43816467 29.1040236 -19.08715958 25.1482429 -18.30799866 20.12698364 C-16.63737366 20.18885864 -16.63737366 20.18885864 -14.93299866 20.25198364 C-11.26433841 20.53820223 -11.26433841 20.53820223 -9.30799866 18.12698364 C-9.14122583 14.54354388 -9.14122583 14.54354388 -9.30799866 11.12698364 C-13.76299866 10.13698364 -13.76299866 10.13698364 -18.30799866 9.12698364 C-18.63799866 7.47698364 -18.96799866 5.82698364 -19.30799866 4.12698364 C-17.98799866 4.45698364 -16.66799866 4.78698364 -15.30799866 5.12698364 C-14.97799866 4.13698364 -14.64799866 3.14698364 -14.30799866 2.12698364 C-13.35924866 1.98260864 -12.41049866 1.83823364 -11.43299866 1.68948364 C-2.05062848 0.00065701 -2.05062848 0.00065701 0 0 Z M5.44200134 9.25198364 C3.42487334 11.06864057 3.42487334 11.06864057 3.19200134 14.06448364 C3.47723659 17.18941603 3.47723659 17.18941603 5.37950134 19.56448364 C7.58097322 21.37750223 7.58097322 21.37750223 10.25450134 21.06448364 C13.57277429 19.81914368 13.57277429 19.81914368 15.69200134 17.12698364 C15.69282669 13.54941678 15.69282669 13.54941678 14.69200134 10.12698364 C11.20945827 7.80528826 9.26916421 7.33840221 5.44200134 9.25198364 Z M26.69200134 12.12698364 C27.06482061 16.52648807 27.06482061 16.52648807 29.50450134 20.06448364 C31.59720286 21.30196445 31.59720286 21.30196445 33.75450134 21.00198364 C36.07813591 19.95260029 37.23447988 19.24038977 38.69200134 17.12698364 C39.27533468 14.12698364 39.27533468 14.12698364 38.69200134 11.12698364 C36.98108024 9.15599939 36.98108024 9.15599939 34.69200134 8.12698364 C30.78361268 8.12698364 29.57606027 9.63266241 26.69200134 12.12698364 Z M51.94200134 10.62698364 C51.19950134 11.45198364 50.45700134 12.27698364 49.69200134 13.12698364 C50.714023 17.41130191 50.714023 17.41130191 53.56700134 20.56448364 C56.13216139 21.2434966 57.27123048 21.220235 59.69200134 20.12698364 C61.63306163 18.51141167 61.63306163 18.51141167 62.69200134 16.12698364 C62.6987506 13.00018265 62.6987506 13.00018265 61.69200134 10.12698364 C57.48405146 7.32168372 55.72496739 7.1879236 51.94200134 10.62698364 Z M75.44200134 9.25198364 C73.40120766 11.07119256 73.40120766 11.07119256 73.31700134 14.12698364 C73.48702844 17.30400569 73.48702844 17.30400569 75.69200134 20.12698364 C78.55276272 21.10566517 80.07902903 21.34833476 82.94200134 20.31448364 C84.84275059 19.23298996 84.84275059 19.23298996 85.69200134 17.12698364 C86.10875654 14.16909795 86.10875654 14.16909795 85.69200134 11.12698364 C84.03826638 9.13664723 84.03826638 9.13664723 81.69200134 8.12698364 C77.86902339 7.82884125 77.86902339 7.82884125 75.44200134 9.25198364 Z M98.31700134 9.75198364 C96.36864072 12.07884584 96.36864072 12.07884584 96.87950134 15.25198364 C97.57067084 18.04024938 97.57067084 18.04024938 98.69200134 20.12698364 C101.01356731 20.53427592 103.34888004 20.87137041 105.69200134 21.12698364 C107.9227986 18.71028662 108.66140787 17.37683037 109.06700134 14.06448364 C108.90923847 11.17702575 108.90923847 11.17702575 107.50450134 9.25198364 C104.01489192 7.08601917 101.63581288 7.48121785 98.31700134 9.75198364 Z M122.44200134 9.18948364 C120.35856911 11.1335077 120.35856911 11.1335077 120.19200134 14.62698364 C120.37368613 18.10837098 120.37368613 18.10837098 122.37950134 20.12698364 C125.2483967 21.36758704 126.7484181 21.02641186 129.69200134 20.12698364 C129.69200134 19.46698364 129.69200134 18.80698364 129.69200134 18.12698364 C130.35200134 18.12698364 131.01200134 18.12698364 131.69200134 18.12698364 C132.54850787 15.32653318 132.54850787 15.32653318 132.69200134 12.12698364 C131.12895608 9.64716613 131.12895608 9.64716613 128.69200134 8.12698364 C124.88012483 7.84231277 124.88012483 7.84231277 122.44200134 9.18948364 Z M98.87950134 33.18948364 C96.3084859 36.01799474 96.3084859 36.01799474 96.75450134 39.87698364 C97.06387634 40.94948364 97.37325134 42.02198364 97.69200134 43.12698364 C100.49070161 44.52633378 102.59698926 44.37963769 105.69200134 44.12698364 C108.04255273 42.58696722 108.5993797 41.36162513 109.62950134 38.75198364 C109.93016886 35.95574626 109.93016886 35.95574626 108.00450134 33.31448364 C104.5456948 30.04263961 102.61014335 30.4536795 98.87950134 33.18948364 Z M4.81700134 33.25198364 C3.16345604 36.00789249 3.29834566 37.97773816 3.69200134 41.12698364 C4.69200134 43.12698364 4.69200134 43.12698364 6.69200134 44.12698364 C9.69200134 44.71031698 9.69200134 44.71031698 12.69200134 44.12698364 C14.78964299 42.60803558 14.78964299 42.60803558 15.69200134 40.12698364 C15.47162507 36.45404568 15.32233588 34.75731818 12.69200134 32.12698364 C9.5885288 31.79682699 7.53418958 31.6216707 4.81700134 33.25198364 Z M28.31700134 33.75198364 C26.3784905 36.0779388 26.3784905 36.0779388 26.81700134 39.25198364 C27.47508958 42.22379737 27.47508958 42.22379737 29.69200134 44.12698364 C32.79547389 44.4571403 34.84981311 44.63229658 37.56700134 43.00198364 C39.22054665 40.2460748 39.08565703 38.27622912 38.69200134 35.12698364 C37.62855083 33.14668682 37.62855083 33.14668682 35.69200134 32.12698364 C32.36940585 31.53062035 31.11744631 31.83588972 28.31700134 33.75198364 Z M50.69200134 33.75198364 C49.3501925 36.93877965 49.7625293 38.83808257 50.69200134 42.12698364 C52.6308938 44.48337772 52.6308938 44.48337772 56.12950134 44.50198364 C59.655768 44.45850553 59.655768 44.45850553 61.69200134 42.50198364 C63.03381019 39.31518764 62.62147339 37.41588472 61.69200134 34.12698364 C59.75310888 31.77058957 59.75310888 31.77058957 56.25450134 31.75198364 C52.72823469 31.79546175 52.72823469 31.79546175 50.69200134 33.75198364 Z M75.94200134 32.62698364 C73.35206956 35.02278684 73.35206956 35.02278684 73.25450134 38.75198364 C73.35152681 42.1934012 73.35152681 42.1934012 75.69200134 44.12698364 C80.35429019 44.59102824 80.35429019 44.59102824 84.62950134 43.00198364 C86.1962238 40.23717931 86.0817657 38.24509847 85.69200134 35.12698364 C84.25893962 33.04904414 83.05655813 32.30926204 80.81700134 31.18948364 C78.48120097 30.94196813 78.48120097 30.94196813 75.94200134 32.62698364 Z M120.69200134 34.12698364 C119.60307795 36.99335646 119.60307795 36.99335646 119.69200134 40.12698364 C121.62586742 42.95340329 122.84709991 43.93688082 126.19200134 44.68948364 C128.89588787 44.28932782 128.89588787 44.28932782 131.12950134 42.00198364 C133.06924517 39.17408297 133.06924517 39.17408297 132.00450134 35.87698364 C130.94958812 33.27337753 130.94958812 33.27337753 129.69200134 32.12698364 C125.66039944 31.86405308 124.133074 31.8329352 120.69200134 34.12698364 Z M3.69200134 58.12698364 C2.52533468 59.96031698 2.52533468 59.96031698 2.69200134 62.12698364 C3.63003916 64.91288474 3.63003916 64.91288474 5.69200134 67.12698364 C8.58906841 68.3737537 8.58906841 68.3737537 11.69200134 68.12698364 C14.29515128 66.77397084 14.29515128 66.77397084 15.69200134 64.12698364 C15.78116289 60.50048414 15.78116289 60.50048414 14.69200134 57.12698364 C10.11560505 54.07605278 7.92577166 55.00736341 3.69200134 58.12698364 Z M27.69200134 57.12698364 C26.38612221 61.70080994 26.38612221 61.70080994 27.75450134 66.06448364 C30.52953113 67.58627417 32.57745958 67.45141508 35.69200134 67.12698364 C36.68200134 66.46698364 37.67200134 65.80698364 38.69200134 65.12698364 C39.27542487 61.66929173 39.27542487 61.66929173 38.69200134 58.12698364 C37.00035912 56.08668768 37.00035912 56.08668768 34.69200134 55.12698364 C31.47387348 55.12698364 30.22559214 55.18456403 27.69200134 57.12698364 Z M51.31700134 56.68948364 C49.31206614 59.16099909 49.31206614 59.16099909 49.94200134 62.87698364 C50.18950134 63.94948364 50.43700134 65.02198364 50.69200134 66.12698364 C53.18419218 67.30385154 55.03550808 68.16560089 57.81700134 68.00198364 C60.42136909 66.78661203 61.37726365 65.6872623 62.69200134 63.12698364 C62.6987506 60.00018265 62.6987506 60.00018265 61.69200134 57.12698364 C57.70861498 54.47139273 55.40257653 54.00160523 51.31700134 56.68948364 Z M73.69200134 59.12698364 C73.02519766 62.16977736 73.02519766 62.16977736 73.69200134 65.12698364 C75.2109494 67.22462529 75.2109494 67.22462529 77.69200134 68.12698364 C80.81880233 68.1337329 80.81880233 68.1337329 83.69200134 67.12698364 C86.00482721 63.65774484 86.1167872 62.20492789 85.69200134 58.12698364 C84.62855083 56.14668682 84.62855083 56.14668682 82.69200134 55.12698364 C78.25932181 54.3313745 76.26820834 55.50121083 73.69200134 59.12698364 Z M96.69200134 59.12698364 C95.94184939 62.17006655 95.94184939 62.17006655 96.69200134 65.12698364 C98.72707069 67.31490718 98.72707069 67.31490718 101.69200134 68.12698364 C104.90516657 67.63936103 104.90516657 67.63936103 107.69200134 66.12698364 C109.96871872 63.37856454 109.96871872 63.37856454 109.50450134 60.62698364 C108.6167777 57.89552627 108.06286443 56.7357836 105.69200134 55.12698364 C101.25932181 54.3313745 99.26820834 55.50121083 96.69200134 59.12698364 Z M120.69200134 57.12698364 C119.55933984 61.6993737 119.55933984 61.6993737 120.69200134 66.06448364 C123.82549584 67.7291526 126.21816808 67.5612128 129.69200134 67.12698364 C131.83982805 65.56900482 131.83982805 65.56900482 132.69200134 63.12698364 C132.77224793 60.52808582 132.77224793 60.52808582 131.69200134 58.12698364 C127.57341017 54.27410803 125.64297633 55.0423626 120.69200134 57.12698364 Z M28.81700134 79.62698364 C26.46396517 81.98810035 26.46396517 81.98810035 26.06700134 85.18948364 C26.42186454 88.25852787 26.42186454 88.25852787 28.81700134 90.06448364 C32.23300842 91.32692104 34.20560456 91.01885259 37.69200134 90.12698364 C39.40246895 86.11283119 39.40246895 86.11283119 39.19200134 81.87698364 C36.08862181 78.25637418 33.02401582 77.43201957 28.81700134 79.62698364 Z M74.69200134 80.12698364 C73.20093678 83.10911278 73.57258667 85.84308022 73.69200134 89.12698364 C74.91441065 90.56943115 74.91441065 90.56943115 78.56700134 90.37698364 C81.14633796 90.33075897 82.42047321 90.27971822 84.69200134 89.00198364 C86.20767992 86.16008632 86.21843087 84.28556079 85.69200134 81.12698364 C81.48388576 77.80478713 79.25208875 77.47919095 74.69200134 80.12698364 Z M99.06700134 79.75198364 C96.42617221 81.94335751 96.42617221 81.94335751 96.12950134 85.18948364 C96.45093723 88.15898959 96.45093723 88.15898959 98.31700134 90.06448364 C101.56772882 91.51875646 103.3272016 91.2008559 106.69200134 90.12698364 C108.7514515 88.49248241 108.7514515 88.49248241 109.69200134 86.12698364 C109.85410354 83.5204986 109.85410354 83.5204986 108.69200134 81.12698364 C104.90605236 78.31179081 103.21131071 77.1864588 99.06700134 79.75198364 Z M8.69200134 78.12698364 C6.07042711 79.7229198 6.07042711 79.7229198 3.69200134 82.12698364 C2.85850184 85.17038491 2.85850184 85.17038491 3.69200134 88.12698364 C6.35070812 90.48183822 7.82102079 91.16749437 11.37950134 91.00198364 C14.02545526 90.25719572 14.02545526 90.25719572 15.69200134 87.12698364 C15.85011523 84.07427901 15.85011523 84.07427901 14.69200134 81.12698364 C11.74128291 79.19228515 11.74128291 79.19228515 8.69200134 78.12698364 Z M50.69200134 80.75198364 C49.36313434 83.90804278 49.82191032 85.8641423 50.69200134 89.12698364 C51.91521757 90.56619265 51.91521757 90.56619265 55.56700134 90.43948364 C58.96597803 90.39181417 58.96597803 90.39181417 61.75450134 88.43948364 C62.93608248 85.52491685 62.70132881 84.07732546 61.69200134 81.12698364 C59.75310888 78.77058957 59.75310888 78.77058957 56.25450134 78.75198364 C52.72823469 78.79546175 52.72823469 78.79546175 50.69200134 80.75198364 Z M121.31700134 80.75198364 C119.36333023 83.08739432 119.36333023 83.08739432 119.87950134 86.31448364 C120.41240775 89.00841583 120.41240775 89.00841583 121.69200134 90.12698364 C123.75864141 90.36489095 123.75864141 90.36489095 126.12950134 90.37698364 C126.93258728 90.40276489 127.73567322 90.42854614 128.56309509 90.45510864 C129.26563416 90.34682739 129.96817322 90.23854614 130.69200134 90.12698364 C133.01238229 87.30129819 133.01238229 87.30129819 132.50450134 84.06448364 C131.95445637 80.82957411 131.95445637 80.82957411 128.69200134 79.12698364 C125.37497462 78.61667184 124.11145709 78.83998761 121.31700134 80.75198364 Z M5.44200134 103.25198364 C3.40891957 105.07338775 3.40891957 105.07338775 3.25450134 108.12698364 C3.50218801 111.04837003 3.50218801 111.04837003 4.75450134 113.06448364 C7.87549089 114.77599404 10.33734018 113.91990355 13.69200134 113.12698364 C14.35200134 112.46698364 15.01200134 111.80698364 15.69200134 111.12698364 C15.60456443 107.59803417 15.60456443 107.59803417 14.69200134 104.12698364 C11.20945827 101.80528826 9.26916421 101.33840221 5.44200134 103.25198364 Z M26.69200134 106.12698364 C26.19568777 109.03396311 26.25876985 110.42899957 27.81700134 112.93948364 C30.56356106 114.67897147 32.51047108 114.52467493 35.69200134 114.12698364 C37.69200134 113.12698364 37.69200134 113.12698364 38.69200134 111.12698364 C39.08969263 107.94545338 39.24398917 105.99854336 37.50450134 103.25198364 C32.93277625 100.41436117 29.67054792 102.04527167 26.69200134 106.12698364 Z M51.94200134 103.37698364 C50.47186205 105.43517866 49.84139105 106.58735861 49.69200134 109.12698364 C50.61223422 111.96626898 50.61223422 111.96626898 52.69200134 114.12698364 C56.3763025 114.83248812 58.00254754 114.58661951 61.12950134 112.50198364 C62.98779159 110.16550406 62.98779159 110.16550406 62.62950134 107.00198364 C61.92505447 103.83523433 61.92505447 103.83523433 58.69200134 102.12698364 C55.81265846 101.76706578 54.33279595 101.66927321 51.94200134 103.37698364 Z M73.69200134 105.12698364 C73.1919234 108.66912349 73.1919234 108.66912349 73.69200134 112.12698364 C75.62931662 114.49108852 75.62931662 114.49108852 79.12950134 114.43948364 C82.548538 114.39364192 82.548538 114.39364192 84.62950134 113.00198364 C86.1962238 110.23717931 86.0817657 108.24509847 85.69200134 105.12698364 C84.62855083 103.14668682 84.62855083 103.14668682 82.69200134 102.12698364 C78.74780642 101.52018442 76.34284477 102.08342267 73.69200134 105.12698364 Z M98.31700134 103.75198364 C96.3784905 106.0779388 96.3784905 106.0779388 96.81700134 109.25198364 C97.47508958 112.22379737 97.47508958 112.22379737 99.69200134 114.12698364 C103.14986149 114.62706159 103.14986149 114.62706159 106.69200134 114.12698364 C108.85866801 112.62698364 108.85866801 112.62698364 109.69200134 110.12698364 C109.6987506 107.00018265 109.6987506 107.00018265 108.69200134 104.12698364 C104.69569955 101.46278245 102.37415964 100.97603323 98.31700134 103.75198364 Z M121.37950134 103.81448364 C119.51690441 106.00665097 119.51690441 106.00665097 119.25450134 108.68948364 C119.54513059 111.11556558 119.54513059 111.11556558 120.75450134 112.93948364 C123.78575677 114.79734987 126.22622993 114.49831629 129.69200134 114.12698364 C131.83980212 113.22940808 131.83980212 113.22940808 132.69200134 111.12698364 C132.69282669 107.54941678 132.69282669 107.54941678 131.69200134 104.12698364 C127.71828476 101.47783925 125.35183435 100.91575415 121.37950134 103.81448364 Z M4.87950134 127.37698364 C3.49796535 129.41293143 2.84169149 130.65709627 2.69200134 133.12698364 C4.12115466 135.90589286 5.18157601 136.91206771 8.06700134 138.12698364 C11.70433469 138.12698364 13.11188008 136.5596694 15.69200134 134.12698364 C15.24496148 129.64814668 15.24496148 129.64814668 12.69200134 126.12698364 C8.5416067 125.66914681 8.5416067 125.66914681 4.87950134 127.37698364 Z M27.75450134 127.75198364 C26.31695791 130.96531602 26.67826395 132.7961322 27.69200134 136.12698364 C30.51917347 138.45994615 30.51917347 138.45994615 33.75450134 137.87698364 C36.79146035 137.36765925 36.79146035 137.36765925 38.69200134 135.12698364 C39.10866801 131.62698364 39.10866801 131.62698364 38.69200134 128.12698364 C34.87320579 125.58111994 31.50922713 124.60285879 27.75450134 127.75198364 Z M50.69200134 128.12698364 C49.67737744 129.93344914 49.67737744 129.93344914 49.69200134 132.12698364 C51.0258865 135.31348708 51.88325513 136.76517612 55.06700134 138.18948364 C58.68013529 138.10345664 60.12300021 136.54918472 62.69200134 134.12698364 C62.24496148 129.64814668 62.24496148 129.64814668 59.69200134 126.12698364 C55.63938847 125.78208042 54.14445958 125.82534482 50.69200134 128.12698364 Z M75.69200134 126.12698364 C73.37838332 129.59741068 73.18179406 131.04532538 73.69200134 135.12698364 C75.2109494 137.22462529 75.2109494 137.22462529 77.69200134 138.12698364 C80.81880233 138.1337329 80.81880233 138.1337329 83.69200134 137.12698364 C85.84702665 133.89444568 86.16056269 132.87547441 85.69200134 129.12698364 C84.73651153 127.17072386 84.73651153 127.17072386 82.69200134 126.12698364 C79.14986149 125.6269057 79.14986149 125.6269057 75.69200134 126.12698364 Z M97.62950134 128.31448364 C96.43465616 131.08199114 96.43465616 131.08199114 97.31700134 133.81448364 C98.62602733 136.39477236 98.62602733 136.39477236 101.69200134 138.12698364 C104.80981574 137.97109292 106.26643461 137.49763854 108.62950134 135.43948364 C110.01700269 133.04394255 110.01700269 133.04394255 108.94200134 129.93948364 C107.95899203 127.27431464 107.95899203 127.27431464 106.69200134 126.12698364 C101.57354293 125.44195032 101.57354293 125.44195032 97.62950134 128.31448364 Z M120.69200134 127.81448364 C119.52248721 130.09907583 119.52248721 130.09907583 119.69200134 132.68948364 C120.54814396 135.28642174 120.54814396 135.28642174 122.87950134 137.06448364 C126.52353482 138.44111851 128.20510274 137.66770628 131.69200134 136.12698364 C132.75624296 131.88345414 132.75624296 131.88345414 131.69200134 127.75198364 C129.65984536 125.81614246 129.65984536 125.81614246 126.19200134 125.62698364 C122.710614 125.80866843 122.710614 125.80866843 120.69200134 127.81448364 Z " fill="#61BEE6" transform="translate(19.307998657226563,1.873016357421875)"/>
<path d="M0 0 C54.78 0 109.56 0 166 0 C166.33 1.65 166.66 3.3 167 5 C165.72125 4.95875 164.4425 4.9175 163.125 4.875 C160.98128508 4.75787127 160.98128508 4.75787127 159 5 C156.60236815 7.39763185 156.65719414 8.33273498 156.375 11.625 C156.30023438 12.44226562 156.22546875 13.25953125 156.1484375 14.1015625 C156.07496094 15.04128906 156.07496094 15.04128906 156 16 C154.02 15.67 152.04 15.34 150 15 C150 12.69 150 10.38 150 8 C149.34 8 148.68 8 148 8 C148 7.34 148 6.68 148 6 C146.58461283 5.66127487 145.16762037 5.32925376 143.75 5 C142.56664062 4.7215625 142.56664062 4.7215625 141.359375 4.4375 C138.74443998 3.87845172 138.74443998 3.87845172 135 4 C134.855625 5.216875 134.71125 6.43375 134.5625 7.6875 C134.17219047 10.82670377 133.67648144 13.9075134 133 17 C132.34 16.67 131.68 16.34 131 16 C130.375 13.4375 130.375 13.4375 130 11 C129.34 11.33 128.68 11.66 128 12 C127.690625 13.134375 127.38125 14.26875 127.0625 15.4375 C126 19 126 19 123 21 C121.515 20.505 121.515 20.505 120 20 C120.66 19.62875 121.32 19.2575 122 18.875 C124.27585288 17.12702791 124.27585288 17.12702791 124.4375 14.1875 C123.94614667 10.60763999 122.78369386 8.12146426 121 5 C122.32 5 123.64 5 125 5 C125.33 4.34 125.66 3.68 126 3 C125.21625 3.28875 124.4325 3.5775 123.625 3.875 C119.82906333 5.05304931 116.07608562 5.8193843 112.171875 6.53515625 C109.9666719 6.9124491 109.9666719 6.9124491 108 8 C107.34444881 10.52733235 107.34444881 10.52733235 107 13 C105.68 13 104.36 13 103 13 C102.505 10.03 102.505 10.03 102 7 C101.01 6.67 100.02 6.34 99 6 C99 5.34 99 4.68 99 4 C96.36 3.67 93.72 3.34 91 3 C91 2.34 91 1.68 91 1 C69.88 1.33 48.76 1.66 27 2 C27 2.66 27 3.32 27 4 C23.7 4 20.4 4 17 4 C16.67 5.32 16.34 6.64 16 8 C15.01 8.495 15.01 8.495 14 9 C13.34227572 12.02934491 13.34227572 12.02934491 13 15 C14.32 15.66 15.64 16.32 17 17 C17 17.66 17 18.32 17 19 C18.75070517 18.88529863 20.50057536 18.75780972 22.25 18.625 C23.71179687 18.52058594 23.71179687 18.52058594 25.203125 18.4140625 C27.89633189 18.01534751 29.66963279 17.36492937 32 16 C32 14.02 32 12.04 32 10 C32.4125 10.474375 32.825 10.94875 33.25 11.4375 C35.20092748 13.17939954 36.50478706 13.41778365 39 14 C39.495 14.99 39.495 14.99 40 16 C40 14.35 40 12.7 40 11 C40.66 11.99 41.32 12.98 42 14 C43.32381517 15.67423683 44.65576661 17.34211215 46 19 C45.01 19 44.02 19 43 19 C43 19.66 43 20.32 43 21 C43.99 21.33 44.98 21.66 46 22 C45.01 22.99 44.02 23.98 43 25 C43.66 25.33 44.32 25.66 45 26 C44.34 26 43.68 26 43 26 C42.731875 26.53625 42.46375 27.0725 42.1875 27.625 C41.795625 28.40875 41.40375 29.1925 41 30 C40.566875 31.010625 40.13375 32.02125 39.6875 33.0625 C37.82506384 36.30451849 36.31624641 37.38669094 33 39 C32.35003159 36.58583162 31.93771495 34.37714952 31.6875 31.875 C31.32757227 28.93368295 31.32757227 28.93368295 29.25390625 27.828125 C26.75197533 26.90887135 24.90468905 26.79692091 22.25 26.875 C21.05117188 26.90207031 21.05117188 26.90207031 19.828125 26.9296875 C19.22484375 26.95289062 18.6215625 26.97609375 18 27 C17.78537109 27.89332031 17.78537109 27.89332031 17.56640625 28.8046875 C17.10305524 30.60057209 16.53453157 32.36902479 15.9375 34.125 C14.8966598 36.81291118 14.8966598 36.81291118 15 39 C13.02 39.495 13.02 39.495 11 40 C10.01879536 36.94736336 10.01879536 35.05263664 11 32 C9.515 32.495 9.515 32.495 8 33 C5 29.25 5 29.25 5 27 C2.69 27 0.38 27 -2 27 C-2 25.02 -2 23.04 -2 21 C0.31 21 2.62 21 5 21 C5 20.34 5 19.68 5 19 C5.66 19 6.32 19 7 19 C7.66 15.7 8.32 12.4 9 9 C9.66 9 10.32 9 11 9 C10.80528889 7.05000871 10.80528889 7.05000871 10 5 C8.0162233 3.71563266 8.0162233 3.71563266 6 3 C6 3.66 6 4.32 6 5 C3.36 4.67 0.72 4.34 -2 4 C-1.34 2.68 -0.68 1.36 0 0 Z " fill="#5DBDE9" transform="translate(5,4)"/>
<path d="M0 0 C2.375 -0.125 2.375 -0.125 5 0 C7 2 7 2 7 5 C7.99 5 8.98 5 10 5 C10.02712066 6.43739513 10.04645067 7.87493863 10.0625 9.3125 C10.07410156 10.11300781 10.08570313 10.91351563 10.09765625 11.73828125 C10 14 10 14 9 17 C9.5775 16.814375 10.155 16.62875 10.75 16.4375 C13.20692525 15.95976454 14.64397534 16.24270636 17 17 C16.79375 15.9275 16.5875 14.855 16.375 13.75 C16.0123809 10.12380904 16.01637931 8.91708924 18 6 C18 7.98 18 9.96 18 12 C21.54082916 14.1244975 24.94991891 14.46508363 29 15 C30 16 30 16 30.09765625 18.28515625 C30.08025391 19.65994141 30.08025391 19.65994141 30.0625 21.0625 C30.05347656 21.98160156 30.04445312 22.90070313 30.03515625 23.84765625 C30.01775391 24.91306641 30.01775391 24.91306641 30 26 C28.88625 26.185625 28.88625 26.185625 27.75 26.375 C25.09675291 26.9780107 23.21221757 27.41984459 21 29 C19.83022506 31.34872531 19.83022506 31.34872531 20 34 C22.8189978 38.11103846 26.2885318 38.91273811 31 40 C30.125 44.875 30.125 44.875 29 46 C26.89594358 46.12986964 24.7874976 46.1886933 22.6796875 46.22119141 C21.67691662 46.238412 21.67691662 46.238412 20.65388775 46.25598049 C18.39430679 46.2930982 16.13469925 46.3225909 13.875 46.3515625 C12.25755062 46.3751922 10.64010377 46.398995 9.0226593 46.42295837 C4.6053583 46.48607204 0.18799001 46.54061742 -4.22945786 46.59233475 C-6.99060618 46.62488925 -9.75172571 46.65936788 -12.5128479 46.69406128 C-56.01513808 47.22791629 -99.50242475 46.68930957 -143 46 C-144.125 40.25 -144.125 40.25 -143 38 C-141.906875 38.04125 -140.81375 38.0825 -139.6875 38.125 C-135.91107771 38.32074666 -135.91107771 38.32074666 -133 36 C-133.66 37.32 -134.32 38.64 -135 40 C-136.98 40 -138.96 40 -141 40 C-141.495 42.475 -141.495 42.475 -142 45 C-100.75 44.67 -59.5 44.34 -17 44 C-17 43.67 -17 43.34 -17 43 C-15.35 43 -13.7 43 -12 43 C-12 41.35 -12 39.7 -12 38 C-13.010625 38.495 -14.02125 38.99 -15.0625 39.5 C-18.79702466 41.10918542 -21.91992868 41.32000559 -26 41 C-26.66 40.67 -27.32 40.34 -28 40 C-28 39.34 -28 38.68 -28 38 C-28.66 38 -29.32 38 -30 38 C-30.495 33.545 -30.495 33.545 -31 29 C-30.34 29 -29.68 29 -29 29 C-29 28.01 -29 27.02 -29 26 C-25.37 26 -21.74 26 -18 26 C-18 26.33 -18 26.66 -18 27 C-20.31 27.33 -22.62 27.66 -25 28 C-26.75324329 31.47543951 -26.75324329 31.47543951 -26.5 35.25 C-24.32467744 37.78787632 -22.2305948 37.71907871 -19 38 C-16.49701566 35.06171403 -15.53069061 32.82097239 -15 29 C-14.01 29 -13.02 29 -12 29 C-11.67 30.65 -11.34 32.3 -11 34 C-10.401875 33.21625 -9.80375 32.4325 -9.1875 31.625 C-7 29 -7 29 -4 27 C-4.061875 28.093125 -4.12375 29.18625 -4.1875 30.3125 C-4.32227736 33.8630688 -4.32227736 33.8630688 -2.75 35.875 C0.0404806 37.66888039 1.97070447 38.2001408 5.25 37.5625 C5.8275 37.376875 6.405 37.19125 7 37 C7.21148404 33.89823415 7.27402217 31.61654988 6 28.75 C2.96671033 26.09587154 -0.0696357 25.77318642 -4 25 C-3.01 23.02 -2.02 21.04 -1 19 C-3.00032373 17.99983813 -4.83125748 17.50603992 -7 17 C-8.297906 12.28034182 -7.84835222 9.12226308 -6.03515625 4.703125 C-5 3 -5 3 -2.3125 1.5 C-1.1678125 1.2525 -1.1678125 1.2525 0 1 C0 0.67 0 0.34 0 0 Z M-3.3125 4.6875 C-5.17509694 6.87966733 -5.17509694 6.87966733 -5.4375 9.5625 C-5.14687075 11.98858193 -5.14687075 11.98858193 -3.9375 13.8125 C-0.90624457 15.67036623 1.53422859 15.37133265 5 15 C7.14780077 14.10242444 7.14780077 14.10242444 8 12 C8.00082535 8.42243314 8.00082535 8.42243314 7 5 C3.02628341 2.35085561 0.65983301 1.78877051 -3.3125 4.6875 Z " fill="#7AC5E4" transform="translate(144,101)"/>
<path d="M0 0 C1.76707715 0.00276538 1.76707715 0.00276538 3.56985283 0.00558662 C4.22493006 0.00387777 4.88000728 0.00216892 5.55493534 0.00040829 C7.75995853 -0.00289789 9.96468046 0.00813533 12.16967583 0.01904488 C13.74630539 0.01960875 15.32293548 0.0192929 16.89956474 0.01815987 C21.18861141 0.01758441 25.47754694 0.02936979 29.76656771 0.04330778 C34.24556641 0.05578313 38.72456746 0.05698311 43.20358086 0.0593586 C51.68920467 0.06558279 60.17477716 0.08200627 68.66037834 0.10205758 C78.31924221 0.12438741 87.97810849 0.13540266 97.63699174 0.14544845 C117.50973153 0.16637171 137.38242506 0.20156588 157.25512505 0.24609566 C157.25512505 2.55609566 157.25512505 4.86609566 157.25512505 7.24609566 C156.26512505 5.26609566 156.26512505 5.26609566 155.25512505 3.24609566 C102.45512505 2.91609566 49.65512505 2.58609566 -4.74487495 2.24609566 C-2.74487495 0.24609566 -2.74487495 0.24609566 0 0 Z " fill="#97D1E2" transform="translate(15.744874954223633,1.7539043426513672)"/>
<path d="M0 0 C5.445 1.485 5.445 1.485 11 3 C11 2.34 11 1.68 11 1 C13.86724686 1.57344937 14.8614515 1.8614515 17 4 C16.67 4.99 16.34 5.98 16 7 C15.34 7 14.68 7 14 7 C14.04125 7.9075 14.0825 8.815 14.125 9.75 C14.00468444 12.8782046 13.6085292 14.38614006 12 17 C11.34 17 10.68 17 10 17 C10 17.66 10 18.32 10 19 C7.69 19 5.38 19 3 19 C2.67 21.64 2.34 24.28 2 27 C3.093125 26.938125 4.18625 26.87625 5.3125 26.8125 C9 27 9 27 10.8125 28.0625 C13.32476715 32.16146219 14 36.25543334 14 41 C13.01 41.66 12.02 42.32 11 43 C10.27034634 45.56282742 10.27034634 45.56282742 10 48 C9.030625 47.979375 8.06125 47.95875 7.0625 47.9375 C4.12534105 47.64381501 4.12534105 47.64381501 3 49 C4.6396875 48.938125 4.6396875 48.938125 6.3125 48.875 C10 49 10 49 13 51 C12.67 54.3 12.34 57.6 12 61 C11.67 61 11.34 61 11 61 C10.87625 59.88625 10.7525 58.7725 10.625 57.625 C10.3534187 53.96896323 10.3534187 53.96896323 8 52 C4.41656024 51.83322718 4.41656024 51.83322718 1 52 C1 48.04 1 44.08 1 40 C3.88395737 38.55802132 6.82430479 38.41166419 10 38 C10.16677282 34.58343976 10.16677282 34.58343976 10 31 C8.17462896 28.73980102 8.17462896 28.73980102 5.5 28.8125 C3.00209044 28.84101023 3.00209044 28.84101023 1 30 C-0.13016601 24.97703996 0.22083908 21.02125926 1 16 C2.670625 16.061875 2.670625 16.061875 4.375 16.125 C8.04366025 16.41121859 8.04366025 16.41121859 10 14 C10.16677282 10.41656024 10.16677282 10.41656024 10 7 C5.545 6.01 5.545 6.01 1 5 C0.67 3.35 0.34 1.7 0 0 Z " fill="#8ACCE5" transform="translate(0,6)"/>
<path d="M0 0 C1.65 0 3.3 0 5 0 C5.66 3.3 6.32 6.6 7 10 C6.34 10 5.68 10 5 10 C5 10.66 5 11.32 5 12 C6.32 11.34 7.64 10.68 9 10 C9 9.34 9 8.68 9 8 C10.65 8 12.3 8 14 8 C14.33 8.66 14.66 9.32 15 10 C13.54550599 11.0055761 12.08627557 12.00430435 10.625 13 C9.81289062 13.556875 9.00078125 14.11375 8.1640625 14.6875 C6 16 6 16 4 16 C3.01 18.475 3.01 18.475 2 21 C1.57589844 20.59007813 1.15179688 20.18015625 0.71484375 19.7578125 C-3.40909902 15.96922332 -6.50753777 14.12091066 -12 13 C-11.34 12.67 -10.68 12.34 -10 12 C-10 11.34 -10 10.68 -10 10 C-9.05125 9.773125 -8.1025 9.54625 -7.125 9.3125 C-3.83684116 8.32587067 -3.83684116 8.32587067 -2.75 5.5625 C-2.5025 4.716875 -2.255 3.87125 -2 3 C-1.34 2.01 -0.68 1.02 0 0 Z " fill="#5CBEEA" transform="translate(109,88)"/>
<path d="M0 0 C0.33 0 0.66 0 1 0 C1.10957031 0.62648437 1.21914062 1.25296875 1.33203125 1.8984375 C1.49058594 2.71570313 1.64914063 3.53296875 1.8125 4.375 C1.96332031 5.18710938 2.11414063 5.99921875 2.26953125 6.8359375 C2.87544942 9.35820641 2.87544942 9.35820641 6 11 C9.32240324 10.6758631 10.60776303 10.39223697 13 8 C13.16681109 4.91652174 13.16681109 4.91652174 13 2 C15 4 15 4 15.25 7.4375 C15 11 15 11 13 14 C9.7 13.34 6.4 12.68 3 12 C4.32 12.99 5.64 13.98 7 15 C5.33524314 15.34274406 3.66804677 15.67364302 2 16 C1.071875 16.185625 0.14375 16.37125 -0.8125 16.5625 C-4.59814054 17.08209772 -8.18076223 17.06584893 -12 17 C-11.34 15.35 -10.68 13.7 -10 12 C-10.99 12.495 -10.99 12.495 -12 13 C-14.3329866 13.04022391 -16.66706666 13.04320247 -19 13 C-19.33 12.34 -19.66 11.68 -20 11 C-18.6078125 11.061875 -18.6078125 11.061875 -17.1875 11.125 C-13.84190281 11.27136339 -13.84190281 11.27136339 -11 9 C-10.26656572 5.93443402 -10.26656572 5.93443402 -10 3 C-9.67 3 -9.34 3 -9 3 C-8.67 4.98 -8.34 6.96 -8 9 C-6.35 8.67 -4.7 8.34 -3 8 C-2.87625 7.4225 -2.7525 6.845 -2.625 6.25 C-1.99351176 3.97664233 -1.11141809 2.0746471 0 0 Z " fill="#5FBAE4" transform="translate(68,128)"/>
<path d="M0 0 C53.46 0 106.92 0 162 0 C162.33 1.65 162.66 3.3 163 5 C161.35 5 159.7 5 158 5 C158.33 4.34 158.66 3.68 159 3 C159.66 3 160.32 3 161 3 C161 2.34 161 1.68 161 1 C107.87 1 54.74 1 0 1 C0 0.67 0 0.34 0 0 Z " fill="#60B6D8" transform="translate(9,4)"/>
<path d="M0 0 C2 4 2 4 2.625 6.1875 C3.82980519 8.16952728 3.82980519 8.16952728 5.90625 8.47265625 C7.92934755 8.72554344 9.96538823 8.86873472 12 9 C12 9.99 12 10.98 12 12 C8.33701257 13.22099581 5.06979302 13.01998953 1.26953125 12.87890625 C0.51911057 12.85529526 -0.23131012 12.83168427 -1.00447083 12.80735779 C-3.39901219 12.73084327 -5.79322013 12.64676674 -8.1875 12.5625 C-9.8118327 12.50926706 -11.43618162 12.45652674 -13.06054688 12.40429688 C-17.04057534 12.27524473 -21.02032144 12.13941046 -25 12 C-25 11.67 -25 11.34 -25 11 C-23.5459375 10.814375 -23.5459375 10.814375 -22.0625 10.625 C-21.051875 10.41875 -20.04125 10.2125 -19 10 C-18.67 9.34 -18.34 8.68 -18 8 C-16.07421875 7.3671875 -16.07421875 7.3671875 -13.6875 6.875 C-12.90761719 6.70742187 -12.12773437 6.53984375 -11.32421875 6.3671875 C-9 6 -9 6 -5 6 C-2.81053544 4.12331609 -1.29115655 2.58231311 0 0 Z " fill="#5EBCE4" transform="translate(159,133)"/>
<path d="M0 0 C0.66 0.33 1.32 0.66 2 1 C2.05447047 2.41623216 2.09300508 3.83308191 2.125 5.25 C2.14820313 6.03890625 2.17140625 6.8278125 2.1953125 7.640625 C1.97962391 10.24614317 1.3921178 11.79986977 0 14 C-0.99 14.495 -0.99 14.495 -2 15 C-2.40729228 17.32156597 -2.74438677 19.6568787 -3 22 C-3.99 21.67 -4.98 21.34 -6 21 C-6.33 20.34 -6.66 19.68 -7 19 C-8.98 19 -10.96 19 -13 19 C-13 17.02 -13 15.04 -13 13 C-12.0925 12.731875 -11.185 12.46375 -10.25 12.1875 C-6.19321421 10.72831507 -6.19321421 10.72831507 -3 8 C-2.59952556 5.67724823 -2.2602896 3.34260643 -2 1 C-1.34 0.67 -0.68 0.34 0 0 Z " fill="#5DBDEA" transform="translate(17,106)"/>
<path d="M0 0 C0.9796875 -0.01417969 1.959375 -0.02835937 2.96875 -0.04296875 C5.5 0.1875 5.5 0.1875 7.5 2.1875 C7.6953125 5.0078125 7.6953125 5.0078125 7.625 8.3125 C7.60695313 9.40820312 7.58890625 10.50390625 7.5703125 11.6328125 C7.54710938 12.47585937 7.52390625 13.31890625 7.5 14.1875 C3.1949756 16.62375244 -0.64027456 17.01374217 -5.5 16.1875 C-8.1875 14.3125 -8.1875 14.3125 -9.5 11.1875 C-9.30076103 7.70889534 -8.70066922 4.46205242 -7.5 1.1875 C-4.89820337 -0.11339831 -2.9030812 0.01909922 0 0 Z M-5.5 5.1875 C-6.00007794 8.72963985 -6.00007794 8.72963985 -5.5 12.1875 C-3.56268472 14.55160488 -3.56268472 14.55160488 -0.0625 14.5 C3.35653666 14.45415828 3.35653666 14.45415828 5.4375 13.0625 C7.00422245 10.29769567 6.88976435 8.30561483 6.5 5.1875 C5.43654948 3.20720318 5.43654948 3.20720318 3.5 2.1875 C-0.44419493 1.58070078 -2.84915657 2.14393902 -5.5 5.1875 Z " fill="#80C4DC" transform="translate(98.5,101.8125)"/>
<path d="M0 0 C2.9375 1.5 2.9375 1.5 5 3 C4.67 6.63 4.34 10.26 4 14 C3.34 14 2.68 14 2 14 C1.77213542 11.94921875 1.54427083 9.8984375 1.31640625 7.84765625 C1.18113386 5.98859771 1.18113386 5.98859771 0 5 C-2.95817107 4.74994614 -2.95817107 4.74994614 -6 5 C-8.30746414 6.87773264 -8.30746414 6.87773264 -8.25 9.9375 C-8.23517754 13.17282787 -8.23517754 13.17282787 -6 16 C-8.9375 15.25 -8.9375 15.25 -12 14 C-13.12293406 11.50883075 -13.09068224 10.29809907 -12.29296875 7.67578125 C-11.92816406 6.89589844 -11.56335938 6.11601563 -11.1875 5.3125 C-10.83042969 4.52488281 -10.47335938 3.73726562 -10.10546875 2.92578125 C-7.8103139 -1.07249204 -4.19086988 -0.28412677 0 0 Z " fill="#7FC2D9" transform="translate(32,30)"/>
<path d="M0 0 C0.66 0.33 1.32 0.66 2 1 C2 1.66 2 2.32 2 3 C2.66 3 3.32 3 4 3 C4.125 10.75 4.125 10.75 3 13 C2.34 13 1.68 13 1 13 C1 13.66 1 14.32 1 15 C-2.95659266 16.31886422 -5.82339427 16.26518132 -10 16 C-12.18085057 12.72872414 -12.24887859 11.72623277 -12.1875 7.9375 C-12.18105469 7.05964844 -12.17460938 6.18179688 -12.16796875 5.27734375 C-12 3 -12 3 -11 1 C-7.10835652 -0.29721449 -4.10570774 -0.13033993 0 0 Z M-10 6 C-10.49631357 8.90697947 -10.43323149 10.30201593 -8.875 12.8125 C-6.12844028 14.55198782 -4.18153026 14.39769128 -1 14 C1 13 1 13 2 11 C2.39769128 7.81846974 2.55198782 5.87155972 0.8125 3.125 C-3.75922509 0.28737753 -7.02145343 1.91828803 -10 6 Z " fill="#8BC9DE" transform="translate(56,102)"/>
<path d="M0 0 C3.63 0 7.26 0 11 0 C11 0.33 11 0.66 11 1 C8.69 1.33 6.38 1.66 4 2 C2.24675671 5.47543951 2.24675671 5.47543951 2.5 9.25 C4.67532256 11.78787632 6.7694052 11.71907871 10 12 C12.50298434 9.06171403 13.46930939 6.82097239 14 3 C16 5 16 5 16.3125 7.9375 C16 11 16 11 14.6875 12.8125 C10.97554366 15.42461742 7.38034389 15.15928523 3 15 C2.34 14.67 1.68 14.34 1 14 C1 13.34 1 12.68 1 12 C0.34 12 -0.32 12 -1 12 C-1.33 9.03 -1.66 6.06 -2 3 C-1.34 3 -0.68 3 0 3 C0 2.01 0 1.02 0 0 Z " fill="#71BAD7" transform="translate(115,127)"/>
<path d="M0 0 C0.93423645 3.01031744 1.04449911 3.86650268 0 7 C-0.66 6.01 -1.32 5.02 -2 4 C-4.95720628 3.33319632 -4.95720628 3.33319632 -8 4 C-10.15254366 6.14298293 -10.15254366 6.14298293 -11 9 C-10.66666667 11.33333333 -10.66666667 11.33333333 -9 13 C-6.68805807 14.09616096 -6.68805807 14.09616096 -4 14 C-1.21692394 12.66457328 -1.21692394 12.66457328 1 11 C0.4375 12.9375 0.4375 12.9375 -1 15 C-4.79051989 15.91253257 -8.34330175 16.62519922 -12 15 C-14.4915904 11.2626144 -14.45793285 9.42668417 -14 5 C-11.0058203 -1.39665663 -6.22341139 -0.53445327 0 0 Z " fill="#94CDE0" transform="translate(34,125)"/>
<path d="M0 0 C0.66 0 1.32 0 2 0 C3.25590186 2.06854424 4.03832063 3.42519061 3.875 5.875 C2.62960336 8.8995347 0.95794613 11.38940516 -1 14 C-1.66 14 -2.32 14 -3 14 C-3 14.66 -3 15.32 -3 16 C-2.34 16.33 -1.68 16.66 -1 17 C-2 20 -2 20 -4 21 C-6.3329866 21.04022391 -8.66706666 21.04320247 -11 21 C-10.505 16.545 -10.505 16.545 -10 12 C-8.72125 11.9175 -7.4425 11.835 -6.125 11.75 C-2.89884326 11.40608063 -2.89884326 11.40608063 -0.5 9.375 C0.1658591 6.21216928 0.12387601 3.22077636 0 0 Z " fill="#63BAE5" transform="translate(152,82)"/>
<path d="M0 0 C0.28875 0.61875 0.5775 1.2375 0.875 1.875 C1.93720042 4.13325765 1.93720042 4.13325765 4 6 C4.39764263 7.98821313 4.73775349 9.98944339 5 12 C2.54203147 12.19436491 0.08390706 12.3807742 -2.375 12.5625 C-3.07367188 12.61857422 -3.77234375 12.67464844 -4.4921875 12.73242188 C-9.7734375 13.11328125 -9.7734375 13.11328125 -12 12 C-12 11.34 -12 10.68 -12 10 C-10.88625 9.7525 -9.7725 9.505 -8.625 9.25 C-4.95791272 8.40634018 -4.95791272 8.40634018 -3.6875 5.9375 C-3.460625 5.298125 -3.23375 4.65875 -3 4 C-2.34 3.67 -1.68 3.34 -1 3 C-0.67 2.01 -0.34 1.02 0 0 Z " fill="#5CBEE8" transform="translate(18,132)"/>
<path d="M0 0 C1.21236328 0.04060547 1.21236328 0.04060547 2.44921875 0.08203125 C3.06410156 0.11683594 3.67898437 0.15164062 4.3125 0.1875 C4.9725 2.1675 5.6325 4.1475 6.3125 6.1875 C5.6525 5.8575 4.9925 5.5275 4.3125 5.1875 C4.3125 4.5275 4.3125 3.8675 4.3125 3.1875 C-0.34701036 2.8025192 -0.34701036 2.8025192 -4.625 4.3125 C-6.13234863 6.972527 -5.88736253 9.18956205 -5.6875 12.1875 C-1.6428378 13.97606683 -1.6428378 13.97606683 2.5625 13.4375 C4.4426492 12.16695013 4.4426492 12.16695013 6.3125 10.1875 C5.73665568 12.57314077 5.09022405 14.85432784 4.3125 17.1875 C2.89626784 17.24197047 1.47941809 17.28050508 0.0625 17.3125 C-1.12085937 17.34730469 -1.12085937 17.34730469 -2.328125 17.3828125 C-4.89481941 17.1703378 -6.4791067 16.47404105 -8.6875 15.1875 C-8.60034983 13.24916004 -8.49217036 11.3117571 -8.375 9.375 C-8.31699219 8.29605469 -8.25898437 7.21710937 -8.19921875 6.10546875 C-7.6875 3.1875 -7.6875 3.1875 -6.4375 1.3125 C-4.15558978 -0.15444228 -2.69063803 -0.11698426 0 0 Z " fill="#89C4E0" transform="translate(122.6875,54.8125)"/>
<path d="M0 0 C0.66 0 1.32 0 2 0 C2.25 7.625 2.25 7.625 0 11 C-1.91015625 12.09765625 -1.91015625 12.09765625 -4.0625 13.0625 C-7.17634573 14.33266339 -7.17634573 14.33266339 -9 17 C-6.36 17.99 -3.72 18.98 -1 20 C-3.52053595 21.26026798 -4.8542098 20.91874445 -7.625 20.5625 C-8.44226563 20.46066406 -9.25953125 20.35882813 -10.1015625 20.25390625 C-10.72804688 20.17011719 -11.35453125 20.08632812 -12 20 C-13.125 15.25 -13.125 15.25 -12 13 C-11.34 13 -10.68 13 -10 13 C-10 12.34 -10 11.68 -10 11 C-10.99 10.67 -11.98 10.34 -13 10 C-12.67 9.34 -12.34 8.68 -12 8 C-11.67 8.33 -11.34 8.66 -11 9 C-9.50261876 9.0979057 -8.00057108 9.12974864 -6.5 9.125 C-5.6853125 9.12757812 -4.870625 9.13015625 -4.03125 9.1328125 C-2.00469623 9.2245178 -2.00469623 9.2245178 -1 8 C-0.76924918 6.65252916 -0.58846937 5.29622435 -0.4375 3.9375 C-0.293125 2.638125 -0.14875 1.33875 0 0 Z " fill="#67B7D7" transform="translate(129,107)"/>
<path d="M0 0 C1.37478516 0.01740234 1.37478516 0.01740234 2.77734375 0.03515625 C3.69644531 0.04417969 4.61554687 0.05320313 5.5625 0.0625 C6.27277344 0.07410156 6.98304687 0.08570313 7.71484375 0.09765625 C6.72484375 1.58265625 6.72484375 1.58265625 5.71484375 3.09765625 C2.08984375 3.78515625 2.08984375 3.78515625 -1.28515625 4.09765625 C-1.28515625 6.07765625 -1.28515625 8.05765625 -1.28515625 10.09765625 C-0.19203125 10.05640625 0.90109375 10.01515625 2.02734375 9.97265625 C5.71484375 10.09765625 5.71484375 10.09765625 8.71484375 12.09765625 C8.38484375 15.39765625 8.05484375 18.69765625 7.71484375 22.09765625 C7.38484375 22.09765625 7.05484375 22.09765625 6.71484375 22.09765625 C6.59109375 20.98390625 6.46734375 19.87015625 6.33984375 18.72265625 C6.06826245 15.06661948 6.06826245 15.06661948 3.71484375 13.09765625 C0.13140399 12.93088343 0.13140399 12.93088343 -3.28515625 13.09765625 C-3.31202178 11.11856227 -3.33149 9.13936654 -3.34765625 7.16015625 C-3.35925781 6.05800781 -3.37085938 4.95585938 -3.3828125 3.8203125 C-3.25076835 0.13892172 -3.25076835 0.13892172 0 0 Z " fill="#8AC1D6" transform="translate(4.28515625,44.90234375)"/>
<path d="M0 0 C2.1875 1.6875 2.1875 1.6875 3.1875 4.6875 C3.74536556 10.93559425 3.74536556 10.93559425 1.75 13.625 C-2.07151854 15.20953208 -5.73112491 14.92296395 -9.8125 14.6875 C-9.4825 14.0275 -9.1525 13.3675 -8.8125 12.6875 C-7.69875 12.749375 -6.585 12.81125 -5.4375 12.875 C-4.24125 12.813125 -3.045 12.75125 -1.8125 12.6875 C0.43912602 9.93278606 0.43912602 9.93278606 0.125 7.125 C-0.59886273 4.50428105 -0.59886273 4.50428105 -3.0625 3.3125 C-6.05232504 2.63299431 -7.88973164 2.85242333 -10.8125 3.6875 C-11.1425 2.3675 -11.4725 1.0475 -11.8125 -0.3125 C-7.43089717 -1.77303428 -4.23641266 -1.97699258 0 0 Z " fill="#97D1E3" transform="translate(150.8125,55.3125)"/>
<path d="M0 0 C0 0.66 0 1.32 0 2 C1.32 2 2.64 2 4 2 C3.94008594 3.95918968 3.85132862 5.91751529 3.75 7.875 C3.68039063 9.51082031 3.68039063 9.51082031 3.609375 11.1796875 C3 14 3 14 1.2421875 15.37109375 C-1.15776522 16.04425122 -3.13514787 16.23329996 -5.625 16.1875 C-6.40101562 16.18105469 -7.17703125 16.17460938 -7.9765625 16.16796875 C-10 16 -10 16 -12 15 C-12 11.7 -12 8.4 -12 5 C-11.34 4.67 -10.68 4.34 -10 4 C-10.09765625 6.01822917 -10.1953125 8.03645833 -10.29296875 10.0546875 C-10.19628906 10.69664063 -10.09960938 11.33859375 -10 12 C-7.16426737 14.33775029 -7.16426737 14.33775029 -3.875 13.75 C-2.92625 13.5025 -1.9775 13.255 -1 13 C0.38125018 10.23749964 0.19079306 8.05268901 0 5 C-1.95633975 2.58878141 -1.95633975 2.58878141 -5.625 2.875 C-7.295625 2.936875 -7.295625 2.936875 -9 3 C-8.67 2.34 -8.34 1.68 -8 1 C-5.30114269 0.42577504 -2.76207303 0 0 0 Z " fill="#80C6DC" transform="translate(104,55)"/>
<path d="M0 0 C5.94 0.99 5.94 0.99 12 2 C12 5.63 12 9.26 12 13 C9.3978319 14.30108405 6.8356825 14.41906875 3.97265625 14.71875 C1.79328866 14.96937145 1.79328866 14.96937145 -1 16 C-0.5 14.0625 -0.5 14.0625 1 12 C3.69658452 11.31209578 6.2017019 11.18053536 9 11 C9 9.02 9 7.04 9 5 C8.071875 4.87625 7.14375 4.7525 6.1875 4.625 C3 4 3 4 0 2 C0 1.34 0 0.68 0 0 Z " fill="#8BC4DB" transform="translate(162,44)"/>
<path d="M0 0 C3.74787912 0.50452219 7.32636934 1.08159233 11 2 C10.67 5.3 10.34 8.6 10 12 C8.68 12.33 7.36 12.66 6 13 C3.33333333 13.58333333 3.33333333 13.58333333 1 15 C-0.37189827 18.02982306 -0.37189827 18.02982306 -1 21 C-1.33 21 -1.66 21 -2 21 C-2 18.03 -2 15.06 -2 12 C0.31 11.34 2.62 10.68 5 10 C5.33 7.69 5.66 5.38 6 3 C5.195625 2.87625 4.39125 2.7525 3.5625 2.625 C2.716875 2.41875 1.87125 2.2125 1 2 C0.67 1.34 0.34 0.68 0 0 Z " fill="#99CCE2" transform="translate(164,68)"/>
<path d="M0 0 C2.4375 1.375 2.4375 1.375 4 4 C4.48343116 7.71363025 4.65126388 11.30363743 4 15 C0.33858763 17.44094158 -1.3443063 17.01770503 -5.5625 16.625 C-6.36816406 16.55539063 -7.17382812 16.48578125 -8.00390625 16.4140625 C-8.66261719 16.27742188 -9.32132813 16.14078125 -10 16 C-10.33 15.34 -10.66 14.68 -11 14 C-10.07767578 14.06960937 -10.07767578 14.06960937 -9.13671875 14.140625 C-4.18600126 14.48455448 -4.18600126 14.48455448 0.125 12.4375 C1.36328987 8.98797821 0.86221231 6.51517328 0 3 C-2.40545638 1.79727181 -3.94996953 1.89928528 -6.625 1.9375 C-7.44226563 1.94652344 -8.25953125 1.95554688 -9.1015625 1.96484375 C-9.72804687 1.97644531 -10.35453125 1.98804688 -11 2 C-8.76927223 -2.46145553 -4.09036473 -0.9328902 0 0 Z " fill="#65B4D5" transform="translate(151,32)"/>
<path d="M0 0 C0 0.99 0 1.98 0 3 C0.66 3 1.32 3 2 3 C2 6.3 2 9.6 2 13 C1.67 13 1.34 13 1 13 C0.896875 11.88625 0.79375 10.7725 0.6875 9.625 C0.460625 8.42875 0.23375 7.2325 0 6 C-2.84826598 3.63307034 -2.84826598 3.63307034 -6.1875 4.375 C-7.115625 4.58125 -8.04375 4.7875 -9 5 C-9.144375 6.11375 -9.28875 7.2275 -9.4375 8.375 C-10 12 -10 12 -11 14 C-11.66 12.35 -12.32 10.7 -13 9 C-13.33 9 -13.66 9 -14 9 C-13.67 6.69 -13.34 4.38 -13 2 C-8.49646738 0.24252386 -4.82360189 -0.19294408 0 0 Z " fill="#81C7DF" transform="translate(57,54)"/>
<path d="M0 0 C0.66 0 1.32 0 2 0 C3.16343227 2.32686453 3.19895988 3.84721413 3.25 6.4375 C3.27578125 7.21996094 3.3015625 8.00242187 3.328125 8.80859375 C2.92253081 11.51738351 2.11466951 12.3216094 0 14 C-3.20693322 15.60346661 -6.53016746 15.61607231 -10 15 C-12.0625 12.9375 -12.0625 12.9375 -13 10 C-12.6875 6.1875 -12.6875 6.1875 -12 3 C-11.67 3 -11.34 3 -11 3 C-10.34 5.64 -9.68 8.28 -9 11 C-5.32431536 11.91892116 -3.83619425 11.95904856 0 11 C0 7.37 0 3.74 0 0 Z " fill="#83C2DA" transform="translate(104,10)"/>
<path d="M0 0 C1.98 0 3.96 0 6 0 C5.34 0.495 4.68 0.99 4 1.5 C1.1172783 5.10340212 1.69799003 7.46985042 2 12 C6.455 12.99 6.455 12.99 11 14 C8.61426621 15.89213369 6.92824652 17.02391783 4 18 C3.34 18.66 2.68 19.32 2 20 C1.01 20 0.02 20 -1 20 C-0.505 18.515 -0.505 18.515 0 17 C-0.30761001 15.66049824 -0.64436068 14.32755774 -1 13 C-1.09053693 11.31441541 -1.13009203 9.62550664 -1.125 7.9375 C-1.12757812 7.08027344 -1.13015625 6.22304687 -1.1328125 5.33984375 C-1 3 -1 3 0 0 Z " fill="#62BCE8" transform="translate(115,80)"/>
<path d="M0 0 C0.99 0 1.98 0 3 0 C3 1.98 3 3.96 3 6 C3.66 6 4.32 6 5 6 C5.625 7.875 5.625 7.875 6 10 C4 12 4 12 1.8359375 12.1953125 C0.61777344 12.16050781 0.61777344 12.16050781 -0.625 12.125 C-1.44226562 12.10695313 -2.25953125 12.08890625 -3.1015625 12.0703125 C-3.72804687 12.04710938 -4.35453125 12.02390625 -5 12 C-4.67 10.68 -4.34 9.36 -4 8 C-3.01 8 -2.02 8 -1 8 C-1.020625 6.865625 -1.04125 5.73125 -1.0625 4.5625 C-1 1 -1 1 0 0 Z " fill="#5BBDE9" transform="translate(63,84)"/>
<path d="M0 0 C8 0.92307692 8 0.92307692 11 3 C12.10333185 6.29850252 12.2235425 9.5406798 12 13 C10.5 15.5625 10.5 15.5625 8 17 C4.25 17.75 4.25 17.75 1 18 C3.61941217 16.25372522 5.03824877 15.61277612 8 15 C8.31403524 8.69234873 8.31403524 8.69234873 6 3 C2.94727535 2.10169161 2.94727535 2.10169161 0 2 C0 1.34 0 0.68 0 0 Z " fill="#72BAD6" transform="translate(73,101)"/>
<path d="M0 0 C2.31 0.66 4.62 1.32 7 2 C6.01 2.66 5.02 3.32 4 4 C4 5.32 4 6.64 4 8 C4.78375 8.0825 5.5675 8.165 6.375 8.25 C7.24125 8.4975 8.1075 8.745 9 9 C9.66 10.32 10.32 11.64 11 13 C7.37 13 3.74 13 0 13 C-0.89377528 9.42489889 -1.0258444 7.75082437 -0.5625 4.25 C-0.46066406 3.45078125 -0.35882813 2.6515625 -0.25390625 1.828125 C-0.17011719 1.22484375 -0.08632812 0.6215625 0 0 Z " fill="#89C2D5" transform="translate(1,69)"/>
<path d="M0 0 C1.22589844 0.01353516 1.22589844 0.01353516 2.4765625 0.02734375 C3.41628906 0.04474609 3.41628906 0.04474609 4.375 0.0625 C4.705 1.0525 5.035 2.0425 5.375 3.0625 C4.76011719 3.02769531 4.14523438 2.99289063 3.51171875 2.95703125 C2.29935547 2.91642578 2.29935547 2.91642578 1.0625 2.875 C0.26199219 2.84019531 -0.53851563 2.80539063 -1.36328125 2.76953125 C-3.67058363 2.89716657 -3.67058363 2.89716657 -5.4375 4.28125 C-7.03061415 6.67092122 -6.75893456 7.94963777 -6.3125 10.75 C-6.19261719 11.55824219 -6.07273437 12.36648437 -5.94921875 13.19921875 C-5.84222656 13.81410156 -5.73523438 14.42898437 -5.625 15.0625 C-9.5 14.1875 -9.5 14.1875 -10.625 13.0625 C-11.02538554 8.89849038 -11.06684328 6.73999304 -8.75 3.1875 C-5.7202549 0.1577549 -4.16072533 -0.05943893 0 0 Z " fill="#6DB7D5" transform="translate(76.625,54.9375)"/>
<path d="M0 0 C-0.33 1.32 -0.66 2.64 -1 4 C-1.66 3.34 -2.32 2.68 -3 2 C-6.58343976 1.83322718 -6.58343976 1.83322718 -10 2 C-11.35439668 4.70879335 -11.06501451 7.00933268 -11 10 C-7.535 11.485 -7.535 11.485 -4 13 C-4 13.33 -4 13.66 -4 14 C-5.27875 14.061875 -6.5575 14.12375 -7.875 14.1875 C-8.95394531 14.23970703 -8.95394531 14.23970703 -10.0546875 14.29296875 C-10.69664063 14.19628906 -11.33859375 14.09960938 -12 14 C-14.105184 10.842224 -14.25289344 10.04602866 -14.1875 6.4375 C-14.18105469 5.65246094 -14.17460938 4.86742187 -14.16796875 4.05859375 C-14 2 -14 2 -13 0 C-10.8203125 -0.703125 -10.8203125 -0.703125 -8.125 -1.25 C-7.24070312 -1.44078125 -6.35640625 -1.6315625 -5.4453125 -1.828125 C-3 -2 -3 -2 0 0 Z " fill="#86C9E3" transform="translate(105,127)"/>
<path d="M0 0 C0.99 0.495 0.99 0.495 2 1 C2 1.66 2 2.32 2 3 C4.97 3.33 7.94 3.66 11 4 C11 7.3 11 10.6 11 14 C4.25 16.125 4.25 16.125 2 15 C3.98 14.34 5.96 13.68 8 13 C8 11.02 8 9.04 8 7 C5.03 6.505 5.03 6.505 2 6 C1.34 4.02 0.68 2.04 0 0 Z " fill="#94CEE1" transform="translate(163,89)"/>
<path d="M0 0 C0.66 0 1.32 0 2 0 C1.95117188 2.9296875 1.95117188 2.9296875 1.90234375 5.859375 C2.00150201 8.03292403 2.40306149 9.91306537 3 12 C3.92232422 11.89171875 3.92232422 11.89171875 4.86328125 11.78125 C5.67152344 11.6884375 6.47976562 11.595625 7.3125 11.5 C8.11300781 11.4071875 8.91351563 11.314375 9.73828125 11.21875 C12 11 12 11 15 11 C10.52479327 14.46467618 6.438918 14.55564585 1 14 C0.34 13.67 -0.32 13.34 -1 13 C-1.02696365 11.20841511 -1.04637917 9.41671527 -1.0625 7.625 C-1.07410156 6.62726563 -1.08570313 5.62953125 -1.09765625 4.6015625 C-1 2 -1 2 0 0 Z " fill="#6CB9D3" transform="translate(138,58)"/>
<path d="M0 0 C2.125 0.9375 2.125 0.9375 4 2 C2.68 2.33 1.36 2.66 0 3 C0 5.97 0 8.94 0 12 C3.3 12 6.6 12 10 12 C10 12.66 10 13.32 10 14 C7.42121756 15.28939122 5.85485837 14.96551673 3 14.6875 C1.6696875 14.56955078 1.6696875 14.56955078 0.3125 14.44921875 C-2 14 -2 14 -4 12 C-4.37125166 7.82341877 -3.92135581 4.73596962 -2 1 C-1.34 0.67 -0.68 0.34 0 0 Z " fill="#99D2E6" transform="translate(94,79)"/>
<path d="M0 0 C2 2 2 2 2.4375 4.875 C2 8 2 8 -0.0625 10.4375 C-3.87975994 12.46795741 -5.87163132 12.0703178 -10 11 C-10.99 10.34 -11.98 9.68 -13 9 C-13.40843923 6.28796348 -13.13336867 3.7562858 -13 1 C-11.58622659 3.63904371 -10.62759865 6.07120629 -10 9 C-7.69 9.33 -5.38 9.66 -3 10 C-1.11608215 6.73454239 -0.50712033 3.71888239 0 0 Z " fill="#90CCDC" transform="translate(128,13)"/>
<path d="M0 0 C1.32 0.33 2.64 0.66 4 1 C4.60356653 8.12208505 4.60356653 8.12208505 1.9375 12 C-1.67917361 14.46241608 -3.70677141 14.48602588 -8 14 C-8.66 13.67 -9.32 13.34 -10 13 C-9.67 11.68 -9.34 10.36 -9 9 C-7.515 9.99 -7.515 9.99 -6 11 C-2.67759676 10.6758631 -1.39223697 10.39223697 1 8 C1.02375926 6.0068433 1.02375926 6.0068433 0.625 3.875 C0.41875 2.59625 0.2125 1.3175 0 0 Z " fill="#85C6DC" transform="translate(33,58)"/>
<path d="M0 0 C0.66 0 1.32 0 2 0 C2.12117188 0.69867188 2.24234375 1.39734375 2.3671875 2.1171875 C2.53476563 3.02726562 2.70234375 3.93734375 2.875 4.875 C3.03742188 5.77992187 3.19984375 6.68484375 3.3671875 7.6171875 C3.83044703 10.16505988 3.83044703 10.16505988 6 12 C7.98821313 12.39764263 9.98944339 12.73775349 12 13 C11.67 13.66 11.34 14.32 11 15 C7.88776587 15.21219778 5.64960815 15.31552396 2.8125 13.9375 C0.26403126 11.21327479 -0.82652253 8.52043242 -2 5 C-1.75908717 2.71132815 -1.61569143 1.61569143 0 0 Z " fill="#72B9D5" transform="translate(67,34)"/>
<path d="M0 0 C1.77155654 0.11429397 3.54226229 0.24183037 5.3125 0.375 C6.79169922 0.47941406 6.79169922 0.47941406 8.30078125 0.5859375 C11 1 11 1 14 3 C14.29296875 5.3828125 14.29296875 5.3828125 14.1875 8.125 C14.16042969 9.03507812 14.13335937 9.94515625 14.10546875 10.8828125 C14.07066406 11.58148438 14.03585938 12.28015625 14 13 C13.34 13 12.68 13 12 13 C12.0928125 11.6078125 12.0928125 11.6078125 12.1875 10.1875 C12.24529351 7.08745247 12.24529351 7.08745247 10.875 5.0625 C8.04436087 3.45847116 6.06387128 4.21773499 3 5 C2.01 5.495 2.01 5.495 1 6 C0.67 4.02 0.34 2.04 0 0 Z " fill="#8DCDDF" transform="translate(139,7)"/>
<path d="M0 0 C0.66 0 1.32 0 2 0 C2.45452339 5.68154235 1.66636232 8.60036521 -2 13 C-2.99 13.33 -3.98 13.66 -5 14 C-5 13.34 -5 12.68 -5 12 C-5.66 12 -6.32 12 -7 12 C-6.95875 11.0925 -6.9175 10.185 -6.875 9.25 C-6.99531556 6.1217954 -7.3914708 4.61385994 -9 2 C-8.01 2.33 -7.02 2.66 -6 3 C-4.8125 6.5625 -4.8125 6.5625 -4 10 C-3.67 9.01 -3.34 8.02 -3 7 C-2.34 6.67 -1.68 6.34 -1 6 C-0.34227572 2.97065509 -0.34227572 2.97065509 0 0 Z " fill="#5FBCEA" transform="translate(158,126)"/>
<path d="M0 0 C1.47968324 0.14049518 2.95874516 0.28754826 4.4375 0.4375 C5.67306641 0.55931641 5.67306641 0.55931641 6.93359375 0.68359375 C9 1 9 1 10 2 C10.09823937 3.66429051 10.12973631 5.33281931 10.125 7 C10.12757813 7.9075 10.13015625 8.815 10.1328125 9.75 C10 12 10 12 9 13 C6.34536879 13.45459858 3.67810862 13.70243238 1 14 C1 13.01 1 12.02 1 11 C2.98 11 4.96 11 7 11 C7 8.36 7 5.72 7 3 C6.030625 2.87625 5.06125 2.7525 4.0625 2.625 C3.051875 2.41875 2.04125 2.2125 1 2 C0.67 1.34 0.34 0.68 0 0 Z " fill="#A2D4E2" transform="translate(164,21)"/>
<path d="M0 0 C0.66 0 1.32 0 2 0 C2.05391993 1.79133978 2.09275571 3.58313899 2.125 5.375 C2.14820313 6.37273438 2.17140625 7.37046875 2.1953125 8.3984375 C2 11 2 11 0 13 C-2.1640625 12.9765625 -2.1640625 12.9765625 -4.625 12.625 C-5.85089844 12.45871094 -5.85089844 12.45871094 -7.1015625 12.2890625 C-8.04128906 12.14597656 -8.04128906 12.14597656 -9 12 C-6 10 -6 10 -4 10 C-4 9.34 -4 8.68 -4 8 C-2.68 8 -1.36 8 0 8 C0 5.36 0 2.72 0 0 Z " fill="#77C2E1" transform="translate(153,12)"/>
<path d="M0 0 C1 3 1 3 1.375 6.5625 C1.58125 7.696875 1.7875 8.83125 2 10 C5.18762365 12.12508244 7.26512223 12.5020163 11 13 C11 14.65 11 16.3 11 18 C9.68 17.67 8.36 17.34 7 17 C7.66 17 8.32 17 9 17 C9 16.01 9 15.02 9 14 C7.741875 14.103125 6.48375 14.20625 5.1875 14.3125 C2.98046875 14.3046875 2.98046875 14.3046875 1 14 C-1.77008726 11.14334751 -1.97725701 9.26836729 -2.3125 5.3125 C-2 2 -2 2 0 0 Z " fill="#6EB3CE" transform="translate(162,128)"/>
<path d="M0 0 C0.66 0 1.32 0 2 0 C1.67 0.99 1.34 1.98 1 3 C0.01 3 -0.98 3 -2 3 C-2 4.32 -2 5.64 -2 7 C-6.95 7 -11.9 7 -17 7 C-17 6.67 -17 6.34 -17 6 C-16.030625 5.87625 -15.06125 5.7525 -14.0625 5.625 C-13.051875 5.41875 -12.04125 5.2125 -11 5 C-10.67 4.34 -10.34 3.68 -10 3 C-7.96875 2.40234375 -7.96875 2.40234375 -5.5 1.9375 C-2.46226779 1.54135157 -2.46226779 1.54135157 0 0 Z " fill="#64B3D5" transform="translate(151,138)"/>
<path d="M0 0 C0.33 0 0.66 0 1 0 C1.33 1.98 1.66 3.96 2 6 C2.99 5.67 3.98 5.34 5 5 C5.66 7.64 6.32 10.28 7 13 C4.125 12.6875 4.125 12.6875 1 12 C0.34 11.01 -0.32 10.02 -1 9 C-1.99 8.67 -2.98 8.34 -4 8 C-3.525625 7.608125 -3.05125 7.21625 -2.5625 6.8125 C-0.64820367 4.59191626 -0.38733012 2.86624291 0 0 Z " fill="#74C8EC" transform="translate(105,131)"/>
<path d="M0 0 C0.66 0.66 1.32 1.32 2 2 C1.67 2.99 1.34 3.98 1 5 C-0.093125 4.773125 -1.18625 4.54625 -2.3125 4.3125 C-5.8386815 3.65875821 -5.8386815 3.65875821 -7.9375 5.125 C-9.34645957 7.61139923 -9.35242362 9.18061103 -9 12 C-8.01 13.485 -8.01 13.485 -7 15 C-8.32 14.67 -9.64 14.34 -11 14 C-12.33743169 7.79918033 -12.33743169 7.79918033 -10.8125 4.1875 C-7.67912687 0.40584278 -4.88069123 -0.51375697 0 0 Z " fill="#7FC3DC" transform="translate(149,101)"/>
<path d="M0 0 C0.33 0 0.66 0 1 0 C1.30495508 3.88817732 1.29233945 6.4026107 -0.4375 9.9375 C-3.73360523 12.59046275 -5.85750255 12.52348834 -9.9765625 12.46875 C-12 12 -12 12 -14 9 C-13.32453125 8.95101563 -12.6490625 8.90203125 -11.953125 8.8515625 C-11.06109375 8.77679688 -10.1690625 8.70203125 -9.25 8.625 C-8.36828125 8.55539063 -7.4865625 8.48578125 -6.578125 8.4140625 C-4.00933618 8.00149945 -2.24158985 7.28839043 0 6 C0 4.02 0 2.04 0 0 Z " fill="#67B8D6" transform="translate(37,14)"/>
<path d="M0 0 C1.4800841 0.11362262 2.95910074 0.24122908 4.4375 0.375 C5.26121094 0.44460938 6.08492187 0.51421875 6.93359375 0.5859375 C7.95646484 0.79089844 7.95646484 0.79089844 9 1 C9.33 1.66 9.66 2.32 10 3 C8.63875 2.87625 8.63875 2.87625 7.25 2.75 C3.89958592 2.68975201 3.89958592 2.68975201 1.625 5 C1.08875 5.66 0.5525 6.32 0 7 C1.26946514 11.82442184 1.26946514 11.82442184 5 15 C3.02 15 1.04 15 -1 15 C-2.46199687 10.61400938 -3.4888483 7.46654489 -2 3 C-1.34 2.01 -0.68 1.02 0 0 Z " fill="#93CFE2" transform="translate(70,8)"/>
<path d="M0 0 C0.66 0 1.32 0 2 0 C3.28171015 2.63881502 4.01135248 4.54590086 3.9375 7.5 C2.61244655 11.03347588 0.99826021 12.71871506 -2 15 C-5.8125 15.3125 -5.8125 15.3125 -9 15 C-9.33 14.34 -9.66 13.68 -10 13 C-9.36191406 12.86722656 -8.72382813 12.73445312 -8.06640625 12.59765625 C-7.24011719 12.42105469 -6.41382813 12.24445313 -5.5625 12.0625 C-4.73878906 11.88847656 -3.91507813 11.71445313 -3.06640625 11.53515625 C-1.02338796 11.19247006 -1.02338796 11.19247006 0 10 C0.07205511 8.31391034 0.08386068 6.62499341 0.0625 4.9375 C0.04896484 3.55884766 0.04896484 3.55884766 0.03515625 2.15234375 C0.02355469 1.44207031 0.01195312 0.73179687 0 0 Z " fill="#70B8D6" transform="translate(34,128)"/>
<path d="M0 0 C1 1 1 1 1.1328125 3.6875 C1.13023438 4.780625 1.12765625 5.87375 1.125 7 C1.12757812 8.093125 1.13015625 9.18625 1.1328125 10.3125 C1 13 1 13 0 14 C-1.51928038 14.07179964 -3.04167482 14.08392007 -4.5625 14.0625 C-5.38878906 14.05347656 -6.21507813 14.04445313 -7.06640625 14.03515625 C-7.70449219 14.02355469 -8.34257813 14.01195313 -9 14 C-9 13.67 -9 13.34 -9 13 C-7.865625 12.690625 -6.73125 12.38125 -5.5625 12.0625 C-2.21224901 11.37075469 -2.21224901 11.37075469 -1 10 C-0.74994614 7.04182893 -0.74994614 7.04182893 -1 4 C-2.95633975 1.58878141 -2.95633975 1.58878141 -6.625 1.875 C-8.295625 1.936875 -8.295625 1.936875 -10 2 C-9.67 1.34 -9.34 0.68 -9 0 C-5.67589286 -0.98824807 -3.2776822 -1.17060078 0 0 Z " fill="#92CDE6" transform="translate(105,103)"/>
<path d="M0 0 C4.74418605 0.92248062 4.74418605 0.92248062 7.0625 1.625 C9.33615837 2.06506291 10.81582708 1.70205558 13 1 C11.9375 2.5 11.9375 2.5 10 4 C6.3125 4.1875 6.3125 4.1875 3 4 C2.67 4.99 2.34 5.98 2 7 C-0.31 7.33 -2.62 7.66 -5 8 C-5 7.34 -5 6.68 -5 6 C-3.68 5.67 -2.36 5.34 -1 5 C-0.67 3.35 -0.34 1.7 0 0 Z " fill="#88CFE8" transform="translate(138,137)"/>
<path d="M0 0 C0.66 0 1.32 0 2 0 C2.28875 0.969375 2.5775 1.93875 2.875 2.9375 C3.64214682 6.10664203 3.64214682 6.10664203 6 7 C5.3125 8.9375 5.3125 8.9375 4 11 C0.39705888 12.20098037 -3.2272293 12.24605026 -7 12 C-7.99 11.34 -8.98 10.68 -10 10 C-9.67 9.34 -9.34 8.68 -9 8 C-8.443125 8.350625 -7.88625 8.70125 -7.3125 9.0625 C-4.46113217 10.21845993 -2.91482778 9.80967438 0 9 C0.93380961 4.46859347 0.93380961 4.46859347 0 0 Z " fill="#98D6EA" transform="translate(33,82)"/>
<path d="M0 0 C0.33 0 0.66 0 1 0 C1 2.31 1 4.62 1 7 C-2.153368 7.70074844 -4.72724974 8 -8 8 C-8.2165625 9.918125 -8.2165625 9.918125 -8.4375 11.875 C-8.70642746 14.25692894 -8.92226346 15.84452691 -10 18 C-11.5548497 16.4451503 -11.45837983 14.77049125 -11.75 12.625 C-11.86859375 11.83351563 -11.9871875 11.04203125 -12.109375 10.2265625 C-12 8 -12 8 -10.80859375 6.19140625 C-8.39867374 4.60387795 -7.12751956 4.86372877 -4.3125 5.3125 C-3.50425781 5.43238281 -2.69601563 5.55226563 -1.86328125 5.67578125 C-1.24839844 5.78277344 -0.63351563 5.88976562 0 6 C0 4.02 0 2.04 0 0 Z " fill="#A3D5E6" transform="translate(173,3)"/>
<path d="M0 0 C1.32 0 2.64 0 4 0 C4.33 2.31 4.66 4.62 5 7 C1.7 7.66 -1.6 8.32 -5 9 C-5 8.34 -5 7.68 -5 7 C-4.34 7 -3.68 7 -3 7 C-3 6.34 -3 5.68 -3 5 C-2.34 5 -1.68 5 -1 5 C-0.67 3.35 -0.34 1.7 0 0 Z " fill="#63B8DA" transform="translate(167,96)"/>
<path d="M0 0 C1.43739513 -0.02712066 2.87493863 -0.04645067 4.3125 -0.0625 C5.51326172 -0.07990234 5.51326172 -0.07990234 6.73828125 -0.09765625 C9 0 9 0 12 1 C13.62323754 4.75907641 14.23994929 7.92086213 14 12 C13.01 12.495 13.01 12.495 12 13 C11.87625 11.906875 11.7525 10.81375 11.625 9.6875 C11.24535199 5.92618198 11.24535199 5.92618198 9 3 C6.80545319 2.42006301 6.80545319 2.42006301 4.375 2.3125 C3.55773438 2.24675781 2.74046875 2.18101563 1.8984375 2.11328125 C1.27195313 2.07589844 0.64546875 2.03851563 0 2 C0 1.34 0 0.68 0 0 Z " fill="#6AB6D6" transform="translate(47,125)"/>
<path d="M0 0 C0.33 0.99 0.66 1.98 1 3 C-1.64 3.33 -4.28 3.66 -7 4 C-8.07525194 6.65228812 -9.09456151 9.28368454 -10 12 C-10.33 9.69 -10.66 7.38 -11 5 C-11.66 6.32 -12.32 7.64 -13 9 C-13 7.02 -13 5.04 -13 3 C-8.98167371 0.58900422 -4.64763596 0 0 0 Z " fill="#8ACEE4" transform="translate(32,55)"/>
<path d="M0 0 C0.99 0.33 1.98 0.66 3 1 C3 2.65 3 4.3 3 6 C4.98 6.99 6.96 7.98 9 9 C6.8614515 11.1385485 5.86724686 11.42655063 3 12 C3 11.34 3 10.68 3 10 C2.34 10 1.68 10 1 10 C0 3.375 0 3.375 0 0 Z " fill="#5AC0ED" transform="translate(62,109)"/>
<path d="M0 0 C3 0.375 3 0.375 4.875 1.4375 C6.64273274 4.4819286 6.36823916 6.9381012 6 10.375 C5.01 11.365 4.02 12.355 3 13.375 C3 10.075 3 6.775 3 3.375 C0.03 3.375 -2.94 3.375 -6 3.375 C-3 0.375 -3 0.375 0 0 Z " fill="#8ECCE2" transform="translate(54,31.625)"/>
<path d="M0 0 C0.99 0 1.98 0 3 0 C3.08131463 1.43655854 3.13933559 2.8744483 3.1875 4.3125 C3.22230469 5.11300781 3.25710937 5.91351563 3.29296875 6.73828125 C3 9 3 9 1.7109375 10.7734375 C-1.092446 12.78316905 -3.67636457 12.30214868 -7 12 C-7.66 11.34 -8.32 10.68 -9 10 C-7.329375 9.814375 -7.329375 9.814375 -5.625 9.625 C-1.96896323 9.3534187 -1.96896323 9.3534187 0 7 C0.16677282 3.41656024 0.16677282 3.41656024 0 0 Z " fill="#94CFE2" transform="translate(151,106)"/>
<path d="M0 0 C2.203125 -0.00390625 2.203125 -0.00390625 5.953125 0.37109375 C5.953125 1.03109375 5.953125 1.69109375 5.953125 2.37109375 C4.5609375 2.52578125 4.5609375 2.52578125 3.140625 2.68359375 C0.07968258 3.17007935 0.07968258 3.17007935 -1.859375 4.43359375 C-3.77799489 7.56397357 -3.74909612 10.73819146 -4.046875 14.37109375 C-4.706875 14.04109375 -5.366875 13.71109375 -6.046875 13.37109375 C-6.37334649 9.29020009 -6.19688332 6.71486281 -4.546875 2.93359375 C-2.046875 0.37109375 -2.046875 0.37109375 0 0 Z " fill="#6AB8D6" transform="translate(96.046875,53.62890625)"/>
<path d="M0 0 C0.33 0 0.66 0 1 0 C1.33 2.97 1.66 5.94 2 9 C-0.31 10.32 -2.62 11.64 -5 13 C-5.33 12.34 -5.66 11.68 -6 11 C-6.99 10.34 -7.98 9.68 -9 9 C-7.329375 8.7215625 -7.329375 8.7215625 -5.625 8.4375 C-4.42875 7.963125 -3.2325 7.48875 -2 7 C-0.45913678 3.48599332 -0.45913678 3.48599332 0 0 Z " fill="#6BBCE1" transform="translate(36,108)"/>
<path d="M0 0 C1.11375 0.185625 1.11375 0.185625 2.25 0.375 C2.91 2.025 3.57 3.675 4.25 5.375 C3.5075 5.148125 2.765 4.92125 2 4.6875 C-0.74494235 4.13120454 -0.74494235 4.13120454 -3 5.4375 C-5.29246226 7.97558322 -5.45217192 10.0244341 -5.75 13.375 C-6.08 13.375 -6.41 13.375 -6.75 13.375 C-7.08569542 9.17880719 -6.93687561 6.75567254 -5.0625 2.9375 C-2.75 0.375 -2.75 0.375 0 0 Z " fill="#99D2EA" transform="translate(28.75,76.625)"/>
<path d="M0 0 C-2 2 -2 2 -4.625 2.125 C-5.40875 2.08375 -6.1925 2.0425 -7 2 C-7 3.98 -7 5.96 -7 8 C-5.35 8 -3.7 8 -2 8 C-2 8.33 -2 8.66 -2 9 C-4.31 9.33 -6.62 9.66 -9 10 C-9 6.7 -9 3.4 -9 0 C-2.25 -1.125 -2.25 -1.125 0 0 Z " fill="#68B0C9" transform="translate(11,117)"/>
<path d="M0 0 C0.33 0 0.66 0 1 0 C1.33 2.64 1.66 5.28 2 8 C7.7974423 8.24428343 7.7974423 8.24428343 13 6 C12 9 12 9 10 10 C8.29297265 10.06996014 6.58331997 10.08440154 4.875 10.0625 C3.96492188 10.05347656 3.05484375 10.04445313 2.1171875 10.03515625 C1.41851563 10.02355469 0.71984375 10.01195313 0 10 C-1.60339848 6.88228073 -2.18974141 5.60988311 -1.125 2.1875 C-0.75375 1.465625 -0.3825 0.74375 0 0 Z " fill="#A6DCE7" transform="translate(22,107)"/>
<path d="M0 0 C7.75 -0.125 7.75 -0.125 10 1 C10 1.66 10 2.32 10 3 C10.66 3 11.32 3 12 3 C12.125 10.75 12.125 10.75 11 13 C10.34 13 9.68 13 9 13 C9.04125 11.7625 9.0825 10.525 9.125 9.25 C9.13658291 5.98362038 8.8568702 3.7853053 7 1 C4.69 1.33 2.38 1.66 0 2 C0 1.34 0 0.68 0 0 Z " fill="#89C8DE" transform="translate(48,102)"/>
<path d="M0 0 C0.99 0.33 1.98 0.66 3 1 C2.34 2.32 1.68 3.64 1 5 C-2.3 5 -5.6 5 -9 5 C-9.33 3.68 -9.66 2.36 -10 1 C-7.98177083 1.03255208 -5.96354167 1.06510417 -3.9453125 1.09765625 C-1.91814596 1.12649242 -1.91814596 1.12649242 0 0 Z " fill="#8FCBE4" transform="translate(57,67)"/>
<path d="M0 0 C0.33 0 0.66 0 1 0 C2.12880057 3.31114834 3.21302675 6.58978257 4 10 C6.64 10 9.28 10 12 10 C11.34 10.66 10.68 11.32 10 12 C6.80864149 11.95155433 3.93707614 11.23271444 1 10 C-1.1875 7.125 -1.1875 7.125 -2 4 C-1.1875 1.625 -1.1875 1.625 0 0 Z " fill="#67B6D4" transform="translate(114,37)"/>
<path d="M0 0 C5.02254631 -0.2954439 7.89542386 0.01485372 12 3 C11.67 6.63 11.34 10.26 11 14 C10.34 14 9.68 14 9 14 C8.77213542 11.98177083 8.54427083 9.96354167 8.31640625 7.9453125 C8.08707039 5.92595684 8.08707039 5.92595684 7 4 C7.33 3.67 7.66 3.34 8 3 C5.36 2.34 2.72 1.68 0 1 C0 0.67 0 0.34 0 0 Z " fill="#81CBE6" transform="translate(25,30)"/>
<path d="M0 0 C2 2 2 2 2.25 5.4375 C2 9 2 9 0 12 C-3.3 11.34 -6.6 10.68 -10 10 C-10 9.01 -10 8.02 -10 7 C-8.515 7.99 -8.515 7.99 -7 9 C-3.67759676 8.6758631 -2.39223697 8.39223697 0 6 C0.16681109 2.91652174 0.16681109 2.91652174 0 0 Z " fill="#A3D9E8" transform="translate(81,130)"/>
<path d="M0 0 C0.66 0 1.32 0 2 0 C2.103125 0.763125 2.20625 1.52625 2.3125 2.3125 C3.07274211 5.28435553 3.60526648 6.16118676 6 8 C8.28330101 8.36146457 8.28330101 8.36146457 10.6875 8.1875 C11.89986328 8.14689453 11.89986328 8.14689453 13.13671875 8.10546875 C13.75160156 8.07066406 14.36648437 8.03585938 15 8 C15 8.66 15 9.32 15 10 C10.39552906 10.24139945 6.27643626 10.43398833 1.875 8.9375 C0 7 0 7 -0.3125 3.3125 C-0.209375 2.219375 -0.10625 1.12625 0 0 Z " fill="#67B3D2" transform="translate(43,132)"/>
<path d="M0 0 C3.63 0 7.26 0 11 0 C11 0.33 11 0.66 11 1 C8.69 1.33 6.38 1.66 4 2 C2.23145137 5.4518754 2.23145137 5.4518754 2.5625 9.1875 C4.41329825 11.52111519 6.19800311 12.11515888 9 13 C6.47356605 13.99252762 5.36712644 14.14685058 2.8125 13.125 C-0.31872526 9.45390831 0 4.67495596 0 0 Z " fill="#C0F1F8" transform="translate(115,127)"/>
<path d="M0 0 C1.485 0.99 1.485 0.99 3 2 C5.32914823 2.36141955 7.66253478 2.69699525 10 3 C11 4 11 4 11.09765625 6.28515625 C11.08605469 7.20167969 11.07445312 8.11820313 11.0625 9.0625 C11.05347656 9.98160156 11.04445312 10.90070313 11.03515625 11.84765625 C11.02355469 12.55792969 11.01195312 13.26820312 11 14 C10.34 13.67 9.68 13.34 9 13 C9 10.36 9 7.72 9 5 C7.88625 4.9175 6.7725 4.835 5.625 4.75 C2 4 2 4 0.5625 1.9375 C0.376875 1.298125 0.19125 0.65875 0 0 Z " fill="#AEDBE6" transform="translate(163,113)"/>
<path d="M0 0 C0 0.99 0 1.98 0 3 C-2.35953094 5.35953094 -3.77895617 5.49141413 -7 6 C-7.33 7.98 -7.66 9.96 -8 12 C-6.68 12.33 -5.36 12.66 -4 13 C-5.98 13.33 -7.96 13.66 -10 14 C-10 10.7 -10 7.4 -10 4 C-8.906875 3.896875 -7.81375 3.79375 -6.6875 3.6875 C-3.14440371 3.02692273 -2.06756277 2.7972908 0 0 Z " fill="#67ADC4" transform="translate(12,90)"/>
<path d="M0 0 C0.66 0 1.32 0 2 0 C3.27569029 2.10113695 4.03543649 3.45073436 3.875 5.9375 C2.58071644 8.98831125 1.49393843 10.75545541 -1 13 C-4.04423312 13.4251429 -6.94717403 13.29354096 -10 13 C-10 12.67 -10 12.34 -10 12 C-8.72125 11.9175 -7.4425 11.835 -6.125 11.75 C-2.89884326 11.40608063 -2.89884326 11.40608063 -0.5 9.375 C0.1658591 6.21216928 0.12387601 3.22077636 0 0 Z " fill="#69B4D2" transform="translate(152,82)"/>
<path d="M0 0 C1 2 1 2 0.875 5 C0.91625 5.99 0.9575 6.98 1 8 C3.82717213 10.33296251 3.82717213 10.33296251 7.0625 9.75 C10.099459 9.2406756 10.099459 9.2406756 12 7 C11.125 10.875 11.125 10.875 10 12 C8.52351124 12.09823996 7.04224583 12.12973519 5.5625 12.125 C4.75941406 12.12757812 3.95632812 12.13015625 3.12890625 12.1328125 C1 12 1 12 -1 11 C-1.02688151 9.35425434 -1.04634123 7.70838587 -1.0625 6.0625 C-1.07410156 5.14597656 -1.08570312 4.22945312 -1.09765625 3.28515625 C-1 1 -1 1 0 0 Z " fill="#9AD1E7" transform="translate(93,59)"/>
<path d="M0 0 C1.65 0 3.3 0 5 0 C4.01 0.7734375 4.01 0.7734375 3 1.5625 C0.69228266 3.93302698 0.69228266 3.93302698 0.5625 7.5 C1.00756473 11.06051786 1.55859934 12.45687431 4 15 C2.125 14.6875 2.125 14.6875 0 14 C-2.3377499 10.49337515 -2.3298962 9.12370255 -2 5 C-1 2.125 -1 2.125 0 0 Z " fill="#6EB6D3" transform="translate(93,33)"/>
<path d="M0 0 C3.52814056 1.17604685 4.25746655 1.76386646 6 5 C6.49290926 7.91051183 6.33541935 9.98122585 6 13 C4.1875 15.0625 4.1875 15.0625 2 16 C1.01 15.67 0.02 15.34 -1 15 C-0.34 14.62875 0.32 14.2575 1 13.875 C3.27585288 12.12702791 3.27585288 12.12702791 3.4375 9.1875 C2.94614667 5.60763999 1.78369386 3.12146426 0 0 Z " fill="#63B6D7" transform="translate(126,9)"/>
<path d="M0 0 C0.33 0 0.66 0 1 0 C1.42317708 2.01822917 1.84635417 4.03645833 2.26953125 6.0546875 C2.92308838 8.37046549 2.92308838 8.37046549 6 10 C7.65549531 10.38499891 9.3222433 10.72793135 11 11 C11.33 13.97 11.66 16.94 12 20 C11.34 20 10.68 20 10 20 C10 17.36 10 14.72 10 12 C8.9275 11.9175 7.855 11.835 6.75 11.75 C3 11 3 11 0.5 9.375 C-1 7 -1 7 -0.75 3.25 C-0.5025 2.1775 -0.255 1.105 0 0 Z " fill="#67B0C9" transform="translate(161,107)"/>
<path d="M0 0 C0.33 0 0.66 0 1 0 C1.60377358 7.24528302 1.60377358 7.24528302 -1 10.5 C-5.05915505 12.52957752 -7.49030299 12.44357676 -12 12 C-12.66 11.34 -13.32 10.68 -14 10 C-10.37 10 -6.74 10 -3 10 C-2.690625 8.535625 -2.38125 7.07125 -2.0625 5.5625 C-1.125 1.125 -1.125 1.125 0 0 Z " fill="#6AB4D1" transform="translate(107,83)"/>
<path d="M0 0 C5.625 -0.25 5.625 -0.25 9 2 C8.67 5.3 8.34 8.6 8 12 C7.67 12 7.34 12 7 12 C6.87625 10.88625 6.7525 9.7725 6.625 8.625 C6.3534187 4.96896323 6.3534187 4.96896323 4 3 C1.42938689 2.35232207 1.42938689 2.35232207 -1 2 C-0.67 1.34 -0.34 0.68 0 0 Z " fill="#91CAE2" transform="translate(4,55)"/>
<path d="M0 0 C1 2 1 2 1.5 5.0625 C1.68838386 7.88119345 1.68838386 7.88119345 3 9 C5.67058851 9.14115161 8.32432238 9.04247107 11 9 C10.67 9.66 10.34 10.32 10 11 C8.33333333 11.33333333 6.66666667 11.66666667 5 12 C4.67 12.66 4.34 13.32 4 14 C3.34 14 2.68 14 2 14 C2 12.68 2 11.36 2 10 C1.01 10 0.02 10 -1 10 C-1.02689216 8.52093108 -1.04634621 7.04172517 -1.0625 5.5625 C-1.07410156 4.73878906 -1.08570313 3.91507813 -1.09765625 3.06640625 C-1 1 -1 1 0 0 Z " fill="#93D3EA" transform="translate(46,36)"/>
<path d="M0 0 C-0.33 0.99 -0.66 1.98 -1 3 C-1.99 3 -2.98 3 -4 3 C-4 3.99 -4 4.98 -4 6 C-4.66 5.34 -5.32 4.68 -6 4 C-11.03505052 4.23864442 -11.03505052 4.23864442 -15 7 C-15.33 5.68 -15.66 4.36 -16 3 C-13.89679937 2.49595192 -11.79240209 1.99689492 -9.6875 1.5 C-8.51574219 1.2215625 -7.34398438 0.943125 -6.13671875 0.65625 C-3 0 -3 0 0 0 Z " fill="#91CFE4" transform="translate(131,7)"/>
<path d="M0 0 C0.33 0 0.66 0 1 0 C1.33 2.97 1.66 5.94 2 9 C-2.49656104 11.24828052 -6.07872966 11.16682272 -11 11 C-11 10.67 -11 10.34 -11 10 C-8.36 9.67 -5.72 9.34 -3 9 C-3 8.34 -3 7.68 -3 7 C-2.34 7 -1.68 7 -1 7 C-0.67 4.69 -0.34 2.38 0 0 Z " fill="#61B3D5" transform="translate(60,108)"/>
<path d="M0 0 C0.66 0.33 1.32 0.66 2 1 C3.08209933 5.68909708 3.21980248 8.69097166 1 13 C0.34 13 -0.32 13 -1 13 C-1.02696365 11.20841511 -1.04637917 9.41671527 -1.0625 7.625 C-1.07410156 6.62726563 -1.08570313 5.62953125 -1.09765625 4.6015625 C-1 2 -1 2 0 0 Z " fill="#57C0EC" transform="translate(63,58)"/>
<path d="M0 0 C0.99 0.33 1.98 0.66 3 1 C2.34 2.32 1.68 3.64 1 5 C-0.98 5 -2.96 5 -5 5 C-5 5.66 -5 6.32 -5 7 C-4.34 7.33 -3.68 7.66 -3 8 C-4.65 8 -6.3 8 -8 8 C-8 6.68 -8 5.36 -8 4 C-6.865625 3.71125 -5.73125 3.4225 -4.5625 3.125 C-3.386875 2.75375 -2.21125 2.3825 -1 2 C-0.67 1.34 -0.34 0.68 0 0 Z " fill="#65B7D5" transform="translate(11,137)"/>
<path d="M0 0 C0.66 0.66 1.32 1.32 2 2 C2.99 2 3.98 2 5 2 C5.99 2.020625 6.98 2.04125 8 2.0625 C11.05248736 2.14717044 11.05248736 2.14717044 14 1 C14 1.66 14 2.32 14 3 C7.13107822 6.25369979 7.13107822 6.25369979 3.91015625 5.53125 C2 4.6875 2 4.6875 -1 3 C-0.67 2.01 -0.34 1.02 0 0 Z " fill="#93D0E5" transform="translate(67,113)"/>
<path d="M0 0 C0.33 0.66 0.66 1.32 1 2 C-0.093125 1.896875 -1.18625 1.79375 -2.3125 1.6875 C-4.1378125 1.8421875 -4.1378125 1.8421875 -6 2 C-8.3087867 4.77054404 -9.34704886 7.47406384 -10 11 C-11.0502717 7.0323069 -10.99716532 3.98866127 -10 0 C-6.64338305 -1.67830848 -3.63864406 -0.6353188 0 0 Z " fill="#9DD6E6" transform="translate(79,103)"/>
<path d="M0 0 C1.22589844 0.01353516 1.22589844 0.01353516 2.4765625 0.02734375 C3.41628906 0.04474609 3.41628906 0.04474609 4.375 0.0625 C4.705 1.0525 5.035 2.0425 5.375 3.0625 C4.77171875 3.02769531 4.1684375 2.99289063 3.546875 2.95703125 C-1.55025488 2.7110551 -1.55025488 2.7110551 -6.1875 4.5625 C-6.661875 5.0575 -7.13625 5.5525 -7.625 6.0625 C-7.25 3.625 -7.25 3.625 -6.625 1.0625 C-4.21954362 -0.14022819 -2.67503047 -0.03821472 0 0 Z " fill="#7FC0D9" transform="translate(76.625,54.9375)"/>
<path d="M0 0 C0.33 1.32 0.66 2.64 1 4 C-3.455 4.495 -3.455 4.495 -8 5 C-8.33 3.68 -8.66 2.36 -9 1 C-5.8035914 -0.06546953 -3.34252724 -0.07427838 0 0 Z " fill="#82C7E1" transform="translate(148,54)"/>
<path d="M0 0 C0.66 0.33 1.32 0.66 2 1 C1 4 1 4 -0.625 5.375 C-4.32107207 6.34765055 -6.69594625 4.65202687 -10 3 C-10 2.67 -10 2.34 -10 2 C-9.04287109 1.90912109 -9.04287109 1.90912109 -8.06640625 1.81640625 C-6.82697266 1.69072266 -6.82697266 1.69072266 -5.5625 1.5625 C-4.73878906 1.48128906 -3.91507812 1.40007813 -3.06640625 1.31640625 C-1.01337975 1.21069185 -1.01337975 1.21069185 0 0 Z " fill="#6AB6D7" transform="translate(81,21)"/>
<path d="M0 0 C3.63 0 7.26 0 11 0 C11.33 0.66 11.66 1.32 12 2 C9.98177083 1.90234375 7.96354167 1.8046875 5.9453125 1.70703125 C5.30335937 1.80371094 4.66140625 1.90039062 4 2 C1.70986347 5.4352048 1.82157027 6.985331 2 11 C1.34 10.67 0.68 10.34 0 10 C0 6.7 0 3.4 0 0 Z " fill="#A2DAEB" transform="translate(45,127)"/>
<path d="M0 0 C0.33 0 0.66 0 1 0 C1 1.98 1 3.96 1 6 C-2.29696105 7.09898702 -3.40494903 6.87124444 -6.6875 6.0625 C-7.49574219 5.86785156 -8.30398437 5.67320313 -9.13671875 5.47265625 C-9.75160156 5.31667969 -10.36648437 5.16070312 -11 5 C-11 4.01 -11 3.02 -11 2 C-9.515 2.99 -9.515 2.99 -8 4 C-4.92334973 3.91778291 -4.92334973 3.91778291 -2 3 C-1.34 2.01 -0.68 1.02 0 0 Z " fill="#9FD6E7" transform="translate(128,88)"/>
<path d="M0 0 C0.33 2.97 0.66 5.94 1 9 C0.34 7.68 -0.32 6.36 -1 5 C-2.01970318 3.06345052 -2.01970318 3.06345052 -4 2 C-6.76360047 2.05472476 -9.26239716 2.50633391 -12 3 C-12 2.34 -12 1.68 -12 1 C-4.5 -1.125 -4.5 -1.125 0 0 Z " fill="#A5D9E8" transform="translate(152,80)"/>
<path d="M0 0 C0.598125 0.350625 1.19625 0.70125 1.8125 1.0625 C1.8125 1.7225 1.8125 2.3825 1.8125 3.0625 C2.4725 3.0625 3.1325 3.0625 3.8125 3.0625 C3.4825 3.7225 3.1525 4.3825 2.8125 5.0625 C-0.1575 4.7325 -3.1275 4.4025 -6.1875 4.0625 C-5.8575 2.7425 -5.5275 1.4225 -5.1875 0.0625 C-2.1875 -0.9375 -2.1875 -0.9375 0 0 Z " fill="#61B5DA" transform="translate(54.1875,75.9375)"/>
<path d="M0 0 C1.32 0.99 2.64 1.98 4 3 C3.67 5.31 3.34 7.62 3 10 C2.01 9.67 1.02 9.34 0 9 C0 6.03 0 3.06 0 0 Z " fill="#58C0E7" transform="translate(61,10)"/>
<path d="M0 0 C0.33 0 0.66 0 1 0 C1.33 2.97 1.66 5.94 2 9 C-1.8726592 9.9681648 -5.03611362 10.07622858 -9 10 C-9.33 9.34 -9.66 8.68 -10 8 C-8.6078125 8.061875 -8.6078125 8.061875 -7.1875 8.125 C-3.84190281 8.27136339 -3.84190281 8.27136339 -1 6 C-0.26656572 2.93443402 -0.26656572 2.93443402 0 0 Z " fill="#A2D9EE" transform="translate(58,131)"/>
<path d="M0 0 C3.3 0 6.6 0 10 0 C11 4 11 4 10 7 C9.34 6.01 8.68 5.02 8 4 C6.515 3.7525 6.515 3.7525 5 3.5 C3.515 3.2525 3.515 3.2525 2 3 C1.34 2.01 0.68 1.02 0 0 Z " fill="#8DCBE9" transform="translate(24,125)"/>
<path d="M0 0 C0 0.33 0 0.66 0 1 C-1.175625 1.1546875 -1.175625 1.1546875 -2.375 1.3125 C-5.33045181 1.77595022 -5.33045181 1.77595022 -7 5 C-7.99 5 -8.98 5 -10 5 C-10.33 5.99 -10.66 6.98 -11 8 C-10.74438677 5.6568787 -10.40729228 3.32156597 -10 1 C-6.78548731 -0.60725635 -3.56387464 -0.05748185 0 0 Z " fill="#6FBBD6" transform="translate(101,102)"/>
<path d="M0 0 C0.66 0.99 1.32 1.98 2 3 C1.67 4.32 1.34 5.64 1 7 C-2.63 6.67 -6.26 6.34 -10 6 C-9.67 5.34 -9.34 4.68 -9 4 C-6.36 4 -3.72 4 -1 4 C-0.67 2.68 -0.34 1.36 0 0 Z " fill="#8BCEE3" transform="translate(128,41)"/>
<path d="M0 0 C0.33 0 0.66 0 1 0 C1.45572917 2.01822917 1.91145833 4.03645833 2.3671875 6.0546875 C2.90474428 8.20719964 2.90474428 8.20719964 5 10 C2.625 10.1875 2.625 10.1875 0 10 C-2 7 -2 7 -1.6875 3.875 C-1 1 -1 1 0 0 Z " fill="#8ECDDF" transform="translate(22,13)"/>
<path d="M0 0 C2.46943529 3.70415293 2.46913089 5.62144505 2 10 C0 11.9375 0 11.9375 -2 13 C-2.66 12.67 -3.32 12.34 -4 12 C-3.484375 11.67 -2.96875 11.34 -2.4375 11 C-0.66772487 8.53770416 -0.92841118 7.74507002 -1.3125 4.8125 C-1.539375 3.554375 -1.76625 2.29625 -2 1 C-1.34 0.67 -0.68 0.34 0 0 Z " fill="#90CDE4" transform="translate(35,10)"/>
<path d="M0 0 C0.99 0.495 0.99 0.495 2 1 C2 2.98 2 4.96 2 7 C4.475 7.99 4.475 7.99 7 9 C6.67 9.66 6.34 10.32 6 11 C3.03 10.505 3.03 10.505 0 10 C0 6.7 0 3.4 0 0 Z " fill="#78C4E7" transform="translate(68,133)"/>
<path d="M0 0 C1.98 0 3.96 0 6 0 C5.360625 0.556875 4.72125 1.11375 4.0625 1.6875 C1.80319013 4.22066561 1.36850953 5.68341424 1 9 C0.34 9 -0.32 9 -1 9 C-0.67 6.03 -0.34 3.06 0 0 Z " fill="#87C6DD" transform="translate(115,80)"/>
<path d="M0 0 C2.4064156 2.30263487 3.70786527 3.59176145 4 7 C3.0625 10.25 3.0625 10.25 2 13 C1.01 12.67 0.02 12.34 -1 12 C-0.67 11.67 -0.34 11.34 0 11 C0.07226502 9.14712498 0.0838122 7.29166122 0.0625 5.4375 C0.05347656 4.42558594 0.04445312 3.41367187 0.03515625 2.37109375 C0.02355469 1.58863281 0.01195312 0.80617187 0 0 Z " fill="#69B1D3" transform="translate(128,57)"/>
<path d="M0 0 C0 3.33333333 0 6.66666667 0 10 C-1.32 9.67 -2.64 9.34 -4 9 C-4.25 6.1875 -4.25 6.1875 -4 3 C-2 1.125 -2 1.125 0 0 Z " fill="#92CBE1" transform="translate(164,58)"/>
<path d="M0 0 C0.99 0 1.98 0 3 0 C2.67 3.63 2.34 7.26 2 11 C1.34 10.67 0.68 10.34 0 10 C-0.44921875 7.96875 -0.44921875 7.96875 -0.6875 5.5 C-0.77386719 4.6853125 -0.86023438 3.870625 -0.94921875 3.03125 C-0.96597656 2.3609375 -0.98273438 1.690625 -1 1 C-0.67 0.67 -0.34 0.34 0 0 Z " fill="#65B4D6" transform="translate(113,11)"/>
<path d="M0 0 C0 0.66 0 1.32 0 2 C0.66 2.33 1.32 2.66 2 3 C0.3603125 3.2165625 0.3603125 3.2165625 -1.3125 3.4375 C-4.93122987 3.88288104 -4.93122987 3.88288104 -8 5 C-8 3.68 -8 2.36 -8 1 C-5.23735711 0.40267181 -2.83967231 0 0 0 Z " fill="#8AC9DE" transform="translate(171,125)"/>
<path d="M0 0 C1.9375 0.8125 1.9375 0.8125 4 2 C4.33 2.99 4.66 3.98 5 5 C4.01 6.485 4.01 6.485 3 8 C2.34 7.01 1.68 6.02 1 5 C-1.55183404 3.79549696 -1.55183404 3.79549696 -4 3 C-2.68 2.01 -1.36 1.02 0 0 Z " fill="#7FC6DF" transform="translate(8,124)"/>
<path d="M0 0 C1.32 0.33 2.64 0.66 4 1 C3.34 3.31 2.68 5.62 2 8 C1.34 7.34 0.68 6.68 0 6 C-0.66 6.99 -1.32 7.98 -2 9 C-2.25 3.375 -2.25 3.375 0 0 Z " fill="#85C6E3" transform="translate(161,105)"/>
<path d="M0 0 C-0.9590625 0.556875 -0.9590625 0.556875 -1.9375 1.125 C-4.63858072 3.58052793 -4.68407005 5.44578805 -5 9 C-5.66 8.67 -6.32 8.34 -7 8 C-7 5.69 -7 3.38 -7 1 C-3.375 -1.125 -3.375 -1.125 0 0 Z " fill="#8DCAE3" transform="translate(51,81)"/>
<path d="M0 0 C1.65 0 3.3 0 5 0 C4.979375 0.9075 4.95875 1.815 4.9375 2.75 C4.9889755 5.42672588 5.2215017 7.46988052 6 10 C5.01 10.495 5.01 10.495 4 11 C3.690625 9.88625 3.38125 8.7725 3.0625 7.625 C2.17673517 4.2054845 2.17673517 4.2054845 1 2 C0.67 1.34 0.34 0.68 0 0 Z " fill="#69BCDD" transform="translate(134,34)"/>
<path d="M0 0 C0.928125 0.2784375 0.928125 0.2784375 1.875 0.5625 C4.04160178 1.23686176 4.04160178 1.23686176 6 0 C5.67 1.32 5.34 2.64 5 4 C4.34 4 3.68 4 3 4 C2.67 5.32 2.34 6.64 2 8 C0 2.25 0 2.25 0 0 Z " fill="#64B9DD" transform="translate(152,129)"/>
<path d="M0 0 C0 0.33 0 0.66 0 1 C-2.64 1.33 -5.28 1.66 -8 2 C-8 2.99 -8 3.98 -8 5 C-8.99 5 -9.98 5 -11 5 C-11 4.01 -11 3.02 -11 2 C-7.14864878 -1.17170101 -4.74352223 -1.21345918 0 0 Z " fill="#6FB3D7" transform="translate(32,102)"/>
<path d="M0 0 C1.60080151 4.00200378 0.29279692 7.04556236 -1 11 C-2 9 -2 9 -1.8125 6.0625 C-1.65485665 2.8936919 -1.65485665 2.8936919 -4 1.125 C-4.66 0.75375 -5.32 0.3825 -6 0 C-3.50907189 -1.24546405 -2.58919267 -0.7767578 0 0 Z " fill="#91CBE3" transform="translate(106,80)"/>
<path d="M0 0 C0.33 0 0.66 0 1 0 C1.0825 1.2375 1.165 2.475 1.25 3.75 C1.63475459 6.98882964 1.90024003 7.87907883 4.0625 10.5 C4.701875 10.995 5.34125 11.49 6 12 C3.61435923 11.42415568 1.33317216 10.77772405 -1 10 C-0.67 6.7 -0.34 3.4 0 0 Z " fill="#65B5CE" transform="translate(44,59)"/>
<path d="M0 0 C0.33 0 0.66 0 1 0 C1.103125 1.093125 1.20625 2.18625 1.3125 3.3125 C1.97307727 6.85559629 2.2027092 7.93243723 5 10 C4.01 10.495 4.01 10.495 3 11 C1.68 10.34 0.36 9.68 -1 9 C-0.67 6.03 -0.34 3.06 0 0 Z " fill="#98D0E2" transform="translate(139,13)"/>
<path d="M0 0 C-1.875 5.75 -1.875 5.75 -3 8 C-3.66 8 -4.32 8 -5 8 C-6 5 -6 5 -5.1875 2.875 C-3.68508471 0.50276534 -2.80531948 0 0 0 Z " fill="#60B9D7" transform="translate(23,11)"/>
<path d="M0 0 C1.64666203 0.1135629 3.29236082 0.24117381 4.9375 0.375 C5.85402344 0.44460938 6.77054688 0.51421875 7.71484375 0.5859375 C8.84599609 0.79089844 8.84599609 0.79089844 10 1 C10.33 1.66 10.66 2.32 11 3 C9.63875 2.938125 9.63875 2.938125 8.25 2.875 C5.1217954 2.99531556 3.61385994 3.3914708 1 5 C0.67 3.35 0.34 1.7 0 0 Z " fill="#88CDE4" transform="translate(22,8)"/>
<path d="M0 0 C1.65 0 3.3 0 5 0 C5 0.66 5 1.32 5 2 C6.32 2.33 7.64 2.66 9 3 C6.36 3.99 3.72 4.98 1 6 C0.67 4.02 0.34 2.04 0 0 Z " fill="#85C8E7" transform="translate(139,7)"/>
<path d="M0 0 C-0.33 0.66 -0.66 1.32 -1 2 C-4.96 2 -8.92 2 -13 2 C-13 1.67 -13 1.34 -13 1 C-8.20862412 -0.6290678 -4.94367454 -1.20577428 0 0 Z " fill="#68BBE9" transform="translate(147,143)"/>
<path d="M0 0 C0.99 0 1.98 0 3 0 C5.4294516 3.6441774 5.16179575 5.71241272 5 10 C4.01 10.495 4.01 10.495 3 11 C2.86722656 10.37351563 2.73445313 9.74703125 2.59765625 9.1015625 C2.42105469 8.28429687 2.24445313 7.46703125 2.0625 6.625 C1.80146484 5.40683594 1.80146484 5.40683594 1.53515625 4.1640625 C1.07669307 1.970537 1.07669307 1.970537 0 0 Z " fill="#67B6CF" transform="translate(103,127)"/>
<path d="M0 0 C0.99 0 1.98 0 3 0 C2.814375 1.0725 2.62875 2.145 2.4375 3.25 C2.0695432 6.40391546 1.95534657 8.09818492 3 11 C2.01 10.67 1.02 10.34 0 10 C0 6.7 0 3.4 0 0 Z " fill="#61BAD8" transform="translate(19,107)"/>
<path d="M0 0 C3.3 0 6.6 0 10 0 C10 0.33 10 0.66 10 1 C8.329375 1.309375 8.329375 1.309375 6.625 1.625 C2.73400805 2.61628301 2.73400805 2.61628301 1.5625 6.125 C1.376875 7.07375 1.19125 8.0225 1 9 C0.67 9 0.34 9 0 9 C0 6.03 0 3.06 0 0 Z " fill="#9BD3EA" transform="translate(45,103)"/>
<path d="M0 0 C2.5 0.3125 2.5 0.3125 5 1 C6.35439668 3.70879335 6.06501451 6.00933268 6 9 C4.66666667 7 3.33333333 5 2 3 C1.01 2.34 0.02 1.68 -1 1 C-0.67 0.67 -0.34 0.34 0 0 Z " fill="#83C2D9" transform="translate(124,79)"/>
<path d="M0 0 C2.97 0.495 2.97 0.495 6 1 C5.67 1.99 5.34 2.98 5 4 C2.69 4 0.38 4 -2 4 C-1.34 2.68 -0.68 1.36 0 0 Z " fill="#65B5D9" transform="translate(119,76)"/>
<path d="M0 0 C0.33 0.66 0.66 1.32 1 2 C0.01 3.485 0.01 3.485 -1 5 C-2.9453125 5.29296875 -2.9453125 5.29296875 -5.125 5.1875 C-6.40375 5.125625 -7.6825 5.06375 -9 5 C-9.33 4.34 -9.66 3.68 -10 3 C-8.72125 2.87625 -7.4425 2.7525 -6.125 2.625 C-2.65209064 2.30957601 -2.65209064 2.30957601 0 0 Z " fill="#67B6D7" transform="translate(105,68)"/>
<path d="M0 0 C0.66 0 1.32 0 2 0 C2 1.65 2 3.3 2 5 C0.02 5.99 0.02 5.99 -2 7 C-2.125 4.625 -2.125 4.625 -2 2 C-1.34 1.34 -0.68 0.68 0 0 Z " fill="#53C2EE" transform="translate(12,47)"/>
<path d="M0 0 C0.66 0.33 1.32 0.66 2 1 C2.625 4.0625 2.625 4.0625 3 7 C1.68 7.99 0.36 8.98 -1 10 C-1.66 9.67 -2.32 9.34 -3 9 C-2.67 8.34 -2.34 7.68 -2 7 C-1.34 7 -0.68 7 0 7 C0 4.69 0 2.38 0 0 Z " fill="#67B2D5" transform="translate(83,37)"/>
<path d="M0 0 C0.33 0 0.66 0 1 0 C1.309375 1.11375 1.61875 2.2275 1.9375 3.375 C2.82326483 6.7945155 2.82326483 6.7945155 4 9 C1.0625 8.25 1.0625 8.25 -2 7 C-2.875 4.875 -2.875 4.875 -3 3 C-2.34 3 -1.68 3 -1 3 C-0.67 2.01 -0.34 1.02 0 0 Z " fill="#96D5E7" transform="translate(22,37)"/>
<path d="M0 0 C-3.83325617 2.70582788 -6.32538149 3.32613618 -11 3 C-11 2.34 -11 1.68 -11 1 C-3.57142857 -1.42857143 -3.57142857 -1.42857143 0 0 Z " fill="#78BBD2" transform="translate(59,22)"/>
<path d="M0 0 C2.6855594 2.6855594 3.06049974 5.37621328 4 9 C2.35 9 0.7 9 -1 9 C-0.67 6.03 -0.34 3.06 0 0 Z " fill="#8DCEE6" transform="translate(11,107)"/>
<path d="M0 0 C0.66 0 1.32 0 2 0 C2.33 0.99 2.66 1.98 3 3 C5.10584438 3.80563638 5.10584438 3.80563638 7.5625 4.1875 C8.38878906 4.34605469 9.21507813 4.50460938 10.06640625 4.66796875 C11.02353516 4.83232422 11.02353516 4.83232422 12 5 C12 5.33 12 5.66 12 6 C3.42857143 6.28571429 3.42857143 6.28571429 0 4 C0 2.68 0 1.36 0 0 Z " fill="#63B4CE" transform="translate(114,89)"/>
<path d="M0 0 C2.97 0.495 2.97 0.495 6 1 C7.10844919 4.32534757 6.84454356 6.62182575 6 10 C5.855625 9.401875 5.71125 8.80375 5.5625 8.1875 C4.48258225 3.98781985 3.58068229 2.42562349 0 0 Z " fill="#9CD4E4" transform="translate(53,80)"/>
<path d="M0 0 C4.95 1.98 4.95 1.98 10 4 C10 4.33 10 4.66 10 5 C7.36 5 4.72 5 2 5 C1.34 3.35 0.68 1.7 0 0 Z " fill="#94C9DE" transform="translate(91,136)"/>
<path d="M0 0 C-0.33 1.32 -0.66 2.64 -1 4 C-1.66 3.34 -2.32 2.68 -3 2 C-4.98821313 1.60235737 -6.98944339 1.26224651 -9 1 C-5.66794923 -2.33205077 -3.95714908 -2.63809939 0 0 Z " fill="#99D7E7" transform="translate(105,127)"/>
<path d="M0 0 C0.66 0 1.32 0 2 0 C1.67 2.31 1.34 4.62 1 7 C0.01 6.34 -0.98 5.68 -2 5 C-1.125 1.125 -1.125 1.125 0 0 Z " fill="#5EB8D4" transform="translate(67,34)"/>
<path d="M0 0 C0.66 0.66 1.32 1.32 2 2 C1.525625 2.350625 1.05125 2.70125 0.5625 3.0625 C-1.67873825 5.84163543 -1.67117658 8.5144717 -2 12 C-2.33 12 -2.66 12 -3 12 C-3.08131463 10.56344146 -3.13933559 9.1255517 -3.1875 7.6875 C-3.22230469 6.88699219 -3.25710937 6.08648437 -3.29296875 5.26171875 C-2.93801608 2.52148416 -2.10633718 1.70828921 0 0 Z " fill="#70B7D5" transform="translate(47,32)"/>
<path d="M0 0 C0.66 0 1.32 0 2 0 C1.71872579 1.48117801 1.42466268 2.95993249 1.125 4.4375 C0.96257812 5.26121094 0.80015625 6.08492187 0.6328125 6.93359375 C0.31957031 7.95646484 0.31957031 7.95646484 0 9 C-0.99 9.495 -0.99 9.495 -2 10 C-1.85950482 8.52031676 -1.71245174 7.04125484 -1.5625 5.5625 C-1.48128906 4.73878906 -1.40007812 3.91507813 -1.31640625 3.06640625 C-1 1 -1 1 0 0 Z " fill="#61B8D5" transform="translate(91,11)"/>
<path d="M0 0 C0.33 0 0.66 0 1 0 C1.66 2.97 2.32 5.94 3 9 C2.01 9 1.02 9 0 9 C-0.87890625 2.84765625 -0.87890625 2.84765625 -1 1 C-0.67 0.67 -0.34 0.34 0 0 Z " fill="#69B8D1" transform="translate(161,83)"/>
<path d="M0 0 C1.485 0.99 1.485 0.99 3 2 C2.835 2.94875 2.67 3.8975 2.5 4.875 C1.9473365 7.80168901 1.9473365 7.80168901 2 10 C1.01 10.33 0.02 10.66 -1 11 C-1.02688151 9.35425434 -1.04634123 7.70838587 -1.0625 6.0625 C-1.07410156 5.14597656 -1.08570313 4.22945312 -1.09765625 3.28515625 C-1 1 -1 1 0 0 Z " fill="#9AD5E7" transform="translate(162,34)"/>
<path d="M0 0 C1.52519276 0.08937803 3.04681929 0.24537146 4.5625 0.4375 C5.80193359 0.59025391 5.80193359 0.59025391 7.06640625 0.74609375 C7.70449219 0.82988281 8.34257813 0.91367187 9 1 C9 1.33 9 1.66 9 2 C7.906875 2.103125 6.81375 2.20625 5.6875 2.3125 C2.14440371 2.97307727 1.06756277 3.2027092 -1 6 C-1.042721 4.33388095 -1.04063832 2.66617115 -1 1 C-0.67 0.67 -0.34 0.34 0 0 Z " fill="#9AD6E8" transform="translate(70,32)"/>
<path d="M0 0 C1.32 0.66 2.64 1.32 4 2 C3.38125 2.5775 2.7625 3.155 2.125 3.75 C0.1662961 5.82392178 -0.8133789 7.45571331 -2 10 C-1.85950482 8.52031676 -1.71245174 7.04125484 -1.5625 5.5625 C-1.48128906 4.73878906 -1.40007812 3.91507813 -1.31640625 3.06640625 C-1 1 -1 1 0 0 Z " fill="#98D1E4" transform="translate(117,32)"/>
<path d="M0 0 C0.99 1.485 0.99 1.485 2 3 C3.32381517 4.67423683 4.65576661 6.34211215 6 8 C4.35 8.33 2.7 8.66 1 9 C0.67 6.03 0.34 3.06 0 0 Z " fill="#A2D6EC" transform="translate(45,15)"/>
<path d="M0 0 C1.11841368 2.08770553 1.9708176 3.85408801 2.4375 6.1875 C2.623125 6.785625 2.80875 7.38375 3 8 C3.99 8.33 4.98 8.66 6 9 C4.33388095 9.042721 2.66617115 9.04063832 1 9 C0 8 0 8 -0.09765625 6.15234375 C-0.06510417 4.1015625 -0.03255208 2.05078125 0 0 Z " fill="#9AD0E6" transform="translate(115,14)"/>
<path d="M0 0 C0.66 0.33 1.32 0.66 2 1 C1.34 4.63 0.68 8.26 0 12 C-0.33 12 -0.66 12 -1 12 C-1.02712066 10.56260487 -1.04645067 9.12506137 -1.0625 7.6875 C-1.07410156 6.88699219 -1.08570313 6.08648437 -1.09765625 5.26171875 C-1 3 -1 3 0 0 Z " fill="#68B4D3" transform="translate(138,9)"/>
<path d="M0 0 C0.99 0.33 1.98 0.66 3 1 C3.73046875 3.06640625 3.73046875 3.06640625 4.1875 5.5625 C4.34605469 6.38878906 4.50460938 7.21507812 4.66796875 8.06640625 C4.77753906 8.70449219 4.88710937 9.34257812 5 10 C4.01 10 3.02 10 2 10 C2.04125 9.0925 2.0825 8.185 2.125 7.25 C2.00468444 4.1217954 1.6085292 2.61385994 0 0 Z " fill="#A9DBEC" transform="translate(149,128)"/>
<path d="M0 0 C0.66 0 1.32 0 2 0 C1.67 1.32 1.34 2.64 1 4 C-1.97 4 -4.94 4 -8 4 C-8 3.67 -8 3.34 -8 3 C-6.865625 2.690625 -5.73125 2.38125 -4.5625 2.0625 C-1.21224901 1.37075469 -1.21224901 1.37075469 0 0 Z " fill="#ADE0EC" transform="translate(104,113)"/>
<path d="M0 0 C0.99 0 1.98 0 3 0 C2.67 3.3 2.34 6.6 2 10 C1.67 10 1.34 10 1 10 C0.67 6.7 0.34 3.4 0 0 Z " fill="#65B4D5" transform="translate(113,104)"/>
<path d="M0 0 C-0.66 1.32 -1.32 2.64 -2 4 C-4.31 3.01 -6.62 2.02 -9 1 C-9 0.67 -9 0.34 -9 0 C-5.62182575 -0.84454356 -3.32534757 -1.10844919 0 0 Z " fill="#96D2E4" transform="translate(12,103)"/>
<path d="M0 0 C0.33 1.32 0.66 2.64 1 4 C-2.93670488 5.31223496 -5.12488144 4.24296256 -9 3 C-8.67 2.34 -8.34 1.68 -8 1 C-6.576875 1.309375 -6.576875 1.309375 -5.125 1.625 C-4.09375 1.74875 -3.0625 1.8725 -2 2 C-1.34 1.34 -0.68 0.68 0 0 Z " fill="#9AD6E8" transform="translate(80,67)"/>
<path d="M0 0 C0.721875 0.474375 1.44375 0.94875 2.1875 1.4375 C4.89475226 2.94152903 6.96194275 3.56599182 10 4 C10 4.33 10 4.66 10 5 C7.36 5.33 4.72 5.66 2 6 C1.34 4.02 0.68 2.04 0 0 Z " fill="#64B4D6" transform="translate(22,44)"/>
<path d="M0 0 C2.475 0.99 2.475 0.99 5 2 C4.67 4.64 4.34 7.28 4 10 C3.34 10 2.68 10 2 10 C2.04125 9.0925 2.0825 8.185 2.125 7.25 C2.00468444 4.1217954 1.6085292 2.61385994 0 0 Z " fill="#99D0E5" transform="translate(79,34)"/>
<path d="M0 0 C1.65 0 3.3 0 5 0 C4.0409375 0.804375 4.0409375 0.804375 3.0625 1.625 C0.61470596 4.44367193 0.33285388 6.33860732 0 10 C-0.33 10 -0.66 10 -1 10 C-1.125 3.375 -1.125 3.375 0 0 Z " fill="#A9DBEC" transform="translate(93,33)"/>
<path d="M0 0 C1.3921875 0.0928125 1.3921875 0.0928125 2.8125 0.1875 C2.8125 1.1775 2.8125 2.1675 2.8125 3.1875 C-0.1575 3.1875 -3.1275 3.1875 -6.1875 3.1875 C-3.1875 0.1875 -3.1875 0.1875 0 0 Z " fill="#A6D8EB" transform="translate(54.1875,31.8125)"/>
<path d="M0 0 C0.33 0 0.66 0 1 0 C1.66 2.97 2.32 5.94 3 9 C2.01 9 1.02 9 0 9 C-1.125 2.25 -1.125 2.25 0 0 Z " fill="#94D4E3" transform="translate(92,13)"/>
<path d="M0 0 C3.63 0 7.26 0 11 0 C11 0.33 11 0.66 11 1 C7.26513121 1.5745952 3.78706732 2 0 2 C0 1.34 0 0.68 0 0 Z " fill="#9AD3EC" transform="translate(115,127)"/>
<path d="M0 0 C0.33 0 0.66 0 1 0 C1.3125 2.6875 1.3125 2.6875 1 6 C-1.5 8.875 -1.5 8.875 -4 11 C-4 10.01 -4 9.02 -4 8 C-3.525625 7.54625 -3.05125 7.0925 -2.5625 6.625 C-0.55416651 4.53633317 -0.38130476 2.8216552 0 0 Z " fill="#6BB0CD" transform="translate(36,108)"/>
<path d="M0 0 C0.433125 0.45375 0.86625 0.9075 1.3125 1.375 C3.10798342 3.20024334 3.10798342 3.20024334 6 5 C3.69 5 1.38 5 -1 5 C-0.67 3.35 -0.34 1.7 0 0 Z " fill="#7BC5D9" transform="translate(115,65)"/>
<path d="M0 0 C0.99 0.33 1.98 0.66 3 1 C2.125 8.75 2.125 8.75 1 11 C0 10 0 10 -0.09765625 7.71484375 C-0.08605469 6.79832031 -0.07445312 5.88179687 -0.0625 4.9375 C-0.05347656 4.01839844 -0.04445312 3.09929688 -0.03515625 2.15234375 C-0.02355469 1.44207031 -0.01195312 0.73179688 0 0 Z " fill="#9AD4E4" transform="translate(45,57)"/>
<path d="M0 0 C0.33 0 0.66 0 1 0 C1.33 2.31 1.66 4.62 2 7 C0.02 7.66 -1.96 8.32 -4 9 C-3.2884375 7.88625 -3.2884375 7.88625 -2.5625 6.75 C-1.22130673 4.38949985 -0.487688 2.63351523 0 0 Z " fill="#9ACEE5" transform="translate(82,14)"/>
<path d="M0 0 C0.33 0 0.66 0 1 0 C1 3.3 1 6.6 1 10 C-0.32 10 -1.64 10 -3 10 C-2.67 9.34 -2.34 8.68 -2 8 C-1.34 8 -0.68 8 0 8 C0 5.36 0 2.72 0 0 Z " fill="#6DB4D2" transform="translate(153,12)"/>
<path d="M0 0 C-0.33 0.99 -0.66 1.98 -1 3 C-1.99 3 -2.98 3 -4 3 C-4 3.99 -4 4.98 -4 6 C-4.66 5.34 -5.32 4.68 -6 4 C-6 3.01 -6 2.02 -6 1 C-3 0 -3 0 0 0 Z " fill="#7BC7E2" transform="translate(131,7)"/>
<path d="" fill="#FFFFFF" transform="translate(0,0)"/>
<path d="" fill="#FFFFFF" transform="translate(0,0)"/>
<path d="" fill="#FFFFFF" transform="translate(0,0)"/>
<path d="" fill="#FFFFFF" transform="translate(0,0)"/>
<path d="" fill="#FFFFFF" transform="translate(0,0)"/>
<path d="" fill="#FFFFFF" transform="translate(0,0)"/>
<path d="" fill="#FFFFFF" transform="translate(0,0)"/>
<path d="" fill="#FFFFFF" transform="translate(0,0)"/>
<path d="" fill="#FFFFFF" transform="translate(0,0)"/>
<path d="" fill="#FFFFFF" transform="translate(0,0)"/>
<path d="" fill="#FFFFFF" transform="translate(0,0)"/>
<path d="" fill="#FFFFFF" transform="translate(0,0)"/>
<path d="" fill="#FFFFFF" transform="translate(0,0)"/>
<path d="" fill="#FFFFFF" transform="translate(0,0)"/>
<path d="" fill="#FFFFFF" transform="translate(0,0)"/>
<path d="" fill="#FFFFFF" transform="translate(0,0)"/>
<path d="" fill="#FFFFFF" transform="translate(0,0)"/>
<path d="" fill="#00FFFF" transform="translate(0,0)"/>
</svg>
