<?xml version="1.0" encoding="UTF-8"?>
<svg version="1.1" xmlns="http://www.w3.org/2000/svg" width="512" height="512">
<path d="M0 0 C20.81125951 -0.09377188 41.62248378 -0.16413928 62.43391228 -0.20724869 C72.09875459 -0.22780425 81.76346503 -0.25578954 91.42822266 -0.30175781 C99.85983887 -0.34184153 108.2913595 -0.36748361 116.72306836 -0.37635398 C121.18053925 -0.38153258 125.63773687 -0.39355483 130.09511948 -0.42292023 C134.30585556 -0.45043127 138.51621047 -0.45837447 142.72702789 -0.45243073 C144.25786804 -0.45351526 145.78872334 -0.46125392 147.31948471 -0.4768219 C162.93729271 -0.62762507 177.88678882 2.07463314 192 9 C192.93199219 9.45246094 193.86398437 9.90492188 194.82421875 10.37109375 C217.39455013 21.9867873 233.58308647 42.76140121 241.375 66.6875 C248.61638246 92.80133498 245.32741305 118.92409108 232.0703125 142.5234375 C229.44099988 147.03672666 226.41684489 151.05409526 223 155 C222.36964844 155.78503906 221.73929688 156.57007813 221.08984375 157.37890625 C204.70645301 176.94710566 181.16260383 186.42908754 156.23794484 188.82000875 C150.14503037 189.31004374 144.04203741 189.25971768 137.93334961 189.22705078 C136.41362007 189.2264845 134.89388999 189.22680745 133.37416077 189.22793579 C129.30913156 189.22850184 125.24422411 189.21687095 121.17922282 189.20278788 C116.90851532 189.19015366 112.637804 189.18910014 108.36708069 189.18673706 C100.30694621 189.18055914 92.24686699 189.16419908 84.18675667 189.14403808 C74.99912062 189.12156321 65.81148172 189.11065672 56.62382495 189.10064721 C37.74918549 189.07982891 18.87459721 189.0447259 0 189 C0 188.34 0 187.68 0 187 C0.89460937 186.5153125 1.78921875 186.030625 2.7109375 185.53125 C10.40726616 181.2912221 17.30819543 176.7407433 24 171 C24.97195312 170.22914063 25.94390625 169.45828125 26.9453125 168.6640625 C30.19453767 165.95243079 32.78903765 162.90040885 35.375 159.5625 C36.08499146 158.64670166 36.08499146 158.64670166 36.80932617 157.71240234 C45.11355784 146.76827549 50.84268791 135.04512611 55 122 C55.34160156 120.95199219 55.68320313 119.90398437 56.03515625 118.82421875 C62.71007328 93.89417979 57.8685342 65.32753487 45.34375 43.0546875 C33.85225256 24.30265304 18.91851138 11.63710909 0 1 C0 0.67 0 0.34 0 0 Z " fill="#2060df" transform="translate(171,160)"/>
<path d="M0 0 C34.70539058 -0.16121214 34.70539058 -0.16121214 49.27734375 -0.1953125 C59.32869657 -0.21902329 69.37991501 -0.24685854 79.43115234 -0.30175781 C86.75226974 -0.34172614 94.07327785 -0.36745658 101.39450133 -0.37635398 C105.26822866 -0.3815519 109.14164344 -0.3936998 113.01527023 -0.42292023 C116.66786925 -0.45024783 120.32002956 -0.45841043 123.9727211 -0.45243073 C125.9389432 -0.45404077 127.90511848 -0.47547226 129.87121582 -0.49768066 C140.37450781 -0.44921827 148.53619035 1.76542316 156.24609375 9.0859375 C163.79513371 17.32431073 165.32495031 26.28914222 165.22705078 37.19165039 C165.22729185 38.07491973 165.22753292 38.95818907 165.2277813 39.86822414 C165.22630221 42.69480816 165.21113463 45.52112014 165.1953125 48.34765625 C165.1923677 50.10575229 165.19032995 51.86385009 165.18920898 53.62194824 C165.17877227 60.1021591 165.15084976 66.58233229 165.125 73.0625 C165.08375 87.561875 165.0425 102.06125 165 117 C110.55 117 56.1 117 0 117 C0 78.39 0 39.78 0 0 Z M63 41 C58.31757046 48.31629616 56.14678649 54.27001824 57 63 C59.13687102 72.1735737 64.21318282 76.87816271 71.875 81.875 C78.70458723 84.3336514 85.02471711 84.74997895 91.8359375 82.06640625 C99.1828007 78.4460206 104.14980055 73.79217617 107 66 C108.64226744 58.93110971 108.51363894 52.4435789 105 46 C100.59530366 39.61473763 95.66188836 34.86905516 88 33 C78.60774267 31.70873452 69.72611309 34.08705044 63 41 Z " fill="#2060df" transform="translate(144,34)"/>
<path d="M0 0 C54.45 0 108.9 0 165 0 C165.061875 14.47875 165.12375 28.9575 165.1875 43.875 C165.22846802 50.70807861 165.22846802 50.70807861 165.27026367 57.67919922 C165.28381348 63.28344727 165.28381348 63.28344727 165.28633118 65.91506958 C165.29090879 67.7354859 165.30139904 69.55589367 165.31672668 71.37625122 C165.4254062 84.97452997 165.458254 97.22006858 156 108 C146.41745004 116.40767793 135.59702728 117.44719975 123.28857422 117.34057617 C121.93736286 117.33972813 120.58615013 117.34020849 119.23493958 117.34190369 C115.59709424 117.34275817 111.95955067 117.32522216 108.32177496 117.30418181 C104.50881355 117.28532282 100.69584387 117.28365735 96.88284302 117.28010559 C89.67596058 117.27081204 82.46921602 117.24623505 75.26239407 117.21605712 C65.5142417 117.17613086 55.76605115 117.16003648 46.01783752 117.14255047 C30.67845525 117.11441171 15.3393638 117.05462448 0 117 C0 78.39 0 39.78 0 0 Z M63 41 C57.7117453 47.90411031 56.01519722 54.42716558 57 63 C58.81892467 70.72467377 62.46139646 75.5793622 69 80 C75.67142846 83.57397953 81.70179544 84.82631558 89 82.9375 C96.83386977 80.25400851 102.38037024 75.97010071 106.08984375 68.48828125 C108.54477072 61.77674272 108.85105454 54.88280487 106.19921875 48.19921875 C102.58764623 41.57604178 97.54954467 36.26495817 90.421875 33.5859375 C79.84504811 31.02702777 70.73454118 33.44124385 63 41 Z " fill="#2060df" transform="translate(144,358)"/>
<path d="M0 0 C8.58 0 17.16 0 26 0 C26.02187378 5.61878174 26.02187378 5.61878174 26.04418945 11.35107422 C26.09443216 23.70051996 26.16085679 36.0498336 26.23571491 48.39915276 C26.28072201 55.88962271 26.32012516 63.38004459 26.34643555 70.87060547 C26.36937604 77.39773969 26.40272935 83.92472241 26.44870156 90.45173657 C26.47268752 93.90926258 26.49138088 97.36663807 26.49761391 100.82424545 C26.50475894 104.67971057 26.53514688 108.53479748 26.56762695 112.39013672 C26.56547432 114.11858826 26.56547432 114.11858826 26.5632782 115.88195801 C26.58208542 117.45111465 26.58208542 117.45111465 26.60127258 119.05197144 C26.60588155 119.96454649 26.61049051 120.87712154 26.61523914 121.81735039 C26.74221023 122.53762476 26.86918131 123.25789913 27 124 C30.0257426 126.01716173 32.32927282 126.56863728 35.85083008 127.2409668 C60.18109578 131.89043456 81.46132907 145.43438412 95.90625 165.71484375 C110.25211974 188.22394161 115.99422213 214.49335944 111.02539062 241.00195312 C105.3540689 265.4819621 89.69694334 287.04724715 68.6953125 300.62231445 C57.9377086 307.27912628 47.13210247 310.74839283 34.84326172 313.3527832 C33.53446045 313.63448364 33.53446045 313.63448364 32.19921875 313.921875 C31.41377686 314.08268555 30.62833496 314.24349609 29.8190918 314.40917969 C29.2187915 314.60415039 28.61849121 314.79912109 28 315 C26.75716371 317.48567258 26.86145126 319.16617903 26.84178162 321.94802856 C26.82709839 323.51718521 26.82709839 323.51718521 26.81211853 325.11804199 C26.80636307 326.27034302 26.8006076 327.42264404 26.79467773 328.60986328 C26.77982834 330.42446548 26.77982834 330.42446548 26.76467896 332.27572632 C26.73845695 335.59781077 26.71660908 338.91987074 26.69667697 342.24199533 C26.67483264 345.71204643 26.64743637 349.1820535 26.62062073 352.65206909 C26.57067279 359.22518195 26.52574178 365.79831921 26.48259836 372.37147987 C26.43324392 379.85387964 26.37831915 387.33623524 26.32291877 394.81859231 C26.20906648 410.21235565 26.10296994 425.60615943 26 441 C17.42 441 8.84 441 0 441 C0 395.13 0 349.26 0 302 C5.94 300.02 11.88 298.04 18 296 C28.53752999 291.16699752 37.78753679 285.96987189 47 279 C47.73605469 278.44957031 48.47210938 277.89914062 49.23046875 277.33203125 C64.23698726 265.20101329 73.35557025 246.88122839 76 228 C77.75999687 207.92003566 71.51705766 188.96333297 58.8671875 173.37109375 C56.6463219 170.83683074 54.36238973 168.40256643 52 166 C50.98679687 164.96746094 50.98679687 164.96746094 49.953125 163.9140625 C37.14182089 151.72887476 20.21826618 144.55576488 3.44921875 139.76171875 C1 139 1 139 0 138 C-0.09636838 136.21572813 -0.12187453 134.42760347 -0.12025452 132.64073181 C-0.12162918 131.47820389 -0.12300385 130.31567596 -0.12442017 129.11791992 C-0.12082489 127.83111328 -0.11722961 126.54430664 -0.11352539 125.21850586 C-0.11324352 123.85876976 -0.11340125 122.4990335 -0.1139679 121.13929749 C-0.11425587 117.43698222 -0.10835912 113.73469908 -0.10139394 110.03239131 C-0.09516043 106.16731219 -0.0945566 102.30223242 -0.09336853 98.43714905 C-0.09025521 91.11315318 -0.0820418 83.78917216 -0.07201904 76.46518284 C-0.06085794 68.12916552 -0.05534746 59.79314751 -0.05032361 51.45712459 C-0.03985919 34.30473965 -0.0215137 17.15237518 0 0 Z " fill="#2060df" transform="translate(109,34)"/>
<path d="M0 0 C4.3625175 2.27077045 6.85263976 4.94705774 8.99609375 9.31640625 C10.20939095 13.90183289 10.24119417 17.41259846 8.99609375 22.00390625 C6.17189924 26.6814784 3.16003445 30.29962818 -2.1796875 32.015625 C-7.58486748 32.88381453 -12.30038273 32.17541074 -17.00390625 29.31640625 C-20.41299282 26.21185347 -22.74149964 22.9657038 -23.20703125 18.265625 C-23.31269208 13.16748992 -22.96515591 9.65957242 -20.00390625 5.31640625 C-14.40510108 -0.32829077 -7.74042986 -2.64049752 0 0 Z " fill="#2060df" transform="translate(233.00390625,76.68359375)"/>
<path d="M0 0 C4.88113432 2.30744532 7.55643986 5.20338195 10 10 C11.61804054 16.07319327 11.19752962 20.45761533 8 26 C4.68324458 30.38982335 1.61853032 31.92542315 -3.66015625 32.84765625 C-8.65310967 33.17274003 -12.54059102 31.9080767 -16.8125 29.25 C-20.58262606 25.37215605 -22.16725744 21.87420962 -22.375 16.5 C-22.18035355 11.66627988 -21.07519264 8.04198956 -17.53515625 4.55859375 C-11.78801965 -0.37354548 -7.41597159 -0.74474396 0 0 Z " fill="#2060df" transform="translate(232,400)"/>
</svg>
