<!DOCTYPE svg PUBLIC "-//W3C//DTD SVG 1.1//EN" "http://www.w3.org/Graphics/SVG/1.1/DTD/svg11.dtd">
<!-- Uploaded to: SVG Repo, www.svgrepo.com, Transformed by: SVG Repo Mixer Tools -->
<svg fill="#1b5cc5" height="800px" width="800px" version="1.1" id="Layer_1" xmlns="http://www.w3.org/2000/svg" xmlns:xlink="http://www.w3.org/1999/xlink" viewBox="0 0 512.00 512.00" xml:space="preserve" transform="rotate(0)" stroke="#1b5cc5" stroke-width="0.00512">
<g id="SVGRepo_bgCarrier" stroke-width="0"/>
<g id="SVGRepo_tracerCarrier" stroke-linecap="round" stroke-linejoin="round"/>
<g id="SVGRepo_iconCarrier"> <g> <g> <path d="M493.798,123.733h-50.065v-15.932c0-10.044-8.166-18.202-18.202-18.202h-31.863c-10.035,0-18.202,8.158-18.202,18.202 v15.932H136.533v-15.932c0-10.044-8.166-18.202-18.202-18.202H86.468c-10.035,0-18.202,8.158-18.202,18.202v15.932H18.202 C8.166,123.733,0,131.891,0,141.935v100.13c0,10.035,8.166,18.202,18.202,18.202h50.065v15.932 c0,10.035,8.166,18.202,18.202,18.202h31.863c10.035,0,18.202-8.166,18.202-18.202v-15.932h59.733v93.867h-24.465 c-10.035,0-18.202,8.158-18.202,18.202v31.863c0,10.035,8.166,18.202,18.202,18.202h168.397c10.035,0,18.202-8.166,18.202-18.202 v-31.863c0-10.044-8.166-18.202-18.202-18.202h-24.465v-93.867h59.733v15.932c0,10.035,8.166,18.202,18.202,18.202h31.863 c10.035,0,18.202-8.166,18.202-18.202v-15.932h50.065c10.035,0,18.202-8.166,18.202-18.202v-100.13 C512,131.891,503.834,123.733,493.798,123.733z M119.467,132.267v119.467v24.465c0,0.623-0.512,1.135-1.135,1.135H86.468 c-0.623,0-1.135-0.512-1.135-1.135v-24.465V132.267v-24.465c0-0.631,0.512-1.135,1.135-1.135h31.863 c0.623,0,1.135,0.503,1.135,1.135V132.267z M340.198,371.2c0.623,0,1.135,0.503,1.135,1.135v31.863 c0,0.623-0.512,1.135-1.135,1.135H171.802c-0.623,0-1.135-0.512-1.135-1.135v-31.863c0-0.631,0.512-1.135,1.135-1.135h24.465 h119.467H340.198z M426.667,132.267v119.467v24.465c0,0.623-0.512,1.135-1.135,1.135h-31.863c-0.623,0-1.135-0.512-1.135-1.135 v-24.465V132.267v-24.465c0-0.631,0.512-1.135,1.135-1.135h31.863c0.623,0,1.135,0.503,1.135,1.135V132.267z"/> </g> </g> </g>
</svg>