<?xml version="1.0" encoding="UTF-8"?>
<svg version="1.1" xmlns="http://www.w3.org/2000/svg" width="512" height="512">
<path d="M0 0 C30.03 0 60.06 0 91 0 C91 9.9 91 19.8 91 30 C120.7 30 150.4 30 181 30 C181 90.06 181 150.12 181 212 C151.3 212 121.6 212 91 212 C91 221.9 91 231.8 91 242 C60.97 242 30.94 242 0 242 C0 227.15 0 212.3 0 197 C-19.8 197 -39.6 197 -60 197 C-60 146.84 -60 96.68 -60 45 C-40.2 45 -20.4 45 0 45 C0 30.15 0 15.3 0 0 Z M31 31 C31 45.85 31 60.7 31 76 C11.2 76 -8.6 76 -29 76 C-29 105.7 -29 135.4 -29 166 C-9.2 166 10.6 166 31 166 C31 180.85 31 195.7 31 211 C40.57 211 50.14 211 60 211 C60 151.6 60 92.2 60 31 C50.43 31 40.86 31 31 31 Z M91 61 C91 100.6 91 140.2 91 181 C110.47 181 129.94 181 150 181 C150 141.4 150 101.8 150 61 C130.53 61 111.06 61 91 61 Z " fill="#2060df" transform="translate(331,135)"/>
<path d="M0 0 C49.83 0 99.66 0 151 0 C151 79.86 151 159.72 151 242 C101.17 242 51.34 242 0 242 C0 232.1 0 222.2 0 212 C-29.7 212 -59.4 212 -90 212 C-90 151.94 -90 91.88 -90 30 C-60.3 30 -30.6 30 0 30 C0 20.1 0 10.2 0 0 Z M31 31 C31 90.4 31 149.8 31 211 C60.37 211 89.74 211 120 211 C120 151.6 120 92.2 120 31 C90.63 31 61.26 31 31 31 Z M-59 61 C-59 100.6 -59 140.2 -59 181 C-39.53 181 -20.06 181 0 181 C0 141.4 0 101.8 0 61 C-19.47 61 -38.94 61 -59 61 Z " fill="#2060df" transform="translate(90,135)"/>
<path d="M0 0 C10.23 0 20.46 0 31 0 C31 40.26 31 80.52 31 122 C20.77 122 10.54 122 0 122 C0 81.74 0 41.48 0 0 Z " fill="#2060df" transform="translate(150,195)"/>
<path d="M0 0 C4.08651876 0.44428867 5.94280117 2.59554735 8.765625 5.47265625 C9.65507812 6.37177734 10.54453125 7.27089844 11.4609375 8.19726562 C12.38132813 9.14279297 13.30171875 10.08832031 14.25 11.0625 C15.19461673 12.02216973 16.13992195 12.98116229 17.0859375 13.93945312 C19.39749172 16.28638828 21.7017634 18.64003391 24 21 C20.10023279 25.66874537 16.04785356 30.09127809 11.7265625 34.37109375 C11.15795502 34.93828629 10.58934753 35.50547882 10.00350952 36.08985901 C8.21303764 37.87479913 6.41909516 39.65620256 4.625 41.4375 C3.39950677 42.65796939 2.17424428 43.87867053 0.94921875 45.09960938 C-2.03119774 48.06908756 -5.01472894 51.03540257 -8 54 C-11.56764285 52.48623919 -13.83706287 50.39486871 -16.546875 47.6484375 C-17.39121094 46.79765625 -18.23554687 45.946875 -19.10546875 45.0703125 C-19.97816406 44.18085938 -20.85085937 43.29140625 -21.75 42.375 C-23.08224609 41.02921875 -23.08224609 41.02921875 -24.44140625 39.65625 C-26.63216969 37.44192996 -28.81812763 35.22307565 -31 33 C-29.70949477 30.17220989 -28.34597974 28.0859181 -26.17431641 25.86791992 C-25.60677643 25.28439255 -25.03923645 24.70086517 -24.45449829 24.09965515 C-23.84302948 23.48282364 -23.23156067 22.86599213 -22.6015625 22.23046875 C-21.97019379 21.59007156 -21.33882507 20.94967438 -20.68832397 20.28987122 C-19.35452493 18.94159069 -18.01791882 17.59608207 -16.67871094 16.25317383 C-14.62705621 14.18956818 -12.59479077 12.10804644 -10.5625 10.02539062 C-9.2641728 8.71760536 -7.96473095 7.41092553 -6.6640625 6.10546875 C-6.05664215 5.47851608 -5.4492218 4.85156342 -4.82339478 4.20561218 C-3.08447266 2.48510742 -3.08447266 2.48510742 0 0 Z " fill="#2060df" transform="translate(137,412)"/>
<path d="M0 0 C2.90543872 1.31376917 4.96661059 2.72056492 7.20800781 4.98095703 C7.80832825 5.58142853 8.40864868 6.18190002 9.02716064 6.80056763 C9.66272888 7.44645844 10.29829712 8.09234924 10.953125 8.7578125 C11.61334656 9.42086395 12.27356812 10.08391541 12.95379639 10.76705933 C15.05727824 12.88171832 17.15369142 15.00323212 19.25 17.125 C20.67662261 18.56165557 22.10370072 19.99785898 23.53125 21.43359375 C27.02613661 24.95050804 30.51470062 28.47358547 34 32 C29.61169851 37.1650813 25.11606133 42.15505087 20.375 47 C19.39273438 48.03833984 19.39273438 48.03833984 18.390625 49.09765625 C17.43542969 50.07025391 17.43542969 50.07025391 16.4609375 51.0625 C15.89165527 51.65160156 15.32237305 52.24070313 14.73583984 52.84765625 C13 54 13 54 11.0920105 53.75123596 C8.70581168 52.89435768 7.56656017 51.92969441 5.79199219 50.13256836 C5.19167175 49.53202133 4.59135132 48.9314743 3.97283936 48.31272888 C3.33727112 47.66167679 2.70170288 47.01062469 2.046875 46.33984375 C1.38665344 45.67537735 0.72643188 45.01091095 0.04620361 44.3263092 C-2.0596764 42.20364437 -4.15488328 40.07078395 -6.25 37.9375 C-7.67639232 36.49606066 -9.1034677 35.05529691 -10.53125 33.61523438 C-14.02880594 30.08461168 -17.51682565 26.54480947 -21 23 C-19.3413812 19.47655356 -17.43342692 17.20098122 -14.6484375 14.453125 C-13.79765625 13.60878906 -12.946875 12.76445313 -12.0703125 11.89453125 C-11.18085937 11.02183594 -10.29140625 10.14914063 -9.375 9.25 C-8.4778125 8.36183594 -7.580625 7.47367188 -6.65625 6.55859375 C-4.44192996 4.36783031 -2.22307565 2.18187237 0 0 Z " fill="#2060df" transform="translate(127,46)"/>
<path d="M0 0 C10.56 0 21.12 0 32 0 C32 15.18 32 30.36 32 46 C21.44 46 10.88 46 0 46 C0 30.82 0 15.64 0 0 Z " fill="#2060df" transform="translate(240,466)"/>
<path d="M0 0 C10.56 0 21.12 0 32 0 C32 15.18 32 30.36 32 46 C21.44 46 10.88 46 0 46 C0 30.82 0 15.64 0 0 Z " fill="#2060df" transform="translate(240,0)"/>
<path d="M0 0 C2.85779017 1.29719924 4.91008536 2.6636826 7.11621094 4.88916016 C7.69651062 5.4696109 8.2768103 6.05006165 8.87469482 6.64810181 C9.48838928 7.27211884 10.10208374 7.89613586 10.734375 8.5390625 C11.37240051 9.17991791 12.01042603 9.82077332 12.66778564 10.48104858 C14.69994069 12.52437821 16.72502218 14.57455982 18.75 16.625 C20.1284453 18.0134786 21.50734636 19.4015049 22.88671875 20.7890625 C26.26311894 24.18748697 29.63319288 27.59207254 33 31 C31.48623919 34.56764285 29.39486871 36.83706287 26.6484375 39.546875 C25.79765625 40.39121094 24.946875 41.23554688 24.0703125 42.10546875 C23.18085938 42.97816406 22.29140625 43.85085938 21.375 44.75 C20.4778125 45.63816406 19.580625 46.52632813 18.65625 47.44140625 C16.44192996 49.63216969 14.22307565 51.81812763 12 54 C7.33125463 50.10023279 2.90872191 46.04785356 -1.37109375 41.7265625 C-1.93828629 41.15795502 -2.50547882 40.58934753 -3.08985901 40.00350952 C-4.87479913 38.21303764 -6.65620256 36.41909516 -8.4375 34.625 C-9.65796939 33.39950677 -10.87867053 32.17424428 -12.09960938 30.94921875 C-15.06908756 27.96880226 -18.03540257 24.98527106 -21 22 C-16.61557474 16.74825074 -11.99157907 11.86777527 -7.125 7.0625 C-6.43664062 6.37865234 -5.74828125 5.69480469 -5.0390625 4.99023438 C-3.36166489 3.32448536 -1.68196209 1.6611378 0 0 Z " fill="#2060df" transform="translate(372,412)"/>
<path d="M0 0 C5.25174926 4.38442526 10.13222473 9.00842093 14.9375 13.875 C15.62134766 14.56335937 16.30519531 15.25171875 17.00976562 15.9609375 C18.67551464 17.63833511 20.3388622 19.31803791 22 21 C20.70280076 23.85779017 19.3363174 25.91008536 17.11083984 28.11621094 C16.5303891 28.69651062 15.94993835 29.2768103 15.35189819 29.87469482 C14.72788116 30.48838928 14.10386414 31.10208374 13.4609375 31.734375 C12.82008209 32.37240051 12.17922668 33.01042603 11.51895142 33.66778564 C9.47562179 35.69994069 7.42544018 37.72502218 5.375 39.75 C3.9865214 41.1284453 2.5984951 42.50734636 1.2109375 43.88671875 C-2.18748697 47.26311894 -5.59207254 50.63319288 -9 54 C-12.56764285 52.48623919 -14.83706287 50.39486871 -17.546875 47.6484375 C-18.39121094 46.79765625 -19.23554688 45.946875 -20.10546875 45.0703125 C-20.97816406 44.18085937 -21.85085938 43.29140625 -22.75 42.375 C-24.08224609 41.02921875 -24.08224609 41.02921875 -25.44140625 39.65625 C-27.63216969 37.44192996 -29.81812763 35.22307565 -32 33 C-28.10023279 28.33125463 -24.04785356 23.90872191 -19.7265625 19.62890625 C-19.15795502 19.06171371 -18.58934753 18.49452118 -18.00350952 17.91014099 C-16.21303764 16.12520087 -14.41909516 14.34379744 -12.625 12.5625 C-11.39950677 11.34203061 -10.17424428 10.12132947 -8.94921875 8.90039062 C-5.96880226 5.93091244 -2.98527106 2.96459743 0 0 Z " fill="#2060df" transform="translate(383,46)"/>
</svg>
