<!DOCTYPE svg PUBLIC "-//W3C//DTD SVG 1.1//EN" "http://www.w3.org/Graphics/SVG/1.1/DTD/svg11.dtd">
<!-- Uploaded to: SVG Repo, www.svgrepo.com, Transformed by: SVG Repo Mixer Tools -->
<svg fill="#2060df" height="800px" width="800px" version="1.1" id="Layer_1" xmlns="http://www.w3.org/2000/svg" xmlns:xlink="http://www.w3.org/1999/xlink" viewBox="0 0 512 512" xml:space="preserve" transform="matrix(-1, 0, 0, 1, 0, 0)rotate(90)">
<g id="SVGRepo_bgCarrier" stroke-width="0"/>
<g id="SVGRepo_tracerCarrier" stroke-linecap="round" stroke-linejoin="round"/>
<g id="SVGRepo_iconCarrier"> <g> <g> <path d="M488.727,232.727h-93.091c-12.853,0-23.273,10.42-23.273,23.273v23.273H232.727V139.636H256 c12.853,0,23.273-10.42,23.273-23.273V23.273C279.273,10.42,268.853,0,256,0H23.273C10.42,0,0,10.42,0,23.273v93.091 c0,12.853,10.42,23.273,23.273,23.273h23.273v219.415c0,58.77,47.633,106.403,106.403,106.403h219.415v23.273 c0,12.853,10.42,23.273,23.273,23.273h93.091C501.58,512,512,501.58,512,488.727V256C512,243.147,501.58,232.727,488.727,232.727z M46.545,46.545h186.182v46.545h-23.273H69.818H46.545V46.545z M152.948,418.909c-33.064,0-59.857-26.794-59.857-59.857V139.636 h93.091v162.909c0,12.853,10.42,23.273,23.273,23.273h162.909v93.091H152.948z M465.455,465.455h-46.545v-23.273V302.545v-23.273 h46.545V465.455z"/> </g> </g> </g>
</svg>