<?xml version="1.0" encoding="UTF-8"?>
<!DOCTYPE svg PUBLIC "-//W3C//DTD SVG 1.1//EN" "http://www.w3.org/Graphics/SVG/1.1/DTD/svg11.dtd">
<svg xmlns="http://www.w3.org/2000/svg" version="1.1" width="256px" height="256px" style="shape-rendering:geometricPrecision; text-rendering:geometricPrecision; image-rendering:optimizeQuality; fill-rule:evenodd; clip-rule:evenodd" xmlns:xlink="http://www.w3.org/1999/xlink">
<g><path style="opacity:1" fill="#1f5cda" d="M 29.5,-0.5 C 44.8333,-0.5 60.1667,-0.5 75.5,-0.5C 75.5,7.16667 75.5,14.8333 75.5,22.5C 60.1667,22.5 44.8333,22.5 29.5,22.5C 29.5,14.8333 29.5,7.16667 29.5,-0.5 Z"/></g>
<g><path style="opacity:1" fill="#1f5cda" d="M 29.5,36.5 C 44.8333,36.5 60.1667,36.5 75.5,36.5C 75.5,44.1667 75.5,51.8333 75.5,59.5C 80.5,59.5 85.5,59.5 90.5,59.5C 90.3336,67.84 90.5003,76.1733 91,84.5C 91.8333,86.6667 93.3333,88.1667 95.5,89C 121.202,89.0566 146.869,89.7233 172.5,91C 211.212,100.046 233.712,124.213 240,163.5C 240.5,174.161 240.667,184.828 240.5,195.5C 235.5,195.5 230.5,195.5 225.5,195.5C 225.5,203.167 225.5,210.833 225.5,218.5C 210.167,218.5 194.833,218.5 179.5,218.5C 179.5,210.833 179.5,203.167 179.5,195.5C 174.5,195.5 169.5,195.5 164.5,195.5C 164.666,186.827 164.5,178.16 164,169.5C 162.833,168.333 161.667,167.167 160.5,166C 134.469,165.934 108.469,165.267 82.5,164C 43.6785,154.544 21.1785,130.044 15,90.5C 14.5002,80.172 14.3335,69.8387 14.5,59.5C 19.5,59.5 24.5,59.5 29.5,59.5C 29.5,51.8333 29.5,44.1667 29.5,36.5 Z"/></g>
<g><path style="opacity:1" fill="#1f5cda" d="M 225.5,255.5 C 210.167,255.5 194.833,255.5 179.5,255.5C 179.5,247.833 179.5,240.167 179.5,232.5C 194.833,232.5 210.167,232.5 225.5,232.5C 225.5,240.167 225.5,247.833 225.5,255.5 Z"/></g>
</svg>
