<?xml version="1.0" encoding="UTF-8"?>
<svg version="1.1" xmlns="http://www.w3.org/2000/svg" width="256" height="256">
<path d="M0 0 C8.25 0 16.5 0 25 0 C25.01458252 2.20389404 25.02916504 4.40778809 25.04418945 6.6784668 C25.0948039 14.00671418 25.16144406 21.33475504 25.23571491 28.66279888 C25.2802093 33.10045704 25.31950988 37.53802779 25.34643555 41.97583008 C25.37267949 46.26838619 25.4132261 50.56060209 25.46318626 54.85294533 C25.47971381 56.48052511 25.49131504 58.10816354 25.49761391 59.73581505 C25.57002993 76.74757767 27.83083138 90.27016452 39.6875 103.3125 C47.98995233 111.10403219 58.07870921 113.86322571 69 116 C69 124.25 69 132.5 69 141 C48.88635116 140.32201184 31.93923969 132.70434375 18 118 C6.20695858 104.18167776 -0.20732128 87.26439844 -0.11352539 69.13696289 C-0.11374443 68.00889221 -0.11374443 68.00889221 -0.1139679 66.85803223 C-0.11327662 64.39620989 -0.10552131 61.93446521 -0.09765625 59.47265625 C-0.09578928 57.7563023 -0.09436669 56.03994781 -0.09336853 54.32359314 C-0.08956533 49.82407133 -0.07975398 45.32458221 -0.06866455 40.82507324 C-0.05840302 36.22648562 -0.05386078 31.62789267 -0.04882812 27.02929688 C-0.03812959 18.01951463 -0.02055075 9.00976516 0 0 Z " fill="#2060DF" transform="translate(57,90)"/>
<path d="M0 0 C8.25 0 16.5 0 25 0 C25.06817009 9.78048457 25.12304131 19.5608076 25.15543652 29.34147739 C25.17099592 33.8845621 25.19205304 38.4274738 25.22631836 42.97045898 C25.2592631 47.36659853 25.27692582 51.76257322 25.28463173 56.15882683 C25.29011299 57.8238986 25.30081342 59.48896284 25.31719017 61.15396309 C25.53731067 84.49245107 19.8471849 104.04534712 3.59765625 121.515625 C-9.35488298 133.90331665 -26.08191055 141 -44 141 C-44 132.75 -44 124.5 -44 116 C-41.545625 115.443125 -39.09125 114.88625 -36.5625 114.3125 C-23.95533839 111.26408349 -14.92964516 105.5963664 -7.609375 94.76171875 C-2.78948852 86.49069995 -0.87346105 77.93751692 -0.79467773 68.45581055 C-0.78477814 67.71380905 -0.77487854 66.97180756 -0.76467896 66.20732117 C-0.73321966 63.76715225 -0.70836846 61.32696391 -0.68359375 58.88671875 C-0.66301076 57.18992115 -0.64201394 55.49312852 -0.62062073 53.79634094 C-0.56553896 49.33958982 -0.51606864 44.8827935 -0.46777344 40.42596436 C-0.4174567 35.87443031 -0.36182383 31.32296156 -0.30664062 26.77148438 C-0.19922909 17.84771007 -0.09823818 8.92388001 0 0 Z " fill="#2060DF" transform="translate(174,90)"/>
<path d="M0 0 C0.85049927 -0.00287018 1.70099854 -0.00574036 2.57727051 -0.00869751 C4.37264676 -0.01073593 6.16804533 -0.00522156 7.96337891 0.00732422 C10.70916472 0.02338145 13.45347863 0.00746847 16.19921875 -0.01171875 C17.94531574 -0.00973628 19.69141182 -0.00589252 21.4375 0 C22.25738403 -0.00607269 23.07726807 -0.01214539 23.92199707 -0.0184021 C27.25104188 0.0226104 29.75085782 0.14681263 32.71289062 1.73974609 C34.92799947 4.17966981 35.08631146 6.15369333 35.21875 9.3984375 C34.59375 11.6484375 34.59375 11.6484375 33.21875 13.3984375 C28.97839449 15.61778166 24.93066302 15.69023255 20.25 15.6640625 C19.49207153 15.66597595 18.73414307 15.6678894 17.95324707 15.66986084 C16.35636054 15.67121727 14.75946278 15.6675588 13.16259766 15.65917969 C10.72663463 15.64847216 8.291409 15.65909307 5.85546875 15.671875 C4.29947755 15.67055331 2.7434868 15.66799072 1.1875 15.6640625 C0.46340942 15.66811096 -0.26068115 15.67215942 -1.00671387 15.67633057 C-5.02663396 15.63929097 -8.19826619 15.27372229 -11.78125 13.3984375 C-13.7608725 10.87891795 -13.78782316 9.55948004 -13.65625 6.3359375 C-12.78125 3.3984375 -12.78125 3.3984375 -11.27539062 1.73974609 C-7.62051844 -0.22578521 -4.04860144 -0.02998706 0 0 Z " fill="#205FDE" transform="translate(175.78125,24.6015625)"/>
<path d="M0 0 C0.85332916 -0.00807175 1.70665833 -0.01614349 2.58584595 -0.02445984 C4.39314746 -0.03830023 6.2004751 -0.04902259 8.0078125 -0.05688477 C10.77133663 -0.07410827 13.53366766 -0.11799467 16.296875 -0.16210938 C18.05207453 -0.17223541 19.80728423 -0.18075179 21.5625 -0.1875 C22.38865814 -0.20500809 23.21481628 -0.22251617 24.06600952 -0.24055481 C29.81563849 -0.2188238 29.81563849 -0.2188238 32.90869141 2.14379883 C35.33153257 5.5147937 35.33153257 5.5147937 35.4140625 8.23828125 C34.13164449 11.23058995 33.18326165 12.83008445 30.28125 14.37011719 C26.71241319 15.45073569 23.35622683 15.52519253 19.6640625 15.50390625 C18.56046387 15.50677643 18.56046387 15.50677643 17.43457031 15.50970459 C15.88476213 15.51106075 14.33494237 15.50740414 12.78515625 15.49902344 C10.42161385 15.48831546 8.05883144 15.49893766 5.6953125 15.51171875 C4.18489417 15.51039705 2.6744763 15.50783445 1.1640625 15.50390625 C0.1107373 15.50997894 0.1107373 15.50997894 -0.96386719 15.51617432 C-4.92210238 15.47860373 -8.08724747 15.15446194 -11.5859375 13.23828125 C-13.0859375 10.48828125 -13.0859375 10.48828125 -13.5859375 7.23828125 C-10.72167918 -0.35200331 -7.43653057 0.06616805 0 0 Z " fill="#2060DF" transform="translate(58.5859375,24.76171875)"/>
<path d="M0 0 C11.55 0 23.1 0 35 0 C35 5.28 35 10.56 35 16 C23.45 16 11.9 16 0 16 C0 10.72 0 5.44 0 0 Z " fill="#2060DF" transform="translate(169,70)"/>
<path d="M0 0 C11.55 0 23.1 0 35 0 C35 5.28 35 10.56 35 16 C23.45 16 11.9 16 0 16 C0 10.72 0 5.44 0 0 Z " fill="#2060DF" transform="translate(52,70)"/>
<path d="M0 0 C8.25 0 16.5 0 25 0 C25 7.26 25 14.52 25 22 C16.75 22 8.5 22 0 22 C0 14.74 0 7.48 0 0 Z " fill="#205FDE" transform="translate(174,44)"/>
<path d="M0 0 C8.25 0 16.5 0 25 0 C25 7.26 25 14.52 25 22 C16.75 22 8.5 22 0 22 C0 14.74 0 7.48 0 0 Z " fill="#205FDE" transform="translate(57,44)"/>
<path d="M0 0 C6.93 0 13.86 0 21 0 C21.66 1.32 22.32 2.64 23 4 C21 6 21 6 18.84521484 6.22705078 C17.97590332 6.21657715 17.1065918 6.20610352 16.2109375 6.1953125 C15.26992187 6.18886719 14.32890625 6.18242188 13.359375 6.17578125 C12.37453125 6.15902344 11.3896875 6.14226562 10.375 6.125 C9.38242188 6.11597656 8.38984375 6.10695313 7.3671875 6.09765625 C4.91121866 6.07404116 2.45572832 6.04110799 0 6 C0 4.02 0 2.04 0 0 Z " fill="#2060DE" transform="translate(208,75)"/>
<path d="M0 0 C0.86931152 0.01047363 1.73862305 0.02094727 2.63427734 0.03173828 C3.57529297 0.03818359 4.51630859 0.04462891 5.48583984 0.05126953 C6.47068359 0.06802734 7.45552734 0.08478516 8.47021484 0.10205078 C9.46279297 0.11107422 10.45537109 0.12009766 11.47802734 0.12939453 C13.93399618 0.15300962 16.38948653 0.18594279 18.84521484 0.22705078 C18.84521484 2.20705078 18.84521484 4.18705078 18.84521484 6.22705078 C11.91521484 6.22705078 4.98521484 6.22705078 -2.15478516 6.22705078 C-2.81478516 4.90705078 -3.47478516 3.58705078 -4.15478516 2.22705078 C-2.15478516 0.22705078 -2.15478516 0.22705078 0 0 Z " fill="#2060DE" transform="translate(29.15478515625,74.77294921875)"/>
</svg>
