<?xml version="1.0" encoding="UTF-8"?>
<svg version="1.1" xmlns="http://www.w3.org/2000/svg" width="512" height="512">
<path d="M0 0 C0 20.46 0 40.92 0 62 C22.72929389 50.29502909 22.72929389 50.29502909 45.37890625 38.4375 C52.83072022 34.50254873 60.29812749 30.59771952 67.78125 26.72265625 C70.82573091 25.1444191 73.85008406 23.54359216 76.84375 21.87109375 C84.77857963 17.55302359 84.77857963 17.55302359 89.4375 17.75 C92.91025593 18.96851085 94.99644663 20.08000611 97.1484375 23.125 C98.76527741 26.68501449 99.06338415 30.24687946 98 34 C94.27866673 39.25802553 90.48919721 41.74942381 84.75390625 44.5390625 C83.95462708 44.94213623 83.1553479 45.34520996 82.33184814 45.76049805 C79.74799565 47.06089727 77.15536452 48.34268001 74.5625 49.625 C71.88609003 50.96771206 69.21232058 52.31557244 66.53886414 53.66415405 C64.77909488 54.55183092 63.01861053 55.43809163 61.25740051 56.32290649 C54.69806664 59.62401044 48.23050573 63.05569227 41.8125 66.625 C34.28826018 70.79676975 26.6813402 74.74588579 18.9543457 78.52978516 C14.65065514 80.64266527 10.41297182 82.8431865 6.20776367 85.14697266 C5.22901779 85.68262848 4.25027191 86.2182843 3.24186707 86.77017212 C2.13214287 87.37893692 2.13214287 87.37893692 1 88 C0.99786247 89.48338364 0.99786247 89.48338364 0.99568176 90.99673462 C0.97899842 100.32512558 0.93618409 109.65308105 0.86790943 118.98124123 C0.83364639 123.77678279 0.80853052 128.57200602 0.80444336 133.36767578 C0.80015893 137.99748992 0.77168444 142.62658601 0.72656822 147.25617599 C0.7135978 149.02072337 0.70928394 150.78535669 0.71384621 152.54994583 C0.71875567 155.02578104 0.6926477 157.49952041 0.65942383 159.97509766 C0.67236229 161.0648288 0.67236229 161.0648288 0.68556213 162.17657471 C0.55779665 167.87122883 -1.08469825 170.15512095 -5 174 C-6.88671875 175.37986755 -6.88671875 175.37986755 -8.6875 176.27905273 C-9.37541626 176.63116318 -10.06333252 176.98327362 -10.77209473 177.34605408 C-11.87490784 177.88438622 -11.87490784 177.88438622 -13 178.43359375 C-14.17000549 179.02576439 -14.17000549 179.02576439 -15.36364746 179.62989807 C-17.90294913 180.91176734 -20.45128945 182.17445804 -23 183.4375 C-24.76962339 184.32729954 -26.5384978 185.21859014 -28.30664062 186.11132812 C-31.86183408 187.90511581 -35.41994502 189.69289174 -38.98046875 191.47607422 C-45.2575495 194.62518357 -51.49785281 197.84362048 -57.72991943 201.08068848 C-59.49778293 201.99884854 -61.26671346 202.91495311 -63.03564453 203.83105469 C-72.18589568 208.57043551 -81.32503035 213.33102831 -90.45703125 218.10546875 C-94.22168101 220.07336899 -97.9902118 222.03355618 -101.76171875 223.98828125 C-103.6954953 224.99183534 -105.62908948 225.99574092 -107.5625 227 C-108.97825317 227.73524902 -108.97825317 227.73524902 -110.42260742 228.48535156 C-116.26770234 231.53479219 -122.05980463 234.66801734 -127.8293457 237.85791016 C-144.46631103 247.05250874 -144.46631103 247.05250874 -153 250 C-153.66 250.22945312 -154.32 250.45890625 -155 250.6953125 C-176.45359733 257.04200171 -195.93754467 249.96549447 -214.625 239.875 C-218.76256198 237.60552243 -222.88361715 235.30762918 -227 233 C-227.97163086 232.45843262 -228.94326172 231.91686523 -229.94433594 231.35888672 C-232.63586271 229.85425172 -235.31967736 228.33698813 -238 226.8125 C-238.81291504 226.35536621 -239.62583008 225.89823242 -240.46337891 225.42724609 C-242.3436051 224.34286537 -244.17798929 223.17958005 -246 222 C-246 221.34 -246 220.68 -246 220 C-244.91807373 219.44650879 -243.83614746 218.89301758 -242.72143555 218.32275391 C-238.60742604 216.21773774 -234.49416679 214.1112589 -230.38110352 212.00439453 C-228.61958091 211.10231869 -226.85786984 210.20061076 -225.09594727 209.29931641 C-219.92613432 206.65457072 -214.76066812 204.00160834 -209.60003662 201.33898926 C-207.8563545 200.44101282 -206.11125744 199.54577896 -204.36480713 198.65319824 C-201.80854382 197.3461137 -199.25737685 196.02952355 -196.70703125 194.7109375 C-195.94790939 194.32539703 -195.18878754 193.93985657 -194.40666199 193.54263306 C-187.77437113 190.09211125 -180.0849131 186.06790579 -176.625 179.1171875 C-175.07463932 173.86534071 -174.85068537 167.8633787 -176.90625 162.7421875 C-177.86020726 161.11364618 -178.92218764 159.54935527 -180 158 C-180 157.34 -180 156.68 -180 156 C-181.32258472 155.31225595 -182.65986503 154.65288627 -184 154 C-185.051875 153.46375 -186.10375 152.9275 -187.1875 152.375 C-191.94899456 150.38119917 -197.0441649 150.12846728 -202.01538086 151.59423828 C-204.02222931 152.43731427 -205.94235465 153.37355754 -207.875 154.375 C-208.60420654 154.73585693 -209.33341309 155.09671387 -210.0847168 155.46850586 C-212.40129786 156.62445442 -214.7017018 157.80816334 -217 159 C-217.71913574 159.36915527 -218.43827148 159.73831055 -219.17919922 160.11865234 C-228.19799919 164.7595128 -237.11397444 169.59576001 -246.04931641 174.39453125 C-248.43167857 175.6732578 -250.81549482 176.94921007 -253.20068359 178.22265625 C-253.79284668 178.53883911 -254.38500977 178.85502197 -254.99511719 179.18078613 C-256.1945801 179.82115664 -257.39412451 180.46137453 -258.59375 181.10144043 C-262.20886415 183.03314156 -265.8114698 184.98614513 -269.40618896 186.95552063 C-272.24275104 188.50453516 -275.09134719 190.03119847 -277.9375 191.5625 C-279.50008545 192.43032104 -279.50008545 192.43032104 -281.09423828 193.31567383 C-282.54612549 194.08947388 -282.54612549 194.08947388 -284.02734375 194.87890625 C-285.29179321 195.56835327 -285.29179321 195.56835327 -286.58178711 196.27172852 C-289.79660847 197.23990743 -291.06141691 196.52307617 -294 195 C-294.74378906 194.62439941 -295.48757813 194.24879883 -296.25390625 193.86181641 C-297.01574219 193.44593262 -297.77757812 193.03004883 -298.5625 192.6015625 C-299.43213379 192.1279126 -300.30176758 191.6542627 -301.19775391 191.16625977 C-302.12249512 190.65764404 -303.04723633 190.14902832 -304 189.625 C-304.9595459 189.09769287 -305.9190918 188.57038574 -306.90771484 188.02709961 C-308.92110816 186.91751444 -310.93329457 185.80573677 -312.94433594 184.69189453 C-314.96651653 183.57223078 -316.99058273 182.45596517 -319.01660156 181.34326172 C-321.89256164 179.7610567 -324.75979782 178.16408748 -327.625 176.5625 C-328.50671875 176.0792627 -329.3884375 175.59602539 -330.296875 175.09814453 C-338.81845744 170.28805852 -338.81845744 170.28805852 -341 166 C-342.09250299 158.24694948 -342.17174395 150.35696604 -342.28125 142.5390625 C-342.3190068 140.41796869 -342.35676733 138.29687494 -342.39453125 136.17578125 C-342.44827986 132.88429499 -342.50050634 129.59278794 -342.55224609 126.30126953 C-342.60409859 123.08879335 -342.66124846 119.87644175 -342.71875 116.6640625 C-342.73232544 115.68273346 -342.74590088 114.70140442 -342.7598877 113.69033813 C-342.84446763 109.02656987 -343.05160144 104.58744608 -344 100 C-355.31352493 105.54928233 -366.53084853 111.21934733 -377.5625 117.3125 C-399.77004109 129.49315324 -399.77004109 129.49315324 -405.5 129.25 C-408.92912216 128.02531352 -411.01515744 126.88545649 -413.15234375 123.87890625 C-414.74569537 120.34709919 -414.94287146 116.73897302 -414 113 C-410.76084307 107.29466677 -405.08994326 105.12032175 -399.4375 102.3125 C-397.34223547 101.24651122 -395.24718623 100.18009918 -393.15234375 99.11328125 C-392.10933105 98.58686035 -391.06631836 98.06043945 -389.99169922 97.51806641 C-385.80261133 95.39241368 -381.65034247 93.20006269 -377.5 91 C-372.2563403 88.2313295 -367.00437973 85.47939936 -361.7421875 82.74609375 C-360.68451172 82.19630859 -359.62683594 81.64652344 -358.53710938 81.08007812 C-356.45851897 80.00034092 -354.37911465 78.92216885 -352.29882812 77.84570312 C-350.89407227 77.11577148 -350.89407227 77.11577148 -349.4609375 76.37109375 C-348.62353027 75.93724365 -347.78612305 75.50339355 -346.92333984 75.05639648 C-345.05201627 74.14513711 -345.05201627 74.14513711 -344 73 C-343.93561338 71.00485039 -343.94311902 69.00735334 -343.97827148 67.01147461 C-343.99836777 65.73022202 -344.01846405 64.44896942 -344.03916931 63.12889099 C-344.06636984 61.72003983 -344.09368061 60.31119079 -344.12109375 58.90234375 C-344.1453849 57.46888457 -344.16922895 56.03541775 -344.19264221 54.60194397 C-344.25558332 50.82232992 -344.3246213 47.04285053 -344.39489746 43.2633667 C-344.46549062 39.40936434 -344.53036146 35.55526622 -344.59570312 31.70117188 C-344.72484461 24.13400871 -344.86042231 16.56697862 -345 9 C-340.33038279 9.82212673 -336.44642291 11.54804772 -332.2265625 13.6484375 C-331.47490814 14.01665619 -330.72325378 14.38487488 -329.94882202 14.76425171 C-327.50497201 15.96266819 -325.06506524 17.16889904 -322.625 18.375 C-320.93132642 19.20674093 -319.23731392 20.03779208 -317.54296875 20.86816406 C-315.01486923 22.10716058 -312.48693139 23.34646846 -309.96002197 24.58789062 C-303.65932369 27.68284918 -297.33927134 30.73476754 -291 33.75 C-283.15417996 37.48812485 -275.32108243 41.25189691 -267.49606323 45.03335571 C-263.78368859 46.82726746 -260.07064739 48.61979936 -256.35774231 50.41261292 C-253.47994805 51.8022363 -250.60233106 53.19222345 -247.72509766 54.58300781 C-241.57637346 57.553729 -235.42054197 60.50886948 -229.25537109 63.4453125 C-226.35001583 64.8328408 -223.44952232 66.2301107 -220.54994202 67.62965393 C-218.05997062 68.8274959 -215.56449594 70.01353997 -213.06765747 71.19699097 C-211.31626244 72.03094799 -209.5709577 72.87765857 -207.82592773 73.72485352 C-197.28200814 78.69470307 -186.82699975 81.59090598 -175.125 81.4375 C-174.27131836 81.42847656 -173.41763672 81.41945313 -172.53808594 81.41015625 C-161.63142244 81.11615409 -152.20639818 78.31824788 -142.54296875 73.37109375 C-141.85214706 73.02143051 -141.16132538 72.67176727 -140.4495697 72.31150818 C-133.63864781 68.84875685 -126.88805131 65.272799 -120.1477356 61.67504883 C-106.38594594 54.33263486 -92.56091916 47.12046078 -78.67797852 40.01000977 C-71.6939302 36.43089021 -64.73238686 32.81344387 -57.79296875 29.1484375 C-46.96236254 23.43069775 -36.05690263 17.86181641 -25.14697266 12.29736328 C-22.61288196 11.00434315 -20.07983229 9.70930115 -17.546875 8.4140625 C-16.41085846 7.83587265 -16.41085846 7.83587265 -15.25189209 7.2460022 C-11.81074176 5.48541926 -8.42384453 3.68269458 -5.09082031 1.72412109 C-2 0 -2 0 0 0 Z " fill="#FFD800" transform="translate(414,190)"/>
<path d="M0 0 C2.5740497 1.25434168 5.14988917 2.50496373 7.7265625 3.75390625 C8.37658234 4.0690065 9.02660217 4.38410675 9.69631958 4.70875549 C17.34608455 8.40696535 25.06550618 11.95315714 32.78320312 15.50683594 C39.22184094 18.48257002 45.62886973 21.51197943 52.0078125 24.61328125 C52.718237 24.95858383 53.4286615 25.30388641 54.16061401 25.65965271 C57.62708682 27.34654867 61.09039932 29.03964316 64.55029297 30.73999023 C65.80434003 31.35274675 67.05840797 31.96546053 68.3125 32.578125 C69.41207031 33.11856445 70.51164062 33.65900391 71.64453125 34.21582031 C74.967375 35.81457712 74.967375 35.81457712 78.5 36.5 C81.49052969 35.37443481 81.49052969 35.37443481 84.671875 33.59765625 C85.26710464 33.28444931 85.86233429 32.97124237 86.4756012 32.64854431 C87.74772124 31.97741446 89.01698567 31.30084878 90.28359985 30.61938477 C92.25461996 29.5600169 94.23354048 28.51710927 96.21557617 27.47851562 C101.72845767 24.58536073 107.22032012 21.65514226 112.69140625 18.68359375 C114.06500802 17.95554774 115.43869507 17.22766258 116.8125 16.5 C117.94300781 15.88125 119.07351563 15.2625 120.23828125 14.625 C124.59435306 13.12254649 127.01157341 13.49533664 131.5 14.5 C134.69877975 17.16564979 136.13661405 18.67020705 136.94140625 22.72265625 C137.14162174 26.59133618 137.07728991 28.66139894 134.82421875 31.93432617 C132.29228597 34.72929273 130.09627737 36.09378237 126.74609375 37.796875 C125.64458984 38.36277344 124.54308594 38.92867187 123.40820312 39.51171875 C121.69020508 40.37216797 121.69020508 40.37216797 119.9375 41.25 C118.78830078 41.83910156 117.63910156 42.42820313 116.45507812 43.03515625 C108.06288933 47.31237022 108.06288933 47.31237022 104.5 48.5 C104.5 49.16 104.5 49.82 104.5 50.5 C105.345625 50.76425781 106.19125 51.02851563 107.0625 51.30078125 C117.54014154 54.95604938 126.82841953 59.15683906 131.9375 69.375 C132.99283981 75.23799895 132.5944571 80.39564739 129.4375 85.5625 C126.28052599 89.24386421 122.61007739 91.18200473 118.30078125 93.234375 C117.59697327 93.57765335 116.89316528 93.9209317 116.16802979 94.27461243 C114.6869893 94.99618522 113.20427845 95.71433862 111.72000122 96.42922974 C109.59697283 97.45322722 107.47997495 98.48855943 105.36499023 99.52905273 C101.16576541 101.59379504 96.95895249 103.64267191 92.75 105.6875 C91.99609985 106.05405701 91.24219971 106.42061401 90.4654541 106.79827881 C79.31675381 112.21477332 68.11777737 117.50317188 56.85839844 122.6862793 C48.18733087 126.68797574 39.58635997 130.82086427 31 135 C17.5738868 141.53312247 4.07797088 147.9018668 -9.49804688 154.11816406 C-11.48946177 155.03483682 -13.47527379 155.96378684 -15.45507812 156.90527344 C-24.00622309 160.92813167 -31.39460142 162.85097564 -40.875 162.8125 C-41.66132813 162.82861328 -42.44765625 162.84472656 -43.2578125 162.86132812 C-56.23670561 162.8719318 -67.22207318 156.51698076 -78.625 151 C-80.40050982 150.14774953 -82.17639622 149.2962832 -83.95263672 148.44555664 C-87.6391636 146.67914483 -91.32405597 144.90938857 -95.0078125 143.13720703 C-102.70851034 139.43558767 -110.42817163 135.77402971 -118.14804077 132.11260986 C-120.63402726 130.93321732 -123.11946978 129.75268614 -125.60473633 128.57177734 C-134.72954577 124.2362418 -143.85769403 119.90784377 -152.9907074 115.58961487 C-157.01477037 113.68672239 -161.03761726 111.78136134 -165.05737305 109.86938477 C-166.59810755 109.13680374 -168.13887852 108.40429939 -169.6796875 107.671875 C-170.79924583 107.13964577 -170.79924583 107.13964577 -171.94142151 106.59666443 C-176.17182162 104.59007041 -180.41378278 102.61196524 -184.67164612 100.66433716 C-186.58375247 99.78810695 -188.49203415 98.90407942 -190.39916992 98.01708984 C-192.66556396 96.96528785 -194.93867397 95.92776676 -197.2199707 94.90869141 C-203.72381206 91.86429548 -208.47539773 88.54614705 -212.5 82.5 C-214.30928344 77.07214968 -214.31051295 71.62598516 -212.0625 66.3125 C-207.01649025 57.76306637 -195.7727013 53.99539567 -187.1875 49.9375 C-185.90115498 49.32319808 -184.61502647 48.70844259 -183.32910156 48.09326172 C-173.69205476 43.49387403 -164.00262305 39.00779204 -154.30541992 34.53686523 C-145.1485505 30.30155029 -136.06822302 25.92113455 -127 21.5 C-114.47744688 15.3970771 -101.90535974 9.42812393 -89.2421875 3.62109375 C-84.63411531 1.50454098 -80.06349037 -0.67533525 -75.5078125 -2.90234375 C-46.43684186 -17.00198089 -28.45649286 -13.94715609 0 0 Z M-55.375 31.75 C-56.92422013 35.53698255 -56.68529129 37.59551105 -55.5 41.5 C-51.51994128 45.27632156 -47.64180811 47.63956867 -42.63671875 49.9609375 C-41.97991119 50.26839401 -41.32310364 50.57585052 -40.64639282 50.8926239 C-38.49743458 51.89563541 -36.34269041 52.88545998 -34.1875 53.875 C-32.67637448 54.57674272 -31.16555559 55.27914608 -29.6550293 55.98217773 C-17.74573193 61.51281337 -5.79596932 66.95845853 6.17114258 72.36279297 C6.80994858 72.65160339 7.44875458 72.94041382 8.10691833 73.23797607 C9.36547482 73.80599152 10.62487186 74.3721486 11.88514709 74.93634033 C15.12497481 76.39339349 18.32871464 77.89921702 21.50634766 79.48779297 C22.16826614 79.81315536 22.83018463 80.13851776 23.51216125 80.47373962 C25.33903066 81.37535677 27.15774305 82.29344853 28.97583008 83.21264648 C33.47577963 84.85644517 37.99181761 85.57561522 42.55859375 83.6171875 C45.00703259 81.41151172 46.43915487 79.66821889 47.5625 76.5625 C47.48370327 72.70146026 46.53972045 70.77540172 44.5 67.5 C41.7845287 65.55435268 41.7845287 65.55435268 38.3125 64.0625 C37.6330835 63.741604 36.95366699 63.42070801 36.25366211 63.09008789 C34.63710543 62.32958744 33.0163378 61.5780051 31.39257812 60.83300781 C28.07843318 59.3057263 24.78112346 57.74401691 21.484375 56.1796875 C7.19258723 49.41202059 -7.16655028 42.79287884 -21.5625 36.25 C-22.26664032 35.9298996 -22.97078064 35.60979919 -23.69625854 35.27999878 C-27.95972521 33.3433794 -32.22359062 31.40790259 -36.5 29.5 C-37.12188202 29.22192505 -37.74376404 28.9438501 -38.38449097 28.65734863 C-45.49946821 25.52931092 -50.11409893 25.43691872 -55.375 31.75 Z M-91.9375 51.3125 C-92.82511836 54.76434916 -92.46152953 57.07455106 -91.5 60.5 C-87.5256784 64.28236633 -83.64106567 66.63991301 -78.63671875 68.9609375 C-77.97991119 69.26839401 -77.32310364 69.57585052 -76.64639282 69.8926239 C-74.49743458 70.89563541 -72.34269041 71.88545998 -70.1875 72.875 C-68.67637448 73.57674272 -67.16555559 74.27914608 -65.6550293 74.98217773 C-53.74573193 80.51281337 -41.79596932 85.95845853 -29.82885742 91.36279297 C-29.18980972 91.65152283 -28.55076202 91.94025269 -27.89234924 92.23773193 C-26.63565954 92.80528416 -25.37869673 93.37223211 -24.1214447 93.9385376 C-20.86138086 95.41173859 -17.61722841 96.91251955 -14.38818359 98.45263672 C-13.71272995 98.7734874 -13.03727631 99.09433807 -12.34135437 99.4249115 C-11.05630752 100.03717663 -9.77343634 100.65403829 -8.49324036 101.27638245 C-2.42502782 104.18291533 -2.42502782 104.18291533 4.0625 103.8125 C7.96882298 101.70909532 10.04307927 99.90122358 11.4375 95.625 C11.51665625 91.66718759 10.5960228 89.8475736 8.5 86.5 C5.7845287 84.55435268 5.7845287 84.55435268 2.3125 83.0625 C1.6330835 82.741604 0.95366699 82.42070801 0.25366211 82.09008789 C-1.36289457 81.32958744 -2.9836622 80.5780051 -4.60742188 79.83300781 C-7.92156682 78.3057263 -11.21887654 76.74401691 -14.515625 75.1796875 C-28.80741277 68.41202059 -43.16655028 61.79287884 -57.5625 55.25 C-58.26664032 54.9298996 -58.97078064 54.60979919 -59.69625854 54.27999878 C-76.48880049 44.59638477 -76.48880049 44.59638477 -91.9375 51.3125 Z M-126.5 68.5 C-128.2634617 71.41354542 -128.50837516 73.09799234 -128.4375 76.5 C-126.93784753 81.29888789 -123.81785002 83.76667334 -119.49023438 86.17480469 C-118.36939453 86.66883789 -117.24855469 87.16287109 -116.09375 87.671875 C-115.15604767 88.09156303 -115.15604767 88.09156303 -114.19940186 88.51972961 C-112.13737175 89.44018753 -110.06877407 90.3448151 -108 91.25 C-106.54335071 91.89767152 -105.08730709 92.54670673 -103.63183594 93.19702148 C-101.33358283 94.22375062 -99.03498987 95.24962915 -96.73455811 96.27146912 C-88.50665384 99.92789949 -80.32706237 103.6876484 -72.15014648 107.4564209 C-69.80964957 108.5350112 -67.46843836 109.61203369 -65.12695312 110.68847656 C-64.38856201 111.02807404 -63.6501709 111.36767151 -62.8894043 111.71755981 C-61.44970057 112.37943366 -60.00976492 113.04080332 -58.56958008 113.70162964 C-55.27558264 115.21466589 -51.98761192 116.73811522 -48.71289062 118.29248047 C-47.56498047 118.83404785 -46.41707031 119.37561523 -45.234375 119.93359375 C-44.24147461 120.40724365 -43.24857422 120.88089355 -42.22558594 121.36889648 C-37.86045439 123.18040262 -35.46939542 123.78413314 -30.875 122.4375 C-26.92398323 120.16932371 -25.85361557 118.81464964 -24.5 114.5 C-24.5 110.55373019 -25.06206724 109.00138268 -27.66699219 106.01904297 C-30.62556944 103.38834665 -33.23891437 101.90474384 -36.828125 100.2578125 C-37.44163818 99.97268799 -38.05515137 99.68756348 -38.68725586 99.39379883 C-40.70342071 98.46014197 -42.72643761 97.54249929 -44.75 96.625 C-46.17456357 95.96947734 -47.59871023 95.313048 -49.02246094 94.65576172 C-52.75660013 92.93563669 -56.49706162 91.22975962 -60.23974609 89.52832031 C-62.46438228 88.51620456 -64.68753655 87.50091048 -66.91015625 86.484375 C-74.57674688 82.97836331 -82.25119806 79.49044602 -89.93518066 76.02272034 C-93.91548164 74.2240865 -97.88332462 72.40072606 -101.84375 70.55859375 C-102.7728418 70.12981934 -103.70193359 69.70104492 -104.65917969 69.25927734 C-106.31953969 68.49230743 -107.97676858 67.71850018 -109.62988281 66.93603516 C-116.76006837 63.66334746 -120.31303344 63.41293861 -126.5 68.5 Z " fill="#FFD800" transform="translate(282.5,82.5)"/>
<path d="M0 0 C3.19877975 2.66564979 4.63661405 4.17020705 5.44140625 8.22265625 C5.72186749 13.6418912 4.68292836 15.90384205 1 20 C-1.44750977 21.60229492 -1.44750977 21.60229492 -4.19140625 22.98046875 C-5.2086377 23.49939697 -6.22586914 24.0183252 -7.27392578 24.55297852 C-8.35915527 25.09237061 -9.44438477 25.6317627 -10.5625 26.1875 C-12.84268025 27.34589695 -15.1226263 28.50475503 -17.40234375 29.6640625 C-18.52753418 30.23157227 -19.65272461 30.79908203 -20.81201172 31.38378906 C-25.10877766 33.5621158 -29.36903217 35.80580645 -33.625 38.0625 C-40.57241494 41.72937803 -47.53349736 45.36952855 -54.5 49 C-62.2680192 53.04838494 -70.02702893 57.11315166 -77.77490234 61.19995117 C-82.16943696 63.51606497 -86.56998641 65.82014903 -90.9765625 68.11328125 C-91.99814453 68.64501953 -93.01972656 69.17675781 -94.07226562 69.72460938 C-96.04695441 70.75175076 -98.02217938 71.77786225 -99.99804688 72.80273438 C-105.05893136 75.43525391 -110.05008073 78.13182818 -114.95581055 81.04516602 C-118.61570132 82.75468863 -122.09410192 82.88670482 -126 82 C-128.99335022 80.68844823 -129.80682823 79.68663541 -132 77 C-133.05352131 73.91873336 -133.51868122 71.2232333 -133 68 C-130.10033134 62.16260929 -126.30455994 60.1003827 -120.6875 57.375 C-118.97248257 56.50815604 -117.25764677 55.64095264 -115.54296875 54.7734375 C-114.63981934 54.32323242 -113.73666992 53.87302734 -112.80615234 53.40917969 C-108.00650882 50.99891847 -103.25688297 48.49327655 -98.5 46 C-96.53535053 44.97488798 -94.57050837 43.95014519 -92.60546875 42.92578125 C-81.09200676 36.91799309 -69.60402979 30.86792928 -58.16650391 24.71655273 C-46.79892784 18.60385149 -35.39729949 12.56325318 -23.9375 6.625 C-23.30459045 6.29617828 -22.67168091 5.96735657 -22.01959229 5.62857056 C-20.23179604 4.70041876 -18.44211207 3.77590581 -16.65234375 2.8515625 C-15.63132568 2.32385254 -14.61030762 1.79614258 -13.55834961 1.25244141 C-8.87756253 -1.03904039 -5.00995874 -1.54977323 0 0 Z " fill="#FFD800" transform="translate(225,351)"/>
</svg>
